<svg xmlns="http://www.w3.org/2000/svg" viewBox="0 0 32 17"><path fill="#E66235" d="M31 17.051c-.6 0-1-.4-1-1 0-4.8-2.4-9.3-6.5-11.8-.5-.4-.6-1-.3-1.5s.9-.6 1.4-.3c4.7 3 7.5 8 7.4 13.5 0 .6-.4 1.1-1 1.1zM1 17.051c-.6 0-1-.4-1-1 0-4.3 1.7-8.3 4.7-11.3s7-4.7 11.3-4.7c1.5 0 2.9.2 4.3.6.6.1.9.6.7 1.2-.1.5-.7.8-1.2.7-1.2-.3-2.5-.5-3.8-.5-3.7 0-7.3 1.5-9.9 4.1-2.6 2.6-4.1 6.1-4.1 9.9 0 .5-.4 1-1 1z"/><circle fill="#E66235" cx="3.3" cy="14.6" r="1.5" transform="translate(1 .251)"/><circle fill="#E66235" cx="7.2" cy="7.5" r="1.5" transform="translate(1 .251)"/><circle fill="#E66235" cx="13.6" cy="3.9" r="1.5" transform="translate(1 .251)"/><circle fill="#E66235" cx="26" cy="14.6" r="1.5" transform="translate(1 .251)"/><path fill="#E66235" d="M13.4 16.351c-.8-.7-.8-1.9-.2-2.6l10-13.5.3.1-7.6 15.3c-.5 1-1.6 1.2-2.5.7z"/></svg>