<svg xmlns="http://www.w3.org/2000/svg" viewBox="0 0 32.1 33.2"><path fill="#272F38" d="M31.1 3.9h-9.8C19.1 1.5 15.9 0 12.4 0h-.1C5.5 0 0 5.5 0 12.2c0 6.5 11.1 19.5 11.6 20l.8.9.8-.9c.4-.5 9.8-11.5 11.4-18.3h2.9c.6 0 1-.4 1-1 0-.5-.4-1-1-1h-2.6c0-.7-.1-1.4-.2-2.1h5.2c.6 0 1-.4 1-1s-.4-1-1-1h-5.8c-.3-.7-.6-1.4-1-2.1h8.2c.5 0 1-.5 1-1s-.6-.8-1.2-.8zM12.3 30.1C8.9 25.9 2 16.7 2 12.2 2 6.6 6.6 2 12.3 2 18 2 22.7 6.6 22.7 12.2c0 4.5-6.9 13.7-10.4 17.9z"/><path fill="#272F38" d="M12.4 16.7c-3.2 0-5.8-2.6-5.8-5.8s2.6-5.8 5.8-5.8 5.8 2.6 5.8 5.8-2.6 5.8-5.8 5.8zm0-9.6c-2.1 0-3.8 1.7-3.8 3.8 0 2.1 1.7 3.8 3.8 3.8s3.8-1.7 3.8-3.8c0-2.1-1.7-3.8-3.8-3.8z"/></svg>