<svg xmlns="http://www.w3.org/2000/svg" width="32.506" height="27.288"><g data-name="Group 373"><g data-name="Group 368" transform="translate(1.022 1.389)" fill="none" stroke="#e66235" stroke-width="2"><path data-name="Path 220" d="M22.698 5.47a8.235 8.235 0 011.39 12.491 9.484 9.484 0 01-1.327 1.193" stroke-linecap="round" stroke-linejoin="round"/><path data-name="Path 221" d="M23.746 0a14.565 14.565 0 013.644 21.192 15.718 15.718 0 01-3.5 3.316" stroke-linecap="round" stroke-linejoin="round"/><path data-name="Path 222" d="M8.66 5.47a8.235 8.235 0 00-1.39 12.491 9.484 9.484 0 001.327 1.193" stroke-linecap="round" stroke-linejoin="round"/><path data-name="Path 223" d="M6.717 0a14.565 14.565 0 00-3.645 21.192 15.721 15.721 0 003.5 3.316" stroke-linecap="round" stroke-linejoin="round"/><circle data-name="Ellipse 29" cx="6.213" cy="6.213" r="6.213" transform="translate(9.463 6.285)" stroke-miterlimit="10"/><g data-name="Group 162" stroke-linecap="round" stroke-linejoin="round"><path data-name="Line 34" d="M17.767 10.442l-4.146 4.146"/><path data-name="Line 35" d="M13.621 10.442l4.146 4.146"/></g></g></g></svg>