<svg xmlns="http://www.w3.org/2000/svg" viewBox="0 0 32.5 32.5"><path fill="#272F38" d="M16.2 32.5C7.3 32.5 0 25.2 0 16.2 0 7.3 7.3 0 16.2 0c9 0 16.2 7.3 16.2 16.2.1 9-7.2 16.3-16.2 16.3zm0-30.5C8.4 2 2 8.4 2 16.2s6.4 14.2 14.2 14.2S30.4 24 30.4 16.2 24.1 2 16.2 2z"/><path fill="#272F38" d="M13.1 25.4c-.3 0-.5-.1-.7-.3l-4.5-4.8c-.3-.3-.3-.7-.2-1.1.2-.4.5-.6.9-.6h2.7l3-3.1-5.8-3.8c-.3-.1-.5-.4-.5-.7 0-.3.1-.6.3-.8l1.2-1.1c.2-.2.6-.3.9-.2l8.1 2 2.3-2.4c.4-.5 1.1-.7 1.7-.7h.2c.7 0 1.3.3 1.7.8 1 1.1 1 2.7-.1 3.7L22 14.5l2 7.9c.1.3 0 .7-.3 1l-1.4 1.4c0 .1-.3.2-.6.2s-.6-.2-.7-.5l-3.5-5.7-3.2 2.9-.1 2.7c0 .4-.3.8-.7.9-.1.1-.3.1-.4.1zm4.5-9.1h.1c.3 0 .6.2.7.5l3.5 5.6.1-.1-2-7.9c-.1-.3 0-.7.3-1l2.7-2.6c.1-.1.2-.3.2-.5s-.1-.3-.2-.5c-.1-.1-.3-.2-.4-.2-.1 0-.2 0-.3.1l-2.7 2.8c-.2.3-.6.4-1 .3l-7.5-1.9 5.3 3.4c.2.2.4.4.4.7 0 .3-.1.6-.3.8l-4.1 4.3c-.2.2-.4.3-.7.3h-.8l1.3 1.4V21c0-.3.1-.5.3-.7l4.4-4c.2.1.5 0 .7 0z"/></svg>