<svg xmlns="http://www.w3.org/2000/svg" xmlns:xlink="http://www.w3.org/1999/xlink" viewBox="0 0 339 339"><defs><style>.cls-9{fill:#fff}.cls-16{fill:#ffd4d4}</style><linearGradient id="linear-gradient" x1="182.32" y1="237.34" x2="217.02" y2="237.34" gradientUnits="userSpaceOnUse"><stop offset="0" stop-color="#ffb06a"/><stop offset="1" stop-color="#e28959"/></linearGradient><linearGradient id="linear-gradient-2" x1="187.65" y1="254.95" x2="193.79" y2="254.95" xlink:href="#linear-gradient"/><linearGradient id="linear-gradient-3" x1="146.74" y1="297.48" x2="194.12" y2="297.48" xlink:href="#linear-gradient"/><linearGradient id="linear-gradient-4" x1="147.56" y1="197.98" x2="209.59" y2="197.98" xlink:href="#linear-gradient"/><linearGradient id="linear-gradient-5" x1="88.51" y1="145.97" x2="234.14" y2="223.51" gradientUnits="userSpaceOnUse"><stop offset="0" stop-color="#fff"/><stop offset="1" stop-color="#c9c9c9"/></linearGradient><linearGradient id="linear-gradient-6" x1="128.86" y1="230.04" x2="145.65" y2="230.04" xlink:href="#linear-gradient"/><linearGradient id="linear-gradient-7" x1="128.86" y1="210.18" x2="145.65" y2="210.18" xlink:href="#linear-gradient"/><linearGradient id="linear-gradient-8" x1="128.86" y1="190.32" x2="145.65" y2="190.32" xlink:href="#linear-gradient"/><linearGradient id="linear-gradient-9" x1="128.86" y1="170.46" x2="145.65" y2="170.46" xlink:href="#linear-gradient"/><linearGradient id="linear-gradient-10" x1="188.95" y1="216.43" x2="209.8" y2="216.43" gradientTransform="matrix(.69 -1.61 .92 .39 -140.18 456.53)" xlink:href="#linear-gradient"/></defs><g id="Layer_2" data-name="Layer 2"><g id="Layer_1-2" data-name="Layer 1"><path d="M339 169.5a171.06 171.06 0 0 1-2.19 27.34q-1 5.88-2.31 11.62c-.18.77-.36 1.53-.55 2.29-.15.59-.3 1.18-.46 1.76-.07.3-.15.6-.23.89-.34 1.28-.69 2.55-1.06 3.81q-1.05 3.57-2.25 7.07c-.16.5-.34 1-.52 1.5q-1.92 5.49-4.22 10.79c-.23.54-.46 1.08-.71 1.62q-1.19 2.7-2.49 5.36-.48 1-1 2a135.068 135.068 0 0 1-2.99 5.66c-.66 1.18-1.45 2.61-2.21 3.89-.27.47-.55.93-.83 1.4q-2.6 4.35-5.47 8.53c-.31.46-.62.91-.94 1.36-1.06 1.53-2.14 3-3.26 4.52l-1.31 1.77q-1.39 1.81-2.85 3.6c-.46.56-.91 1.12-1.37 1.67l-.08.09c-.84 1-1.69 2-2.54 3q-1.71 2-3.5 3.87l-1.55 1.65q-1.58 1.65-3.21 3.27c-1.07 1.07-2.17 2.12-3.28 3.17l-1.67 1.55-1.69 1.53-1.71 1.5-1.74 1.49c-.58.49-1.16 1-1.75 1.46s-1.17 1-1.77 1.44q-2.68 2.13-5.44 4.17l-1.85 1.32q-1.86 1.34-3.76 2.61c-.63.43-1.27.85-1.91 1.27s-1.27.83-1.92 1.24q-1.25.8-2.49 1.56l-1.41.85c-1.33.8-2.66 1.57-4 2.34l-2.55 1.4c-1.39.75-2.8 1.49-4.22 2.2l-2.21 1.1-2.22 1.06c-.75.35-1.5.7-2.26 1s-1.51.68-2.27 1-1.38.6-2.07.88c-1 .43-2.06.85-3.1 1.26l-.19.07c-1.45.57-2.92 1.13-4.4 1.66l-1.74.62-.21.07c-.64.23-1.28.45-1.93.66a149 149 0 0 1-5.07 1.6c-.81.24-1.61.48-2.41.7l-2.43.67c-2.49.66-5 1.27-7.52 1.82l-2.31.48c-.76.16-1.53.31-2.3.45s-1.63.3-2.44.44c-.65.12-1.29.22-1.94.32l-.52.09h-.32l-1.74.26h-.26l-.87.12-2.8.37-.88.1c-.7.09-1.41.17-2.12.24l-.8.08-1.61.15-1.69.14-2.59.19q-5.44.35-11 .35h-2.63c-.88 0-1.83 0-2.74-.06s-1.58-.05-2.36-.09h-.52l-2.28-.13h-.31q-1.28-.07-2.55-.18c-.61 0-1.22-.1-1.82-.15-.83-.07-1.65-.15-2.48-.24s-1.38-.14-2.06-.23l-1.3-.15q-2.67-.33-5.31-.75c-.88-.13-1.76-.28-2.64-.43h-.22c-.95-.16-1.89-.34-2.84-.52s-1.7-.33-2.55-.51q-.36-.06-.72-.15l-2.36-.52c-.88-.2-1.76-.4-2.63-.62-.53-.12-1.06-.26-1.59-.4s-1.14-.28-1.71-.44l-2.39-.65a168.19 168.19 0 0 1-28.62-11l-1.07-.53-2.3-1.13q-5.17-2.68-10.14-5.72c-.3-.17-.59-.35-.88-.53l-.89-.56-2.17-1.38-1.94-1.28c-.66-.44-1.31-.91-2-1.36l-2.23-1.54c-1.62-1.16-3.22-2.33-4.8-3.54-.85-.65-1.69-1.31-2.52-2q-3.75-3-7.33-6.18l-2.33-2.12c-.78-.72-1.55-1.45-2.32-2.2-.76-.73-1.51-1.47-2.25-2.21s-1.5-1.51-2.24-2.28c-.67-.7-1.34-1.4-2-2.11-.11-.13-.23-.25-.36-.38l-2-2.17-1.6-1.82-1.21-1.41c-1.19-1.4-2.35-2.81-3.5-4.25-.62-.78-1.24-1.57-1.85-2.37s-1.21-1.59-1.8-2.39l-.23-.32c-.6-.81-1.19-1.62-1.77-2.44A169.52 169.52 0 1 1 339 169.5z" fill="#1b0f19"/><path d="M339 169.5a171.06 171.06 0 0 1-2.19 27.34q-1 5.88-2.31 11.62c-.18.77-.36 1.53-.55 2.29-.15.59-.3 1.18-.46 1.76-.07.3-.15.6-.23.89-.34 1.28-.69 2.55-1.06 3.81q-1.05 3.57-2.25 7.07c-.16.5-.34 1-.52 1.5q-1.92 5.49-4.22 10.79c-.23.54-.46 1.08-.71 1.62q-1.19 2.7-2.49 5.36-.48 1-1 2a135.068 135.068 0 0 1-2.99 5.66c-.66 1.18-1.45 2.61-2.21 3.89-.27.47-.55.93-.83 1.4q-2.6 4.35-5.47 8.53c-.31.46-.62.91-.94 1.36-1.06 1.53-2.14 3-3.26 4.52l-1.31 1.77q-1.39 1.81-2.85 3.6c-.46.56-.91 1.12-1.37 1.67l-.08.09c-.83 1-1.68 2-2.54 3q-1.71 2-3.5 3.87l-1.55 1.65q-1.58 1.65-3.21 3.27c-1.07 1.07-2.17 2.12-3.28 3.17l-1.67 1.55-1.69 1.53-1.71 1.5-1.74 1.49c-.58.49-1.16 1-1.75 1.46s-1.17 1-1.77 1.44q-2.36 1.89-4.78 3.69l-.66.48-1.85 1.32q-1.86 1.34-3.76 2.61c-.63.43-1.27.85-1.91 1.27l-.88.58-1 .66q-1.25.8-2.49 1.56l-1.41.85-.1.06c-1.29.77-2.59 1.54-3.91 2.28l-2.55 1.4c-1.4.76-2.8 1.49-4.22 2.2l-2.21 1.1-2.22 1.06c-.75.35-1.5.7-2.26 1s-1.51.68-2.27 1-1.38.6-2.07.88c-1 .43-2.06.85-3.1 1.26l-.19.07c-1.45.57-2.92 1.13-4.4 1.66l-1.74.62-.21.07c-.64.23-1.28.45-1.93.66a149 149 0 0 1-5.07 1.6c-.8.24-1.61.48-2.41.7l-2.43.67c-2.49.66-5 1.27-7.52 1.82l-2.31.48c-.76.16-1.53.31-2.3.45s-1.63.3-2.44.44c-.65.12-1.29.22-1.94.32l-.52.09h-.32l-1.74.26h-.26l-.87.12-2.8.37-.88.1c-.7.09-1.41.17-2.12.24l-.8.08-1.61.15-1.69.14-2.59.19q-5.44.35-11 .35h-2.63c-.88 0-1.83 0-2.74-.06s-1.58-.05-2.36-.09h-.52l-2.28-.13h-.31q-1.28-.07-2.55-.18c-.61 0-1.22-.1-1.82-.15-.83-.07-1.65-.15-2.48-.24s-1.38-.14-2.06-.23l-1.3-.15q-2.67-.33-5.31-.75h-.16l-2.48-.41h-.22c-.95-.16-1.89-.34-2.84-.52s-1.7-.33-2.55-.51q-.36-.06-.72-.15l-2.36-.52c-.88-.2-1.76-.4-2.63-.62-.53-.12-1.06-.26-1.59-.4s-1.14-.28-1.71-.44l-2.39-.65a168.19 168.19 0 0 1-28.62-11l-1.07-.53-2.33-1.15q-5.17-2.68-10.14-5.72l-1.77-1.09-2.17-1.38-1.94-1.28q-4.6-3.07-9-6.44c-.85-.65-1.69-1.31-2.52-2q-3.75-3-7.33-6.18l-2.33-2.12-2.32-2.18c-.76-.73-1.51-1.47-2.25-2.21s-1.5-1.51-2.24-2.28c-.67-.7-1.34-1.4-2-2.11-.11-.13-.23-.25-.36-.38l-2-2.17-1.6-1.82-1.21-1.41c-1.19-1.4-2.35-2.81-3.5-4.25-.62-.78-1.24-1.57-1.85-2.37s-1.21-1.59-1.8-2.39l-.23-.32c-.6-.81-1.19-1.62-1.77-2.44A169.52 169.52 0 0 1 64.43 36.5h54.07v-2.08h107v2.08h49.09a169.27 169.27 0 0 1 64.41 133z" fill="#643c3c"/><path d="M274 257.07l-2.29-2.29a76.64 76.64 0 0 1-22.34-53.93v-35.19a82.64 82.64 0 0 0-57.6-78.76 25.37 25.37 0 0 0-50.05 0 82.43 82.43 0 0 0-57.58 78.7V198a83 83 0 0 1-24.3 58.79l-.28.28a9.34 9.34 0 0 0 6.59 16h60.15C131 291.43 147.61 305 166.72 305s35.71-13.55 40.43-32h60.15a9.35 9.35 0 0 0 6.7-15.93zM166.72 290A27.09 27.09 0 0 1 142 273h49.4a26.92 26.92 0 0 1-24.68 17z" fill="#fddab4" opacity=".36"/><path d="M203.89 215.67a3.53 3.53 0 0 0-1.22.54 2.78 2.78 0 0 0-.81 1.18c-1 2.28-.69 4.86-.67 7.33a33.89 33.89 0 0 1-.35 4.94 6.7 6.7 0 0 0-1.18 1 15.13 15.13 0 0 0-2.32 3.89q-2.33 4.94-4.63 9.87l-10.39 17.93a72.76 72.76 0 0 0 21.45-22.2q1.33-2.16 2.52-4.4c.24-.46.83-1.5 1.26-2.39a5.37 5.37 0 0 0 .55-1.16c1-2.49 2-5 3.17-7.37 1-2.11 5.33-7.84 5.7-10.11.92-5.6-10.48.21-13.08.95z" fill="url(#linear-gradient)"/><path d="M192.06 254.57q-2.19.75-4.41 1.38a10.16 10.16 0 0 1 5-1.94 11.12 11.12 0 0 1 1.16-.06z" fill="url(#linear-gradient-2)"/><path d="M194.12 337.22h-.26l-.87.12-2.8.37-.88.1c-.7.09-1.41.17-2.12.24l-.8.08-1.61.15-1.69.14-2.59.19q-5.44.35-11 .35h-2.63c-.88 0-1.83 0-2.74-.06s-1.58-.05-2.36-.09h-.52l-2.28-.13h-.06q-1-14.3-2.74-28.51c-.59-4.83-3.26-36.64-6.85-48.93-.82-2.8-1.68-4.59-2.58-4.82a79.1 79.1 0 0 0 39 0c.64-.15 1.28-.32 1.91-.5a15.66 15.66 0 0 0-4.46 5.28c-.15.27-.3.55-.43.83a31.88 31.88 0 0 0-3.07 12.17c-1.19 21.9 6.11 42.48 14.43 63.02z" fill="url(#linear-gradient-3)"/><path d="M199.92 186.65c-4.48-4.23-10.53-6.3-16.38-8.25l-36-12 1.36 35.86c.11 3 .26 6.18 1.63 8.89 1.62 3.2 4.72 5.35 7.74 7.3 8.21 5.33 17.08 10.37 26.85 11.06 8.71.62 21.07-3.77 23.78-13.18 2.55-8.79-2.48-23.53-8.98-29.68z" fill="url(#linear-gradient-4)"/><rect x="129.01" y="113.98" width="75.39" height="147.26" rx="5.34" fill="url(#linear-gradient-5)"/><path class="cls-9" d="M134.06 123.84h65.29v124.12h-65.29z"/><path d="M128.86 222.69a13.29 13.29 0 0 1 13.84-5.93 3.65 3.65 0 0 1 2.77 1.8 3.43 3.43 0 0 1 0 2.28c-.85 2.9-3.11 5.17-5.51 7s-5 3.41-7.14 5.58c-2.59 2.69-2.7 6.55-3.67 10.16z" fill="url(#linear-gradient-6)"/><path d="M128.86 202.83a13.31 13.31 0 0 1 13.84-5.93 3.7 3.7 0 0 1 2.77 1.8 3.43 3.43 0 0 1 0 2.28c-.85 2.9-3.11 5.17-5.51 7s-5 3.41-7.14 5.59c-2.59 2.68-2.7 6.55-3.67 10.15z" fill="url(#linear-gradient-7)"/><path d="M128.86 183a13.31 13.31 0 0 1 13.84-6 3.7 3.7 0 0 1 2.77 1.8 3.46 3.46 0 0 1 0 2.29c-.85 2.9-3.11 5.16-5.51 7s-5 3.41-7.14 5.59c-2.59 2.68-2.7 6.55-3.67 10.15z" fill="url(#linear-gradient-8)"/><path d="M128.86 163.11a13.33 13.33 0 0 1 13.84-5.93 3.69 3.69 0 0 1 2.77 1.81 3.43 3.43 0 0 1 0 2.28c-.85 2.9-3.11 5.16-5.51 7s-5 3.4-7.14 5.58c-2.59 2.68-2.7 6.55-3.67 10.15z" fill="url(#linear-gradient-9)"/><path d="M212.51 216.72a92.49 92.49 0 0 1-23.22 16c-3.1 1.49-6.72 2.76-9.43 1.1-3.61-2.22-3.31-8.64-.53-12.67s7.12-6.22 11.24-8.23l7.81-3.8c3.23-1.57 6.7-3.19 10-2.56 2.8.54 5 2.65 6.9 4.84.66.74 1.29 1.5 1.91 2.28z" fill="url(#linear-gradient-10)"/><path fill="#ff5050" d="M107.52 187.47h125.13v23.5H107.52z"/><rect class="cls-16" x="113.29" y="193.02" width="81.66" height="3.91" rx="1.95"/><rect class="cls-16" x="113.29" y="202.14" width="32.81" height="3.91" rx="1.95"/><circle cx="218.98" cy="199.1" r="8.33" fill="none" stroke="#ffd4d4" stroke-linecap="round" stroke-linejoin="round"/><path class="cls-16" d="M219.29 201.23c-.16-.69-.27-1.38-.4-2.07s-.22-1.38-.3-2.07a6 6 0 0 1-.2-2.06 4.47 4.47 0 0 1 .9-2.07.13.13 0 0 1 .18 0 4.57 4.57 0 0 1 .9 2.07 6.28 6.28 0 0 1-.2 2.06q-.13 1-.3 2.07c-.14.69-.24 1.38-.4 2.07a.1.1 0 0 1-.13.07.08.08 0 0 1-.05-.07z"/><circle class="cls-16" cx="219.46" cy="203.95" r="1.17"/><path fill="#5db06a" d="M107.52 149.68h125.13v23.5H107.52z"/><rect class="cls-9" x="113.29" y="155.04" width="81.66" height="3.91" rx="1.95"/><rect class="cls-9" x="113.29" y="164.16" width="32.81" height="3.91" rx="1.95"/></g></g></svg>