<svg xmlns="http://www.w3.org/2000/svg" xmlns:xlink="http://www.w3.org/1999/xlink" viewBox="0 0 339 339"><defs><style>.cls-3{fill:#fddab4}.cls-4{fill:#302c22}.cls-5{fill:#fbb351}.cls-6{fill:#dc913c}.cls-7{fill:#494130}.cls-10{fill:#fffcf8}.cls-13{fill:#fcbaa2}.cls-15{fill:#d34f68}.cls-20{fill:#59506d}.cls-21{fill:#433d51}.cls-29{fill:none;stroke:#fff;stroke-miterlimit:10}.cls-32{fill:#3bae5a}.cls-33{fill:#212323}.cls-34{fill:#ff994d}</style><linearGradient id="linear-gradient" x1="68.88" y1="152.56" x2="90.29" y2="152.56" gradientUnits="userSpaceOnUse"><stop offset="0" stop-color="#5db06a"/><stop offset="1" stop-color="#3f7f63"/></linearGradient><linearGradient id="linear-gradient-2" x1="59.22" y1="172.84" x2="269.73" y2="284.92" gradientUnits="userSpaceOnUse"><stop offset="0" stop-color="#fff"/><stop offset="1" stop-color="#c9c9c9"/></linearGradient><linearGradient id="linear-gradient-3" x1="131.16" y1="157.18" x2="209.88" y2="199.1" xlink:href="#linear-gradient-2"/><linearGradient id="linear-gradient-4" x1="131.16" y1="175.1" x2="209.88" y2="217.02" xlink:href="#linear-gradient-2"/><linearGradient id="linear-gradient-5" x1="160.56" y1="213.09" x2="203.25" y2="235.82" xlink:href="#linear-gradient-2"/><linearGradient id="linear-gradient-6" x1="147.72" y1="280.94" x2="198.26" y2="280.94" xlink:href="#linear-gradient"/></defs><g id="Layer_2" data-name="Layer 2"><g id="Layer_1-2" data-name="Layer 1"><path d="M339 169.5a171.06 171.06 0 0 1-2.19 27.34q-1 5.88-2.31 11.62c-.18.77-.36 1.53-.55 2.29-.15.59-.3 1.18-.46 1.76-.07.3-.15.6-.23.89-.34 1.28-.69 2.55-1.06 3.81q-1.05 3.57-2.25 7.07c-.16.5-.34 1-.52 1.5q-1.92 5.49-4.22 10.79c-.23.54-.46 1.08-.71 1.62q-1.19 2.7-2.49 5.36-.48 1-1 2a135.068 135.068 0 0 1-2.99 5.66c-.66 1.18-1.45 2.61-2.21 3.89-.27.47-.55.93-.83 1.4q-2.6 4.35-5.47 8.53c-.31.46-.62.91-.94 1.36-1.06 1.53-2.14 3-3.26 4.52l-1.31 1.77q-1.39 1.81-2.85 3.6c-.46.56-.91 1.12-1.37 1.67l-.08.09c-.84 1-1.69 2-2.54 3q-1.71 2-3.5 3.87l-1.55 1.65q-1.58 1.65-3.21 3.27c-1.07 1.07-2.17 2.12-3.28 3.17l-1.67 1.55-1.69 1.53-1.71 1.5-1.74 1.49c-.58.49-1.16 1-1.75 1.46s-1.17 1-1.77 1.44q-2.68 2.13-5.44 4.17l-1.85 1.32q-1.86 1.34-3.76 2.61c-.63.43-1.27.85-1.91 1.27s-1.27.83-1.92 1.24q-1.25.8-2.49 1.56l-1.41.85c-1.33.8-2.66 1.57-4 2.34l-2.55 1.4c-1.39.75-2.8 1.49-4.22 2.2l-2.21 1.1-2.22 1.06c-.75.35-1.5.7-2.26 1s-1.51.68-2.27 1-1.38.6-2.07.88c-1 .43-2.06.85-3.1 1.26l-.19.07c-1.45.57-2.92 1.13-4.4 1.66l-1.74.62-.21.07c-.64.23-1.28.45-1.93.66a149 149 0 0 1-5.07 1.6c-.81.24-1.61.48-2.41.7l-2.43.67c-2.49.66-5 1.27-7.52 1.82l-2.31.48c-.76.16-1.53.31-2.3.45s-1.63.3-2.44.44c-.65.12-1.29.22-1.94.32l-.52.09h-.32l-1.74.26h-.26l-.87.12-2.8.37-.88.1c-.7.09-1.41.17-2.12.24l-.8.08-1.61.15-1.69.14-2.59.19q-5.44.35-11 .35h-2.63c-.88 0-1.83 0-2.74-.06s-1.58-.05-2.36-.09h-.52l-2.28-.13h-.31q-1.28-.07-2.55-.18c-.61 0-1.22-.1-1.82-.15-.83-.07-1.65-.15-2.48-.24s-1.38-.14-2.06-.23l-1.3-.15q-2.67-.33-5.31-.75c-.88-.13-1.76-.28-2.64-.43h-.22c-.95-.16-1.89-.34-2.84-.52s-1.7-.33-2.55-.51q-.36-.06-.72-.15l-2.36-.52c-.88-.2-1.76-.4-2.63-.62-.53-.12-1.06-.26-1.59-.4s-1.14-.28-1.71-.44l-2.39-.65a168.19 168.19 0 0 1-28.62-11l-1.07-.53-2.3-1.13q-5.17-2.68-10.14-5.72c-.3-.17-.59-.35-.88-.53l-.89-.56-2.17-1.38-1.94-1.28c-.66-.44-1.31-.91-2-1.36l-2.23-1.54c-1.62-1.16-3.22-2.33-4.8-3.54-.85-.65-1.69-1.31-2.52-2q-3.75-3-7.33-6.18l-2.33-2.12c-.78-.72-1.55-1.45-2.32-2.2-.76-.73-1.51-1.47-2.25-2.21s-1.5-1.51-2.24-2.28c-.67-.7-1.34-1.4-2-2.11-.11-.13-.23-.25-.36-.38l-2-2.17-1.6-1.82-1.21-1.41c-1.19-1.4-2.35-2.81-3.5-4.25-.62-.78-1.24-1.57-1.85-2.37s-1.21-1.59-1.8-2.39l-.23-.32c-.6-.81-1.19-1.62-1.77-2.44A169.52 169.52 0 1 1 339 169.5z" fill="#1b0f19"/><path d="M339 169.5a171.06 171.06 0 0 1-2.19 27.34q-1 5.88-2.31 11.62c-.18.77-.36 1.53-.55 2.29-.15.59-.3 1.18-.46 1.76-.07.3-.15.6-.23.89-.34 1.28-.69 2.55-1.06 3.81q-1.05 3.57-2.25 7.07c-.16.5-.34 1-.52 1.5q-1.92 5.49-4.22 10.79c-.23.54-.46 1.08-.71 1.62q-1.19 2.7-2.49 5.36-.48 1-1 2a135.068 135.068 0 0 1-2.99 5.66c-.66 1.18-1.45 2.61-2.21 3.89-.27.47-.55.93-.83 1.4q-2.6 4.35-5.47 8.53c-.31.46-.62.91-.94 1.36-1.06 1.53-2.14 3-3.26 4.52l-1.31 1.77q-1.39 1.81-2.85 3.6c-.46.56-.91 1.12-1.37 1.67l-.08.09c-.83 1-1.68 2-2.54 3q-1.71 2-3.5 3.87l-1.55 1.65q-1.58 1.65-3.21 3.27c-1.07 1.07-2.17 2.12-3.28 3.17l-1.67 1.55-1.69 1.53-1.71 1.5-1.74 1.49c-.58.49-1.16 1-1.75 1.46s-1.17 1-1.77 1.44q-2.36 1.89-4.78 3.69l-.66.48-1.85 1.32q-1.86 1.34-3.76 2.61c-.63.43-1.27.85-1.91 1.27l-.88.58-1 .66q-1.25.8-2.49 1.56l-1.41.85-.1.06c-1.29.77-2.59 1.54-3.91 2.28l-2.55 1.4c-1.4.76-2.8 1.49-4.22 2.2l-2.21 1.1-2.22 1.06c-.75.35-1.5.7-2.26 1s-1.51.68-2.27 1-1.38.6-2.07.88c-1 .43-2.06.85-3.1 1.26l-.19.07-1.64.64q-1.37.52-2.76 1l-1.74.62-.21.07c-.64.23-1.28.45-1.93.66l-1.06.34a153.67 153.67 0 0 1-6.41 1.96l-2.43.67c-2.49.66-5 1.27-7.52 1.82l-2.31.48c-.76.16-1.53.31-2.3.45s-1.63.3-2.44.44c-.65.12-1.29.22-1.94.32l-.52.09h-.32l-1.74.26h-.26l-.87.12-2.8.37-.88.1c-.7.09-1.41.17-2.12.24l-.8.08-1.29.12h-.32l-1.69.14-2.59.19q-5.44.35-11 .35h-2.63c-.88 0-1.83 0-2.74-.06s-1.58-.05-2.36-.09h-.52l-2.28-.13h-.31q-1.28-.07-2.55-.18c-.61 0-1.22-.1-1.82-.15h-.31c-.73-.06-1.44-.13-2.17-.21s-1.38-.14-2.06-.23l-1.3-.15q-2.67-.33-5.31-.75h-.16l-2.48-.41h-.22c-.95-.16-1.89-.34-2.84-.52s-1.7-.33-2.55-.51q-.36-.06-.72-.15l-2.36-.52c-.88-.2-1.76-.4-2.63-.62-.53-.12-1.06-.26-1.59-.4s-1.14-.28-1.71-.44l-2.39-.65-1-.28c-2.59-.75-5.16-1.55-7.7-2.42a169.32 169.32 0 0 1-19.94-8.27l-1.07-.53-2.32-1.16q-5.17-2.68-10.14-5.72l-1.77-1.09-2.17-1.38-1.94-1.28q-4.6-3.07-9-6.44c-.85-.65-1.69-1.31-2.52-2q-3.75-3-7.33-6.18l-2.33-2.12-2.32-2.18c-.76-.73-1.51-1.47-2.25-2.21s-1.5-1.51-2.24-2.28c-.67-.7-1.34-1.4-2-2.11-.11-.13-.23-.25-.36-.38l-2-2.17-1.6-1.82-1.21-1.41c-1.19-1.4-2.35-2.81-3.5-4.25-.62-.78-1.24-1.57-1.85-2.37s-1.21-1.59-1.8-2.39l-.23-.32c-.6-.81-1.19-1.62-1.77-2.44A169.52 169.52 0 0 1 64.43 36.5h54.07v-2.08h107v2.08h49.09a169.27 169.27 0 0 1 64.41 133z" fill="#643c3c"/><path class="cls-3" d="M287.11 145.21a23.07 23.07 0 0 1-6.11 15.71 23.2 23.2 0 0 1-11 6.66c-.32.09-.64.17-1 .24l-.43.1c-.55.11-1.11.21-1.67.27a22.75 22.75 0 0 1-3 .2c-.56 0-1.12 0-1.67-.07s-1.05-.08-1.57-.16c-.24 0-.46-.06-.69-.11l-.61-.11a23.23 23.23 0 0 1-12.31-6.82 23.19 23.19 0 1 1 40.05-15.91zm26.72 86.01A23.19 23.19 0 1 1 290.64 208a23.13 23.13 0 0 1 23.19 23.22zm-228.91-7.49A23.41 23.41 0 0 1 75 242.89a22.92 22.92 0 0 1-3 1.77l-.61.3a23.47 23.47 0 0 1-20 0l-.8-.4a23.45 23.45 0 1 1 34.28-20.8z"/><path class="cls-4" d="M60.87 229.22s.49 16.37 11.19 9.48c0 0-2.33-7.91-1.29-11.42 1.18-4 3.43-19.13-8-20.73 0 0-7.6-1.56-10 8.59z"/><path class="cls-4" d="M62 229.22s1.76 14.51-8.94 7.63c0 0 .07-6.06-1-9.57-1.18-4-3.43-19.13 8-20.73 0 0 7.6-1.56 10 8.59z"/><path class="cls-5" d="M65.47 235.4c-1.17-.3-1-7.09-1-7.09h-6.71s.13 6.79-1 7.09 3.94 0 4.38 0 5.45.29 4.33 0z"/><path class="cls-5" d="M73.85 240.16a4.58 4.58 0 0 1-1.85 3.41c-2.22 1.89-6.22 3.15-10.78 3.15-4.26 0-8-1.1-10.31-2.78a4.85 4.85 0 0 1-2.3-3.78c0-1.85 1.47-3.52 3.85-4.72a16.67 16.67 0 0 1 2.45-1 23.39 23.39 0 0 1 12-.17 17.77 17.77 0 0 1 2.37.81c2.8 1.25 4.57 3.06 4.57 5.08z"/><ellipse class="cls-6" cx="61" cy="219.09" rx="6.61" ry="11.79"/><path class="cls-6" d="M60.87 230.54l4.26 4.54s-.55.15-.75-6.16-3.51 1.62-3.51 1.62z"/><ellipse class="cls-5" cx="61.24" cy="218.44" rx="8.19" ry="11.79"/><path class="cls-4" d="M54.91 214.43s-3 6.32-.63 12c1.23 3-4.94-8.79-1.49-12.4z"/><path class="cls-4" d="M52.65 214.05c.08.72.92 1.11 1.64 1.08s1.41-.3 2.13-.29c1.2 0 2.21.86 3.34 1.25a4.85 4.85 0 0 0 4.28-.54 1.22 1.22 0 0 1 .73-.31 1 1 0 0 1 .65.42 5.23 5.23 0 0 1 1 1.61 2.09 2.09 0 0 0 .46.9 2.3 2.3 0 0 0 .57.33 4.18 4.18 0 0 1 2.27 3.69 13.84 13.84 0 0 0 .15-8.56 11.76 11.76 0 0 0-5.32-6.63 6.21 6.21 0 0 0-3.19-1 7.51 7.51 0 0 0-4.36 2 24.78 24.78 0 0 0-3.52 3.5 4.19 4.19 0 0 0-1.23 2.7c0 1 1.12 2 2 1.56z"/><path class="cls-7" d="M67.19 218.34c.89 3.22-.46 8.94-1.74 12 2.54-2.42 4.49-7.67 4.49-11.18z"/><path class="cls-4" d="M66.83 218.17c.89 3.22-.42 9.11-1.7 12.2 2.54-2.42 4.5-7.67 4.49-11.18zM78 215.55a.2.2 0 0 0 0-.4.2.2 0 0 0 0 .4z"/><path class="cls-5" d="M75 242.89a22.92 22.92 0 0 1-3 1.77l-.61.3c-.06-.27-.13-.53-.21-.79a7.83 7.83 0 0 0-.4-1c-.59-1.32-1.42-2.1-1.27-3.14a1.58 1.58 0 0 1 .14-.49 3.94 3.94 0 0 1 .68-1 2.63 2.63 0 0 1 1.39-.85 1.91 1.91 0 0 1 1.16.07 3.12 3.12 0 0 1 1.52 2.12 13 13 0 0 1 .6 3.01zm-22.9-.03a9 9 0 0 0-.53 1.51c0 .19-.09.37-.13.56l-.8-.4a23.51 23.51 0 0 1-2.72-1.66 13.88 13.88 0 0 1 .55-3.32 3.61 3.61 0 0 1 1.09-1.86 1.7 1.7 0 0 1 .43-.26 2.34 2.34 0 0 1 2.56.77l.09.1c1.6 1.91.28 2.7-.54 4.56z"/><path d="M72 244.66l-.61.3a23.47 23.47 0 0 1-20 0l-.8-.4a2.49 2.49 0 0 1 .29-.59c.26-.42.6-.79.88-1.2a5.43 5.43 0 0 0 .93-3.79c0-.19-.06-.41-.1-.65a7.52 7.52 0 0 1-.16-2.86l.55-.26.26-.11.15-.06.57-.22.16-.06.27-.09.23-.08.24-.08c1.64.62 3.18 2.73 4.44 3.65l.23.17a2 2 0 0 0 .69.31 1.89 1.89 0 0 0 1.05-.13 5.22 5.22 0 0 0 1.6-1c.6-.52 1.15-1.14 1.72-1.7l.29-.26.31-.27a5.37 5.37 0 0 1 1.67-.95 17.77 17.77 0 0 1 2.37.81.22.22 0 0 1 0 .08c.18 1.22.1 2.47.27 3.7 0 .19.06.39.11.59s.06.27.1.4a4 4 0 0 0 1.43 2.22 2.23 2.23 0 0 1 .65.57 1.66 1.66 0 0 1 .14.74.76.76 0 0 0 0 .15c.07.34.07.71.07 1.07z" fill="#1524af"/><path d="M60.63 237.4a3.18 3.18 0 0 1-2-1.08l-1-.92a2.29 2.29 0 0 1-.72-.93h.07a2.39 2.39 0 0 0 .7.9l1 .92a2.89 2.89 0 0 0 2.06 1.05 2.76 2.76 0 0 0 1.2-.5c.6-.38 1.31-.84 2-1.36a7.41 7.41 0 0 0 1.63-1.65h.07a7.57 7.57 0 0 1-1.64 1.68 23.67 23.67 0 0 1-2 1.36 2.79 2.79 0 0 1-1.23.52z" fill="#a57e00"/><circle class="cls-10" cx="57.01" cy="234.43" r=".48"/><circle class="cls-10" cx="57.81" cy="235.47" r=".48"/><circle class="cls-10" cx="59.02" cy="236.57" r=".48"/><circle class="cls-10" cx="60.1" cy="237.31" r=".48"/><circle class="cls-10" cx="61.45" cy="237.17" r=".48"/><circle class="cls-10" cx="62.57" cy="236.49" r=".48"/><circle class="cls-10" cx="63.59" cy="235.66" r=".48"/><circle class="cls-10" cx="64.7" cy="234.99" r=".48"/><circle class="cls-10" cx="65.61" cy="233.94" r=".48"/><path class="cls-3" d="M103.16 135.55a23.48 23.48 0 0 1-12.87 20.93l-.61.3a23.49 23.49 0 0 1-20 0c-.27-.13-.54-.26-.8-.4a23.45 23.45 0 1 1 34.28-20.8z"/><path class="cls-4" d="M79.11 141s.49 16.37 11.19 9.48c0 0-2.33-7.91-1.28-11.42 1.17-4 3.42-19.14-8-20.73 0 0-7.6-1.56-10 8.59z"/><path class="cls-4" d="M80.23 141s1.76 14.51-8.94 7.63c0 0 .08-6.06-1-9.57-1.17-4-3.42-19.14 8-20.73 0 0 7.6-1.56 10 8.59z"/><path class="cls-5" d="M83.71 147.22c-1.16-.31-1-7.09-1-7.09H76s.13 6.78-1 7.09 3.94 0 4.38 0 5.45.29 4.33 0z"/><path class="cls-5" d="M92.09 152a4.58 4.58 0 0 1-1.83 3.41c-2.21 1.88-6.21 3.15-10.78 3.15-4.26 0-8-1.1-10.31-2.78a4.85 4.85 0 0 1-2.3-3.78c0-1.85 1.48-3.52 3.86-4.72a15.13 15.13 0 0 1 2.44-1 23.43 23.43 0 0 1 12-.17 16.88 16.88 0 0 1 2.37.81c2.79 1.22 4.55 3.08 4.55 5.08z"/><ellipse class="cls-6" cx="79.24" cy="130.91" rx="6.61" ry="11.79"/><path class="cls-6" d="M79.11 142.36l4.26 4.54s-.55.15-.74-6.16-3.52 1.62-3.52 1.62z"/><ellipse class="cls-5" cx="79.48" cy="130.26" rx="8.19" ry="11.79"/><path class="cls-4" d="M73.15 126.24s-3 6.33-.63 12.06c1.24 3-4.93-8.79-1.49-12.4z"/><path class="cls-4" d="M70.9 125.87c.07.72.91 1.11 1.63 1.08s1.42-.3 2.13-.29c1.2 0 2.21.85 3.34 1.25a4.88 4.88 0 0 0 4.28-.54 1.28 1.28 0 0 1 .74-.31 1.06 1.06 0 0 1 .65.42 5.41 5.41 0 0 1 .94 1.61 2.29 2.29 0 0 0 .47.9 2.43 2.43 0 0 0 .56.33 4.17 4.17 0 0 1 2.28 3.68 13.91 13.91 0 0 0 .15-8.56 11.82 11.82 0 0 0-5.28-6.67 6.16 6.16 0 0 0-3.19-1 7.49 7.49 0 0 0-4.4 2 25.38 25.38 0 0 0-3.53 3.5 4.18 4.18 0 0 0-1.22 2.73c0 1 1.11 2 2 1.57z"/><path class="cls-7" d="M85.44 130.15c.88 3.23-.47 8.95-1.75 12 2.54-2.42 4.5-7.67 4.49-11.18z"/><path class="cls-4" d="M85.08 130c.88 3.22-.43 9.11-1.71 12.2 2.55-2.42 4.5-7.67 4.5-11.18zm11.13-2.63a.2.2 0 0 0 0-.4.2.2 0 0 0 0 .4z"/><path class="cls-5" d="M93.23 154.71a23.63 23.63 0 0 1-2.94 1.77l-.61.3c-.06-.27-.14-.53-.22-.79a9.41 9.41 0 0 0-.39-1.05c-.59-1.32-1.43-2.1-1.28-3.14a1.92 1.92 0 0 1 .14-.49 3.94 3.94 0 0 1 .68-1 2.66 2.66 0 0 1 1.4-.85 1.89 1.89 0 0 1 1.15.07 3.15 3.15 0 0 1 1.52 2.12 14.09 14.09 0 0 1 .55 3.06zm-22.89-.03a10 10 0 0 0-.53 1.51c0 .18-.09.37-.13.56-.27-.13-.54-.26-.8-.4a23.39 23.39 0 0 1-2.71-1.66 13.87 13.87 0 0 1 .54-3.32 3.68 3.68 0 0 1 1.09-1.86 1.9 1.9 0 0 1 .43-.26 2.36 2.36 0 0 1 2.57.77l.08.1c1.6 1.88.29 2.71-.54 4.56z"/><path d="M90.29 156.48l-.61.3a23.49 23.49 0 0 1-20 0c-.27-.13-.54-.26-.8-.4a2.49 2.49 0 0 1 .29-.59c.26-.42.61-.79.89-1.2a5.48 5.48 0 0 0 .93-3.79c0-.19-.07-.41-.11-.65a7.51 7.51 0 0 1-.15-2.86l.55-.26.26-.11.14-.06.57-.22.16-.06.27-.09.23-.08.24-.08c1.65.62 3.18 2.73 4.44 3.65l.23.16a1.88 1.88 0 0 0 .69.32 1.94 1.94 0 0 0 1.06-.13 5.37 5.37 0 0 0 1.59-1c.6-.52 1.15-1.14 1.73-1.7l.28-.26.32-.27a5.26 5.26 0 0 1 1.67-1 16.88 16.88 0 0 1 2.37.81v.07c.18 1.23.1 2.48.27 3.71 0 .19.06.39.1.59s.06.27.1.4a4 4 0 0 0 1.44 2.22 2.31 2.31 0 0 1 .64.56 1.58 1.58 0 0 1 .15.75v.15z" fill="url(#linear-gradient)"/><path class="cls-4" d="M73.05 130.89a25.8 25.8 0 0 0 1 5.32 7.27 7.27 0 0 1-.39 5.28 15.16 15.16 0 0 1-2.56-11c.16-1 .94-4.19 2.3-4.17 1.11 0 .4 1.14.19 1.65a7.83 7.83 0 0 0-.54 2.92z"/><path class="cls-4" d="M74.71 129.59a5.81 5.81 0 0 1-.11 1.25 1.61 1.61 0 0 0 .41-1.15 3.41 3.41 0 0 1 .16-1.24 2.07 2.07 0 0 1 .64-.8.85.85 0 0 0 0 .73 5.42 5.42 0 0 1 .29.7 2.36 2.36 0 0 1-.35 1.55 2.41 2.41 0 0 0 1-1c.1-.24.13-.52.23-.77a.71.71 0 0 1 .58-.49 3.73 3.73 0 0 0 .32.67 2.31 2.31 0 0 1-.19 1.64 1.22 1.22 0 0 0 .93-.85c.05-.18.06-.36.12-.54a1 1 0 0 1 .33-.48.39.39 0 0 1 .22-.09c.18 0 .29.19.35.35a2.66 2.66 0 0 1 .31 1.55 4.55 4.55 0 0 0 .68-1 4 4 0 0 1 .36-.72.92.92 0 0 1 .66-.43 1.46 1.46 0 0 0 .43 1.17c.29-.07.39-.43.55-.69a2 2 0 0 1 .87-.63 2.35 2.35 0 0 0 .91-.59.76.76 0 0 0 0-1 1.05 1.05 0 0 0-.42-.18 12.84 12.84 0 0 0-1.74-.27c-1.58-.17-3.16-.27-4.74-.31h-3.76c-.35 0-.87 0-1.08.35.59.17 1 .21 1.26.82a8.26 8.26 0 0 1 .78 2.45z"/><path d="M258.91 149.26a6.32 6.32 0 0 1 .61 3.82 6.24 6.24 0 0 1-.79 2.14l5.66 2.78 5.15-.39a19.66 19.66 0 0 1 .08-8.7z" fill="#edac98"/><path class="cls-13" d="M258.07 145.71a4 4 0 0 0-.1-2.06c-.15-.45-.38-1.14-.83-1.21s-1.36.79-1.37 1.65a2.27 2.27 0 0 0 .59 1.34 5.3 5.3 0 0 0 1.53 1.45z"/><path class="cls-13" d="M257 142.44l1.35 7.56 3.66 3.37a2.48 2.48 0 0 0 1.4.54l2 .13a2.48 2.48 0 0 0 1.91-.69l2.78-2.74a1.7 1.7 0 0 0 .5-.94l1-6.06-1.86-6.09h-10.61c-.75 1.65-1.45 3.28-2.13 4.92z"/><path class="cls-13" d="M270.48 145.79a5.23 5.23 0 0 1-.14-2.28c.09-.51.22-1.29.64-1.41s1.36.79 1.47 1.74a2.78 2.78 0 0 1-.39 1.53 5.42 5.42 0 0 1-1.28 1.71z"/><path d="M281 160.92a23.2 23.2 0 0 1-11 6.66c-.32.09-.64.17-1 .24l-.43.1c-.55.11-1.11.21-1.67.27a22.75 22.75 0 0 1-3 .2c-.56 0-1.12 0-1.67-.07s-1.05-.08-1.57-.16c-.24 0-.46-.06-.69-.11l-.61-.11a23.23 23.23 0 0 1-12.31-6.82c0-.07.06-.13.08-.2s.15-.38.25-.58l.16-.29a4.49 4.49 0 0 1 1.17-1.23l.94-.68a33.26 33.26 0 0 1 6.4-3.52l.4-.15.21-.07.85-.27.49-.13 1.45-.46.2-.07a6.85 6.85 0 0 0 1.85 1.63 6.18 6.18 0 0 0 4.32 1 5 5 0 0 0 1.24-.42.82.82 0 0 0 .19-.09 4.5 4.5 0 0 0 .95-.7l.21-.22a1.2 1.2 0 0 0 .19-.21l.15-.2a4.51 4.51 0 0 0 .33-.51c.68.12 1.32.24 1.92.37h.08c.66.14 1.28.28 1.85.43l1.49.4a26.7 26.7 0 0 1 4.74 2.24 3.23 3.23 0 0 1 .71.62c.07.08.13.17.2.26a.47.47 0 0 1 .07.12l.17.31a4.62 4.62 0 0 1 .18.49.58.58 0 0 1 0 .1c.21.57.35 1.2.51 1.83z" fill="#fc4963"/><path class="cls-15" d="M252.58 165.43a22.8 22.8 0 0 1-5.51-4.3 5.24 5.24 0 0 1 .32-.79l.16-.29a4.07 4.07 0 0 1 .51-.71 3.55 3.55 0 0 1 1.6-1.2 1.14 1.14 0 0 1 .52 0c.84.18 1.22 1.35 1.52 2.24a21.58 21.58 0 0 1 .51 3.31c.12.69.26 1.31.37 1.74zm28.42-4.5a22.68 22.68 0 0 1-4.7 3.91 8.9 8.9 0 0 1 .94-4.67c.15-.29 1.41-2.75 2.45-2.53a.62.62 0 0 1 .26.12 1 1 0 0 1 .2.26.47.47 0 0 1 .07.12 15.91 15.91 0 0 1 .78 2.79z"/><path d="M262.51 150a11.25 11.25 0 0 0 2.13.57 4.65 4.65 0 0 0 2.39-.54 2.37 2.37 0 0 1-4.52 0z" fill="#f3f2f7"/><path d="M271.45 145.54a33 33 0 0 0 1-6.36 5.46 5.46 0 0 0-.37-2.45c-1.11-2.82-5-4.43-8.26-4.23-2.81.17-6.4 1.73-7.37 4.64a5.65 5.65 0 0 0-.05 3.58c.16 0 .51-1.66.44-1.68a2.62 2.62 0 0 0-.38 1.34 3.33 3.33 0 0 0 .18 1.16c.29.86.69 2.43 1.24 4.81a8.86 8.86 0 0 0 .41-2.53c.35-.37.63-.73 1-1.1-.14-.3-1-2.38-.21-3.22a1.39 1.39 0 0 1 .69-.34c.3-.09 2.94-.89 3.16-.37.08.2-.16.63-1.58 1.66l2.41-1.24c.29-.09.57-.13.67 0s-.35.72-.23.92c.25.42 2.5-1.39 4.32-.69a3.49 3.49 0 0 1 1.83 2c.42 1.1.05 2 .75 3.4a7.55 7.55 0 0 0 .35.7z" fill="#3a3742"/><path d="M273.65 158.37c-.32.89-1.23.73-1.75 1.54-.64 1 .31 2 .19 3.51s-1.31 2.45-2.61 3.88c-.15.16-.3.34-.45.53l-.43.1c-.55.11-1.11.21-1.67.27a22.75 22.75 0 0 1-3 .2c-.56 0-1.12 0-1.67-.07s-1.05-.08-1.57-.16c-.24 0-.46-.06-.69-.11-1.84-2.31-3.12-3.36-3-5.06.12-1.36 1.07-2.11.59-3s-1.85-.5-2.21-1.37c-.15-.36 0-.62.25-1.69s.39-1.76.48-2.27a4 4 0 0 1 .52-.28 3.69 3.69 0 0 1 .85-.27h.3a3.27 3.27 0 0 1 1.38.13c1.17.37 2.1 1.3 3.41 1.83a5.32 5.32 0 0 0 1.19.32 3.57 3.57 0 0 0 .47 0h.75a7.07 7.07 0 0 0 1.49-.28 8.3 8.3 0 0 0 .9-.32 11 11 0 0 0 1.72-1 3.69 3.69 0 0 1 1.88-.76h.22a3.76 3.76 0 0 1 1.73.46l.09.05c0 .08.05.18.07.28.1.44.23 1 .35 1.63.33 1.46.3 1.7.22 1.91z" fill="#f7f7f7"/><path d="M267.5 162.7l-.58 5.5a22.75 22.75 0 0 1-3 .2c-.56 0-1.12 0-1.67-.07l-.6-5.63 1.79-3.55h2.27z" fill="#5f5872"/><path class="cls-20" d="M262.52 155.67a5.44 5.44 0 0 0 2 .49 5.54 5.54 0 0 0 2-.32c-.3 1.1-.59 2.21-.89 3.31h-2.25z"/><path class="cls-21" d="M269.06 153.69a4.64 4.64 0 0 1-1.83 1.84 4.73 4.73 0 0 1-2.44.61l3.23 3.34c.46-.62.93-1.31 1.4-2.08a26.34 26.34 0 0 0 1.7-3.33zm-9.44-.22a7.2 7.2 0 0 0 2 1.72 7.41 7.41 0 0 0 2.46.9l-3.26 3.39c-.46-.62-.93-1.31-1.4-2.08a28.06 28.06 0 0 1-1.69-3.3z"/><path class="cls-15" d="M271.92 160.3l1.14 2.82-3.06 4.47c-.32.09-.64.17-1 .24l-.43.1 3-4.89-1-3.21 2.67-1.57-.36-3.54.16-.11.07.22 1.29 4.18zm-11.23 7.87c-.24 0-.46-.06-.69-.11l-.61-.11-3.31-4.83 1.15-2.82-2.52-1.3 1.36-4.4.09.06.07.05-.35 3.54 2.66 1.57-1 3.21z"/><path class="cls-4" d="M291.5 236.5s3.53 9.7 12.4 4c0 0-5-2.7-4.19-5.61 1-3.29 2.84-15.85-6.66-17.17 0 0-6.29-1.3-8.24 7.12z"/><path class="cls-4" d="M292.43 236.5s-3.53 9.7-12.4 4c0 0 5.05-2.7 4.19-5.61-1-3.29-2.84-15.85 6.66-17.17 0 0 6.29-1.3 8.24 7.12z"/><path class="cls-5" d="M295.32 241.62c-1-.25-.86-5.87-.86-5.87h-5.53s.1 5.62-.86 5.87 3.26 0 3.62 0 4.55.24 3.63 0z"/><ellipse class="cls-6" cx="291.61" cy="228.1" rx="5.48" ry="9.77"/><path class="cls-6" d="M291.5 237.59l3.53 3.76s-.45.13-.62-5.1-2.91 1.34-2.91 1.34z"/><ellipse class="cls-5" cx="291.81" cy="245.57" rx="10.45" ry="5.43"/><ellipse class="cls-5" cx="291.81" cy="227.57" rx="6.78" ry="9.77"/><path d="M305.33 249.16a23.19 23.19 0 0 1-28 1.08c.19-.63.39-1.26.6-1.85a10.06 10.06 0 0 1 4.52-6.64 10.76 10.76 0 0 1 3.5-1.39c.13 0 .27-.06.4-.09l.75-.12.13.16.24.31.72.89.15.19a23.27 23.27 0 0 0 2.07 2.37v.09c.17.53 1.05 3.37 1.06 3.37l1.05-3.41 2.16-2.42.29-.33.14-.15.62-.7.37-.42.19.05a21 21 0 0 1 4.53 1.75c1.66.89 3.14 2.14 3.19 3.72z" fill="#ffc91b"/><path class="cls-4" d="M293.25 221.55s-3.65 6.69-8.94 2.81c0 0 1-6.38 7.3-7s7.51 7.84 7.51 7.84a8.31 8.31 0 0 1-1.42-.37 9 9 0 0 1-4.45-3.28z"/><path class="cls-4" d="M286.57 224.24s-2.46 5.24-.53 10c1 2.51-4.09-7.28-1.23-10.27z"/><path fill="#cc9a2b" d="M285.97 240.34l3.61 4.35 2.05 5.46 1.9-5.53 3.64-4.21-.98-.28-3.58 4.02-1.04 2.79-1.1-2.84-3.33-3.95-1.17.19z"/><path d="M229.76 139.29V328q-1.37.52-2.76 1l-1.74.62-.21.07c-.64.23-1.28.45-1.93.66l-1.06.34a153.67 153.67 0 0 1-6.41 1.96l-2.43.67c-2.49.66-5 1.27-7.52 1.82l-2.31.48c-.76.16-1.53.31-2.3.45s-1.63.3-2.44.44c-.65.12-1.29.22-1.94.32l-.52.09h-.32l-1.74.26h-.26l-.87.12-2.8.37-.88.1c-.7.09-1.41.17-2.12.24l-.8.08-1.29.12h-.32l-1.69.14-2.59.19q-5.44.35-11 .35h-2.63c-.88 0-1.83 0-2.74-.06s-1.58-.05-2.36-.09h-.52l-2.28-.13h-.31q-1.28-.07-2.55-.18c-.61 0-1.22-.1-1.82-.15h-.31c-.73-.06-1.44-.13-2.17-.21s-1.38-.14-2.06-.23l-1.3-.15q-2.67-.33-5.31-.75h-.16l-2.48-.41h-.22c-.95-.16-1.89-.34-2.84-.52s-1.7-.33-2.55-.51q-.36-.06-.72-.15l-2.36-.52c-.88-.2-1.76-.4-2.63-.62-.53-.12-1.06-.26-1.59-.4s-1.14-.28-1.71-.44l-2.39-.65-1-.28c-2.59-.75-5.16-1.55-7.7-2.42V139.29a5.34 5.34 0 0 1 5.34-5.33h104.3a5.34 5.34 0 0 1 5.32 5.33z" fill="url(#linear-gradient-2)"/><path d="M222.06 149v181.68a153.67 153.67 0 0 1-6.41 1.96l-2.43.67c-2.49.66-5 1.27-7.52 1.82l-2.31.48c-.76.16-1.53.31-2.3.45s-1.63.3-2.44.44c-.65.12-1.29.22-1.94.32l-.52.09h-.32l-1.74.26h-.26l-.87.12-2.8.37-.88.1c-.7.09-1.41.17-2.12.24l-.8.08-1.29.12H154c-.73-.06-1.44-.13-2.17-.21s-1.38-.14-2.06-.23l-1.3-.15q-2.67-.33-5.31-.75H143l-2.48-.41h-.22c-.95-.16-1.89-.34-2.84-.52s-1.7-.33-2.55-.51q-.36-.06-.72-.15l-2.36-.52c-.88-.2-1.76-.4-2.63-.62-.53-.12-1.06-.26-1.59-.4s-1.14-.28-1.71-.44l-2.39-.65-1-.28V149z" fill="#fff"/><rect x="133.35" y="177.08" width="80.14" height="5.21" rx="2.61" fill="url(#linear-gradient-3)"/><rect x="133.35" y="195" width="80.14" height="5.21" rx="2.61" fill="url(#linear-gradient-4)"/><rect x="161.91" y="222.69" width="43.14" height="5.21" rx="2.61" fill="url(#linear-gradient-5)"/><path class="cls-29" d="M130.33 131.89v-1.19a37.91 37.91 0 0 1 .3-4.79"/><path d="M134.41 113.44A41.68 41.68 0 0 1 171.79 91c18.82 0 34.71 12 39.79 28.46" stroke-dasharray="13.1 13.1" fill="none" stroke="#fff" stroke-miterlimit="10"/><path class="cls-29" d="M213 125.82a39.34 39.34 0 0 1 .31 4.88v1.11"/><path d="M205.91 90.5a32.45 32.45 0 0 1-12.09 25.3 30.59 30.59 0 0 1-5.46 3.58c-.49.27-1 .51-1.49.73a31.85 31.85 0 0 1-10.73 2.81h-5.56a31.89 31.89 0 0 1-9.77-2.39 9.78 9.78 0 0 1-1.05-.48 30.74 30.74 0 0 1-6.25-3.77 32.55 32.55 0 1 1 52.4-25.78z" opacity=".35" fill="#fddab4"/><path class="cls-3" d="M196.54 90.48a23.11 23.11 0 0 1-8.61 18 21.92 21.92 0 0 1-3.89 2.55c-.35.19-.7.36-1.06.52a22.75 22.75 0 0 1-7.64 2h-4a22.77 22.77 0 0 1-7-1.7c-.25-.1-.5-.21-.75-.34a21.88 21.88 0 0 1-4.45-2.69 23.18 23.18 0 1 1 37.32-18.36z"/><path class="cls-5" d="M177.35 94.9c-.91-.22-1.43-4.51-1.43-4.51h-5.17s.1 5-.8 5.23 3.05 0 3.39 0 4.87-.5 4.01-.72z"/><ellipse class="cls-6" cx="174.07" cy="83.59" rx="6.15" ry="8.7"/><path class="cls-6" d="M173.94 92l4 3.35s-.52.11-.7-4.54-3.3 1.19-3.3 1.19z"/><ellipse class="cls-5" cx="174.29" cy="99.13" rx="11.74" ry="4.83"/><ellipse class="cls-5" cx="174.29" cy="83.11" rx="7.62" ry="8.7"/><path class="cls-5" d="M180.7 83.33c0 4.8-3.18 11.43-6.66 11.43s-5.94-6.63-5.94-11.43 2.82-8.7 6.3-8.7 6.3 3.9 6.3 8.7z"/><path class="cls-32" d="M168 94.47l3.36 3.87 1.92 4.87 1.77-4.92 3.4-3.75-.92-.24-3.34 3.57-.97 2.49-1.02-2.54-3.11-3.51-1.09.16z"/><path class="cls-33" d="M167.72 83.46c-.14-.53-.39-1.12 0-1.58a2.85 2.85 0 0 1 1.1-.65 4.56 4.56 0 0 0 2.67-3c2.09 1.45 5 1.88 7.82 1.8a3 3 0 0 0 .86 2 2.43 2.43 0 0 1 .44.53 1.76 1.76 0 0 1 .09 1.11c-.17 1.44-.47 2.64.07 4 1.07-1.25 2.65-2.28 3.13-3.75.64-1.93.17-4 .09-6a3.43 3.43 0 0 0-.53-2.14 4.27 4.27 0 0 0-.95-.77 15.68 15.68 0 0 0-4.57-2.29 13.75 13.75 0 0 0-6.09 0 12.28 12.28 0 0 0-4.8 1.9 4.66 4.66 0 0 0-2.17 3.79c0 1 .52 1.89.66 2.86.21 1.43-.51 3.39.69 4.63.21.22 1.05 1.85 1.34 1.84s0-1.66.2-1.92a3.65 3.65 0 0 0-.05-2.36z"/><path class="cls-34" d="M187.93 108.5a21.92 21.92 0 0 1-3.89 2.55l-1-6.11c0 2.2 0 4.42-.05 6.63a22.75 22.75 0 0 1-7.64 2h-4a22.77 22.77 0 0 1-7-1.7l.3-6.24-1.05 5.9a21.88 21.88 0 0 1-4.45-2.69l1-7.27a5.77 5.77 0 0 1 .48-1.7 4.22 4.22 0 0 1 .94-1.29 23.83 23.83 0 0 1 6-4.36l1.15-.47 1.28-.53a7.45 7.45 0 0 0 .48.69 6.82 6.82 0 0 0 .53.58 5.44 5.44 0 0 0 .43.36 4 4 0 0 0 1.9.78h1.08a2.73 2.73 0 0 0 1.7-.62 3.12 3.12 0 0 0 .5-.53l.05-.06a4.45 4.45 0 0 0 .5-.9v-.08c.51.11 1 .22 1.44.35 1.06.28 2 .59 2.75.87a19.35 19.35 0 0 1 3.67 2.24 3.05 3.05 0 0 1 .9 1.33c.07.2.11.37.14.49s0 .08 0 .1c.6 3.26 1.22 7.51 1.22 7.51.4.73.52 1.45.64 2.17z"/><path class="cls-20" d="M172.26 96a3.83 3.83 0 0 1 .81-.28 3.78 3.78 0 0 1 2.6.45l-.74 3.33H173z"/><path class="cls-21" d="M177.37 93.3a4.42 4.42 0 0 1-1.37 1.8 3 3 0 0 1-1.85.59l2.43 3.31q.53-.92 1-2a29.11 29.11 0 0 0 1.29-3.25zm-7.15-.21a6.42 6.42 0 0 0 1.51 1.67 4.82 4.82 0 0 0 1.86.88L171.12 99q-.52-.92-1.05-2a28.6 28.6 0 0 1-1.28-3.22z"/><path class="cls-20" d="M172.97 99.72l-1.44 1.86 1.66 11.73h.77V99.72h-.99zm1.99 0l1.44 1.86-1.66 11.73h-.78V99.72h1z"/><path class="cls-33" d="M167.94 85.78a11.45 11.45 0 0 1-.5 2.9 18.46 18.46 0 0 0 .16-3.93c0-.48-.43-3.5 0-3.73s.65.83.61 1.19c-.06.6-.34 1.12-.35 1.75s.08 1.21.08 1.82z"/><path class="cls-3" d="M154.8 223.84a12.06 12.06 0 0 1-4.48 9.39 11.83 11.83 0 0 1-2 1.33c-.18.1-.36.18-.55.27a11.82 11.82 0 0 1-4 1h-2.07a11.58 11.58 0 0 1-3.62-.89l-.39-.17a11.83 11.83 0 0 1-2.32-1.4 12.08 12.08 0 1 1 19.44-9.57z"/><path class="cls-5" d="M144.8 226.14c-.47-.11-.74-2.35-.74-2.35h-2.69s0 2.61-.42 2.72 1.59 0 1.76 0 2.54-.25 2.09-.37z"/><ellipse class="cls-6" cx="143.09" cy="220.25" rx="3.21" ry="4.53"/><path class="cls-6" d="M143 224.65l2.07 1.74s-.27.06-.36-2.37-1.71.63-1.71.63z"/><ellipse class="cls-5" cx="143.21" cy="228.35" rx="6.12" ry="2.52"/><ellipse class="cls-5" cx="143.21" cy="220" rx="3.97" ry="4.53"/><path class="cls-5" d="M146.55 220.11c0 2.51-1.66 6-3.47 6s-3.09-3.45-3.09-6 1.46-4.53 3.28-4.53 3.28 2.03 3.28 4.53z"/><path class="cls-32" d="M139.93 225.92l1.76 2.02.99 2.53.93-2.56 1.77-1.96-.48-.12-1.74 1.86-.51 1.3-.53-1.32-1.62-1.84-.57.09z"/><path class="cls-33" d="M139.79 220.18c-.08-.27-.21-.58 0-.82a1.52 1.52 0 0 1 .57-.34 2.36 2.36 0 0 0 1.39-1.55 6.93 6.93 0 0 0 4.07.94 1.58 1.58 0 0 0 .45 1.07 1.43 1.43 0 0 1 .23.27 1 1 0 0 1 .05.58 4 4 0 0 0 0 2.09c.56-.65 1.39-1.19 1.64-1.95a8.78 8.78 0 0 0 0-3.11 1.69 1.69 0 0 0-.28-1.11 2 2 0 0 0-.49-.4 8 8 0 0 0-2.38-1.19 6.93 6.93 0 0 0-3.17 0 6.23 6.23 0 0 0-2.5 1 2.43 2.43 0 0 0-1.14 2c0 .51.28 1 .35 1.49.11.75-.27 1.77.36 2.42.11.11.54 1 .69 1s0-.86.11-1a1.88 1.88 0 0 0 .05-1.39z"/><path class="cls-34" d="M150.32 233.23a11.83 11.83 0 0 1-2 1.33l-.53-3.19v3.46a11.82 11.82 0 0 1-4 1h-2.07a11.58 11.58 0 0 1-3.62-.89l.15-3.25-.54 3.08a11.83 11.83 0 0 1-2.32-1.4l.52-3.79a3.53 3.53 0 0 1 .25-.89 2.42 2.42 0 0 1 .49-.67 12.47 12.47 0 0 1 3.14-2.27l.6-.25.66-.28a4 4 0 0 0 .25.36 2.56 2.56 0 0 0 .28.3l.22.19a2.13 2.13 0 0 0 1 .41h.53a1.43 1.43 0 0 0 .88-.32 1.37 1.37 0 0 0 .26-.28 1.89 1.89 0 0 0 .26-.47l.75.18c.55.15 1 .31 1.43.46a10.27 10.27 0 0 1 1.92 1.16 1.7 1.7 0 0 1 .47.7c0 .1.05.19.07.25v.05c.31 1.7.63 3.91.63 3.91.19.36.25.73.32 1.11z"/><path class="cls-20" d="M142.15 226.7a1.59 1.59 0 0 1 .42-.15 1.91 1.91 0 0 1 1.36.24l-.39 1.73h-1z"/><path class="cls-21" d="M144.81 225.31a2.24 2.24 0 0 1-.72.94 1.54 1.54 0 0 1-1 .3l1.27 1.71c.18-.32.37-.67.55-1.06a15.22 15.22 0 0 0 .67-1.7zm-3.72-.11a3.32 3.32 0 0 0 .79.87 2.52 2.52 0 0 0 1 .46l-1.28 1.73c-.18-.32-.37-.67-.55-1.06a15.81 15.81 0 0 1-.67-1.68z"/><path class="cls-20" d="M142.52 228.65l-.75.97.87 6.12h.4v-7.09h-.52z"/><path class="cls-20" d="M143.56 228.65l.75.97-.87 6.12h-.4v-7.09h.52z"/><path class="cls-33" d="M139.9 221.39a6 6 0 0 1-.26 1.51 9.34 9.34 0 0 0 .08-2.05c0-.25-.22-1.82 0-1.94s.34.43.32.62-.18.58-.19.91.05.63.05.95z"/><rect x="147.72" y="273.29" width="50.53" height="15.31" rx="7.66" fill="url(#linear-gradient-6)"/></g></g></svg>