<svg xmlns="http://www.w3.org/2000/svg" viewBox="0 0 339 339"><defs><style>.cls-1{fill:#1b0f19}.cls-5{fill:#fff}.cls-6{fill:#53c168}.cls-7{fill:#42ad53}</style><linearGradient id="linear-gradient" x1="57.77" y1="93.3" x2="325.48" y2="235.84" gradientUnits="userSpaceOnUse"><stop offset="0" stop-color="#fff"/><stop offset="1" stop-color="#c9c9c9"/></linearGradient></defs><g id="Layer_2" data-name="Layer 2"><g id="Layer_1-2" data-name="Layer 1"><path class="cls-1" d="M339 169.5a171.06 171.06 0 0 1-2.19 27.34q-1 5.88-2.31 11.62c-.18.77-.36 1.53-.55 2.29-.15.59-.3 1.18-.46 1.76-.07.3-.15.6-.23.89-.34 1.28-.69 2.55-1.06 3.81q-1.05 3.57-2.25 7.07c-.16.5-.34 1-.52 1.5q-1.92 5.49-4.22 10.79c-.23.54-.46 1.08-.71 1.62q-1.19 2.7-2.49 5.36-.48 1-1 2a135.068 135.068 0 0 1-2.99 5.66c-.66 1.18-1.45 2.61-2.21 3.89-.27.47-.55.93-.83 1.4q-2.6 4.35-5.47 8.53c-.31.46-.62.91-.94 1.36-1.06 1.53-2.14 3-3.26 4.52l-1.31 1.77q-1.39 1.81-2.85 3.6c-.46.56-.91 1.12-1.37 1.67l-.08.09c-.84 1-1.69 2-2.54 3q-1.71 2-3.5 3.87l-1.55 1.65q-1.58 1.65-3.21 3.27c-1.07 1.07-2.17 2.12-3.28 3.17l-1.67 1.55-1.69 1.53-1.71 1.5-1.74 1.49c-.58.49-1.16 1-1.75 1.46s-1.17 1-1.77 1.44q-2.68 2.13-5.44 4.17l-1.85 1.32q-1.86 1.34-3.76 2.61c-.63.43-1.27.85-1.91 1.27s-1.27.83-1.92 1.24q-1.25.8-2.49 1.56l-1.41.85c-1.33.8-2.66 1.57-4 2.34l-2.55 1.4c-1.39.75-2.8 1.49-4.22 2.2l-2.21 1.1-2.22 1.06c-.75.35-1.5.7-2.26 1s-1.51.68-2.27 1-1.38.6-2.07.88c-1 .43-2.06.85-3.1 1.26l-.19.07c-1.45.57-2.92 1.13-4.4 1.66l-1.74.62-.21.07c-.64.23-1.28.45-1.93.66a149 149 0 0 1-5.07 1.6c-.81.24-1.61.48-2.41.7l-2.43.67c-2.49.66-5 1.27-7.52 1.82l-2.31.48c-.76.16-1.53.31-2.3.45s-1.63.3-2.44.44c-.65.12-1.29.22-1.94.32l-.52.09h-.32l-1.74.26h-.26l-.87.12-2.8.37-.88.1c-.7.09-1.41.17-2.12.24l-.8.08-1.61.15-1.69.14-2.59.19q-5.44.35-11 .35h-2.63c-.88 0-1.83 0-2.74-.06s-1.58-.05-2.36-.09h-.52l-2.28-.13h-.31q-1.28-.07-2.55-.18c-.61 0-1.22-.1-1.82-.15-.83-.07-1.65-.15-2.48-.24s-1.38-.14-2.06-.23l-1.3-.15q-2.67-.33-5.31-.75c-.88-.13-1.76-.28-2.64-.43h-.22c-.95-.16-1.89-.34-2.84-.52s-1.7-.33-2.55-.51q-.36-.06-.72-.15l-2.36-.52c-.88-.2-1.76-.4-2.63-.62-.53-.12-1.06-.26-1.59-.4s-1.14-.28-1.71-.44l-2.39-.65a168.19 168.19 0 0 1-28.62-11l-1.07-.53-2.3-1.13q-5.17-2.68-10.14-5.72c-.3-.17-.59-.35-.88-.53l-.89-.56-2.17-1.38-1.94-1.28c-.66-.44-1.31-.91-2-1.36s-1.5-1-2.24-1.54c-1.62-1.16-3.22-2.33-4.8-3.54-.85-.65-1.69-1.31-2.52-2q-3.75-3-7.33-6.18l-2.33-2.12c-.78-.72-1.55-1.45-2.32-2.2-.76-.73-1.51-1.47-2.25-2.21s-1.5-1.51-2.24-2.28c-.67-.7-1.34-1.4-2-2.11-.11-.13-.23-.25-.36-.38l-2-2.17-1.6-1.82-1.21-1.41c-1.19-1.4-2.35-2.81-3.5-4.25-.62-.78-1.24-1.57-1.85-2.37s-1.21-1.59-1.8-2.39l-.23-.32c-.6-.81-1.19-1.62-1.77-2.44A169.52 169.52 0 1 1 339 169.5z"/><path d="M339 169.5a171.06 171.06 0 0 1-2.19 27.34q-1 5.88-2.31 11.62c-.18.77-.36 1.53-.55 2.29-.15.59-.3 1.18-.46 1.76-.07.3-.15.6-.23.89-.34 1.28-.69 2.55-1.06 3.81q-1.05 3.57-2.25 7.07c-.16.5-.34 1-.52 1.5q-1.92 5.49-4.22 10.79c-.23.54-.46 1.08-.71 1.62q-1.19 2.7-2.49 5.36-.48 1-1 2a135.068 135.068 0 0 1-2.99 5.66c-.66 1.18-1.45 2.61-2.21 3.89-.27.47-.55.93-.83 1.4q-2.6 4.35-5.47 8.53c-.31.46-.62.91-.94 1.36-1.06 1.53-2.14 3-3.26 4.52l-1.31 1.77q-1.39 1.81-2.85 3.6c-.46.56-.91 1.12-1.37 1.67l-.08.09c-.83 1-1.68 2-2.54 3q-1.71 2-3.5 3.87l-1.55 1.65q-1.58 1.65-3.21 3.27c-1.07 1.07-2.17 2.12-3.28 3.17l-1.67 1.55-1.69 1.53-1.71 1.5-1.74 1.49c-.58.49-1.16 1-1.75 1.46s-1.17 1-1.77 1.44q-2.36 1.89-4.78 3.69l-.66.48-1.85 1.32q-1.86 1.34-3.76 2.61c-.63.43-1.27.85-1.91 1.27l-.88.58-1 .66q-1.25.8-2.49 1.56l-1.41.85-.1.06c-1.29.77-2.59 1.54-3.91 2.28l-2.55 1.4c-1.4.76-2.8 1.49-4.22 2.2l-2.21 1.1-2.22 1.06c-.75.35-1.5.7-2.26 1s-1.51.68-2.27 1-1.38.6-2.07.88c-1 .43-2.06.85-3.1 1.26l-.19.07-1.64.64q-1.37.52-2.76 1l-1.74.62-.21.07c-.64.23-1.28.45-1.93.66l-1.06.34a153.67 153.67 0 0 1-6.41 1.96l-2.43.67c-2.49.66-5 1.27-7.52 1.82l-2.31.48c-.76.16-1.53.31-2.3.45s-1.63.3-2.44.44c-.65.12-1.29.22-1.94.32l-.52.09h-.32l-1.74.26h-.26l-.87.12-2.8.37-.88.1c-.7.09-1.41.17-2.12.24l-.8.08-1.29.12h-.32l-1.69.14-2.59.19q-5.44.35-11 .35h-2.63c-.88 0-1.83 0-2.74-.06s-1.58-.05-2.36-.09h-.52l-2.28-.13h-.31q-1.28-.07-2.55-.18c-.61 0-1.22-.1-1.82-.15h-.31c-.73-.06-1.44-.13-2.17-.21s-1.38-.14-2.06-.23l-1.3-.15q-2.67-.33-5.31-.75h-.16l-2.48-.41h-.22c-.95-.16-1.89-.34-2.84-.52s-1.7-.33-2.55-.51q-.36-.06-.72-.15l-2.36-.52c-.88-.2-1.76-.4-2.63-.62-.53-.12-1.06-.26-1.59-.4s-1.14-.28-1.71-.44l-2.39-.65-1-.28c-2.59-.75-5.16-1.55-7.7-2.42a169.32 169.32 0 0 1-19.94-8.27l-1.07-.53-2.32-1.16q-5.17-2.68-10.14-5.72l-1.77-1.09-2.17-1.38-1.94-1.28q-4.6-3.07-9-6.44c-.85-.65-1.69-1.31-2.52-2q-3.75-3-7.33-6.18l-2.33-2.12-2.32-2.18c-.76-.73-1.51-1.47-2.25-2.21s-1.5-1.51-2.24-2.28c-.67-.7-1.34-1.4-2-2.11-.11-.13-.23-.25-.36-.38l-2-2.17-1.6-1.82-1.21-1.41c-1.19-1.4-2.35-2.81-3.5-4.25-.62-.78-1.24-1.57-1.85-2.37s-1.21-1.59-1.8-2.39l-.23-.32c-.6-.81-1.19-1.62-1.77-2.44a169.56 169.56 0 0 1 .08-196 170.33 170.33 0 0 1 33.22-35h54.01v-2.04h107v2.08h49.09a169.27 169.27 0 0 1 64.41 133z" fill="#643c3c"/><path d="M233.72 71.47v174.71H18.3A169.66 169.66 0 0 1 31.21 71.47z" fill="#fddab4"/><path fill="#6fe281" d="M77.2 142.66l-28.79 28.8v40.27h60.5v-40.27l-31.71-28.8z"/><path class="cls-5" d="M51.79 144.47h53.25v63.62H51.79z"/><path class="cls-6" d="M48.41 171.46L78 190.09l30.91-18.63v40.27h-60.5v-40.27z"/><path class="cls-7" d="M77.84 189.69l-29.43 22.04h60.5l-31.07-22.04z"/><path class="cls-7" d="M108.91 171.46l-31.07 18.23 31.07 22.04v-40.27z"/><rect class="cls-1" x="56.5" y="154.18" width="30.41" height="2.39" rx="1.19"/><rect class="cls-1" x="56.5" y="161.34" width="12.94" height="2.39" rx="1.19"/><rect class="cls-1" x="56.5" y="172.31" width="12.94" height="2.39" rx="1.19"/><rect class="cls-1" x="83.87" y="172.31" width="12.94" height="2.39" rx="1.19"/><path d="M113.67 116.5a.41.41 0 0 1 0 .62L98.8 131.83a2.27 2.27 0 0 1-2.65.53 2.32 2.32 0 0 1-1.49-2.36v-5.55a.39.39 0 0 0-.44-.4c-1.63.15-3.2.26-4.74.49a19.05 19.05 0 0 0-11.79 6.15c-.59.66-1.13 1.37-1.67 2.07a.41.41 0 0 1-.73-.25v-2.12c.11-.85.2-1.7.33-2.54a21.67 21.67 0 0 1 16.66-17.73c.67-.15 1.36-.27 2-.4a.4.4 0 0 0 .33-.4v-5.57a3.47 3.47 0 0 1 .07-.79 2.56 2.56 0 0 1 1.9-1.87h.79a4.23 4.23 0 0 1 1.87 1.22q7.1 7 14.22 14a.88.88 0 0 0 .21.19z" fill="#443939" id="Rov8ja.tif"/><rect x="133.09" y="36.19" width="136.84" height="267.28" rx="5.34" fill="url(#linear-gradient)"/><path class="cls-5" d="M142.25 54.09h118.5v225.28h-118.5z"/><path class="cls-5" d="M142.69 53.58h117.46v225.57H142.69z"/><path class="cls-6" d="M142.34 53.51h118.31v76.23H142.34z"/><rect class="cls-1" x="157.08" y="192.79" width="28.54" height="5.27" rx="2.63"/><rect class="cls-1" x="157.08" y="163.85" width="34.84" height="5.27" rx="2.63"/><rect class="cls-1" x="157.08" y="148" width="50.93" height="5.27" rx="2.63"/><rect class="cls-1" x="157.08" y="214.98" width="28.54" height="5.27" rx="2.63"/><rect class="cls-1" x="217.44" y="214.98" width="28.54" height="5.27" rx="2.63"/><rect class="cls-1" x="217.44" y="194.78" width="28.54" height="5.27" rx="2.63"/><rect class="cls-1" x="217.44" y="254.94" width="28.54" height="5.27" rx="2.63"/><rect class="cls-1" x="204.59" y="234.74" width="41.39" height="5.27" rx="2.63"/><rect class="cls-5" x="154.27" y="82.3" width="45.94" height="4.24" rx="2.12"/><rect class="cls-5" x="154.27" y="100.22" width="45.94" height="4.24" rx="2.12"/><circle class="cls-5" cx="231.97" cy="94.47" r="13.19"/></g></g></svg>