<svg xmlns="http://www.w3.org/2000/svg" xmlns:xlink="http://www.w3.org/1999/xlink" viewBox="0 0 339 339"><defs><style>.cls-8{fill:#0a0908}.cls-16{fill:#ffbd7b}</style><linearGradient id="linear-gradient" x1="79.7" y1="262.24" x2="51.03" y2="35.16" gradientUnits="userSpaceOnUse"><stop offset="0" stop-color="#fff"/><stop offset="1" stop-color="#c9c9c9"/></linearGradient><linearGradient id="linear-gradient-2" x1="184.83" y1="237.59" x2="228.2" y2="237.59" gradientTransform="rotate(39.31 113.754 138.75)" xlink:href="#linear-gradient"/><linearGradient id="linear-gradient-3" x1="74.57" y1="271.74" x2="98.41" y2="271.74" xlink:href="#linear-gradient"/><linearGradient id="linear-gradient-4" x1="98.42" y1="281" x2="101.28" y2="281" xlink:href="#linear-gradient"/><linearGradient id="linear-gradient-5" x1="90.63" y1="112.35" x2="316.7" y2="232.71" xlink:href="#linear-gradient"/></defs><g id="Layer_2" data-name="Layer 2"><g id="Layer_1-2" data-name="Layer 1"><path d="M339 169.5a171.06 171.06 0 0 1-2.19 27.34q-1 5.88-2.31 11.62c-.18.77-.36 1.53-.55 2.29-.15.59-.3 1.18-.46 1.76-.07.3-.15.6-.23.89-.34 1.28-.69 2.55-1.06 3.81q-1.05 3.57-2.25 7.07c-.16.5-.34 1-.52 1.5q-1.92 5.49-4.22 10.79c-.23.54-.46 1.08-.71 1.62q-1.19 2.7-2.49 5.36-.48 1-1 2a135.068 135.068 0 0 1-2.99 5.66c-.66 1.18-1.45 2.61-2.21 3.89-.27.47-.55.93-.83 1.4q-2.6 4.35-5.47 8.53c-.31.46-.62.91-.94 1.36-1.06 1.53-2.14 3-3.26 4.52l-1.31 1.77q-1.39 1.81-2.85 3.6c-.46.56-.91 1.12-1.37 1.67l-.08.09c-.84 1-1.69 2-2.54 3q-1.71 2-3.5 3.87l-1.55 1.65q-1.58 1.65-3.21 3.27c-1.07 1.07-2.17 2.12-3.28 3.17l-1.67 1.55-1.69 1.53-1.71 1.5-1.74 1.49c-.58.49-1.16 1-1.75 1.46s-1.17 1-1.77 1.44q-2.68 2.13-5.44 4.17l-1.85 1.32q-1.86 1.34-3.76 2.61c-.63.43-1.27.85-1.91 1.27s-1.27.83-1.92 1.24q-1.25.8-2.49 1.56l-1.41.85c-1.33.8-2.66 1.57-4 2.34l-2.55 1.4c-1.39.75-2.8 1.49-4.22 2.2l-2.21 1.1-2.22 1.06c-.75.35-1.5.7-2.26 1s-1.51.68-2.27 1-1.38.6-2.07.88c-1 .43-2.06.85-3.1 1.26l-.19.07c-1.45.57-2.92 1.13-4.4 1.66l-1.74.62-.21.07c-.64.23-1.28.45-1.93.66a149 149 0 0 1-5.07 1.6c-.81.24-1.61.48-2.41.7l-2.43.67c-2.49.66-5 1.27-7.52 1.82l-2.31.48c-.76.16-1.53.31-2.3.45s-1.63.3-2.44.44c-.65.12-1.29.22-1.94.32l-.52.09h-.32l-1.74.26h-.26l-.87.12-2.8.37-.88.1c-.7.09-1.41.17-2.12.24l-.8.08-1.61.15-1.69.14-2.59.19q-5.44.35-11 .35h-2.63c-.88 0-1.83 0-2.74-.06s-1.58-.05-2.36-.09h-.52l-2.28-.13h-.31q-1.28-.07-2.55-.18c-.61 0-1.22-.1-1.82-.15-.83-.07-1.65-.15-2.48-.24s-1.38-.14-2.06-.23l-1.3-.15q-2.67-.33-5.31-.75c-.88-.13-1.76-.28-2.64-.43h-.22c-.95-.16-1.89-.34-2.84-.52s-1.7-.33-2.55-.51q-.36-.06-.72-.15l-2.36-.52c-.88-.2-1.76-.4-2.63-.62-.53-.12-1.06-.26-1.59-.4s-1.14-.28-1.71-.44l-2.39-.65a168.19 168.19 0 0 1-28.62-11l-1.07-.53-2.3-1.13q-5.17-2.68-10.14-5.72c-.3-.17-.59-.35-.88-.53l-.89-.56-2.17-1.38-1.94-1.28c-.66-.44-1.31-.91-2-1.36l-2.23-1.54c-1.62-1.16-3.22-2.33-4.8-3.54-.85-.65-1.69-1.31-2.52-2q-3.75-3-7.33-6.18l-2.33-2.12c-.78-.72-1.55-1.45-2.32-2.2-.76-.73-1.51-1.47-2.25-2.21s-1.5-1.51-2.24-2.28c-.67-.7-1.34-1.4-2-2.11-.11-.13-.23-.25-.36-.38l-2-2.17-1.6-1.82-1.21-1.41c-1.19-1.4-2.35-2.81-3.5-4.25-.62-.78-1.24-1.57-1.85-2.37s-1.21-1.59-1.8-2.39l-.23-.32c-.6-.81-1.19-1.62-1.77-2.44A169.52 169.52 0 1 1 339 169.5z" fill="#1b0f19"/><path d="M339 169.5a171.06 171.06 0 0 1-2.19 27.34q-1 5.88-2.31 11.62c-.18.77-.36 1.53-.55 2.29-.15.59-.3 1.18-.46 1.76-.07.3-.15.6-.23.89-.34 1.28-.69 2.55-1.06 3.81q-1.05 3.57-2.25 7.07c-.16.5-.34 1-.52 1.5q-1.92 5.49-4.22 10.79c-.23.54-.46 1.08-.71 1.62q-1.19 2.7-2.49 5.36-.48 1-1 2a135.068 135.068 0 0 1-2.99 5.66c-.66 1.18-1.45 2.61-2.21 3.89-.27.47-.55.93-.83 1.4q-2.6 4.35-5.47 8.53c-.31.46-.62.91-.94 1.36-1.06 1.53-2.14 3-3.26 4.52l-1.31 1.77q-1.39 1.81-2.85 3.6c-.46.56-.91 1.12-1.37 1.67l-.08.09c-.83 1-1.68 2-2.54 3q-1.71 2-3.5 3.87l-1.55 1.65q-1.58 1.65-3.21 3.27c-1.07 1.07-2.17 2.12-3.28 3.17l-1.67 1.55-1.69 1.53-1.71 1.5-1.74 1.49c-.58.49-1.16 1-1.75 1.46s-1.17 1-1.77 1.44q-2.36 1.89-4.78 3.69l-.66.48-1.85 1.32q-1.86 1.34-3.76 2.61c-.63.43-1.27.85-1.91 1.27l-.88.58-1 .66q-1.25.8-2.49 1.56l-1.41.85-.1.06c-1.29.77-2.59 1.54-3.91 2.28l-2.55 1.4c-1.4.76-2.8 1.49-4.22 2.2l-2.21 1.1-2.22 1.06c-.75.35-1.5.7-2.26 1s-1.51.68-2.27 1-1.38.6-2.07.88c-1 .43-2.06.85-3.1 1.26l-.19.07-1.64.64q-1.37.52-2.76 1l-1.74.62-.21.07c-.64.23-1.28.45-1.93.66l-1.06.34a153.67 153.67 0 0 1-6.41 1.96l-2.43.67c-2.49.66-5 1.27-7.52 1.82l-2.31.48c-.76.16-1.53.31-2.3.45s-1.63.3-2.44.44c-.65.12-1.29.22-1.94.32l-.52.09h-.32l-1.74.26h-.26l-.87.12-2.8.37-.88.1c-.7.09-1.41.17-2.12.24l-.8.08-1.29.12h-.32l-1.69.14-2.59.19q-5.44.35-11 .35h-2.63c-.88 0-1.83 0-2.74-.06s-1.58-.05-2.36-.09h-.52l-2.28-.13h-.31q-1.28-.07-2.55-.18c-.61 0-1.22-.1-1.82-.15h-.31c-.73-.06-1.44-.13-2.17-.21s-1.38-.14-2.06-.23l-1.3-.15q-2.67-.33-5.31-.75h-.16l-2.48-.41h-.22c-.95-.16-1.89-.34-2.84-.52s-1.7-.33-2.55-.51q-.36-.06-.72-.15l-2.36-.52c-.88-.2-1.76-.4-2.63-.62-.53-.12-1.06-.26-1.59-.4s-1.14-.28-1.71-.44l-2.39-.65-1-.28c-2.59-.75-5.16-1.55-7.7-2.42a169.32 169.32 0 0 1-19.94-8.27l-1.07-.53-2.32-1.16q-5.17-2.68-10.14-5.72l-1.77-1.09-2.17-1.38-1.94-1.28q-4.6-3.07-9-6.44c-.85-.65-1.69-1.31-2.52-2q-3.75-3-7.33-6.18l-2.33-2.12-2.32-2.18c-.76-.73-1.51-1.47-2.25-2.21s-1.5-1.51-2.24-2.28c-.67-.7-1.34-1.4-2-2.11-.11-.13-.23-.25-.36-.38l-2-2.17-1.6-1.82-1.21-1.41c-1.19-1.4-2.35-2.81-3.5-4.25-.62-.78-1.24-1.57-1.85-2.37s-1.21-1.59-1.8-2.39l-.23-.32c-.6-.81-1.19-1.62-1.77-2.44A169.52 169.52 0 0 1 64.43 36.5h54.07v-2.08h107v2.08h49.09a169.27 169.27 0 0 1 64.41 133z" fill="#643c3c"/><path d="M118 223.8c-1.45 2.45-4.06 3.95-6.58 5.28-15.89 8.44-33.32 15.5-44.87 29.29a55.83 55.83 0 0 0-17.7-40.29c-3.63-3.36-7.71-6.22-11.09-9.83a36.16 36.16 0 0 1-9-17.39c-1.75-8.54-7.52-34.53-7.52-34.53s16.79-4 23-7a2.48 2.48 0 0 1 3.51 1.81c.12.71.22 1.33.27 1.8q.61 6.39 1.43 12.77.72 5.74 1.6 11.47c.22 1.48.46 2.95.7 4.42q1-2.82 1.9-5.67c1.44-4.38 2.82-8.81 4-13.27a87.77 87.77 0 0 0 2.79-17.5 10.54 10.54 0 0 1 4.62-8.16l3.1-2.13c9.84 7.72 11.84 21.5 16.29 33.21a87.13 87.13 0 0 0 13.79 23.49 16 16 0 0 1-10.35 5.06A30.56 30.56 0 0 1 62 186.77a49.42 49.42 0 0 0 9.33 14.57c1.66 1.89 3.41 3.71 5.18 5.48a31 31 0 0 0 6 5c.43.25.87.48 1.32.7a40.68 40.68 0 0 0 5.81 2.11c6.79 2.07 13.74 4 20.84 4a47.33 47.33 0 0 0 8.63-1 9.45 9.45 0 0 1-1.11 6.17z" fill="url(#linear-gradient)"/><path d="M57.71 162.69c2-1.45 3.92-3.19 6-4.64M32.47 172.7a16.38 16.38 0 0 1 2.42-5.55 4.2 4.2 0 0 1 1.61-1.55 4.57 4.57 0 0 1 2-.28c3.66.1 7.42.73 11 .42m-14.97 18.4a47.82 47.82 0 0 1 4.74-3.37 8.52 8.52 0 0 1 3.3-1.43 19.77 19.77 0 0 1 2-.07 17 17 0 0 0 5.9-1.77c.22-.09 0 0 .24-.14m7.64-5.2a9.5 9.5 0 0 1-3.83 3.47M70.33 182a3.16 3.16 0 0 1 1.91-2.21c.92-.44 1.93-.63 2.88-1a16.87 16.87 0 0 0 5.52-4.16M40.66 197c1.81-1.74 3.74-3.55 6.18-4.14 1.19-.28 2.43-.26 3.62-.53 3-.69 5.3-3.15 7.36-5.48m-.48 23.55c.94-1.71 2-3.58 3.92-4.17.6-.19 1.24-.22 1.86-.35a13.09 13.09 0 0 0 4.14-1.95l4.06-2.59m-.49 18.44a52.49 52.49 0 0 1 3.26-4.17 3.83 3.83 0 0 1 1.21-1.06c1.26-.62 2.74.12 4.15.11 1.66 0 3.09-1.07 4.38-2.12" fill="none" stroke="#0a0908" stroke-linecap="round" stroke-linejoin="round"/><path d="M142.46 276.73c-4.05 1.89-8.87 1.32-13-.33s-7.8-4.31-11.58-6.69-7.86-4.53-12.3-5a8.77 8.77 0 0 0-3.19.14c2.61 6.58 7.61 12.15 13.3 16.43 3.53 2.66 7.24 5.22 11.45 6.57s9 1.36 12.84-.93c2.95-1.78 4.19-7.2 2.48-10.19z" fill="url(#linear-gradient-2)"/><path d="M98.41 280.67q-6.84-1.56-13.74-2.91c-1.92-.38-4.08-.7-5.72.39a24.57 24.57 0 0 1-2.07 1.62c-.79.41-2 .29-2.27-.55-.41-1.18 2.45-8 2.74-9.61.35-1.94.38-5.41 2.5-6.49 3-1.52 6 2.94 8.41 7 .18.29.35.58.51.86a42.7 42.7 0 0 0 2.63 4.28 17.21 17.21 0 0 0 7.01 5.41z" fill="url(#linear-gradient-3)"/><path d="M101.28 281.33a10.35 10.35 0 0 1-2.86-.66z" fill="url(#linear-gradient-4)"/><path class="cls-8" d="M88.77 271l-1.61 1a.48.48 0 0 1-.26.07.5.5 0 0 1-.29-.09 7.21 7.21 0 0 0-7-.75.5.5 0 1 1-.4-.91 8.21 8.21 0 0 1 7.69.66l1.34-.81c.2.24.37.53.53.83z"/><path d="M111.94 275.43a2.73 2.73 0 0 1 1.1-.17c2.82.06 5.11 2.12 7.51 3.6a19.8 19.8 0 0 0 7.44 2.71c2.64.39 5.64.11 7.48-1.82" stroke-miterlimit="10" stroke="#0a0908" fill="none"/><rect x="154.07" y="63.8" width="115.87" height="226.34" rx="5.34" fill="url(#linear-gradient-5)"/><path fill="#fff" d="M161.83 78.97h100.35v190.77H161.83z"/><circle cx="212.63" cy="110.72" r="18.71" fill="#53c168"/><path stroke="#fff" stroke-width="3" stroke-linecap="round" stroke-linejoin="round" fill="none" d="M204.16 113.98l4.34 4.34 13.79-13.79"/><rect class="cls-8" x="169.08" y="150.14" width="53.1" height="5.21" rx="2.61"/><rect class="cls-8" x="170.71" y="170.01" width="53.1" height="5.21" rx="2.61"/><rect class="cls-8" x="170.71" y="189.56" width="43" height="5.21" rx="2.61"/><rect class="cls-8" x="223.05" y="189.56" width="22.72" height="5.21" rx="2.61"/><rect class="cls-8" x="170.71" y="209.54" width="43" height="5.21" rx="2.61"/><rect class="cls-8" x="223.05" y="209.54" width="22.72" height="5.21" rx="2.61"/><rect class="cls-8" x="170.71" y="226.48" width="43" height="5.21" rx="2.61"/><rect class="cls-8" x="223.05" y="226.48" width="22.72" height="5.21" rx="2.61"/><rect class="cls-8" x="201.35" y="243.75" width="44.42" height="5.21" rx="2.61"/><circle cx="73.78" cy="91.66" r="31.52" fill="#fddab4"/><path d="M54.72 99.71c2 1.13 2.89 2.1 5.11 1.51-.4 2.68 2.23 4.37 3.5 6.77a15.34 15.34 0 0 0 4.31 5.42c3.13 2.26 7.33 2.4 11.14 1.74a8.77 8.77 0 0 0 2.46-.7 7.33 7.33 0 0 0 2.16-1.72 13.37 13.37 0 0 0 3.32-6.8 10.75 10.75 0 0 0-1.46-7.68c-2.19-3.25-6.36-4.74-10-5.59a49.22 49.22 0 0 0-10.55-1.24c-6.19-.09-8.5-.06-13.38.13.58.14-.46.29 0 .65 1.22.93.26 2.86.65 4.17a5.78 5.78 0 0 0 2.74 3.34z" fill="#e8c9aa"/><circle class="cls-16" cx="74.07" cy="91.66" r="14.71"/><circle cx="74.07" cy="91.66" r="12.63" fill="#443939"/><path class="cls-16" d="M52.37 90.94h7.86V94h-7.86a1.19 1.19 0 0 1-1.19-1.19v-.68a1.19 1.19 0 0 1 1.19-1.19z"/><path d="M68.62 85.54a6.82 6.82 0 0 1 5.57-1.38c-.59.22-1.24.2-1.83.42-1.14.42-1.77 1.6-2.44 2.61a12.29 12.29 0 0 1-3.15 3.24c-.88.62-.57-.68-.44-1.2a6.77 6.77 0 0 1 .79-2 6.41 6.41 0 0 1 1.5-1.69zM76 92.43c.65-.75 1.11-1.65 1.72-2.43a7.72 7.72 0 0 1 4.77-2.8c-1.06.14-1.64 1.31-1.9 2.35a4.92 4.92 0 0 1-1.27 2.89 9.37 9.37 0 0 1-1.45.73 23.88 23.88 0 0 0-2.18 1.64 11.08 11.08 0 0 1-3.55 1.36l-3.35.83a3.27 3.27 0 0 1-1.35.14 1.09 1.09 0 0 1-.92-.9c0-.17 5.26-1.42 5.73-1.55A8.36 8.36 0 0 0 76 92.43z" fill="#cca683"/></g></g></svg>