<svg xmlns="http://www.w3.org/2000/svg" xmlns:xlink="http://www.w3.org/1999/xlink" viewBox="0 0 339 339"><defs><style>.cls-1{fill:#fff;opacity:.1}.cls-7{fill:#ffa131}.cls-25{fill:none}.cls-9{fill:#521c2c}.cls-23{fill:url(#linear-gradient-14)}.cls-25{stroke:#1c1918;stroke-linecap:round;stroke-linejoin:round;stroke-width:.5px}</style><linearGradient id="linear-gradient" x1="123.51" y1="269.29" x2="196.45" y2="269.29" gradientUnits="userSpaceOnUse"><stop offset="0" stop-color="#ff9c73"/><stop offset="1" stop-color="#e28959"/></linearGradient><linearGradient id="linear-gradient-2" x1="215.8" y1="-34.46" x2="253" y2="-34.46" gradientTransform="matrix(.84 -.55 .55 .84 7.48 404.03)" gradientUnits="userSpaceOnUse"><stop offset="0" stop-color="#009245"/><stop offset="1" stop-color="#3f7f63"/></linearGradient><linearGradient id="linear-gradient-3" x1="164.42" y1="260.82" x2="231.4" y2="260.82" gradientUnits="userSpaceOnUse"><stop offset="0" stop-color="#5db06a"/><stop offset="1" stop-color="#3f7f63"/></linearGradient><linearGradient id="linear-gradient-4" x1="180.6" y1="304.79" x2="200.71" y2="304.79" gradientUnits="userSpaceOnUse"><stop offset="0" stop-color="#428564"/><stop offset="1" stop-color="#3f7f63"/></linearGradient><linearGradient id="linear-gradient-5" x1="130.73" y1="178.8" x2="216" y2="178.8" gradientUnits="userSpaceOnUse"><stop offset="0" stop-color="#ffb06a"/><stop offset="1" stop-color="#e28959"/></linearGradient><linearGradient id="linear-gradient-6" x1="112.16" y1="244.62" x2="127.55" y2="244.62" xlink:href="#linear-gradient"/><linearGradient id="linear-gradient-7" x1="114.81" y1="244.16" x2="127.6" y2="244.16" xlink:href="#linear-gradient"/><linearGradient id="linear-gradient-8" x1="119.56" y1="238.45" x2="121" y2="231.25" xlink:href="#linear-gradient"/><linearGradient id="linear-gradient-9" x1="106.36" y1="237.41" x2="131.57" y2="237.41" gradientUnits="userSpaceOnUse"><stop offset="0" stop-color="#fff"/><stop offset="1" stop-color="#c9c9c9"/></linearGradient><linearGradient id="linear-gradient-10" x1="107.42" y1="237.41" x2="130.51" y2="237.41" gradientUnits="userSpaceOnUse"><stop offset="0" stop-color="#2b2b2b"/><stop offset="1" stop-color="#c9c9c9"/></linearGradient><linearGradient id="linear-gradient-11" x1="95.39" y1="267.39" x2="106.12" y2="267.39" xlink:href="#linear-gradient-5"/><linearGradient id="linear-gradient-12" x1="116.08" y1="365.84" x2="121.84" y2="365.84" gradientTransform="matrix(.98 .22 -.22 .98 60.67 -125.18)" xlink:href="#linear-gradient-5"/><linearGradient id="linear-gradient-13" x1="92.92" y1="257.95" x2="98.68" y2="257.95" xlink:href="#linear-gradient-5"/><linearGradient id="linear-gradient-14" x1="89.75" y1="276.65" x2="220.86" y2="276.65" xlink:href="#linear-gradient-5"/><linearGradient id="linear-gradient-15" x1="82.47" y1="257.92" x2="122.5" y2="257.92" xlink:href="#linear-gradient-9"/><linearGradient id="linear-gradient-17" x1="200.67" y1="249.4" x2="224.28" y2="249.4" xlink:href="#linear-gradient-2"/><linearGradient id="linear-gradient-18" x1="227.84" y1="-120" x2="230.34" y2="-120" gradientTransform="rotate(-43.8 620.267 200.57)" xlink:href="#linear-gradient-9"/><linearGradient id="linear-gradient-19" x1="112.61" y1="239.19" x2="117.64" y2="239.19" xlink:href="#linear-gradient"/><linearGradient id="linear-gradient-20" x1="114.68" y1="242.14" x2="120.27" y2="242.14" xlink:href="#linear-gradient"/><linearGradient id="linear-gradient-21" x1="117.45" y1="245.36" x2="122.33" y2="245.36" xlink:href="#linear-gradient"/><linearGradient id="linear-gradient-22" x1="120.36" y1="248.06" x2="124.06" y2="248.06" xlink:href="#linear-gradient"/><linearGradient id="linear-gradient-23" x1="173" y1="167.94" x2="181.66" y2="164.82" xlink:href="#linear-gradient-5"/></defs><g id="Layer_2" data-name="Layer 2"><g id="Layer_1-2" data-name="Layer 1"><path class="cls-1" d="M261.44 311.92a168.46 168.46 0 0 1-80.94 26.73q-5.44.35-11 .35a168.52 168.52 0 0 1-74.66-17.3l-1.07-.53-2.25-1.17a170.15 170.15 0 0 1-16-9.47V178.25c.07-5.92.93-31.67 19.09-55.48q2.37-3.13 5.16-6.19c.75-.82 1.52-1.63 2.31-2.44 27.55-28 62.64-27.75 68.55-27.61 3.44-.24 40.91 2.21 67 30.05a80.11 80.11 0 0 1 5.27 6.19c.2.24.38.49.57.73 15 19.9 17 36.28 16.94 44.4q.54 72.02 1.03 144.02z"/><path d="M339 169.5A169.17 169.17 0 0 1 256.5 315a168.38 168.38 0 0 1-76 23.66q-5.44.35-11 .35a168.52 168.52 0 0 1-74.66-17.3l-1.07-.53-2.25-1.18q-5.64-2.92-11-6.25a170.41 170.41 0 0 1-49.37-46.35A169.52 169.52 0 1 1 339 169.5z" fill="#1b0f19"/><path d="M339 169.5a169.12 169.12 0 0 1-68.5 136.14q-4.42 3.28-9.06 6.28a168.18 168.18 0 0 1-29.85 15.34l-.19.07a166.59 166.59 0 0 1-30.32 8.73c-1.62.31-3.26.59-4.9.85-1.06.17-2.12.33-3.19.47q-6.18.87-12.49 1.27-5.44.35-11 .35h-2.63c-.88 0-1.83 0-2.74-.06a168.26 168.26 0 0 1-69.29-17.24l-1.07-.53-2.25-1.17a170.15 170.15 0 0 1-16-9.47q-4.6-3.07-9-6.44a170.52 170.52 0 0 1-35.37-36.69A169.52 169.52 0 0 1 64.43 36.5h54.07v-2.08a10.92 10.92 0 0 1 10.92-10.92h85.16a10.92 10.92 0 0 1 10.92 10.92v2.08h49.09a169.27 169.27 0 0 1 64.41 133z" fill="#643c3c"/><path d="M270.5 180.5v125.14a168.68 168.68 0 0 1-90 33q-5.44.35-11 .35a168.52 168.52 0 0 1-74.66-17.3l-1.07-.53-2.25-1.16a169.76 169.76 0 0 1-25-15.91V180.5a102 102 0 0 1 102-102 102 102 0 0 1 101.98 102z" fill="#935e58"/><path d="M261.44 311.92a168.46 168.46 0 0 1-80.94 26.73q-5.44.35-11 .35a168.52 168.52 0 0 1-74.66-17.3l-1.07-.53-2.25-1.17a170.15 170.15 0 0 1-16-9.47V178.25c.07-5.92.93-31.67 19.09-55.48.39-.52.8-1 1.21-1.56.58-.73 1.17-1.44 1.78-2.16.35-.42.7-.83 1.07-1.24l1.1-1.23c.75-.82 1.52-1.63 2.31-2.44 27.55-28 62.64-27.75 68.55-27.61 3.44-.24 40.91 2.21 67 30.05 1 1 1.9 2.07 2.83 3.17.39.45.77.91 1.15 1.38v.05q.65.78 1.26 1.59c.2.24.38.49.57.73a101.08 101.08 0 0 1 6.72 10.05 2.53 2.53 0 0 1 .13.22l.11.19c.32.55.63 1.09.92 1.63l.13.23a76.83 76.83 0 0 1 6.74 16.18 56.37 56.37 0 0 1 2.25 15.91q.51 72.01 1 144.01z" fill="#fddab4"/><path d="M242.93 122.77H94.59q2.37-3.13 5.16-6.19h137.91a80.11 80.11 0 0 1 5.27 6.19z" opacity=".52" fill="#ffa131"/><path class="cls-7" d="M112.22 119.52h3.37v14.44h-3.37z"/><path class="cls-7" d="M115.69 133.42h-3.58L107.44 152h14.33zm-5 16.39l1.47-14.22h1.13l1.92 14.22zm109.8-30.29h3.37v14.44h-3.37z"/><path class="cls-7" d="M224 133.42h-3.58L215.71 152H230zm-5 16.39l1.47-14.22h1.13l1.92 14.22z"/><path fill="none" d="M250.35 133.42v.54h.11"/><path class="cls-7" d="M250.46 134c.32.55.63 1.09.92 1.63h-1l-1.47 14.22h4.52l-1.89-14a76.83 76.83 0 0 1 6.65 16.15h-12.61l4.64-18.44v-.13h.1z"/><path class="cls-9" d="M132.52 144.48c-.92 6.8 3.32 13.07 5.95 19.41a43 43 0 0 1 3.19 14.11c-.11-3-2.11-5.6-4.16-7.81-5.64-6.07-12.42-11.07-17.57-17.57s-8.55-15.24-5.93-23.1a17.38 17.38 0 0 1 8-9.57z"/><path d="M171 254.82c-4.87 9.06-9.26 14.87-11.78 22.89-5.52-1-10.14-6.21-14.12-10.18q-9.2-9.18-17.48-19.23c-2.52 1.52-1.38 1.84-4.12 2.91 2.5 2.73 5.2 11.69 6.91 15 4.56 8.76 6.16 11.9 14 17.86a41.73 41.73 0 0 0 14 7.34 22.74 22.74 0 0 0 15.5-.91c7.35-3.44 11.54-11.23 14.62-18.74a154.29 154.29 0 0 0 7.93-25.47 103.62 103.62 0 0 1-13.22 7.85c-4.56 2.21-7.16.64-12.24.68z" fill="url(#linear-gradient)"/><path d="M175.4 242.38c-1.56 3.89-3.5 7.89-6.54 10.67a2.36 2.36 0 0 0 .37 3.74 61.68 61.68 0 0 1 10.67 8.45 2 2 0 0 0 1.27.76 1.71 1.71 0 0 0 1.09-.45 10.21 10.21 0 0 0 2.66-3.35c2-3.86 4.22-7.76 5.13-12 1.2-5.65 8.11-19 3.75-23.15-5.92-5.69-16.8 11.41-18.4 15.33z" fill="url(#linear-gradient-2)"/><path d="M231.4 327.33a166.59 166.59 0 0 1-30.32 8.73c-1.62.31-3.26.59-4.9.85-1.06.17-2.12.33-3.19.47-.06-1.74-.15-3.46-.27-5.19-.69-10.2-2.4-15.72-6.44-22-.76-1.19-1.62-2.42-2.56-3.71-.47-.65-1-1.31-1.49-2l-1.64-2.12c-.05-.06-.09-.13-.15-.19-.26-.36-.54-.72-.84-1.09l-7.72-9.78-.3-.38c-2.55-3.25-5.2-6.78-6.44-10.63a14 14 0 0 1-.7-5c.17-3.15 1.53-6.11 3-8.9 1.17-2.21 2.4-5.08 3.71-8.27l1.29-3.2c3.63-9 7.75-19.48 12.37-24.51.16-.17.34-.37.52-.54a.34.34 0 0 1 .08-.09c.33-.37.69-.75 1.05-1.11a.16.16 0 0 0 .06-.08c.65-.67 1.32-1.33 2-2 .26-.26.53-.51.79-.75.66-.62 1.33-1.22 2-1.81.19-.15.36-.32.54-.47-.14-6.23-.38-12.8-2.21-18.67a26.11 26.11 0 0 0-3.54-7.37c-.31-.46-.64-.89-1-1.33l.6-.55 1.85-1.67 7.42-6.72.42-.38 2.35-2.13.45-.41c.06.59.13 1.18.19 1.77.25 2.24.54 4.5 1 6.72a43.57 43.57 0 0 0 1.09 4.61 26.26 26.26 0 0 0 4 8.32l.38.48a52 52 0 0 0 5.63 5.67l.16.14 1.24 1.17c.23.22.46.44.68.67s.45.45.67.68.44.46.65.7c.43.47.84 1 1.23 1.46.19.25.38.51.56.77a27.25 27.25 0 0 1 3.35 6.64c.14.4.28.8.41 1.21.39 1.21.73 2.45 1 3.71.4 1.67.74 3.36 1 5 0 .21.08.42.11.63.18 1 .37 2 .55 3.06.48 2.58 1 5.18 1.44 7.78.19 1 .37 2 .55 3 .13.66.25 1.32.37 2 3.33 18.25 6.34 36.73 6.55 55.13 0 4.12.08 8.27 0 12.41a92.6 92.6 0 0 0 .4 9.27z" fill="url(#linear-gradient-3)"/><path d="M200.71 299.43a15.1 15.1 0 0 1-3.09 3.55c-2.84 2.45-5.73 4.95-9.18 6.43a14.87 14.87 0 0 1-2.16.74c-1.53-2.39-3.4-4.9-5.68-7.82a22.15 22.15 0 0 0 20.11-2.9z" fill="url(#linear-gradient-4)"/><path d="M204 202.15c-2.39-3.08 6.59-7.23 3.47-9.55-2.27-1.7-6.72-6.07-3.89-6 13.83.35-3.18-4.13-3.52-4.23 3.71-11.18-4.54-16.79-3.16-19.07-2.58-8.25-19-23.9-27.58-43.64-7.1 3.13-31.16 25.5-38.59 27.72q6.93 15.52 14 31a6.23 6.23 0 0 1 .53 2.45c.07 2.56 1.09 4.48.5 7.22a2.11 2.11 0 0 0 .8 2.19c1 .66 2.07-.14 3-.74s-.52.15.39-.14a37 37 0 0 0 18.51 15.83 58.59 58.59 0 0 0 7.39 2.53c1 .78 2 1.56 3 2.43a18.68 18.68 0 0 1 2.24 2.55c4.09 4.59 7 10.48 9.72 16.1l-.3.64q-1.37 3-2.48 6.1a.31.31 0 0 1 0 .09c-.18.47-.34 1-.49 1.44a.2.2 0 0 1 0 .12c-.09.24-.17.48-.25.71.4-.15.79-.32 1.17-.49v.15l.06-.19C198.64 232.7 205 220.79 216 218c-2.73-6-7.91-10.6-12-15.85z" fill="url(#linear-gradient-5)"/><path d="M112.17 242.24a8.73 8.73 0 0 0 2.46 6.71 11 11 0 0 0 5.76 2.37 31.26 31.26 0 0 1 6.17 1.25 4.52 4.52 0 0 0 1-2.92 6.6 6.6 0 0 0-.85-1.9 24.44 24.44 0 0 1-1-2.31 18.45 18.45 0 0 0-5.39-7.32 5.29 5.29 0 0 0-4-1.45 2.57 2.57 0 0 0-1.13.19c-.48.24-.77.73-1.17 1.08s-.63.44-.91.71c-.46.44-.34 1-.52 1.53a6.57 6.57 0 0 0-.42 2.06z" fill="url(#linear-gradient-6)"/><path d="M127.6 248.89a12.31 12.31 0 0 0-1.25-4.75c-1.64-3.33-4.66-5.73-7.58-8a.49.49 0 0 0-.23-.11.45.45 0 0 0-.22.08 6 6 0 0 0-1.92 2.29c-1 1.82-1.9 3.88-1.49 5.92a8 8 0 0 0 1.06 2.46c1.09 1.8 2.62 3.53 4.68 4 .63.13 1.29.13 1.92.3 1.26.34 2.35 1.35 3.65 1.29z" fill="url(#linear-gradient-7)"/><path d="M119.18 235.89V234a3.42 3.42 0 0 1 .66-2.48 1.08 1.08 0 0 1 1.1-.31 1.25 1.25 0 0 1 .54.57 4.71 4.71 0 0 1 .24 3.19 27.23 27.23 0 0 0-.69 3.2z" fill="url(#linear-gradient-8)"/><path fill="url(#linear-gradient-9)" d="M106.36 228.13l4.88-3.38 20.33 20.58-4.08 4.75-21.13-21.95z"/><path fill="url(#linear-gradient-10)" d="M107.42 228.91l4.47-3.1 18.62 18.86-3.73 4.34-19.36-20.1z"/><path d="M96 263.9a.56.56 0 0 1-.58-.18.66.66 0 0 1 .3-.74 1.85 1.85 0 0 1 .81-.22 22.35 22.35 0 0 1 4.25-.05 6.78 6.78 0 0 1 3.63 1.14 4.83 4.83 0 0 1 1.7 4.07 8.27 8.27 0 0 1-1.6 4.24c-1-.53-2-.76-3-1.29a19.37 19.37 0 0 1-1.8-1.07c-2.03-1.41-3-3.5-3.71-5.9z" fill="url(#linear-gradient-11)"/><path d="M96.45 249.63a2.82 2.82 0 0 1 .52-1.29c.12-.15.34-.28.5-.17a.5.5 0 0 1 .16.22 13.07 13.07 0 0 1 .52 5.78 110 110 0 0 0 .14 13.34 31.33 31.33 0 0 1-2.75-5.14c-1.67-4.32-.05-8.44.91-12.74z" fill="url(#linear-gradient-12)"/><path d="M93 250.26a2.94 2.94 0 0 1 .23-1.38c.09-.17.27-.34.46-.27a.47.47 0 0 1 .19.18 13.14 13.14 0 0 1 1.77 5.53 108.75 108.75 0 0 0 3 13 31.93 31.93 0 0 1-3.79-4.42C92.32 259 93 254.66 93 250.26z" fill="url(#linear-gradient-13)"/><path class="cls-23" d="M206 249.73c.87 7.56-2.81 14.83-6.38 21.55l-9 16.91a253 253 0 0 0-74.5-15.41v.33l-.06-.31a25 25 0 0 1-5.81-1.25 4 4 0 0 1-2.69-2 3.36 3.36 0 0 1-.15-1.38 7.27 7.27 0 0 1 .32-1.66 2.13 2.13 0 0 1 .81-1.2c.69-.4 1.67 0 2.3-.54a1.4 1.4 0 0 0-.19-2.09 2.9 2.9 0 0 0-2.33-.32 6.59 6.59 0 0 0-3.89 2.49c-1.43 1.91-1.94 2.1-2.72 2.22-.29.05-1.54.18-3.48-2-4.18-4.7-2.65-10.15-6.91-13.82-1-.82-1.25-.74-1.35-.68-.83.49 1.87 5.12 3.65 13.35a23.14 23.14 0 0 0 .68 3.18c2 5.32 7.94 8.2 10.94 8.95.24.06 1.6.35 2.21.54a24.71 24.71 0 0 0 4.61 1.16c1.05.06 2.41 1.3 3.45 1.15 9.12 1.06 18.1 5.86 26.61 9.3 4.47 1.81 8.67 4.25 13.08 6.24 8.13 3.66 16.86 5.74 25.53 7.79a34.92 34.92 0 0 0 9.55 1.36c9-.39 16.3-7.59 21-15.29a66.26 66.26 0 0 0 9.64-32.8z"/><path d="M94.77 237.12c-.92 1.77-2.91 2.69-4.81 3.31s-3.94 1.11-5.42 2.46a12 12 0 0 0-2.07 2.8c2.33.05 4.07 1.57 5.26 3.58a31 31 0 0 1 2.43 6.55 12.63 12.63 0 0 0 3.43 6c2.67 2.28 6.61 2.39 9.57 4.28a11.34 11.34 0 0 1 4.31 5.58 20.73 20.73 0 0 1 1.18 7 64.93 64.93 0 0 1 13.52-3.29 16.15 16.15 0 0 0-10.89-18.64c-2.35-.75-4.84-1-7.23-1.56a5.75 5.75 0 0 1-3.53-2 7.79 7.79 0 0 1-.83-3.9 21.32 21.32 0 0 0-4.92-12.17z" fill="url(#linear-gradient-15)"/><path class="cls-25" d="M88.5 246.79a27.26 27.26 0 0 0 1.33-3.15c.44.49 1.25.8 1.72.34s.41-1.07.91-1.17a1.05 1.05 0 0 1 .52.1 3.18 3.18 0 0 0 1.41.34c.88-.08 1.5-.92 2.33-1.24"/><path class="cls-23" d="M206 249.73c.87 7.56-2.81 14.83-6.38 21.55l-9 16.91a253 253 0 0 0-74.5-15.41v.33l-.06-.31a25 25 0 0 1-5.81-1.25 4 4 0 0 1-2.69-2 3.36 3.36 0 0 1-.15-1.38 7.27 7.27 0 0 1 .32-1.66 2.13 2.13 0 0 1 .81-1.2c.69-.4 1.67 0 2.3-.54a1.4 1.4 0 0 0-.19-2.09 2.9 2.9 0 0 0-2.33-.32 6.59 6.59 0 0 0-3.89 2.49c-1.43 1.91-1.94 2.1-2.72 2.22-.29.05-1.54.18-3.48-2-4.18-4.7-2.65-10.15-6.91-13.82-1-.82-1.25-.74-1.35-.68-.83.49 1.87 5.12 3.65 13.35a23.14 23.14 0 0 0 .68 3.18c2 5.32 7.94 8.2 10.94 8.95.24.06 1.6.35 2.21.54a24.71 24.71 0 0 0 4.61 1.16c1.05.06 2.41 1.3 3.45 1.15 9.12 1.06 18.1 5.86 26.61 9.3 4.47 1.81 8.67 4.25 13.08 6.24 8.13 3.66 16.86 5.74 25.53 7.79a34.92 34.92 0 0 0 9.55 1.36c9-.39 16.3-7.59 21-15.29a66.26 66.26 0 0 0 9.64-32.8z"/><path class="cls-25" d="M90.63 250.3a2.53 2.53 0 0 1 2-1.1c.38 0 .76.06 1.13 0a1.08 1.08 0 0 0 .92-.56m-.96 4.45a2.53 2.53 0 0 1 1.44-1 7 7 0 0 0 .93-.19.85.85 0 0 0 .6-.68M95.61 258a2 2 0 0 1 1.5-1.55 20.84 20.84 0 0 0 2.23-.58 3 3 0 0 0 1.52-1.52m-2.54 7.44a1.66 1.66 0 0 1 .93-1.37 9.84 9.84 0 0 1 1.63-.58 6.64 6.64 0 0 0 3.57-2.85m-2.12 7.36a2.49 2.49 0 0 1 1.39-1.73 10.84 10.84 0 0 1 2.17-.72 4.44 4.44 0 0 0 2-1 5.33 5.33 0 0 0 1.19-2.91m-.03 10.41a1.28 1.28 0 0 1 .17-1 1.39 1.39 0 0 1 .44-.26 8.6 8.6 0 0 0 4.32-4.67m1.35 5.86c.56-.56 1.46-.5 2.24-.65a3.68 3.68 0 0 0 2.32-1.56m-2.13 5.39c.34-.37.92-.3 1.42-.34a5.46 5.46 0 0 0 2.2-.85"/><path d="M203 259.27c-2.13-9-7.44-35.55 11.43-30.68 5.41 1.39 8.6 7.15 9.42 12.67s-.08 11.16.36 16.72c.43 5.27-1.5 6.07-.47 12.81z" fill="url(#linear-gradient-17)"/><path d="M127.49 250.08l-1.76 1.69-19.44-20.19a2.43 2.43 0 0 1 .07-3.45z" fill="url(#linear-gradient-18)"/><ellipse cx="127.11" cy="245.4" rx=".62" ry="1.25" transform="rotate(-38.5 127.103 245.394)" fill="#fff"/><path d="M112.61 239.94a9.65 9.65 0 0 0 1.52-2.2 3.33 3.33 0 0 1 1.73-1.18 1.43 1.43 0 0 1 1.36 0 1.33 1.33 0 0 1 .36 1.43 4.61 4.61 0 0 1-1.51 2.15 12.38 12.38 0 0 0-1.9 1.86z" fill="url(#linear-gradient-19)"/><path d="M114.68 242.63c.66-.68 1.36-1.32 2.08-1.94a6.94 6.94 0 0 1 1.73-1.17 1.43 1.43 0 0 1 1.36 0 1.32 1.32 0 0 1 .35 1.42 4.54 4.54 0 0 1-1.5 2.15 12.45 12.45 0 0 0-1.9 1.87z" fill="url(#linear-gradient-20)"/><path d="M117.45 245.78c.58-.59 1.18-1.15 1.81-1.68a6 6 0 0 1 1.52-1 1.21 1.21 0 0 1 1.18 0 1.13 1.13 0 0 1 .31 1.24 4 4 0 0 1-1.31 1.88 10.67 10.67 0 0 0-1.66 1.63z" fill="url(#linear-gradient-21)"/><path d="M120.36 248.38c.44-.45.9-.87 1.37-1.28a4.72 4.72 0 0 1 1.16-.78.93.93 0 0 1 .9 0 .88.88 0 0 1 .23.95 3 3 0 0 1-1 1.42 9.23 9.23 0 0 0-1.26 1.24z" fill="url(#linear-gradient-22)"/><path class="cls-9" d="M225.35 254.46h-.06c-1-5.59-2.06-11.17-3.08-16.71-.22-1.24-.45-2.46-.67-3.7a62.67 62.67 0 0 0-2.48-10 26.84 26.84 0 0 0-3.91-7.41 50.92 50.92 0 0 0-6.06-6.14l-.83-.83a78.91 78.91 0 0 1-7.8-12.33c-1.81-3.45-3.46-7-5.05-10.57-5.89-13.2-11.16-26.75-21.52-36.59-3.8-3.6-8.39-6.66-13.57-7.4-10-1.43-19.8 6-29.8 4.45l4.44-.42c-7 .6-14.84-.16-19.51-5.37-4.88-5.45-4.39-14.23-.53-20.45s10.35-10.29 17-13.42c14.61-6.9 23.32-.48 39.47.17 7.72.31 15.47 1.53 22.56 4.57a18.34 18.34 0 0 1 6 3.83 22.27 22.27 0 0 1 3.72 5.94 144.49 144.49 0 0 1 7.2 16.74C215 151 223 211.29 225.68 231.08a8.58 8.58 0 0 1-.42 3.5c-1.47 8.59.74 19.8.09 19.88z"/><path class="cls-9" d="M129.6 145.13c.52 1.06 1.78 1.49 2.91 1.8a105.16 105.16 0 0 0 24.56 3.61 10.6 10.6 0 0 1 3.32.43c3 1.07 15.77 7.14 16.59 10.23 1.61 6.07 4.71 22.34 7.71 27.87 6.7 12.4 10.11 11.3 21.17 17.65-3.15-15.74-13.52-31-19.36-45.91a43.07 43.07 0 0 0-4.07-8.46c-2.52-3.76-6.1-6.65-9.45-9.7-3-2.71-5.87-5.64-9.49-7.42-5.54-2.74-12.08-2.45-18.19-1.52a39.81 39.81 0 0 0-11.76 3.29c-1.55.78-3.12 1.83-3.71 3.46z"/><path d="M175.63 161.87c1.21 5.42 3.69 10.17 5.22 15.32.45-3.56-.12-7.28.27-10.84a17.79 17.79 0 0 0-.15-6.59c-.59-2.16-2.3-4.41-4.68-4.66a4.67 4.67 0 0 0-4 1.81 8.47 8.47 0 0 1 3.34 4.96z" fill="url(#linear-gradient-23)"/><path class="cls-1" d="M167.59 162c-9.85 33.12-23.1 65.12-36.33 97-3.37 8.14-7.61 23.33-15 28.72-5.24 3.81-2.17-3.7-1-6.86q3.15-8.42 6.42-16.8 13-33.26 28.13-65.63Q158.35 180 167.59 162zm36.33-19.28c-9.85 33.12-23.1 65.12-36.33 97-3.37 8.14-7.61 23.33-15 28.72-5.25 3.8-2.18-3.71-1-6.86q3.15-8.43 6.42-16.8 13-33.25 28.13-65.64 8.54-18.35 17.78-36.42zm28.08 16.6c-9.84 33.13-23.1 65.12-36.33 97.05-3.37 8.13-7.61 23.32-15 28.71-5.25 3.81-2.18-3.7-1-6.86q3.15-8.42 6.42-16.8 13-33.24 28.13-65.63 8.57-18.39 17.78-36.47z"/></g></g></svg>