<svg xmlns="http://www.w3.org/2000/svg" xmlns:xlink="http://www.w3.org/1999/xlink" viewBox="0 0 3114.78 533.36"><defs><linearGradient id="a" x1="80.99" y1="229.42" x2="3114.78" y2="229.42" gradientUnits="userSpaceOnUse"><stop offset="0" stop-color="#fff"/><stop offset=".09" stop-color="#0ca0ab"/><stop offset=".9" stop-color="#38a87d"/><stop offset="1" stop-color="#fff"/></linearGradient><linearGradient id="b" x1="77.15" y1="224.35" x2="3108.77" y2="224.35" xlink:href="#a"/><linearGradient id="c" x1="73.3" y1="217.48" x2="3102.75" y2="217.48" xlink:href="#a"/><linearGradient id="d" x1="69.45" y1="210.72" x2="3096.73" y2="210.72" xlink:href="#a"/><linearGradient id="e" x1="65.6" y1="207.42" x2="3090.71" y2="207.42" xlink:href="#a"/><linearGradient id="f" x1="61.74" y1="212.04" x2="3084.69" y2="212.04" xlink:href="#a"/><linearGradient id="g" x1="57.89" y1="216.7" x2="3078.66" y2="216.7" xlink:href="#a"/><linearGradient id="h" x1="54.03" y1="221.3" x2="3072.63" y2="221.3" xlink:href="#a"/><linearGradient id="i" x1="50.18" y1="225.88" x2="3066.59" y2="225.88" xlink:href="#a"/><linearGradient id="j" x1="46.32" y1="230.45" x2="3060.55" y2="230.45" xlink:href="#a"/><linearGradient id="k" x1="42.46" y1="235.04" x2="3054.5" y2="235.04" xlink:href="#a"/><linearGradient id="l" x1="38.6" y1="240.1" x2="3048.45" y2="240.1" xlink:href="#a"/><linearGradient id="m" x1="34.74" y1="244.18" x2="3042.39" y2="244.18" xlink:href="#a"/><linearGradient id="n" x1="30.88" y1="247.94" x2="3036.42" y2="247.94" xlink:href="#a"/><linearGradient id="o" x1="27.03" y1="251.72" x2="3030.48" y2="251.72" xlink:href="#a"/><linearGradient id="p" x1="23.17" y1="255.5" x2="3024.53" y2="255.5" xlink:href="#a"/><linearGradient id="q" x1="19.3" y1="261.18" x2="3018.59" y2="261.18" xlink:href="#a"/><linearGradient id="r" x1="15.44" y1="270.51" x2="3012.63" y2="270.51" xlink:href="#a"/><linearGradient id="s" x1="11.58" y1="270.7" x2="3006.67" y2="270.7" xlink:href="#a"/><linearGradient id="t" x1="7.72" y1="270.47" x2="3000.7" y2="270.47" xlink:href="#a"/><linearGradient id="u" x1="3.86" y1="269.94" x2="2994.73" y2="269.94" xlink:href="#a"/><linearGradient id="v" y1="269.18" x2="2988.75" y2="269.18" xlink:href="#a"/></defs><g data-name="Layer 2"><g data-name="Layer 1" fill="none" stroke-miterlimit="10"><path d="M81.42 182.14c38.89-64 52.54-125.46 100.44-157 0 0 25.34-14.42 54.54-19.62 141-25.11 288.39 321.26 524 364.6C905.8 396.88 1076.2 296.25 1417 95a1193.45 1193.45 0 0 1 119.33-61.69C1576.77 15.12 1597 6 1611.37 3.1c90.79-18.47 135.8 67.05 231.05 80 100.73 13.74 127.77-71.35 214-76 184.69-9.95 247.74 370.33 459 440 113.66 37.48 295.33-6.67 599-327" stroke="url(#a)"/><path d="M77.56 198.84c11.55-16.52 22.76-33.69 34.5-50.45C150.39 93.63 175 49.44 217 28.44c.67.17 25.41-13.59 53.89-18C412.41-11.77 558.72 326.15 787 372.9c44.91 9.2 91.8 6.5 145.12-8.93 47.53-13.68 101.11-37 164.85-69.21 28.57-14.5 60.82-31.71 95.22-50.51 69.73-38.42 147.17-86.57 243.17-136.43 11-5.72 55.62-31.18 118.44-58.69 39.71-17.4 59.94-26 74.37-28.75 34.44-6.6 61.27.85 87.06 13.66 34.51 17.15 67.77 44.19 111.38 57.51a177.77 177.77 0 0 0 30.47 6.53c98.88 12.27 126.64-70 210.35-77.08 136.61-11.6 205 185.94 321.7 313.81 37.51 41.21 80 75.06 131.32 92.32 112.44 37.7 291.07.85 587.93-293.3" stroke="url(#b)"/><path d="M73.7 215.55c13.79-17.73 28.4-36.87 44.57-55.76 53.89-62.91 86.21-110 133.93-128.06 1.33.33 25.5-12.75 53.25-16.49C447.54-3.92 592.67 325.66 813.66 375.67c44.55 10.08 90.62 8.69 142.74-6.6 46-13.34 98.49-36.5 162.57-68.83 27.15-13.78 59.74-30.89 94.22-49.5 68.56-37 143-85.1 240.61-130.11 12.41-5.72 56.5-29.68 117.55-55.68 39-16.61 59.22-24.67 73.69-27.3 34.76-6.24 60.77.89 86 13.45 33.31 16.55 66.66 43 110.4 55.82a176.81 176.81 0 0 0 30.33 6.09c97 10.84 125.53-68.6 206.7-78.14 133.56-15.71 200.16 163.67 316.31 283.71 37.24 38.71 79.58 71 130.74 88.55 111.2 37.9 286.8 8.35 576.84-259.62" stroke="url(#c)"/><path d="M69.83 232.26c16-18.94 34.07-40 54.66-61.06C194 100.18 234 50 287.37 35c2 .5 25.59-11.87 52.6-14.92C482.73 4 626.64 325.34 840.28 378.43c44.2 11 89.41 10.79 140.36-4.26 44.35-13.09 95.86-36 160.3-68.45 25.72-13.06 58.62-30.12 93.21-48.48 67.32-35.74 139.25-83.09 238-123.79 13.85-5.71 57.39-28.19 116.67-52.69 38.26-15.8 58.49-23.35 73-25.84 35.07-5.89 60.26.94 85 13.25 32.1 15.94 65.53 41.78 109.41 54.12a174.68 174.68 0 0 0 30.19 5.66c95.15 9.43 124.43-67.27 203-79.22 130.56-19.85 195.6 141.16 310.93 253.62 37.06 36.12 79.15 66.94 130.15 84.77 110 38.11 282.54 15.87 565.77-225.92" stroke="url(#d)"/><path d="M66 249c18.27-20.14 39.75-43.16 64.74-66.35 85.17-79.11 132.79-132.3 191.8-144.35 2.66.66 25.69-11 52-13.36C518 11.94 660.62 325.18 866.9 381.2c43.86 11.91 88.22 12.95 138-1.92 42.77-12.79 93.31-35.43 158-68.09 24.32-12.27 57.5-29.35 92.2-47.46 66.07-34.48 135.79-80.62 235.5-117.46 15.32-5.67 58.28-26.7 115.79-49.69 37.53-15 57.77-22 72.32-24.38 35.4-5.55 59.76 1 84 13 30.9 15.34 64.41 40.61 108.43 52.43a171.84 171.84 0 0 0 30 5.22c93.27 8.05 123.36-66 199.39-80.29 127.59-24 190.84 118.82 305.55 223.52 36.8 33.6 78.7 62.89 129.55 81 108.75 38.31 278.28 23.37 554.7-192.24" stroke="url(#e)"/><path d="M62.11 265.67c20.5-21.35 45.43-46.29 74.82-71.65 100.9-87.09 156.12-143.37 220.78-152.44 3.33.83 25.81-10 51.31-11.79C553.29 20 694.6 325.19 893.53 384c43.52 12.86 87 15.12 135.59.42 41.19-12.47 90.7-34.93 155.75-67.71 22.9-11.53 56.37-28.6 91.19-46.45 64.81-33.26 132.52-77.82 232.94-111.18 16.81-5.58 59.18-25.18 114.9-46.68 36.82-14.2 57-20.77 71.65-22.93 35.7-5.27 59.25 1 83 12.82C1808.26 117 1841.84 141.74 1886 153a170.15 170.15 0 0 0 29.91 4.78c91.39 6.68 122.29-64.7 195.74-81.36 124.64-28.27 186.08 96.46 300.16 193.42 36.56 31.07 78.23 58.93 129 77.23 107.44 38.75 274 30.88 543.62-158.54" stroke="url(#f)"/><path d="M58.24 282.37c22.75-22.55 51.13-49.41 84.9-77 116.63-95.07 185-188.64 249.74-160.55 3.78 1.64 25.93-9.11 50.67-10.23 145.1-6.56 285 290.74 476.6 352.09 43.19 13.83 85.83 17.29 133.22 2.75 39.6-12.15 88.08-34.44 153.46-67.33 21.48-10.8 55.25-27.85 90.19-45.44 63.55-32 129.38-74.64 230.38-104.81 18.33-5.48 60.09-23.67 114-43.68 36.1-13.39 56.31-19.47 71-21.47 36-4.94 58.75 1.07 82 12.61 28.49 14.14 62.14 38.28 106.46 49.05a167.87 167.87 0 0 0 29.77 4.35c89.5 5.34 121.24-63.48 192.09-82.44 121.72-32.57 181.3 74.11 294.77 163.32 36.3 28.55 77.79 54.9 128.37 73.46 106.21 39 269.76 38.4 532.55-124.84" stroke="url(#g)"/><path d="M54.38 299.08c25-23.76 56.82-52.53 95-82.25 132.35-103 208.29-197.34 278.69-168.68 4.45 1.82 26.12-10.48 50-8.66 145.6 11.06 284.45 286.26 468.69 350 42.87 14.83 84.65 19.46 130.84 5.09 38-11.83 85.47-33.94 151.19-66.95 20-10.07 54.11-27.1 89.17-44.42 62.28-30.77 126.35-71.26 227.83-98.5 19.85-5.32 61-22.13 113.14-40.67 35.38-12.58 55.58-18.16 70.28-20 36.33-4.59 58.23 1.12 81 12.4 27.27 13.54 61 37.13 105.47 47.36a164.78 164.78 0 0 0 29.63 3.91c87.6 4 120.2-62.3 188.44-83.5 118.82-36.94 176.51 51.76 289.38 133.22 36.05 26 77.36 50.85 127.79 69.69 105 39.21 265.49 45.9 521.46-91.16" stroke="url(#h)"/><path d="M50.52 315.78c27.22-25 62.51-55.64 105.06-87.54 148.08-111 231.48-206.08 307.64-176.8 5.12 2 26.33-9.61 49.38-7.1 146 15.89 283.87 282 460.79 347.92 42.54 15.86 83.46 21.63 128.46 7.42 36.44-11.5 82.86-33.44 148.92-66.58 18.62-9.34 53-26.35 88.16-43.4 61-29.56 123.36-67.67 225.27-92.17 21.39-5.14 61.92-20.6 112.25-37.67 34.68-11.77 54.86-16.86 69.6-18.57 36.65-4.25 57.73 1.17 80 12.2 26.07 12.93 59.87 36 104.5 45.66a161.7 161.7 0 0 0 29.48 3.48c85.7 2.75 119.16-61.17 184.78-84.58 115.94-41.37 171.72 29.42 284 103.13 35.78 23.48 76.91 46.79 127.19 65.91 103.73 39.44 261.23 53.42 510.39-57.46" stroke="url(#i)"/><path d="M46.65 332.49c29.46-26.17 68.21-58.76 115.14-92.84 163.82-119 250.14-197 336.6-184.93 6.12.86 26.54-8.65 48.74-5.53C693.59 69.78 830.37 327 1000 395c42.22 16.93 82.27 23.82 126.08 9.76 34.86-11.18 80.25-32.94 146.64-66.2 17.19-8.61 51.84-25.62 87.16-42.39 59.71-28.35 120.4-63.91 222.72-85.84 22.93-4.92 62.84-19 111.36-34.67 34-11 54.13-15.55 68.92-17.11 37-3.91 57.22 1.21 79 12 24.86 12.33 58.72 34.82 103.51 44a158.26 158.26 0 0 0 29.34 3c83.8 1.49 118.12-60.08 181.13-85.65 113.05-45.87 166.89 7.08 278.62 73 35.51 21 76.47 42.75 126.6 62.15 102.49 39.66 257 60.92 499.32-23.78" stroke="url(#j)"/><path d="M42.79 349.19c31.7-27.37 73.9-61.86 125.22-98.14C347.56 124.15 441.58 43.78 533.56 58c6.78 1.05 26.75-7.63 48.09-4 146.88 25.17 282.58 273.85 445 343.75 41.88 18 81.09 26 123.7 12.09 33.28-10.84 77.64-32.44 144.37-65.82 15.76-7.89 50.69-24.89 86.14-41.38 58.43-27.17 117.47-60 220.17-79.52 24.48-4.65 63.77-17.48 110.48-31.67 33.28-10.11 53.4-14.23 68.23-15.65 37.29-3.55 56.72 1.26 78 11.78 23.66 11.73 57.59 33.67 102.53 42.28 9.06 1.73 18.62 2.19 29.2 2.6 81.83 3.18 117.07-59 177.48-86.72 110.15-50.47 162.06-15.25 273.23 42.93 35.24 18.44 76 38.69 126 58.37 101.22 39.96 252.67 68.48 488.2 9.96" stroke="url(#k)"/><path d="M38.93 365.9c33.93-28.58 79.59-65 135.3-103.44C369.52 127.63 471.17 44.88 568.73 61.29c7.44 1.26 26.61-4 47.45-2.4C766 70.26 898 329 1053.25 400.55c41.54 19.16 79.9 28.18 121.33 14.44 31.69-10.52 75-31.95 142.08-65.45 14.34-7.17 49.55-24.17 85.14-40.36 57.12-26 114.53-56 217.61-73.2 26-4.35 64.72-15.9 109.59-28.67 32.59-9.27 52.68-12.93 67.56-14.19 37.6-3.21 56.21 1.3 77 11.56 22.45 11.13 56.44 32.54 101.54 40.59 9 1.6 18.49 1.91 29.06 2.17 80 2 116-58.06 173.83-87.8 107.23-55.15 157.21-37.56 267.85 12.84 35 15.92 75.59 34.63 125.41 54.59 100 40.09 248.45 75.95 477.17 43.62" stroke="url(#l)"/><path d="M35.06 382.61c36.18-29.79 85.29-68.09 145.38-108.74C391.47 131.1 500.71 46 603.9 64.58c8.1 1.46 26.75-2.88 46.8-.84 150.79 15.39 281.08 266.43 429.17 339.57 41.18 20.34 78.72 30.37 119 16.78 30.11-10.18 72.42-31.45 139.81-65.08 12.9-6.43 48.4-23.44 84.13-39.34 55.82-24.84 111.58-51.88 215-66.88 27.59-4 65.67-14.3 108.71-25.66 31.9-8.42 52-11.62 66.87-12.74 37.92-2.85 55.71 1.35 75.95 11.35 21.25 10.53 55.31 31.42 100.56 38.9a150.31 150.31 0 0 0 28.92 1.73c78.08-2.12 114.92-57.12 170.17-88.87 104.28-59.91 152.35-59.86 262.47-17.26 34.68 13.42 75.16 30.58 124.83 50.83 98.8 40.28 244.18 83.45 466.09 77.3" stroke="url(#m)"/><path d="M31.2 399.31c38.41-31 91-71.18 155.46-114C413.43 134.59 530.22 47.05 639.07 67.86c8.76 1.68 26.89-1.75 46.16.73 151.74 19.58 280.22 263 421.26 337.49 40.8 21.55 77.54 32.56 116.57 19.11 28.54-9.84 69.81-31 137.53-64.7 11.48-5.72 47.25-22.74 83.12-38.33 54.51-23.68 108.63-47.67 212.5-60.55 29.15-3.61 66.62-12.68 107.79-22.61 31.21-7.56 51.22-10.31 66.19-11.29 38.24-2.49 55.2 1.4 74.94 11.15 20 9.92 54.16 30.29 99.57 37.2a147.91 147.91 0 0 0 28.79 1.3c76.16-3.27 113.79-56.23 166.51-89.94 101.27-64.77 147.47-82.14 257.08-47.36 34.39 10.91 74.73 26.51 124.24 47.05 97.58 40.48 239.93 91 455 111" stroke="url(#n)"/><path d="M27.34 416C68 383.82 124.1 341.85 192.88 296.69 435.66 138.5 559.7 48.12 674.23 71.15c9.43 1.89 27-.61 45.52 2.29 152.67 24 279.28 259.64 413.36 335.4 40.39 22.82 76.36 34.77 114.19 21.45 27-9.49 67.2-30.46 135.26-64.32 10-5 46.09-22 82.11-37.32 53.19-22.55 105.64-43.39 209.94-54.22 30.7-3.19 67.59-11.05 106.94-19.66 30.54-6.68 50.5-9 65.51-9.83 38.56-2.14 54.69 1.43 73.93 10.93 18.84 9.32 53 29.17 98.59 35.51a144.17 144.17 0 0 0 28.65.87c74.26-4.4 112.65-55.38 162.86-91 98.19-69.69 142.58-104.38 251.69-77.46 34.11 8.42 74.3 22.45 123.65 43.29 96.36 40.67 235.67 98.47 443.94 144.68" stroke="url(#o)"/><path d="M23.47 432.72c42.89-33.4 102.45-77.29 175.63-124.63 258.48-166.16 390-258.9 510.3-233.66 10.08 2.12 27.16.56 44.88 3.86 153.53 28.59 278.22 256.45 405.45 333.32 40 24.13 75.18 37 111.81 23.78 25.39-9.14 64.59-30 133-63.94 8.61-4.28 44.92-21.36 81.1-36.3 51.87-21.43 102.62-39.06 207.38-47.91 32.26-2.72 68.55-9.39 106.06-16.65 29.86-5.79 49.77-7.69 64.83-8.38 38.87-1.78 54.18 1.48 72.92 10.73 17.63 8.71 51.87 28.05 97.61 33.82a140.7 140.7 0 0 0 28.5.42c72.36-5.49 111.46-54.55 159.21-92.08 95-74.71 137.69-126.61 246.31-107.56 33.81 5.93 73.86 18.38 123.05 39.51 95.14 40.86 231.41 106 432.86 178.38" stroke="url(#p)"/><path d="M19.61 449.43C64.74 414.82 127.74 369 205.31 319.5 479.49 145.36 618.57 50.26 744.57 77.72c10.74 2.33 27.27 1.75 44.23 5.42 154.32 33.44 277.07 253.38 397.55 331.23 39.46 25.5 74 39.19 109.44 26.12 23.81-8.78 62-29.46 130.7-63.57 7.18-3.56 43.76-20.67 80.1-35.28 50.54-20.32 99.56-34.66 204.83-41.58 33.79-2.22 69.52-7.71 105.17-13.66 29.18-4.87 49.05-6.37 64.14-6.91 39.2-1.43 53.68 1.52 71.91 10.51 16.43 8.12 50.73 26.95 96.63 32.13a137.59 137.59 0 0 0 28.36 0c70.46-6.56 110.23-53.76 155.56-93.16C2325 149.18 2366 80.17 2474.11 91.31c33.52 3.45 73.43 14.31 122.46 35.73 93.92 41.05 227.15 113.5 421.79 212.07" stroke="url(#q)"/><path d="M15.75 466.13c47.36-35.81 113.81-83.52 195.78-135.22C501.41 148.8 648 51.32 779.74 81c11.39 2.57 27.38 3 43.59 7 155 38.55 275.78 250.42 389.64 329.15 38.93 26.91 72.83 41.4 107.06 28.46 22.25-8.42 59.36-29 128.43-63.2 5.74-2.85 42.59-20 79.08-34.27 49.22-19.23 96.48-30.22 202.28-35.26 35.33-1.68 70.49-6 104.28-10.65a563.59 563.59 0 0 1 63.47-5.46c39.51-1 53.17 1.57 70.9 10.31 15.21 7.51 49.58 25.85 95.64 30.43a133.44 133.44 0 0 0 28.22-.45c68.57-7.59 109-53 151.9-94.23 88.42-84.9 127.93-170.94 235.54-167.75 33.24 1 73.05 10.14 121.88 32 92.78 41 222.88 121 410.71 245.76" stroke="url(#r)"/><path d="M11.88 482.84c49.61-37 119.5-86.65 205.87-140.52 305.58-190.09 459.6-289.95 597.16-258 12 2.8 27.48 4.19 42.94 8.56 155.55 43.95 274.37 247.55 381.74 327.06 38.34 28.39 71.67 43.64 104.68 30.8 20.68-8.05 56.75-28.47 126.15-62.82 4.31-2.14 41.42-19.36 78.08-33.26 47.88-18.14 93.35-25.74 199.72-28.93 36.87-1.11 71.46-4.25 103.4-7.65 27.85-3 47.6-3.72 62.78-4 39.83-.64 52.67 1.62 69.89 10.1 14 6.91 48.44 24.76 94.66 28.74A129.61 129.61 0 0 0 2107 352c66.69-8.61 107.63-52.23 148.25-95.3 84.95-90.07 123.07-193.07 230.15-197.85 33-1.47 72.62 6.08 121.29 28.19 91.55 41.24 218.62 128.52 399.63 279.46" stroke="url(#s)"/><path d="M8 499.54c51.86-38.22 125.2-89.76 216-145.82C545.25 155.66 706.72 53.43 850.08 87.57c12.69 3 27.56 5.43 42.3 10.12 155.91 49.64 272.79 244.76 373.83 325 37.68 29.91 70.51 45.89 102.3 33.13 19.12-7.68 54.14-28 123.88-62.45 2.87-1.42 40.24-18.72 77.07-32.23C1616 344 1659.67 336 1766.62 338.51c38.39.9 72.43-2.48 102.52-4.65 27.17-2 46.87-2.41 62.1-2.55 40.14-.29 52.16 1.66 68.88 9.88 12.8 6.31 47.29 23.68 93.67 27.05a126.12 126.12 0 0 0 27.94-1.31c64.82-9.6 106.25-51.48 144.6-96.38 81.36-95.26 118.23-215.16 224.77-227.94 32.67-3.92 72.17 2 120.69 24.42 90.33 41.45 214.36 136 388.56 313.14" stroke="url(#t)"/><path d="M4.16 516.25c54.08-39.43 130.86-92.89 226-151.12 337-206 505.9-310.66 655.07-274.28 13.34 3.26 27.62 6.69 41.65 11.69C1083 158.2 1198 344.55 1292.84 425.43c36.93 31.49 69.34 48.16 99.91 35.47 17.56-7.29 51.53-27.47 121.61-62.07 1.43-.71 39.05-18.1 76.05-31.22 45.21-16 87-18.65 194.61-16.29 39.91.88 73.39-.67 101.63-1.64 26.5-.92 46.15-1.11 61.42-1.1 40.47.06 51.65 1.71 67.87 9.68 11.6 5.7 46.15 22.66 92.69 25.36a121.32 121.32 0 0 0 27.8-1.76c63-10.56 104.82-50.71 141-97.45 77.66-100.46 113.45-237 219.38-258 32.42-6.3 71.74-2 120.1 20.65 89.09 41.62 210.09 143.5 377.43 346.8" stroke="url(#u)"/><path d="M.29 533c56.32-40.63 136.55-96 236.11-156.41 352.68-214 529-321 684-282.4C1164.29 154.9 1309.3 512.42 1417 466c16-6.9 48.52-27.79 119.33-61.69 0 0 37.87-17.5 75-30.21 43.86-15 83.74-12.11 192.05-10 189.6 3.77 200.69-2.4 228.35 11.18a234.24 234.24 0 0 0 91.7 23.67 118.42 118.42 0 0 0 27.66-2.19c194.06-36.5 197.49-344.56 351.29-386.66 90.78-24.85 237.26 42 485.92 397.4" stroke="url(#v)"/></g></g></svg>