<svg xmlns="http://www.w3.org/2000/svg" viewBox="0 0 376 357"><defs><style>.cls-2{fill:#52c1ff}.cls-3{fill:#1d4b66}.cls-8{fill:#fff}</style><pattern id="_111" data-name="111" width="140" height="161" patternTransform="matrix(-1.66 0 0 1.66 -2618.63 3586.65)" patternUnits="userSpaceOnUse"><path fill="none" d="M0 0h140v161H0z"/><circle class="cls-2" cx="125.74" cy="3.05" r="1.39"/><circle class="cls-2" cx="132.87" cy="3.05" r="1.39"/><circle class="cls-2" cx="140" cy="3.05" r="1.39"/><circle class="cls-2" cx="125.74" cy="9.78" r="1.39"/><circle class="cls-2" cx="132.87" cy="9.78" r="1.39"/><circle class="cls-2" cx="140" cy="9.78" r="1.39"/><circle class="cls-2" cx="125.74" cy="16.52" r="1.39"/><circle class="cls-2" cx="132.87" cy="16.52" r="1.39"/><circle class="cls-2" cx="140" cy="16.52" r="1.39"/><circle class="cls-2" cx="125.74" cy="23.25" r="1.39"/><circle class="cls-2" cx="132.87" cy="23.25" r="1.39"/><circle class="cls-2" cx="140" cy="23.25" r="1.39"/><circle class="cls-2" cx="125.74" cy="29.99" r="1.39"/><circle class="cls-2" cx="132.87" cy="29.99" r="1.39"/><circle class="cls-2" cx="140" cy="29.99" r="1.39"/><circle class="cls-2" cx="125.74" cy="36.72" r="1.39"/><circle class="cls-2" cx="132.87" cy="36.72" r="1.39"/><circle class="cls-2" cx="140" cy="36.72" r="1.39"/><circle class="cls-2" cx="125.74" cy="43.46" r="1.39"/><circle class="cls-2" cx="132.87" cy="43.46" r="1.39"/><circle class="cls-2" cx="140" cy="43.46" r="1.39"/><circle class="cls-2" cx="125.74" cy="50.19" r="1.39"/><circle class="cls-2" cx="132.87" cy="50.19" r="1.39"/><circle class="cls-2" cx="140" cy="50.19" r="1.39"/><circle class="cls-2" cx="125.74" cy="56.93" r="1.39"/><circle class="cls-2" cx="132.87" cy="56.93" r="1.39"/><circle class="cls-2" cx="140" cy="56.93" r="1.39"/><circle class="cls-2" cx="125.74" cy="63.66" r="1.39"/><circle class="cls-2" cx="132.87" cy="63.66" r="1.39"/><circle class="cls-2" cx="140" cy="63.66" r="1.39"/><circle class="cls-2" cx="125.74" cy="70.4" r="1.39"/><circle class="cls-2" cx="132.87" cy="70.4" r="1.39"/><circle class="cls-2" cx="140" cy="70.4" r="1.39"/><circle class="cls-2" cx="125.74" cy="77.13" r="1.39"/><circle class="cls-2" cx="132.87" cy="77.13" r="1.39"/><circle class="cls-2" cx="140" cy="77.13" r="1.39"/><circle class="cls-2" cx="125.74" cy="83.87" r="1.39"/><circle class="cls-2" cx="132.87" cy="83.87" r="1.39"/><circle class="cls-2" cx="140" cy="83.87" r="1.39"/><circle class="cls-2" cx="125.74" cy="90.6" r="1.39"/><circle class="cls-2" cx="132.87" cy="90.6" r="1.39"/><circle class="cls-2" cx="140" cy="90.6" r="1.39"/><circle class="cls-2" cx="125.74" cy="97.34" r="1.39"/><circle class="cls-2" cx="132.87" cy="97.34" r="1.39"/><circle class="cls-2" cx="140" cy="97.34" r="1.39"/><circle class="cls-2" cx="125.74" cy="104.07" r="1.39"/><circle class="cls-2" cx="132.87" cy="104.07" r="1.39"/><circle class="cls-2" cx="140" cy="104.07" r="1.39"/><circle class="cls-2" cx="125.74" cy="110.81" r="1.39"/><circle class="cls-2" cx="132.87" cy="110.81" r="1.39"/><circle class="cls-2" cx="140" cy="110.81" r="1.39"/><circle class="cls-2" cx="125.74" cy="117.54" r="1.39"/><circle class="cls-2" cx="132.87" cy="117.54" r="1.39"/><circle class="cls-2" cx="140" cy="117.54" r="1.39"/><circle class="cls-2" cx="125.74" cy="124.28" r="1.39"/><circle class="cls-2" cx="132.87" cy="124.28" r="1.39"/><circle class="cls-2" cx="140" cy="124.28" r="1.39"/><circle class="cls-2" cx="125.74" cy="131.01" r="1.39"/><circle class="cls-2" cx="132.87" cy="131.01" r="1.39"/><circle class="cls-2" cx="140" cy="131.01" r="1.39"/><circle class="cls-2" cx="125.74" cy="137.75" r="1.39"/><circle class="cls-2" cx="132.87" cy="137.75" r="1.39"/><circle class="cls-2" cx="140" cy="137.75" r="1.39"/><circle class="cls-2" cx="125.74" cy="144.48" r="1.39"/><circle class="cls-2" cx="132.87" cy="144.48" r="1.39"/><circle class="cls-2" cx="140" cy="144.48" r="1.39"/><circle class="cls-2" cx="125.74" cy="151.22" r="1.39"/><circle class="cls-2" cx="132.87" cy="151.22" r="1.39"/><circle class="cls-2" cx="140" cy="151.22" r="1.39"/><circle class="cls-2" cx="125.74" cy="157.95" r="1.39"/><circle class="cls-2" cx="132.87" cy="157.95" r="1.39"/><circle class="cls-2" cx="140" cy="157.95" r="1.39"/><circle class="cls-2" cx="90.74" cy="3.05" r="1.39"/><circle class="cls-2" cx="97.87" cy="3.05" r="1.39"/><circle class="cls-2" cx="105" cy="3.05" r="1.39"/><circle class="cls-2" cx="112.13" cy="3.05" r="1.39"/><circle class="cls-2" cx="119.26" cy="3.05" r="1.39"/><circle class="cls-2" cx="90.74" cy="9.78" r="1.39"/><circle class="cls-2" cx="97.87" cy="9.78" r="1.39"/><circle class="cls-2" cx="105" cy="9.78" r="1.39"/><circle class="cls-2" cx="112.13" cy="9.78" r="1.39"/><circle class="cls-2" cx="119.26" cy="9.78" r="1.39"/><circle class="cls-2" cx="90.74" cy="16.52" r="1.39"/><circle class="cls-2" cx="97.87" cy="16.52" r="1.39"/><circle class="cls-2" cx="105" cy="16.52" r="1.39"/><circle class="cls-2" cx="112.13" cy="16.52" r="1.39"/><circle class="cls-2" cx="119.26" cy="16.52" r="1.39"/><circle class="cls-2" cx="90.74" cy="23.25" r="1.39"/><circle class="cls-2" cx="97.87" cy="23.25" r="1.39"/><circle class="cls-2" cx="105" cy="23.25" r="1.39"/><circle class="cls-2" cx="112.13" cy="23.25" r="1.39"/><circle class="cls-2" cx="119.26" cy="23.25" r="1.39"/><circle class="cls-2" cx="90.74" cy="29.99" r="1.39"/><circle class="cls-2" cx="97.87" cy="29.99" r="1.39"/><circle class="cls-2" cx="105" cy="29.99" r="1.39"/><circle class="cls-2" cx="112.13" cy="29.99" r="1.39"/><circle class="cls-2" cx="119.26" cy="29.99" r="1.39"/><circle class="cls-2" cx="90.74" cy="36.72" r="1.39"/><circle class="cls-2" cx="97.87" cy="36.72" r="1.39"/><circle class="cls-2" cx="105" cy="36.72" r="1.39"/><circle class="cls-2" cx="112.13" cy="36.72" r="1.39"/><circle class="cls-2" cx="119.26" cy="36.72" r="1.39"/><circle class="cls-2" cx="90.74" cy="43.46" r="1.39"/><circle class="cls-2" cx="97.87" cy="43.46" r="1.39"/><circle class="cls-2" cx="105" cy="43.46" r="1.39"/><circle class="cls-2" cx="112.13" cy="43.46" r="1.39"/><circle class="cls-2" cx="119.26" cy="43.46" r="1.39"/><circle class="cls-2" cx="90.74" cy="50.19" r="1.39"/><circle class="cls-2" cx="97.87" cy="50.19" r="1.39"/><circle class="cls-2" cx="105" cy="50.19" r="1.39"/><circle class="cls-2" cx="112.13" cy="50.19" r="1.39"/><circle class="cls-2" cx="119.26" cy="50.19" r="1.39"/><circle class="cls-2" cx="90.74" cy="56.93" r="1.39"/><circle class="cls-2" cx="97.87" cy="56.93" r="1.39"/><circle class="cls-2" cx="105" cy="56.93" r="1.39"/><circle class="cls-2" cx="112.13" cy="56.93" r="1.39"/><circle class="cls-2" cx="119.26" cy="56.93" r="1.39"/><circle class="cls-2" cx="90.74" cy="63.66" r="1.39"/><circle class="cls-2" cx="97.87" cy="63.66" r="1.39"/><circle class="cls-2" cx="105" cy="63.66" r="1.39"/><circle class="cls-2" cx="112.13" cy="63.66" r="1.39"/><circle class="cls-2" cx="119.26" cy="63.66" r="1.39"/><circle class="cls-2" cx="90.74" cy="70.4" r="1.39"/><circle class="cls-2" cx="97.87" cy="70.4" r="1.39"/><circle class="cls-2" cx="105" cy="70.4" r="1.39"/><circle class="cls-2" cx="112.13" cy="70.4" r="1.39"/><circle class="cls-2" cx="119.26" cy="70.4" r="1.39"/><circle class="cls-2" cx="90.74" cy="77.13" r="1.39"/><circle class="cls-2" cx="97.87" cy="77.13" r="1.39"/><circle class="cls-2" cx="105" cy="77.13" r="1.39"/><circle class="cls-2" cx="112.13" cy="77.13" r="1.39"/><circle class="cls-2" cx="119.26" cy="77.13" r="1.39"/><circle class="cls-2" cx="90.74" cy="83.87" r="1.39"/><circle class="cls-2" cx="97.87" cy="83.87" r="1.39"/><circle class="cls-2" cx="105" cy="83.87" r="1.39"/><circle class="cls-2" cx="112.13" cy="83.87" r="1.39"/><circle class="cls-2" cx="119.26" cy="83.87" r="1.39"/><circle class="cls-2" cx="90.74" cy="90.6" r="1.39"/><circle class="cls-2" cx="97.87" cy="90.6" r="1.39"/><circle class="cls-2" cx="105" cy="90.6" r="1.39"/><circle class="cls-2" cx="112.13" cy="90.6" r="1.39"/><circle class="cls-2" cx="119.26" cy="90.6" r="1.39"/><circle class="cls-2" cx="90.74" cy="97.34" r="1.39"/><circle class="cls-2" cx="97.87" cy="97.34" r="1.39"/><circle class="cls-2" cx="105" cy="97.34" r="1.39"/><circle class="cls-2" cx="112.13" cy="97.34" r="1.39"/><circle class="cls-2" cx="119.26" cy="97.34" r="1.39"/><circle class="cls-2" cx="90.74" cy="104.07" r="1.39"/><circle class="cls-2" cx="97.87" cy="104.07" r="1.39"/><circle class="cls-2" cx="105" cy="104.07" r="1.39"/><circle class="cls-2" cx="112.13" cy="104.07" r="1.39"/><circle class="cls-2" cx="119.26" cy="104.07" r="1.39"/><circle class="cls-2" cx="90.74" cy="110.81" r="1.39"/><circle class="cls-2" cx="97.87" cy="110.81" r="1.39"/><circle class="cls-2" cx="105" cy="110.81" r="1.39"/><circle class="cls-2" cx="112.13" cy="110.81" r="1.39"/><circle class="cls-2" cx="119.26" cy="110.81" r="1.39"/><circle class="cls-2" cx="90.74" cy="117.54" r="1.39"/><circle class="cls-2" cx="97.87" cy="117.54" r="1.39"/><circle class="cls-2" cx="105" cy="117.54" r="1.39"/><circle class="cls-2" cx="112.13" cy="117.54" r="1.39"/><circle class="cls-2" cx="119.26" cy="117.54" r="1.39"/><circle class="cls-2" cx="90.74" cy="124.28" r="1.39"/><circle class="cls-2" cx="97.87" cy="124.28" r="1.39"/><circle class="cls-2" cx="105" cy="124.28" r="1.39"/><circle class="cls-2" cx="112.13" cy="124.28" r="1.39"/><circle class="cls-2" cx="119.26" cy="124.28" r="1.39"/><circle class="cls-2" cx="90.74" cy="131.01" r="1.39"/><circle class="cls-2" cx="97.87" cy="131.01" r="1.39"/><circle class="cls-2" cx="105" cy="131.01" r="1.39"/><circle class="cls-2" cx="112.13" cy="131.01" r="1.39"/><circle class="cls-2" cx="119.26" cy="131.01" r="1.39"/><circle class="cls-2" cx="90.74" cy="137.75" r="1.39"/><circle class="cls-2" cx="97.87" cy="137.75" r="1.39"/><circle class="cls-2" cx="105" cy="137.75" r="1.39"/><circle class="cls-2" cx="112.13" cy="137.75" r="1.39"/><circle class="cls-2" cx="119.26" cy="137.75" r="1.39"/><circle class="cls-2" cx="90.74" cy="144.48" r="1.39"/><circle class="cls-2" cx="97.87" cy="144.48" r="1.39"/><circle class="cls-2" cx="105" cy="144.48" r="1.39"/><circle class="cls-2" cx="112.13" cy="144.48" r="1.39"/><circle class="cls-2" cx="119.26" cy="144.48" r="1.39"/><circle class="cls-2" cx="90.74" cy="151.22" r="1.39"/><circle class="cls-2" cx="97.87" cy="151.22" r="1.39"/><circle class="cls-2" cx="105" cy="151.22" r="1.39"/><circle class="cls-2" cx="112.13" cy="151.22" r="1.39"/><circle class="cls-2" cx="119.26" cy="151.22" r="1.39"/><circle class="cls-2" cx="90.74" cy="157.95" r="1.39"/><circle class="cls-2" cx="97.87" cy="157.95" r="1.39"/><circle class="cls-2" cx="105" cy="157.95" r="1.39"/><circle class="cls-2" cx="112.13" cy="157.95" r="1.39"/><circle class="cls-2" cx="119.26" cy="157.95" r="1.39"/><circle class="cls-2" cx="55.74" cy="3.05" r="1.39"/><circle class="cls-2" cx="62.87" cy="3.05" r="1.39"/><circle class="cls-2" cx="70" cy="3.05" r="1.39"/><circle class="cls-2" cx="77.13" cy="3.05" r="1.39"/><circle class="cls-2" cx="84.26" cy="3.05" r="1.39"/><circle class="cls-2" cx="55.74" cy="9.78" r="1.39"/><circle class="cls-2" cx="62.87" cy="9.78" r="1.39"/><circle class="cls-2" cx="70" cy="9.78" r="1.39"/><circle class="cls-2" cx="77.13" cy="9.78" r="1.39"/><circle class="cls-2" cx="84.26" cy="9.78" r="1.39"/><circle class="cls-2" cx="55.74" cy="16.52" r="1.39"/><circle class="cls-2" cx="62.87" cy="16.52" r="1.39"/><circle class="cls-2" cx="70" cy="16.52" r="1.39"/><circle class="cls-2" cx="77.13" cy="16.52" r="1.39"/><circle class="cls-2" cx="84.26" cy="16.52" r="1.39"/><circle class="cls-2" cx="55.74" cy="23.25" r="1.39"/><circle class="cls-2" cx="62.87" cy="23.25" r="1.39"/><circle class="cls-2" cx="70" cy="23.25" r="1.39"/><circle class="cls-2" cx="77.13" cy="23.25" r="1.39"/><circle class="cls-2" cx="84.26" cy="23.25" r="1.39"/><circle class="cls-2" cx="55.74" cy="29.99" r="1.39"/><circle class="cls-2" cx="62.87" cy="29.99" r="1.39"/><circle class="cls-2" cx="70" cy="29.99" r="1.39"/><circle class="cls-2" cx="77.13" cy="29.99" r="1.39"/><circle class="cls-2" cx="84.26" cy="29.99" r="1.39"/><circle class="cls-2" cx="55.74" cy="36.72" r="1.39"/><circle class="cls-2" cx="62.87" cy="36.72" r="1.39"/><circle class="cls-2" cx="70" cy="36.72" r="1.39"/><circle class="cls-2" cx="77.13" cy="36.72" r="1.39"/><circle class="cls-2" cx="84.26" cy="36.72" r="1.39"/><circle class="cls-2" cx="55.74" cy="43.46" r="1.39"/><circle class="cls-2" cx="62.87" cy="43.46" r="1.39"/><circle class="cls-2" cx="70" cy="43.46" r="1.39"/><circle class="cls-2" cx="77.13" cy="43.46" r="1.39"/><circle class="cls-2" cx="84.26" cy="43.46" r="1.39"/><circle class="cls-2" cx="55.74" cy="50.19" r="1.39"/><circle class="cls-2" cx="62.87" cy="50.19" r="1.39"/><circle class="cls-2" cx="70" cy="50.19" r="1.39"/><circle class="cls-2" cx="77.13" cy="50.19" r="1.39"/><circle class="cls-2" cx="84.26" cy="50.19" r="1.39"/><circle class="cls-2" cx="55.74" cy="56.93" r="1.39"/><circle class="cls-2" cx="62.87" cy="56.93" r="1.39"/><circle class="cls-2" cx="70" cy="56.93" r="1.39"/><circle class="cls-2" cx="77.13" cy="56.93" r="1.39"/><circle class="cls-2" cx="84.26" cy="56.93" r="1.39"/><circle class="cls-2" cx="55.74" cy="63.66" r="1.39"/><circle class="cls-2" cx="62.87" cy="63.66" r="1.39"/><circle class="cls-2" cx="70" cy="63.66" r="1.39"/><circle class="cls-2" cx="77.13" cy="63.66" r="1.39"/><circle class="cls-2" cx="84.26" cy="63.66" r="1.39"/><circle class="cls-2" cx="55.74" cy="70.4" r="1.39"/><circle class="cls-2" cx="62.87" cy="70.4" r="1.39"/><circle class="cls-2" cx="70" cy="70.4" r="1.39"/><circle class="cls-2" cx="77.13" cy="70.4" r="1.39"/><circle class="cls-2" cx="84.26" cy="70.4" r="1.39"/><circle class="cls-2" cx="55.74" cy="77.13" r="1.39"/><circle class="cls-2" cx="62.87" cy="77.13" r="1.39"/><circle class="cls-2" cx="70" cy="77.13" r="1.39"/><circle class="cls-2" cx="77.13" cy="77.13" r="1.39"/><circle class="cls-2" cx="84.26" cy="77.13" r="1.39"/><circle class="cls-2" cx="55.74" cy="83.87" r="1.39"/><circle class="cls-2" cx="62.87" cy="83.87" r="1.39"/><circle class="cls-2" cx="70" cy="83.87" r="1.39"/><circle class="cls-2" cx="77.13" cy="83.87" r="1.39"/><circle class="cls-2" cx="84.26" cy="83.87" r="1.39"/><circle class="cls-2" cx="55.74" cy="90.6" r="1.39"/><circle class="cls-2" cx="62.87" cy="90.6" r="1.39"/><circle class="cls-2" cx="70" cy="90.6" r="1.39"/><circle class="cls-2" cx="77.13" cy="90.6" r="1.39"/><circle class="cls-2" cx="84.26" cy="90.6" r="1.39"/><circle class="cls-2" cx="55.74" cy="97.34" r="1.39"/><circle class="cls-2" cx="62.87" cy="97.34" r="1.39"/><circle class="cls-2" cx="70" cy="97.34" r="1.39"/><circle class="cls-2" cx="77.13" cy="97.34" r="1.39"/><circle class="cls-2" cx="84.26" cy="97.34" r="1.39"/><circle class="cls-2" cx="55.74" cy="104.07" r="1.39"/><circle class="cls-2" cx="62.87" cy="104.07" r="1.39"/><circle class="cls-2" cx="70" cy="104.07" r="1.39"/><circle class="cls-2" cx="77.13" cy="104.07" r="1.39"/><circle class="cls-2" cx="84.26" cy="104.07" r="1.39"/><circle class="cls-2" cx="55.74" cy="110.81" r="1.39"/><circle class="cls-2" cx="62.87" cy="110.81" r="1.39"/><circle class="cls-2" cx="70" cy="110.81" r="1.39"/><circle class="cls-2" cx="77.13" cy="110.81" r="1.39"/><circle class="cls-2" cx="84.26" cy="110.81" r="1.39"/><circle class="cls-2" cx="55.74" cy="117.54" r="1.39"/><circle class="cls-2" cx="62.87" cy="117.54" r="1.39"/><circle class="cls-2" cx="70" cy="117.54" r="1.39"/><circle class="cls-2" cx="77.13" cy="117.54" r="1.39"/><circle class="cls-2" cx="84.26" cy="117.54" r="1.39"/><circle class="cls-2" cx="55.74" cy="124.28" r="1.39"/><circle class="cls-2" cx="62.87" cy="124.28" r="1.39"/><circle class="cls-2" cx="70" cy="124.28" r="1.39"/><circle class="cls-2" cx="77.13" cy="124.28" r="1.39"/><circle class="cls-2" cx="84.26" cy="124.28" r="1.39"/><circle class="cls-2" cx="55.74" cy="131.01" r="1.39"/><circle class="cls-2" cx="62.87" cy="131.01" r="1.39"/><circle class="cls-2" cx="70" cy="131.01" r="1.39"/><circle class="cls-2" cx="77.13" cy="131.01" r="1.39"/><circle class="cls-2" cx="84.26" cy="131.01" r="1.39"/><circle class="cls-2" cx="55.74" cy="137.75" r="1.39"/><circle class="cls-2" cx="62.87" cy="137.75" r="1.39"/><circle class="cls-2" cx="70" cy="137.75" r="1.39"/><circle class="cls-2" cx="77.13" cy="137.75" r="1.39"/><circle class="cls-2" cx="84.26" cy="137.75" r="1.39"/><circle class="cls-2" cx="55.74" cy="144.48" r="1.39"/><circle class="cls-2" cx="62.87" cy="144.48" r="1.39"/><circle class="cls-2" cx="70" cy="144.48" r="1.39"/><circle class="cls-2" cx="77.13" cy="144.48" r="1.39"/><circle class="cls-2" cx="84.26" cy="144.48" r="1.39"/><circle class="cls-2" cx="55.74" cy="151.22" r="1.39"/><circle class="cls-2" cx="62.87" cy="151.22" r="1.39"/><circle class="cls-2" cx="70" cy="151.22" r="1.39"/><circle class="cls-2" cx="77.13" cy="151.22" r="1.39"/><circle class="cls-2" cx="84.26" cy="151.22" r="1.39"/><circle class="cls-2" cx="55.74" cy="157.95" r="1.39"/><circle class="cls-2" cx="62.87" cy="157.95" r="1.39"/><circle class="cls-2" cx="70" cy="157.95" r="1.39"/><circle class="cls-2" cx="77.13" cy="157.95" r="1.39"/><circle class="cls-2" cx="84.26" cy="157.95" r="1.39"/><circle class="cls-2" cx="20.74" cy="3.05" r="1.39"/><circle class="cls-2" cx="27.87" cy="3.05" r="1.39"/><circle class="cls-2" cx="35" cy="3.05" r="1.39"/><circle class="cls-2" cx="42.13" cy="3.05" r="1.39"/><circle class="cls-2" cx="49.26" cy="3.05" r="1.39"/><circle class="cls-2" cx="20.74" cy="9.78" r="1.39"/><circle class="cls-2" cx="27.87" cy="9.78" r="1.39"/><circle class="cls-2" cx="35" cy="9.78" r="1.39"/><circle class="cls-2" cx="42.13" cy="9.78" r="1.39"/><circle class="cls-2" cx="49.26" cy="9.78" r="1.39"/><circle class="cls-2" cx="20.74" cy="16.52" r="1.39"/><circle class="cls-2" cx="27.87" cy="16.52" r="1.39"/><circle class="cls-2" cx="35" cy="16.52" r="1.39"/><circle class="cls-2" cx="42.13" cy="16.52" r="1.39"/><circle class="cls-2" cx="49.26" cy="16.52" r="1.39"/><circle class="cls-2" cx="20.74" cy="23.25" r="1.39"/><circle class="cls-2" cx="27.87" cy="23.25" r="1.39"/><circle class="cls-2" cx="35" cy="23.25" r="1.39"/><circle class="cls-2" cx="42.13" cy="23.25" r="1.39"/><circle class="cls-2" cx="49.26" cy="23.25" r="1.39"/><circle class="cls-2" cx="20.74" cy="29.99" r="1.39"/><circle class="cls-2" cx="27.87" cy="29.99" r="1.39"/><circle class="cls-2" cx="35" cy="29.99" r="1.39"/><circle class="cls-2" cx="42.13" cy="29.99" r="1.39"/><circle class="cls-2" cx="49.26" cy="29.99" r="1.39"/><circle class="cls-2" cx="20.74" cy="36.72" r="1.39"/><circle class="cls-2" cx="27.87" cy="36.72" r="1.39"/><circle class="cls-2" cx="35" cy="36.72" r="1.39"/><circle class="cls-2" cx="42.13" cy="36.72" r="1.39"/><circle class="cls-2" cx="49.26" cy="36.72" r="1.39"/><circle class="cls-2" cx="20.74" cy="43.46" r="1.39"/><circle class="cls-2" cx="27.87" cy="43.46" r="1.39"/><circle class="cls-2" cx="35" cy="43.46" r="1.39"/><circle class="cls-2" cx="42.13" cy="43.46" r="1.39"/><circle class="cls-2" cx="49.26" cy="43.46" r="1.39"/><circle class="cls-2" cx="20.74" cy="50.19" r="1.39"/><circle class="cls-2" cx="27.87" cy="50.19" r="1.39"/><circle class="cls-2" cx="35" cy="50.19" r="1.39"/><circle class="cls-2" cx="42.13" cy="50.19" r="1.39"/><circle class="cls-2" cx="49.26" cy="50.19" r="1.39"/><circle class="cls-2" cx="20.74" cy="56.93" r="1.39"/><circle class="cls-2" cx="27.87" cy="56.93" r="1.39"/><circle class="cls-2" cx="35" cy="56.93" r="1.39"/><circle class="cls-2" cx="42.13" cy="56.93" r="1.39"/><circle class="cls-2" cx="49.26" cy="56.93" r="1.39"/><circle class="cls-2" cx="20.74" cy="63.66" r="1.39"/><circle class="cls-2" cx="27.87" cy="63.66" r="1.39"/><circle class="cls-2" cx="35" cy="63.66" r="1.39"/><circle class="cls-2" cx="42.13" cy="63.66" r="1.39"/><circle class="cls-2" cx="49.26" cy="63.66" r="1.39"/><circle class="cls-2" cx="20.74" cy="70.4" r="1.39"/><circle class="cls-2" cx="27.87" cy="70.4" r="1.39"/><circle class="cls-2" cx="35" cy="70.4" r="1.39"/><circle class="cls-2" cx="42.13" cy="70.4" r="1.39"/><circle class="cls-2" cx="49.26" cy="70.4" r="1.39"/><circle class="cls-2" cx="20.74" cy="77.13" r="1.39"/><circle class="cls-2" cx="27.87" cy="77.13" r="1.39"/><circle class="cls-2" cx="35" cy="77.13" r="1.39"/><circle class="cls-2" cx="42.13" cy="77.13" r="1.39"/><circle class="cls-2" cx="49.26" cy="77.13" r="1.39"/><circle class="cls-2" cx="20.74" cy="83.87" r="1.39"/><circle class="cls-2" cx="27.87" cy="83.87" r="1.39"/><circle class="cls-2" cx="35" cy="83.87" r="1.39"/><circle class="cls-2" cx="42.13" cy="83.87" r="1.39"/><circle class="cls-2" cx="49.26" cy="83.87" r="1.39"/><circle class="cls-2" cx="20.74" cy="90.6" r="1.39"/><circle class="cls-2" cx="27.87" cy="90.6" r="1.39"/><circle class="cls-2" cx="35" cy="90.6" r="1.39"/><circle class="cls-2" cx="42.13" cy="90.6" r="1.39"/><circle class="cls-2" cx="49.26" cy="90.6" r="1.39"/><circle class="cls-2" cx="20.74" cy="97.34" r="1.39"/><circle class="cls-2" cx="27.87" cy="97.34" r="1.39"/><circle class="cls-2" cx="35" cy="97.34" r="1.39"/><circle class="cls-2" cx="42.13" cy="97.34" r="1.39"/><circle class="cls-2" cx="49.26" cy="97.34" r="1.39"/><circle class="cls-2" cx="20.74" cy="104.07" r="1.39"/><circle class="cls-2" cx="27.87" cy="104.07" r="1.39"/><circle class="cls-2" cx="35" cy="104.07" r="1.39"/><circle class="cls-2" cx="42.13" cy="104.07" r="1.39"/><circle class="cls-2" cx="49.26" cy="104.07" r="1.39"/><circle class="cls-2" cx="20.74" cy="110.81" r="1.39"/><circle class="cls-2" cx="27.87" cy="110.81" r="1.39"/><circle class="cls-2" cx="35" cy="110.81" r="1.39"/><circle class="cls-2" cx="42.13" cy="110.81" r="1.39"/><circle class="cls-2" cx="49.26" cy="110.81" r="1.39"/><circle class="cls-2" cx="20.74" cy="117.54" r="1.39"/><circle class="cls-2" cx="27.87" cy="117.54" r="1.39"/><circle class="cls-2" cx="35" cy="117.54" r="1.39"/><circle class="cls-2" cx="42.13" cy="117.54" r="1.39"/><circle class="cls-2" cx="49.26" cy="117.54" r="1.39"/><circle class="cls-2" cx="20.74" cy="124.28" r="1.39"/><circle class="cls-2" cx="27.87" cy="124.28" r="1.39"/><circle class="cls-2" cx="35" cy="124.28" r="1.39"/><circle class="cls-2" cx="42.13" cy="124.28" r="1.39"/><circle class="cls-2" cx="49.26" cy="124.28" r="1.39"/><circle class="cls-2" cx="20.74" cy="131.01" r="1.39"/><circle class="cls-2" cx="27.87" cy="131.01" r="1.39"/><circle class="cls-2" cx="35" cy="131.01" r="1.39"/><circle class="cls-2" cx="42.13" cy="131.01" r="1.39"/><circle class="cls-2" cx="49.26" cy="131.01" r="1.39"/><circle class="cls-2" cx="20.74" cy="137.75" r="1.39"/><circle class="cls-2" cx="27.87" cy="137.75" r="1.39"/><circle class="cls-2" cx="35" cy="137.75" r="1.39"/><circle class="cls-2" cx="42.13" cy="137.75" r="1.39"/><circle class="cls-2" cx="49.26" cy="137.75" r="1.39"/><circle class="cls-2" cx="20.74" cy="144.48" r="1.39"/><circle class="cls-2" cx="27.87" cy="144.48" r="1.39"/><circle class="cls-2" cx="35" cy="144.48" r="1.39"/><circle class="cls-2" cx="42.13" cy="144.48" r="1.39"/><circle class="cls-2" cx="49.26" cy="144.48" r="1.39"/><circle class="cls-2" cx="20.74" cy="151.22" r="1.39"/><circle class="cls-2" cx="27.87" cy="151.22" r="1.39"/><circle class="cls-2" cx="35" cy="151.22" r="1.39"/><circle class="cls-2" cx="42.13" cy="151.22" r="1.39"/><circle class="cls-2" cx="49.26" cy="151.22" r="1.39"/><circle class="cls-2" cx="20.74" cy="157.95" r="1.39"/><circle class="cls-2" cx="27.87" cy="157.95" r="1.39"/><circle class="cls-2" cx="35" cy="157.95" r="1.39"/><circle class="cls-2" cx="42.13" cy="157.95" r="1.39"/><circle class="cls-2" cx="49.26" cy="157.95" r="1.39"/><circle class="cls-2" cy="3.05" r="1.39"/><circle class="cls-2" cx="7.13" cy="3.05" r="1.39"/><circle class="cls-2" cx="14.26" cy="3.05" r="1.39"/><circle class="cls-2" cy="9.78" r="1.39"/><circle class="cls-2" cx="7.13" cy="9.78" r="1.39"/><circle class="cls-2" cx="14.26" cy="9.78" r="1.39"/><circle class="cls-2" cy="16.52" r="1.39"/><circle class="cls-2" cx="7.13" cy="16.52" r="1.39"/><circle class="cls-2" cx="14.26" cy="16.52" r="1.39"/><circle class="cls-2" cy="23.25" r="1.39"/><circle class="cls-2" cx="7.13" cy="23.25" r="1.39"/><circle class="cls-2" cx="14.26" cy="23.25" r="1.39"/><circle class="cls-2" cy="29.99" r="1.39"/><circle class="cls-2" cx="7.13" cy="29.99" r="1.39"/><circle class="cls-2" cx="14.26" cy="29.99" r="1.39"/><circle class="cls-2" cy="36.72" r="1.39"/><circle class="cls-2" cx="7.13" cy="36.72" r="1.39"/><circle class="cls-2" cx="14.26" cy="36.72" r="1.39"/><circle class="cls-2" cy="43.46" r="1.39"/><circle class="cls-2" cx="7.13" cy="43.46" r="1.39"/><circle class="cls-2" cx="14.26" cy="43.46" r="1.39"/><circle class="cls-2" cy="50.19" r="1.39"/><circle class="cls-2" cx="7.13" cy="50.19" r="1.39"/><circle class="cls-2" cx="14.26" cy="50.19" r="1.39"/><circle class="cls-2" cy="56.93" r="1.39"/><circle class="cls-2" cx="7.13" cy="56.93" r="1.39"/><circle class="cls-2" cx="14.26" cy="56.93" r="1.39"/><circle class="cls-2" cy="63.66" r="1.39"/><circle class="cls-2" cx="7.13" cy="63.66" r="1.39"/><circle class="cls-2" cx="14.26" cy="63.66" r="1.39"/><circle class="cls-2" cy="70.4" r="1.39"/><circle class="cls-2" cx="7.13" cy="70.4" r="1.39"/><circle class="cls-2" cx="14.26" cy="70.4" r="1.39"/><circle class="cls-2" cy="77.13" r="1.39"/><circle class="cls-2" cx="7.13" cy="77.13" r="1.39"/><circle class="cls-2" cx="14.26" cy="77.13" r="1.39"/><circle class="cls-2" cy="83.87" r="1.39"/><circle class="cls-2" cx="7.13" cy="83.87" r="1.39"/><circle class="cls-2" cx="14.26" cy="83.87" r="1.39"/><circle class="cls-2" cy="90.6" r="1.39"/><circle class="cls-2" cx="7.13" cy="90.6" r="1.39"/><circle class="cls-2" cx="14.26" cy="90.6" r="1.39"/><circle class="cls-2" cy="97.34" r="1.39"/><circle class="cls-2" cx="7.13" cy="97.34" r="1.39"/><circle class="cls-2" cx="14.26" cy="97.34" r="1.39"/><circle class="cls-2" cy="104.07" r="1.39"/><circle class="cls-2" cx="7.13" cy="104.07" r="1.39"/><circle class="cls-2" cx="14.26" cy="104.07" r="1.39"/><circle class="cls-2" cy="110.81" r="1.39"/><circle class="cls-2" cx="7.13" cy="110.81" r="1.39"/><circle class="cls-2" cx="14.26" cy="110.81" r="1.39"/><circle class="cls-2" cy="117.54" r="1.39"/><circle class="cls-2" cx="7.13" cy="117.54" r="1.39"/><circle class="cls-2" cx="14.26" cy="117.54" r="1.39"/><circle class="cls-2" cy="124.28" r="1.39"/><circle class="cls-2" cx="7.13" cy="124.28" r="1.39"/><circle class="cls-2" cx="14.26" cy="124.28" r="1.39"/><circle class="cls-2" cy="131.01" r="1.39"/><circle class="cls-2" cx="7.13" cy="131.01" r="1.39"/><circle class="cls-2" cx="14.26" cy="131.01" r="1.39"/><circle class="cls-2" cy="137.75" r="1.39"/><circle class="cls-2" cx="7.13" cy="137.75" r="1.39"/><circle class="cls-2" cx="14.26" cy="137.75" r="1.39"/><circle class="cls-2" cy="144.48" r="1.39"/><circle class="cls-2" cx="7.13" cy="144.48" r="1.39"/><circle class="cls-2" cx="14.26" cy="144.48" r="1.39"/><circle class="cls-2" cy="151.22" r="1.39"/><circle class="cls-2" cx="7.13" cy="151.22" r="1.39"/><circle class="cls-2" cx="14.26" cy="151.22" r="1.39"/><circle class="cls-2" cy="157.95" r="1.39"/><circle class="cls-2" cx="7.13" cy="157.95" r="1.39"/><circle class="cls-2" cx="14.26" cy="157.95" r="1.39"/></pattern><linearGradient id="linear-gradient" x1="186.33" y1="24" x2="186.33" y2="306.78" gradientUnits="userSpaceOnUse"><stop offset="0" stop-color="#fff" stop-opacity="0"/><stop offset=".29" stop-color="#ff858f" stop-opacity=".14"/><stop offset=".57" stop-color="#ff0015" stop-opacity=".3"/><stop offset="1" stop-color="#00001f" stop-opacity="0"/></linearGradient></defs><g id="Layer_2" data-name="Layer 2"><g id="Layer_1-2" data-name="Layer 1"><path class="cls-3" d="M62.67 17.33H304V32H62.67zM0 283h376v74H0z"/><path fill="#53839b" d="M0 282.66h376v36.67H0z"/><path d="M275.33 304h-.58L256 294.41a5.18 5.18 0 0 0-4.56-.08L230.75 304l-17.57-9.66a5.2 5.2 0 0 0-4.89-.07L189.5 304l-18.38-8.86a5.17 5.17 0 0 0-4.69.1L150 304l-22.89-9.84a5.16 5.16 0 0 0-4.2 0L101.33 304 28 227.33h154z" fill="#0d2e3f"/><path class="cls-3" d="M55.33 0A14.67 14.67 0 0 1 70 14.67v292H40.67v-292A14.67 14.67 0 0 1 55.33 0zM332 14.66v292h-29.33v-292a14.67 14.67 0 0 1 29.33 0z"/><path d="M376 282.66v17.09A217 217 0 0 1 208.39 283l-.62-.34h94.9V32H104.34q2.19-7.45 4.89-14.67h193.44v-2.67a14.67 14.67 0 0 1 29.33 0v268z" fill="url(#_111)"/><path d="M275.33 304h-.58l-14.93-7.64a13.89 13.89 0 0 0-12.24-.22L230.75 304l-13.49-7.42a13.9 13.9 0 0 0-13.11-.16L189.5 304l-14.39-6.93a13.9 13.9 0 0 0-12.59.25L150 304l-19.35-8.32a13.86 13.86 0 0 0-11.25.12l-18.07 8.2V59.4a8.73 8.73 0 0 1 8.73-8.73H266.6a8.73 8.73 0 0 1 8.73 8.73z" fill="#97d4f4"/><circle class="cls-8" cx="135.33" cy="95.83" r="16.33"/><rect class="cls-8" x="119.33" y="161.33" width="60.67" height="12" rx="6" ry="6"/><rect class="cls-8" x="119.33" y="215.67" width="60.67" height="12" rx="6" ry="6"/><rect class="cls-8" x="200" y="162" width="60.67" height="12" rx="6" ry="6"/><rect class="cls-8" x="200" y="216.67" width="60.67" height="12" rx="6" ry="6"/><path fill="url(#linear-gradient)" d="M66.67 29.33H306V308H66.67z"/></g></g></svg>