<svg xmlns="http://www.w3.org/2000/svg" viewBox="0 0 363.09 330.78"><defs><style>.cls-7{fill:none}.cls-2{fill:#52c1ff}.cls-7{stroke:#1d4b66;stroke-miterlimit:10}.cls-9{fill:#97d4f4}.cls-10{fill:#53839b}</style><pattern id="_111" data-name="111" width="140" height="161" patternTransform="matrix(-1.66 0 0 1.66 -2152.83 3586.65)" patternUnits="userSpaceOnUse"><path fill="none" d="M0 0h140v161H0z"/><circle class="cls-2" cx="125.74" cy="3.05" r="1.39"/><circle class="cls-2" cx="132.87" cy="3.05" r="1.39"/><circle class="cls-2" cx="140" cy="3.05" r="1.39"/><circle class="cls-2" cx="125.74" cy="9.78" r="1.39"/><circle class="cls-2" cx="132.87" cy="9.78" r="1.39"/><circle class="cls-2" cx="140" cy="9.78" r="1.39"/><circle class="cls-2" cx="125.74" cy="16.52" r="1.39"/><circle class="cls-2" cx="132.87" cy="16.52" r="1.39"/><circle class="cls-2" cx="140" cy="16.52" r="1.39"/><circle class="cls-2" cx="125.74" cy="23.25" r="1.39"/><circle class="cls-2" cx="132.87" cy="23.25" r="1.39"/><circle class="cls-2" cx="140" cy="23.25" r="1.39"/><circle class="cls-2" cx="125.74" cy="29.99" r="1.39"/><circle class="cls-2" cx="132.87" cy="29.99" r="1.39"/><circle class="cls-2" cx="140" cy="29.99" r="1.39"/><circle class="cls-2" cx="125.74" cy="36.72" r="1.39"/><circle class="cls-2" cx="132.87" cy="36.72" r="1.39"/><circle class="cls-2" cx="140" cy="36.72" r="1.39"/><circle class="cls-2" cx="125.74" cy="43.46" r="1.39"/><circle class="cls-2" cx="132.87" cy="43.46" r="1.39"/><circle class="cls-2" cx="140" cy="43.46" r="1.39"/><circle class="cls-2" cx="125.74" cy="50.19" r="1.39"/><circle class="cls-2" cx="132.87" cy="50.19" r="1.39"/><circle class="cls-2" cx="140" cy="50.19" r="1.39"/><circle class="cls-2" cx="125.74" cy="56.93" r="1.39"/><circle class="cls-2" cx="132.87" cy="56.93" r="1.39"/><circle class="cls-2" cx="140" cy="56.93" r="1.39"/><circle class="cls-2" cx="125.74" cy="63.66" r="1.39"/><circle class="cls-2" cx="132.87" cy="63.66" r="1.39"/><circle class="cls-2" cx="140" cy="63.66" r="1.39"/><circle class="cls-2" cx="125.74" cy="70.4" r="1.39"/><circle class="cls-2" cx="132.87" cy="70.4" r="1.39"/><circle class="cls-2" cx="140" cy="70.4" r="1.39"/><circle class="cls-2" cx="125.74" cy="77.13" r="1.39"/><circle class="cls-2" cx="132.87" cy="77.13" r="1.39"/><circle class="cls-2" cx="140" cy="77.13" r="1.39"/><circle class="cls-2" cx="125.74" cy="83.87" r="1.39"/><circle class="cls-2" cx="132.87" cy="83.87" r="1.39"/><circle class="cls-2" cx="140" cy="83.87" r="1.39"/><circle class="cls-2" cx="125.74" cy="90.6" r="1.39"/><circle class="cls-2" cx="132.87" cy="90.6" r="1.39"/><circle class="cls-2" cx="140" cy="90.6" r="1.39"/><circle class="cls-2" cx="125.74" cy="97.34" r="1.39"/><circle class="cls-2" cx="132.87" cy="97.34" r="1.39"/><circle class="cls-2" cx="140" cy="97.34" r="1.39"/><circle class="cls-2" cx="125.74" cy="104.07" r="1.39"/><circle class="cls-2" cx="132.87" cy="104.07" r="1.39"/><circle class="cls-2" cx="140" cy="104.07" r="1.39"/><circle class="cls-2" cx="125.74" cy="110.81" r="1.39"/><circle class="cls-2" cx="132.87" cy="110.81" r="1.39"/><circle class="cls-2" cx="140" cy="110.81" r="1.39"/><circle class="cls-2" cx="125.74" cy="117.54" r="1.39"/><circle class="cls-2" cx="132.87" cy="117.54" r="1.39"/><circle class="cls-2" cx="140" cy="117.54" r="1.39"/><circle class="cls-2" cx="125.74" cy="124.28" r="1.39"/><circle class="cls-2" cx="132.87" cy="124.28" r="1.39"/><circle class="cls-2" cx="140" cy="124.28" r="1.39"/><circle class="cls-2" cx="125.74" cy="131.01" r="1.39"/><circle class="cls-2" cx="132.87" cy="131.01" r="1.39"/><circle class="cls-2" cx="140" cy="131.01" r="1.39"/><circle class="cls-2" cx="125.74" cy="137.75" r="1.39"/><circle class="cls-2" cx="132.87" cy="137.75" r="1.39"/><circle class="cls-2" cx="140" cy="137.75" r="1.39"/><circle class="cls-2" cx="125.74" cy="144.48" r="1.39"/><circle class="cls-2" cx="132.87" cy="144.48" r="1.39"/><circle class="cls-2" cx="140" cy="144.48" r="1.39"/><circle class="cls-2" cx="125.74" cy="151.22" r="1.39"/><circle class="cls-2" cx="132.87" cy="151.22" r="1.39"/><circle class="cls-2" cx="140" cy="151.22" r="1.39"/><circle class="cls-2" cx="125.74" cy="157.95" r="1.39"/><circle class="cls-2" cx="132.87" cy="157.95" r="1.39"/><circle class="cls-2" cx="140" cy="157.95" r="1.39"/><circle class="cls-2" cx="90.74" cy="3.05" r="1.39"/><circle class="cls-2" cx="97.87" cy="3.05" r="1.39"/><circle class="cls-2" cx="105" cy="3.05" r="1.39"/><circle class="cls-2" cx="112.13" cy="3.05" r="1.39"/><circle class="cls-2" cx="119.26" cy="3.05" r="1.39"/><circle class="cls-2" cx="90.74" cy="9.78" r="1.39"/><circle class="cls-2" cx="97.87" cy="9.78" r="1.39"/><circle class="cls-2" cx="105" cy="9.78" r="1.39"/><circle class="cls-2" cx="112.13" cy="9.78" r="1.39"/><circle class="cls-2" cx="119.26" cy="9.78" r="1.39"/><circle class="cls-2" cx="90.74" cy="16.52" r="1.39"/><circle class="cls-2" cx="97.87" cy="16.52" r="1.39"/><circle class="cls-2" cx="105" cy="16.52" r="1.39"/><circle class="cls-2" cx="112.13" cy="16.52" r="1.39"/><circle class="cls-2" cx="119.26" cy="16.52" r="1.39"/><circle class="cls-2" cx="90.74" cy="23.25" r="1.39"/><circle class="cls-2" cx="97.87" cy="23.25" r="1.39"/><circle class="cls-2" cx="105" cy="23.25" r="1.39"/><circle class="cls-2" cx="112.13" cy="23.25" r="1.39"/><circle class="cls-2" cx="119.26" cy="23.25" r="1.39"/><circle class="cls-2" cx="90.74" cy="29.99" r="1.39"/><circle class="cls-2" cx="97.87" cy="29.99" r="1.39"/><circle class="cls-2" cx="105" cy="29.99" r="1.39"/><circle class="cls-2" cx="112.13" cy="29.99" r="1.39"/><circle class="cls-2" cx="119.26" cy="29.99" r="1.39"/><circle class="cls-2" cx="90.74" cy="36.72" r="1.39"/><circle class="cls-2" cx="97.87" cy="36.72" r="1.39"/><circle class="cls-2" cx="105" cy="36.72" r="1.39"/><circle class="cls-2" cx="112.13" cy="36.72" r="1.39"/><circle class="cls-2" cx="119.26" cy="36.72" r="1.39"/><circle class="cls-2" cx="90.74" cy="43.46" r="1.39"/><circle class="cls-2" cx="97.87" cy="43.46" r="1.39"/><circle class="cls-2" cx="105" cy="43.46" r="1.39"/><circle class="cls-2" cx="112.13" cy="43.46" r="1.39"/><circle class="cls-2" cx="119.26" cy="43.46" r="1.39"/><circle class="cls-2" cx="90.74" cy="50.19" r="1.39"/><circle class="cls-2" cx="97.87" cy="50.19" r="1.39"/><circle class="cls-2" cx="105" cy="50.19" r="1.39"/><circle class="cls-2" cx="112.13" cy="50.19" r="1.39"/><circle class="cls-2" cx="119.26" cy="50.19" r="1.39"/><circle class="cls-2" cx="90.74" cy="56.93" r="1.39"/><circle class="cls-2" cx="97.87" cy="56.93" r="1.39"/><circle class="cls-2" cx="105" cy="56.93" r="1.39"/><circle class="cls-2" cx="112.13" cy="56.93" r="1.39"/><circle class="cls-2" cx="119.26" cy="56.93" r="1.39"/><circle class="cls-2" cx="90.74" cy="63.66" r="1.39"/><circle class="cls-2" cx="97.87" cy="63.66" r="1.39"/><circle class="cls-2" cx="105" cy="63.66" r="1.39"/><circle class="cls-2" cx="112.13" cy="63.66" r="1.39"/><circle class="cls-2" cx="119.26" cy="63.66" r="1.39"/><circle class="cls-2" cx="90.74" cy="70.4" r="1.39"/><circle class="cls-2" cx="97.87" cy="70.4" r="1.39"/><circle class="cls-2" cx="105" cy="70.4" r="1.39"/><circle class="cls-2" cx="112.13" cy="70.4" r="1.39"/><circle class="cls-2" cx="119.26" cy="70.4" r="1.39"/><circle class="cls-2" cx="90.74" cy="77.13" r="1.39"/><circle class="cls-2" cx="97.87" cy="77.13" r="1.39"/><circle class="cls-2" cx="105" cy="77.13" r="1.39"/><circle class="cls-2" cx="112.13" cy="77.13" r="1.39"/><circle class="cls-2" cx="119.26" cy="77.13" r="1.39"/><circle class="cls-2" cx="90.74" cy="83.87" r="1.39"/><circle class="cls-2" cx="97.87" cy="83.87" r="1.39"/><circle class="cls-2" cx="105" cy="83.87" r="1.39"/><circle class="cls-2" cx="112.13" cy="83.87" r="1.39"/><circle class="cls-2" cx="119.26" cy="83.87" r="1.39"/><circle class="cls-2" cx="90.74" cy="90.6" r="1.39"/><circle class="cls-2" cx="97.87" cy="90.6" r="1.39"/><circle class="cls-2" cx="105" cy="90.6" r="1.39"/><circle class="cls-2" cx="112.13" cy="90.6" r="1.39"/><circle class="cls-2" cx="119.26" cy="90.6" r="1.39"/><circle class="cls-2" cx="90.74" cy="97.34" r="1.39"/><circle class="cls-2" cx="97.87" cy="97.34" r="1.39"/><circle class="cls-2" cx="105" cy="97.34" r="1.39"/><circle class="cls-2" cx="112.13" cy="97.34" r="1.39"/><circle class="cls-2" cx="119.26" cy="97.34" r="1.39"/><circle class="cls-2" cx="90.74" cy="104.07" r="1.39"/><circle class="cls-2" cx="97.87" cy="104.07" r="1.39"/><circle class="cls-2" cx="105" cy="104.07" r="1.39"/><circle class="cls-2" cx="112.13" cy="104.07" r="1.39"/><circle class="cls-2" cx="119.26" cy="104.07" r="1.39"/><circle class="cls-2" cx="90.74" cy="110.81" r="1.39"/><circle class="cls-2" cx="97.87" cy="110.81" r="1.39"/><circle class="cls-2" cx="105" cy="110.81" r="1.39"/><circle class="cls-2" cx="112.13" cy="110.81" r="1.39"/><circle class="cls-2" cx="119.26" cy="110.81" r="1.39"/><circle class="cls-2" cx="90.74" cy="117.54" r="1.39"/><circle class="cls-2" cx="97.87" cy="117.54" r="1.39"/><circle class="cls-2" cx="105" cy="117.54" r="1.39"/><circle class="cls-2" cx="112.13" cy="117.54" r="1.39"/><circle class="cls-2" cx="119.26" cy="117.54" r="1.39"/><circle class="cls-2" cx="90.74" cy="124.28" r="1.39"/><circle class="cls-2" cx="97.87" cy="124.28" r="1.39"/><circle class="cls-2" cx="105" cy="124.28" r="1.39"/><circle class="cls-2" cx="112.13" cy="124.28" r="1.39"/><circle class="cls-2" cx="119.26" cy="124.28" r="1.39"/><circle class="cls-2" cx="90.74" cy="131.01" r="1.39"/><circle class="cls-2" cx="97.87" cy="131.01" r="1.39"/><circle class="cls-2" cx="105" cy="131.01" r="1.39"/><circle class="cls-2" cx="112.13" cy="131.01" r="1.39"/><circle class="cls-2" cx="119.26" cy="131.01" r="1.39"/><circle class="cls-2" cx="90.74" cy="137.75" r="1.39"/><circle class="cls-2" cx="97.87" cy="137.75" r="1.39"/><circle class="cls-2" cx="105" cy="137.75" r="1.39"/><circle class="cls-2" cx="112.13" cy="137.75" r="1.39"/><circle class="cls-2" cx="119.26" cy="137.75" r="1.39"/><circle class="cls-2" cx="90.74" cy="144.48" r="1.39"/><circle class="cls-2" cx="97.87" cy="144.48" r="1.39"/><circle class="cls-2" cx="105" cy="144.48" r="1.39"/><circle class="cls-2" cx="112.13" cy="144.48" r="1.39"/><circle class="cls-2" cx="119.26" cy="144.48" r="1.39"/><circle class="cls-2" cx="90.74" cy="151.22" r="1.39"/><circle class="cls-2" cx="97.87" cy="151.22" r="1.39"/><circle class="cls-2" cx="105" cy="151.22" r="1.39"/><circle class="cls-2" cx="112.13" cy="151.22" r="1.39"/><circle class="cls-2" cx="119.26" cy="151.22" r="1.39"/><circle class="cls-2" cx="90.74" cy="157.95" r="1.39"/><circle class="cls-2" cx="97.87" cy="157.95" r="1.39"/><circle class="cls-2" cx="105" cy="157.95" r="1.39"/><circle class="cls-2" cx="112.13" cy="157.95" r="1.39"/><circle class="cls-2" cx="119.26" cy="157.95" r="1.39"/><circle class="cls-2" cx="55.74" cy="3.05" r="1.39"/><circle class="cls-2" cx="62.87" cy="3.05" r="1.39"/><circle class="cls-2" cx="70" cy="3.05" r="1.39"/><circle class="cls-2" cx="77.13" cy="3.05" r="1.39"/><circle class="cls-2" cx="84.26" cy="3.05" r="1.39"/><circle class="cls-2" cx="55.74" cy="9.78" r="1.39"/><circle class="cls-2" cx="62.87" cy="9.78" r="1.39"/><circle class="cls-2" cx="70" cy="9.78" r="1.39"/><circle class="cls-2" cx="77.13" cy="9.78" r="1.39"/><circle class="cls-2" cx="84.26" cy="9.78" r="1.39"/><circle class="cls-2" cx="55.74" cy="16.52" r="1.39"/><circle class="cls-2" cx="62.87" cy="16.52" r="1.39"/><circle class="cls-2" cx="70" cy="16.52" r="1.39"/><circle class="cls-2" cx="77.13" cy="16.52" r="1.39"/><circle class="cls-2" cx="84.26" cy="16.52" r="1.39"/><circle class="cls-2" cx="55.74" cy="23.25" r="1.39"/><circle class="cls-2" cx="62.87" cy="23.25" r="1.39"/><circle class="cls-2" cx="70" cy="23.25" r="1.39"/><circle class="cls-2" cx="77.13" cy="23.25" r="1.39"/><circle class="cls-2" cx="84.26" cy="23.25" r="1.39"/><circle class="cls-2" cx="55.74" cy="29.99" r="1.39"/><circle class="cls-2" cx="62.87" cy="29.99" r="1.39"/><circle class="cls-2" cx="70" cy="29.99" r="1.39"/><circle class="cls-2" cx="77.13" cy="29.99" r="1.39"/><circle class="cls-2" cx="84.26" cy="29.99" r="1.39"/><circle class="cls-2" cx="55.74" cy="36.72" r="1.39"/><circle class="cls-2" cx="62.87" cy="36.72" r="1.39"/><circle class="cls-2" cx="70" cy="36.72" r="1.39"/><circle class="cls-2" cx="77.13" cy="36.72" r="1.39"/><circle class="cls-2" cx="84.26" cy="36.72" r="1.39"/><circle class="cls-2" cx="55.74" cy="43.46" r="1.39"/><circle class="cls-2" cx="62.87" cy="43.46" r="1.39"/><circle class="cls-2" cx="70" cy="43.46" r="1.39"/><circle class="cls-2" cx="77.13" cy="43.46" r="1.39"/><circle class="cls-2" cx="84.26" cy="43.46" r="1.39"/><circle class="cls-2" cx="55.74" cy="50.19" r="1.39"/><circle class="cls-2" cx="62.87" cy="50.19" r="1.39"/><circle class="cls-2" cx="70" cy="50.19" r="1.39"/><circle class="cls-2" cx="77.13" cy="50.19" r="1.39"/><circle class="cls-2" cx="84.26" cy="50.19" r="1.39"/><circle class="cls-2" cx="55.74" cy="56.93" r="1.39"/><circle class="cls-2" cx="62.87" cy="56.93" r="1.39"/><circle class="cls-2" cx="70" cy="56.93" r="1.39"/><circle class="cls-2" cx="77.13" cy="56.93" r="1.39"/><circle class="cls-2" cx="84.26" cy="56.93" r="1.39"/><circle class="cls-2" cx="55.74" cy="63.66" r="1.39"/><circle class="cls-2" cx="62.87" cy="63.66" r="1.39"/><circle class="cls-2" cx="70" cy="63.66" r="1.39"/><circle class="cls-2" cx="77.13" cy="63.66" r="1.39"/><circle class="cls-2" cx="84.26" cy="63.66" r="1.39"/><circle class="cls-2" cx="55.74" cy="70.4" r="1.39"/><circle class="cls-2" cx="62.87" cy="70.4" r="1.39"/><circle class="cls-2" cx="70" cy="70.4" r="1.39"/><circle class="cls-2" cx="77.13" cy="70.4" r="1.39"/><circle class="cls-2" cx="84.26" cy="70.4" r="1.39"/><circle class="cls-2" cx="55.74" cy="77.13" r="1.39"/><circle class="cls-2" cx="62.87" cy="77.13" r="1.39"/><circle class="cls-2" cx="70" cy="77.13" r="1.39"/><circle class="cls-2" cx="77.13" cy="77.13" r="1.39"/><circle class="cls-2" cx="84.26" cy="77.13" r="1.39"/><circle class="cls-2" cx="55.74" cy="83.87" r="1.39"/><circle class="cls-2" cx="62.87" cy="83.87" r="1.39"/><circle class="cls-2" cx="70" cy="83.87" r="1.39"/><circle class="cls-2" cx="77.13" cy="83.87" r="1.39"/><circle class="cls-2" cx="84.26" cy="83.87" r="1.39"/><circle class="cls-2" cx="55.74" cy="90.6" r="1.39"/><circle class="cls-2" cx="62.87" cy="90.6" r="1.39"/><circle class="cls-2" cx="70" cy="90.6" r="1.39"/><circle class="cls-2" cx="77.13" cy="90.6" r="1.39"/><circle class="cls-2" cx="84.26" cy="90.6" r="1.39"/><circle class="cls-2" cx="55.74" cy="97.34" r="1.39"/><circle class="cls-2" cx="62.87" cy="97.34" r="1.39"/><circle class="cls-2" cx="70" cy="97.34" r="1.39"/><circle class="cls-2" cx="77.13" cy="97.34" r="1.39"/><circle class="cls-2" cx="84.26" cy="97.34" r="1.39"/><circle class="cls-2" cx="55.74" cy="104.07" r="1.39"/><circle class="cls-2" cx="62.87" cy="104.07" r="1.39"/><circle class="cls-2" cx="70" cy="104.07" r="1.39"/><circle class="cls-2" cx="77.13" cy="104.07" r="1.39"/><circle class="cls-2" cx="84.26" cy="104.07" r="1.39"/><circle class="cls-2" cx="55.74" cy="110.81" r="1.39"/><circle class="cls-2" cx="62.87" cy="110.81" r="1.39"/><circle class="cls-2" cx="70" cy="110.81" r="1.39"/><circle class="cls-2" cx="77.13" cy="110.81" r="1.39"/><circle class="cls-2" cx="84.26" cy="110.81" r="1.39"/><circle class="cls-2" cx="55.74" cy="117.54" r="1.39"/><circle class="cls-2" cx="62.87" cy="117.54" r="1.39"/><circle class="cls-2" cx="70" cy="117.54" r="1.39"/><circle class="cls-2" cx="77.13" cy="117.54" r="1.39"/><circle class="cls-2" cx="84.26" cy="117.54" r="1.39"/><circle class="cls-2" cx="55.74" cy="124.28" r="1.39"/><circle class="cls-2" cx="62.87" cy="124.28" r="1.39"/><circle class="cls-2" cx="70" cy="124.28" r="1.39"/><circle class="cls-2" cx="77.13" cy="124.28" r="1.39"/><circle class="cls-2" cx="84.26" cy="124.28" r="1.39"/><circle class="cls-2" cx="55.74" cy="131.01" r="1.39"/><circle class="cls-2" cx="62.87" cy="131.01" r="1.39"/><circle class="cls-2" cx="70" cy="131.01" r="1.39"/><circle class="cls-2" cx="77.13" cy="131.01" r="1.39"/><circle class="cls-2" cx="84.26" cy="131.01" r="1.39"/><circle class="cls-2" cx="55.74" cy="137.75" r="1.39"/><circle class="cls-2" cx="62.87" cy="137.75" r="1.39"/><circle class="cls-2" cx="70" cy="137.75" r="1.39"/><circle class="cls-2" cx="77.13" cy="137.75" r="1.39"/><circle class="cls-2" cx="84.26" cy="137.75" r="1.39"/><circle class="cls-2" cx="55.74" cy="144.48" r="1.39"/><circle class="cls-2" cx="62.87" cy="144.48" r="1.39"/><circle class="cls-2" cx="70" cy="144.48" r="1.39"/><circle class="cls-2" cx="77.13" cy="144.48" r="1.39"/><circle class="cls-2" cx="84.26" cy="144.48" r="1.39"/><circle class="cls-2" cx="55.74" cy="151.22" r="1.39"/><circle class="cls-2" cx="62.87" cy="151.22" r="1.39"/><circle class="cls-2" cx="70" cy="151.22" r="1.39"/><circle class="cls-2" cx="77.13" cy="151.22" r="1.39"/><circle class="cls-2" cx="84.26" cy="151.22" r="1.39"/><circle class="cls-2" cx="55.74" cy="157.95" r="1.39"/><circle class="cls-2" cx="62.87" cy="157.95" r="1.39"/><circle class="cls-2" cx="70" cy="157.95" r="1.39"/><circle class="cls-2" cx="77.13" cy="157.95" r="1.39"/><circle class="cls-2" cx="84.26" cy="157.95" r="1.39"/><circle class="cls-2" cx="20.74" cy="3.05" r="1.39"/><circle class="cls-2" cx="27.87" cy="3.05" r="1.39"/><circle class="cls-2" cx="35" cy="3.05" r="1.39"/><circle class="cls-2" cx="42.13" cy="3.05" r="1.39"/><circle class="cls-2" cx="49.26" cy="3.05" r="1.39"/><circle class="cls-2" cx="20.74" cy="9.78" r="1.39"/><circle class="cls-2" cx="27.87" cy="9.78" r="1.39"/><circle class="cls-2" cx="35" cy="9.78" r="1.39"/><circle class="cls-2" cx="42.13" cy="9.78" r="1.39"/><circle class="cls-2" cx="49.26" cy="9.78" r="1.39"/><circle class="cls-2" cx="20.74" cy="16.52" r="1.39"/><circle class="cls-2" cx="27.87" cy="16.52" r="1.39"/><circle class="cls-2" cx="35" cy="16.52" r="1.39"/><circle class="cls-2" cx="42.13" cy="16.52" r="1.39"/><circle class="cls-2" cx="49.26" cy="16.52" r="1.39"/><circle class="cls-2" cx="20.74" cy="23.25" r="1.39"/><circle class="cls-2" cx="27.87" cy="23.25" r="1.39"/><circle class="cls-2" cx="35" cy="23.25" r="1.39"/><circle class="cls-2" cx="42.13" cy="23.25" r="1.39"/><circle class="cls-2" cx="49.26" cy="23.25" r="1.39"/><circle class="cls-2" cx="20.74" cy="29.99" r="1.39"/><circle class="cls-2" cx="27.87" cy="29.99" r="1.39"/><circle class="cls-2" cx="35" cy="29.99" r="1.39"/><circle class="cls-2" cx="42.13" cy="29.99" r="1.39"/><circle class="cls-2" cx="49.26" cy="29.99" r="1.39"/><circle class="cls-2" cx="20.74" cy="36.72" r="1.39"/><circle class="cls-2" cx="27.87" cy="36.72" r="1.39"/><circle class="cls-2" cx="35" cy="36.72" r="1.39"/><circle class="cls-2" cx="42.13" cy="36.72" r="1.39"/><circle class="cls-2" cx="49.26" cy="36.72" r="1.39"/><circle class="cls-2" cx="20.74" cy="43.46" r="1.39"/><circle class="cls-2" cx="27.87" cy="43.46" r="1.39"/><circle class="cls-2" cx="35" cy="43.46" r="1.39"/><circle class="cls-2" cx="42.13" cy="43.46" r="1.39"/><circle class="cls-2" cx="49.26" cy="43.46" r="1.39"/><circle class="cls-2" cx="20.74" cy="50.19" r="1.39"/><circle class="cls-2" cx="27.87" cy="50.19" r="1.39"/><circle class="cls-2" cx="35" cy="50.19" r="1.39"/><circle class="cls-2" cx="42.13" cy="50.19" r="1.39"/><circle class="cls-2" cx="49.26" cy="50.19" r="1.39"/><circle class="cls-2" cx="20.74" cy="56.93" r="1.39"/><circle class="cls-2" cx="27.87" cy="56.93" r="1.39"/><circle class="cls-2" cx="35" cy="56.93" r="1.39"/><circle class="cls-2" cx="42.13" cy="56.93" r="1.39"/><circle class="cls-2" cx="49.26" cy="56.93" r="1.39"/><circle class="cls-2" cx="20.74" cy="63.66" r="1.39"/><circle class="cls-2" cx="27.87" cy="63.66" r="1.39"/><circle class="cls-2" cx="35" cy="63.66" r="1.39"/><circle class="cls-2" cx="42.13" cy="63.66" r="1.39"/><circle class="cls-2" cx="49.26" cy="63.66" r="1.39"/><circle class="cls-2" cx="20.74" cy="70.4" r="1.39"/><circle class="cls-2" cx="27.87" cy="70.4" r="1.39"/><circle class="cls-2" cx="35" cy="70.4" r="1.39"/><circle class="cls-2" cx="42.13" cy="70.4" r="1.39"/><circle class="cls-2" cx="49.26" cy="70.4" r="1.39"/><circle class="cls-2" cx="20.74" cy="77.13" r="1.39"/><circle class="cls-2" cx="27.87" cy="77.13" r="1.39"/><circle class="cls-2" cx="35" cy="77.13" r="1.39"/><circle class="cls-2" cx="42.13" cy="77.13" r="1.39"/><circle class="cls-2" cx="49.26" cy="77.13" r="1.39"/><circle class="cls-2" cx="20.74" cy="83.87" r="1.39"/><circle class="cls-2" cx="27.87" cy="83.87" r="1.39"/><circle class="cls-2" cx="35" cy="83.87" r="1.39"/><circle class="cls-2" cx="42.13" cy="83.87" r="1.39"/><circle class="cls-2" cx="49.26" cy="83.87" r="1.39"/><circle class="cls-2" cx="20.74" cy="90.6" r="1.39"/><circle class="cls-2" cx="27.87" cy="90.6" r="1.39"/><circle class="cls-2" cx="35" cy="90.6" r="1.39"/><circle class="cls-2" cx="42.13" cy="90.6" r="1.39"/><circle class="cls-2" cx="49.26" cy="90.6" r="1.39"/><circle class="cls-2" cx="20.74" cy="97.34" r="1.39"/><circle class="cls-2" cx="27.87" cy="97.34" r="1.39"/><circle class="cls-2" cx="35" cy="97.34" r="1.39"/><circle class="cls-2" cx="42.13" cy="97.34" r="1.39"/><circle class="cls-2" cx="49.26" cy="97.34" r="1.39"/><circle class="cls-2" cx="20.74" cy="104.07" r="1.39"/><circle class="cls-2" cx="27.87" cy="104.07" r="1.39"/><circle class="cls-2" cx="35" cy="104.07" r="1.39"/><circle class="cls-2" cx="42.13" cy="104.07" r="1.39"/><circle class="cls-2" cx="49.26" cy="104.07" r="1.39"/><circle class="cls-2" cx="20.74" cy="110.81" r="1.39"/><circle class="cls-2" cx="27.87" cy="110.81" r="1.39"/><circle class="cls-2" cx="35" cy="110.81" r="1.39"/><circle class="cls-2" cx="42.13" cy="110.81" r="1.39"/><circle class="cls-2" cx="49.26" cy="110.81" r="1.39"/><circle class="cls-2" cx="20.74" cy="117.54" r="1.39"/><circle class="cls-2" cx="27.87" cy="117.54" r="1.39"/><circle class="cls-2" cx="35" cy="117.54" r="1.39"/><circle class="cls-2" cx="42.13" cy="117.54" r="1.39"/><circle class="cls-2" cx="49.26" cy="117.54" r="1.39"/><circle class="cls-2" cx="20.74" cy="124.28" r="1.39"/><circle class="cls-2" cx="27.87" cy="124.28" r="1.39"/><circle class="cls-2" cx="35" cy="124.28" r="1.39"/><circle class="cls-2" cx="42.13" cy="124.28" r="1.39"/><circle class="cls-2" cx="49.26" cy="124.28" r="1.39"/><circle class="cls-2" cx="20.74" cy="131.01" r="1.39"/><circle class="cls-2" cx="27.87" cy="131.01" r="1.39"/><circle class="cls-2" cx="35" cy="131.01" r="1.39"/><circle class="cls-2" cx="42.13" cy="131.01" r="1.39"/><circle class="cls-2" cx="49.26" cy="131.01" r="1.39"/><circle class="cls-2" cx="20.74" cy="137.75" r="1.39"/><circle class="cls-2" cx="27.87" cy="137.75" r="1.39"/><circle class="cls-2" cx="35" cy="137.75" r="1.39"/><circle class="cls-2" cx="42.13" cy="137.75" r="1.39"/><circle class="cls-2" cx="49.26" cy="137.75" r="1.39"/><circle class="cls-2" cx="20.74" cy="144.48" r="1.39"/><circle class="cls-2" cx="27.87" cy="144.48" r="1.39"/><circle class="cls-2" cx="35" cy="144.48" r="1.39"/><circle class="cls-2" cx="42.13" cy="144.48" r="1.39"/><circle class="cls-2" cx="49.26" cy="144.48" r="1.39"/><circle class="cls-2" cx="20.74" cy="151.22" r="1.39"/><circle class="cls-2" cx="27.87" cy="151.22" r="1.39"/><circle class="cls-2" cx="35" cy="151.22" r="1.39"/><circle class="cls-2" cx="42.13" cy="151.22" r="1.39"/><circle class="cls-2" cx="49.26" cy="151.22" r="1.39"/><circle class="cls-2" cx="20.74" cy="157.95" r="1.39"/><circle class="cls-2" cx="27.87" cy="157.95" r="1.39"/><circle class="cls-2" cx="35" cy="157.95" r="1.39"/><circle class="cls-2" cx="42.13" cy="157.95" r="1.39"/><circle class="cls-2" cx="49.26" cy="157.95" r="1.39"/><circle class="cls-2" cy="3.05" r="1.39"/><circle class="cls-2" cx="7.13" cy="3.05" r="1.39"/><circle class="cls-2" cx="14.26" cy="3.05" r="1.39"/><circle class="cls-2" cy="9.78" r="1.39"/><circle class="cls-2" cx="7.13" cy="9.78" r="1.39"/><circle class="cls-2" cx="14.26" cy="9.78" r="1.39"/><circle class="cls-2" cy="16.52" r="1.39"/><circle class="cls-2" cx="7.13" cy="16.52" r="1.39"/><circle class="cls-2" cx="14.26" cy="16.52" r="1.39"/><circle class="cls-2" cy="23.25" r="1.39"/><circle class="cls-2" cx="7.13" cy="23.25" r="1.39"/><circle class="cls-2" cx="14.26" cy="23.25" r="1.39"/><circle class="cls-2" cy="29.99" r="1.39"/><circle class="cls-2" cx="7.13" cy="29.99" r="1.39"/><circle class="cls-2" cx="14.26" cy="29.99" r="1.39"/><circle class="cls-2" cy="36.72" r="1.39"/><circle class="cls-2" cx="7.13" cy="36.72" r="1.39"/><circle class="cls-2" cx="14.26" cy="36.72" r="1.39"/><circle class="cls-2" cy="43.46" r="1.39"/><circle class="cls-2" cx="7.13" cy="43.46" r="1.39"/><circle class="cls-2" cx="14.26" cy="43.46" r="1.39"/><circle class="cls-2" cy="50.19" r="1.39"/><circle class="cls-2" cx="7.13" cy="50.19" r="1.39"/><circle class="cls-2" cx="14.26" cy="50.19" r="1.39"/><circle class="cls-2" cy="56.93" r="1.39"/><circle class="cls-2" cx="7.13" cy="56.93" r="1.39"/><circle class="cls-2" cx="14.26" cy="56.93" r="1.39"/><circle class="cls-2" cy="63.66" r="1.39"/><circle class="cls-2" cx="7.13" cy="63.66" r="1.39"/><circle class="cls-2" cx="14.26" cy="63.66" r="1.39"/><circle class="cls-2" cy="70.4" r="1.39"/><circle class="cls-2" cx="7.13" cy="70.4" r="1.39"/><circle class="cls-2" cx="14.26" cy="70.4" r="1.39"/><circle class="cls-2" cy="77.13" r="1.39"/><circle class="cls-2" cx="7.13" cy="77.13" r="1.39"/><circle class="cls-2" cx="14.26" cy="77.13" r="1.39"/><circle class="cls-2" cy="83.87" r="1.39"/><circle class="cls-2" cx="7.13" cy="83.87" r="1.39"/><circle class="cls-2" cx="14.26" cy="83.87" r="1.39"/><circle class="cls-2" cy="90.6" r="1.39"/><circle class="cls-2" cx="7.13" cy="90.6" r="1.39"/><circle class="cls-2" cx="14.26" cy="90.6" r="1.39"/><circle class="cls-2" cy="97.34" r="1.39"/><circle class="cls-2" cx="7.13" cy="97.34" r="1.39"/><circle class="cls-2" cx="14.26" cy="97.34" r="1.39"/><circle class="cls-2" cy="104.07" r="1.39"/><circle class="cls-2" cx="7.13" cy="104.07" r="1.39"/><circle class="cls-2" cx="14.26" cy="104.07" r="1.39"/><circle class="cls-2" cy="110.81" r="1.39"/><circle class="cls-2" cx="7.13" cy="110.81" r="1.39"/><circle class="cls-2" cx="14.26" cy="110.81" r="1.39"/><circle class="cls-2" cy="117.54" r="1.39"/><circle class="cls-2" cx="7.13" cy="117.54" r="1.39"/><circle class="cls-2" cx="14.26" cy="117.54" r="1.39"/><circle class="cls-2" cy="124.28" r="1.39"/><circle class="cls-2" cx="7.13" cy="124.28" r="1.39"/><circle class="cls-2" cx="14.26" cy="124.28" r="1.39"/><circle class="cls-2" cy="131.01" r="1.39"/><circle class="cls-2" cx="7.13" cy="131.01" r="1.39"/><circle class="cls-2" cx="14.26" cy="131.01" r="1.39"/><circle class="cls-2" cy="137.75" r="1.39"/><circle class="cls-2" cx="7.13" cy="137.75" r="1.39"/><circle class="cls-2" cx="14.26" cy="137.75" r="1.39"/><circle class="cls-2" cy="144.48" r="1.39"/><circle class="cls-2" cx="7.13" cy="144.48" r="1.39"/><circle class="cls-2" cx="14.26" cy="144.48" r="1.39"/><circle class="cls-2" cy="151.22" r="1.39"/><circle class="cls-2" cx="7.13" cy="151.22" r="1.39"/><circle class="cls-2" cx="14.26" cy="151.22" r="1.39"/><circle class="cls-2" cy="157.95" r="1.39"/><circle class="cls-2" cx="7.13" cy="157.95" r="1.39"/><circle class="cls-2" cx="14.26" cy="157.95" r="1.39"/></pattern></defs><g id="Layer_2" data-name="Layer 2"><g id="Layer_1-2" data-name="Layer 1"><path d="M349.71 319.78a6.18 6.18 0 0 1-3.94 11l-238.49-.52a13.37 13.37 0 0 1-8.49-3.05L1.84 258.1a4.37 4.37 0 0 1 2.54-7.93h259.8a2.43 2.43 0 0 1 1.53.55z" fill="#0e232d"/><rect x="88.77" width="274.33" height="330.78" rx="20.21" ry="20.21" fill="#1d4b66"/><path d="M342.88 0h-38.06c-4 20.88-11.16 41.24-18.19 61.45-3.3 19.31-7 38.55-11.32 57.67C262 178 242.72 237 213.11 290c6.84 3.86 12.24 10.91 15.08 17.63a35.58 35.58 0 0 1 1.81 23.15h112.88a20.21 20.21 0 0 0 20.21-20.21V20.21A20.21 20.21 0 0 0 342.88 0z" fill="url(#_111)"/><path fill="#ccefff" d="M109.24 18.94h233.38v292.91H109.24z"/><path class="cls-7" d="M311.71 216.84v46.67H143.04"/><path stroke-dasharray="21" stroke="#1d4b66" stroke-miterlimit="10" fill="none" d="M291.04 80.84v69.67h-65.33v66.33h86"/><path class="cls-7" d="M154.04 80.84h137"/><circle class="cls-9" cx="154.04" cy="80.84" r="23.51"/><circle class="cls-9" cx="291.04" cy="80.84" r="23.51"/><circle class="cls-10" cx="226.04" cy="150.84" r="23.51"/><circle class="cls-10" cx="311.95" cy="216.37" r="23.51"/><circle class="cls-9" cx="160.15" cy="264.31" r="23.51"/></g></g></svg>