<?xml version="1.0" encoding="utf-8"?>
<!-- Generator: Adobe Illustrator 22.0.0, SVG Export Plug-In . SVG Version: 6.00 Build 0)  -->
<svg version="1.1" id="Layer_1" xmlns="http://www.w3.org/2000/svg" xmlns:xlink="http://www.w3.org/1999/xlink" x="0px" y="0px"
	 viewBox="0 0 950 550" style="enable-background:new 0 0 950 550;" xml:space="preserve">
<style type="text/css">
	.st0{fill:#FFD8CC;}
	.st1{opacity:0.1;fill:url(#SVGID_1_);enable-background:new    ;}
	.st2{opacity:0.1;fill:url(#SVGID_2_);enable-background:new    ;}
	.st3{fill:#FFFFFF;}
	.st4{fill:#505069;}
	.st5{fill:#7A859C;}
	.st6{fill:#FFEEED;}
	.st7{fill:#FF615E;}
	.st8{fill:#D1485A;}
	.st9{fill:#FF9191;}
	.st10{fill:#E8F1FF;}
	.st11{fill:#535E75;}
	.st12{fill:#B9D3F0;}
	.st13{fill:#D8E3F0;}
	.st14{fill:#CCEFFF;}
	.st15{fill:#CCD5FF;}
	.st16{fill:#FFD2BA;}
	.st17{fill:#163B55;}
	.st18{fill:#212332;}
	.st19{fill:#FFCCCC;}
	.st20{fill:#3A5C74;}
	.st21{fill:#5858B8;}
	.st22{fill:#466F8C;}
	.st23{fill:#E6EEF7;}
	.st24{fill:#C5D7EB;}
	.st25{font-family:'SourceHanSansCN-Medium-GBpc-EUC-H';}
	.st26{font-size:20px;}
	.st27{font-family:'SourceHanSansCN-Regular-GBpc-EUC-H';}
	.st28{font-size:17px;}
	.st29{font-size:29px;}
	.st30{font-size:14px;}
</style>
<path class="st0" d="M457.9,430.7h51.9c0.3,17.8,0.5,35.3,0.5,52c0,3.8,1,7.8,3.4,10.7c3.8,4.7,10.8,5.1,16.9,5
	c50.3-0.3,116.2-0.7,166.5-0.1c28.4,0.3,56.9,0.6,85.2-0.8c5.8-0.3,12-0.7,16.8-4.1c9.6-6.8,8.6-20.9,7.3-32.5
	c-1.4-11.6-0.5-26.3,10.3-31c3.6-1.6,7.7-1.6,11.7-1.6c14.1,0,28.1,0,42.2,0.1c4.1,0,8.7-0.1,11.7-2.9c3.5-3.1,3.8-8.4,3.9-13
	c0.7-52.7,0.5-105.5-0.4-158.2c-0.1-7.2-0.5-15-4.9-20.7c-6-7.6-17-9-26.7-9h-197v-0.2H455.7C455.3,293,457,361.9,457.9,430.7
	L457.9,430.7z"/>
<linearGradient id="SVGID_1_" gradientUnits="userSpaceOnUse" x1="104.074" y1="-507.407" x2="935.62" y2="-912.4161" gradientTransform="matrix(1 0 0 -1 0 -394)">
	<stop  offset="0" style="stop-color:#363DBA"/>
	<stop  offset="1" style="stop-color:#363DBA;stop-opacity:0.2"/>
</linearGradient>
<path class="st1" d="M16.4,17.2h699.9c9,0,16.4,7.3,16.4,16.4v415.1c0,9-7.3,16.4-16.4,16.4H16.4c-9,0-16.4-7.3-16.4-16.4V33.5
	C0,24.5,7.4,17.2,16.4,17.2z"/>
<linearGradient id="SVGID_2_" gradientUnits="userSpaceOnUse" x1="669.4" y1="5.8" x2="898" y2="5.8" gradientTransform="matrix(1 0 0 -1 0 552)">
	<stop  offset="0" style="stop-color:#363DBA;stop-opacity:0"/>
	<stop  offset="0.554" style="stop-color:#363DBA"/>
	<stop  offset="0.996" style="stop-color:#363DBA;stop-opacity:9.000000e-03"/>
	<stop  offset="1" style="stop-color:#363DBA;stop-opacity:0"/>
</linearGradient>
<path class="st2" d="M669.4,550h228.5l0.1-7.6H669.4V550z"/>
<path class="st3" d="M17.1,0.1h698.4c5.5,0,10,4.5,10,10v436.8c0,5.5-4.5,10-10,10H17.1c-5.5,0-10-4.5-10-10V10.1
	C7.1,4.5,11.6,0.1,17.1,0.1z"/>
<path class="st4" d="M725.5,44.3H7.1V10.1c0-5.5,4.5-10,10-10h698.4c5.5,0,10,4.5,10,10C725.5,10.1,725.5,44.3,725.5,44.3z"/>
<ellipse class="st5" cx="521.3" cy="101.3" rx="0.5" ry="0.5"/>
<ellipse class="st5" cx="526.4" cy="101.3" rx="0.5" ry="0.5"/>
<ellipse class="st5" cx="523.8" cy="101.3" rx="0.5" ry="0.5"/>
<path class="st5" d="M527.8,94.9h-1.1v-0.5H526v0.5h-4.5v-0.5h-0.7v0.5h-1.1c-0.9,0-1.6,0.7-1.6,1.6v7.1c0,0.9,0.7,1.6,1.6,1.6h8
	c0.9,0,1.6-0.7,1.6-1.6v-7.1C529.4,95.6,528.7,94.9,527.8,94.9z M519.8,95.6h1.1v1.1h0.7v-1.1h4.5v1.1h0.7v-1.1h1.1
	c0.5,0,0.9,0.4,0.9,0.9v1.2H519v-1.2C518.9,96,519.3,95.6,519.8,95.6z M527.8,104.4h-8c-0.5,0-0.9-0.4-0.9-0.9v-5.2h9.8v5.2
	C528.7,104,528.3,104.4,527.8,104.4L527.8,104.4z"/>
<path class="st6" d="M315.3,261.2c0,1.9-0.1,3.8-0.2,5.7c-0.8,12.4-4.4,24-10,34.4c-1.7,3.1-3.6,6.1-5.7,9
	c-15.2,21-39.8,34.6-67.7,34.6c-30.3,0-56.9-16.1-71.5-40.3c-1.2-2-2.4-4.1-3.4-6.3c-2.8-5.7-5-11.7-6.5-18
	c-1.4-6.1-2.2-12.5-2.2-19c0-2.2,0.1-4.3,0.2-6.5c2.6-34,25.5-62.3,56.7-72.8c8.4-2.8,17.4-4.4,26.7-4.4
	C277.9,177.5,315.3,215,315.3,261.2L315.3,261.2z"/>
<path class="st7" d="M231.7,261.2l-83.4-6.5c2.6-34,25.5-62.3,56.7-72.8L231.7,261.2L231.7,261.2z"/>
<path class="st8" d="M231.7,177.5v83.6L205,181.9C213.4,179.1,222.4,177.5,231.7,177.5z"/>
<path class="st9" d="M231.7,261.2l-71.5,43.3c-1.2-2-2.4-4.1-3.4-6.3c-2.8-5.7-5-11.7-6.5-18c-1.4-6.1-2.2-12.5-2.2-19
	c0-2.2,0.1-4.3,0.2-6.5L231.7,261.2L231.7,261.2z"/>
<path class="st10" d="M322.9,308.6h-39l-2.9,5l-3-5h-36.7v-31.5h81.6V308.6z"/>
<path class="st11" d="M248.6,288.8c0-0.9,0.8-1.5,1.6-1.8c-0.8-0.2-1.5-0.7-1.5-1.6c0-1.2,1.2-1.7,2.3-1.7s2.3,0.5,2.3,1.7
	c0,0.9-0.7,1.4-1.5,1.6c0.8,0.3,1.6,0.9,1.6,1.8c0,1.1-1.1,1.8-2.4,1.8C249.7,290.7,248.6,290,248.6,288.8L248.6,288.8z
	 M252.6,288.7c0-0.9-1.2-1.3-1.6-1.3c-0.4,0.1-1.6,0.4-1.6,1.3c0,0.7,0.7,1.2,1.6,1.2C251.9,289.9,252.6,289.5,252.6,288.7z
	 M252.5,285.5c0-0.7-0.7-1.1-1.5-1.1s-1.5,0.4-1.5,1.1c0,0.8,1.1,1.1,1.5,1.2C251.4,286.6,252.5,286.4,252.5,285.5z M254.6,289.6
	l0.5-0.6c0.4,0.6,1,0.9,1.9,0.9s1.6-0.6,1.6-1.4c0-0.9-0.6-1.5-1.5-1.5c-0.6,0-1.1,0.2-1.6,0.6l-0.6-0.2v-3.6h4.1v0.7h-3.3v2.3
	c0.3-0.3,0.9-0.6,1.6-0.6c1.1,0,2.1,0.8,2.1,2.2c0,1.4-1,2.2-2.4,2.2C255.9,290.7,255.1,290.2,254.6,289.6z M260.4,287.2
	c0-1.6,0.7-3.5,2.6-3.5c1.8,0,2.6,1.8,2.6,3.5c0,1.6-0.7,3.5-2.6,3.5C261.2,290.7,260.4,288.8,260.4,287.2z M264.7,287.2
	c0-1.3-0.4-2.7-1.7-2.7c-1.3,0-1.7,1.4-1.7,2.7c0,1.3,0.4,2.7,1.7,2.7C264.3,289.9,264.7,288.5,264.7,287.2z M266.4,290.1
	c0-0.3,0.3-0.6,0.6-0.6s0.6,0.3,0.6,0.6s-0.3,0.6-0.6,0.6C266.7,290.6,266.4,290.4,266.4,290.1z M268.3,287.2c0-1.6,0.7-3.5,2.6-3.5
	c1.8,0,2.6,1.8,2.6,3.5c0,1.6-0.7,3.5-2.6,3.5C269.1,290.7,268.3,288.8,268.3,287.2z M272.6,287.2c0-1.3-0.4-2.7-1.7-2.7
	c-1.3,0-1.7,1.4-1.7,2.7c0,1.3,0.4,2.7,1.7,2.7C272.2,289.9,272.6,288.5,272.6,287.2z M274.5,287.2c0-1.6,0.7-3.5,2.6-3.5
	c1.8,0,2.6,1.8,2.6,3.5c0,1.6-0.7,3.5-2.6,3.5S274.5,288.8,274.5,287.2z M278.8,287.2c0-1.3-0.4-2.7-1.7-2.7c-1.3,0-1.7,1.4-1.7,2.7
	c0,1.3,0.4,2.7,1.7,2.7C278.4,289.9,278.8,288.5,278.8,287.2z"/>
<path class="st12" d="M294.3,301.5h-43.7c-1.4,0-2.5-1.1-2.5-2.5v-0.1c0-1.4,1.1-2.5,2.5-2.5h43.7c1.4,0,2.5,1.1,2.5,2.5v0.1
	C296.8,300.4,295.7,301.5,294.3,301.5z"/>
<path class="st13" d="M78.8,152.9h575v1h-575L78.8,152.9L78.8,152.9z M418,213.3h169.9v1H418V213.3z M418,230.1h169.9v1H418V230.1z
	 M418,246.8h169.9v1H418V246.8z M418,263.6h169.9v1H418V263.6z M418,280.3h169.9v1H418V280.3z M418,297.1h169.9v1H418V297.1z"/>
<path class="st14" d="M435.7,247.8h18.7V298h-18.7V247.8z M472.6,223.3h18.7V298h-18.7V223.3z M509.5,253.9h18.7V298h-18.7V253.9
	L509.5,253.9z M546.4,240.1h18.7V298h-18.7V240.1z"/>
<path class="st15" d="M435.7,264.7h18.7V298h-18.7V264.7z M472.6,252.8h18.7V298h-18.7V252.8L472.6,252.8z M509.5,272.9h18.7V298
	h-18.7V272.9L509.5,272.9z M546.4,251.4h18.7v46.7h-18.7V251.4L546.4,251.4z"/>
<path class="st13" d="M416.1,347.7h171.7v1H416.1V347.7z M416.1,364.5h171.7v1H416.1V364.5z M416.1,381.2h171.7v1H416.1V381.2z
	 M416.1,398h171.7v1H416.1V398z M416.1,414.7h171.7v1H416.1V414.7z"/>
<path class="st16" d="M417.8,378.6c6.1,2.2,8.6,10.5,13.6,14.4c4.7,3.7,10.7,3.6,15.4,0c2.5-1.9,4-4.5,5.8-7
	c3.8-5.2,7.5-2.4,12.5-1.7c5.5,0.8,9.2-2.1,12.4-6.3c4.5-5.9,8.8-16.4,18-11.4c7.2,3.9,11.7,12.3,16.9,18.3c3.8,4.4,9,8.6,14.5,4.5
	c1.4-1.1,2.6-3.1,4.4-3.6c1.5-0.4,3.2,0.6,4.6,1.2c2.8,1.4,5.4,3.5,8.4,4.5c6.5,2.1,11.8-2.3,16.2-6.6c7.3-7.2,14.6-14.2,25.7-10.6
	c3.1,1,4.4-3.9,1.3-4.9c-6.6-2.1-13.4-1.4-19.4,2.1c-6.5,3.8-10.3,11-16.9,14.5c-6.5,3.5-11.6-4.3-17.9-5.2
	c-2.2-0.3-4.3,0.2-6.2,1.4c-1.3,0.9-2.6,3.1-4,3.6c-2.7,1-5.3-2.2-6.9-3.9c-7.3-8.2-19-29-32.7-19.6c-5.2,3.5-7.4,9.9-11.6,14.3
	c-5.4,5.7-11.5-0.8-17.9,1.4c-7.4,2.6-11.1,19-20.6,10.3c-5.2-4.7-7.6-12.1-14.6-14.7C416.1,372.6,414.7,377.5,417.8,378.6
	L417.8,378.6z"/>
<path class="st17" d="M774.9,541.4c-1.4,2.2-1,3.8-0.4,5.5c0.6,1.6,2.7,2.9,3.5,2.9h15.7c3.7-38.7,5.2-82.3,8-117.9l25,109.9
	c0.3,1-0.2,6.3,0.5,7.1c0.1,0.1,0.2,0.2,0.4,0.3c1.3,0.6,2.8,0.8,4.2,0.8c8.5,0,12.4,0,19.6-0.2c1.6,0,3.5-0.2,4.2-1.8
	c0.4-0.8,0.3-1.8-0.1-2.6c-0.8-1.6-2.5-2.4-4-3.2c-1.9-0.9-3.7-1.8-5.6-2.6c-0.9-0.4-1.9-1-1.9-2c-5.1-36.6-11.2-81-16.5-118.7
	c-0.4-2.5-0.7-5-1-7.5c-14.4-0.6-38.4-1.7-55.3-4.6c-0.3-0.1-0.6-0.1-0.8-0.2c1.8,40.6,8.2,89.8,8.6,132.2
	C778.1,539.2,776.2,539.4,774.9,541.4L774.9,541.4z"/>
<path class="st3" d="M811,327.7c0.1-9.7,0.2-17.4,0.2-27.4c0-5.7-1.5-14.4-12.9-14.9s-13.5,8.4-13.5,12.2c0,3.4-0.2,6.7-0.2,10.1
	c-0.1,3.5,0.2,7.3,1.4,10.9c3.3,0.9,6.5,1.6,9.5,1.7c0,1.5,0,3.6-0.1,5.4L811,327.7L811,327.7z"/>
<path class="st18" d="M811.4,315.4c-3.7,0.3-8.2,0.5-11.8,0c-0.7-0.1-1.5-0.2-2.2-0.6c-2-1.2-2.9-4-2.8-6.3c0-2.8,0-4.8,0.2-7.1
	c-0.7,0.6-0.9,1-2.6,1.4c0.4-1.9-1-5.8-2.3-5.8c-4.5,0-8.4-0.5-13.6-4.8c7-0.9,7.2-4.5,11.5-6.6c5.2-2.6,18.5-1,22.5,3.7
	C812.2,295.3,812,306.6,811.4,315.4L811.4,315.4z"/>
<path class="st17" d="M826.5,411.5c0.3,2.5,0.7,5,1,7.5c8.4-12.7,16.2-26.7,22.8-40.9c0.9-1.9,1.8-3.9,1.7-6.1
	c-0.1-1.7-0.7-3.2-1.4-4.7c-5.7-13.2-16.4-40-20.3-44.3c0.3,0.4,0.5,0.8,0.8,1.3c0,0,4.6,7.1,4.8,17.4
	C836.4,363.4,832.2,384.8,826.5,411.5L826.5,411.5z"/>
<path class="st19" d="M717.7,348.6c-3.5,0.4-8.6,6.6-8.7,10.8c-1.8,0.1-3.6-0.1-5.4-0.4c-2.4-0.4-4.8-1.2-6.3-3.1
	c-0.8-1.1-1.3-2.3-1.9-3.5c-0.6-1.2-1.4-2.4-2.6-3c-0.7-0.4-1.5-0.5-2.3-0.8c-0.6-0.2-1.2-0.5-1.7-0.9c-0.5-0.3-0.9-0.8-0.8-1.4
	c0.3-1,1.7-0.7,2.5-0.7c1.4,0,2.9-0.1,4.3-0.2c2.7-0.1,5.5-0.2,8.2-0.3c3-0.1,6-0.2,8.9,0.6C714,346.3,715.9,347.4,717.7,348.6z"/>
<path class="st20" d="M829.7,434.4c-14.4-0.6-42.4-1.6-59.3-4.4c-0.3-0.1-0.6-0.1-0.8-0.2c-3.8-0.7-4.8-1.4-4.5-6.3
	c0.7-11.6,4.8-44.6,5.1-55.5c-6.8,6.4-14.1,14.4-21.7,19.9c-2.5,1.8-5.6,3.7-8.6,2.9c-1.9-0.5-3.4-2-4.7-3.4c-6.7-7-13.5-14-20.2-21
	c-0.9-0.9-1.7-1.8-2.6-2.8l-0.3-0.3c-0.9-1-1.8-2.1-2.6-3.3c-0.1-0.1-0.2-0.3-0.3-0.4s-0.2-0.3-0.2-0.4c0.1-4.3,5.2-10.4,8.7-10.8
	c0.1,0.1,0.3,0.2,0.4,0.2c0.6,0.4,1.3,0.9,1.9,1.3c0.5,0.3,1,0.7,1.4,1c0.1,0.1,0.2,0.1,0.3,0.2l22.5,15.9
	c10.1-10.7,19.2-24.4,27.2-36.7c1.5-2.4,4.1-3.9,6.9-4.2c16.4-1.7,35.3-2.7,51.5-3.8c0.2,0.1,0.4,0.2,0.7,0.5
	c0.3,0.4,0.5,0.8,0.8,1.3c0,0,4.6,7.1,4.8,17.4C836.4,363.4,835.4,407.7,829.7,434.4L829.7,434.4z"/>
<path class="st3" d="M721.7,351.3c0,0-9.1,6.5-9.3,12.4l-0.3-0.3c-1.1-1.2-2.1-2.4-2.9-3.7c-0.1-0.1-0.2-0.3-0.2-0.4
	c0.1-4.3,5.2-10.4,8.7-10.8c0.1,0.1,0.3,0.2,0.4,0.2c1.1,0.7,2.2,1.5,3.3,2.3C721.5,351.2,721.6,351.3,721.7,351.3z"/>
<ellipse class="st21" cx="711.4" cy="359.4" rx="0.8" ry="1.2"/>
<path class="st20" d="M776.9,460.5c-0.6,0.9-1.5,1.3-2.6,1.5c-0.8-9.5-1.6-19-2.3-28.2l-0.3-3.6c-0.1-1.1-0.2-2.3-0.3-3.4l4.3,1.7
	c1,9.3,1.4,18.7,1.7,28.1C777.7,458,777.7,459.4,776.9,460.5L776.9,460.5z"/>
<path class="st22" d="M781.4,380.6c-0.3,8.9-0.7,18.1-1.2,27.6c-0.4,7.5-0.8,15.1-1.3,23c-2.5-0.3-4.9-0.6-7.1-1
	c-0.5-0.1-1-0.2-1.4-0.2c-0.3-0.1-0.6-0.1-0.8-0.2c-3.8-0.7-4.8-1.4-4.5-6.3c0.7-11.6,4.7-44.2,5.1-55.3c2.7-0.1,5.6,0.1,7.7,1.8
	C780.9,372.4,781.5,376.8,781.4,380.6z"/>
<path class="st9" d="M140.6,369.3h14.6v14.6h-14.6V369.3z"/>
<path class="st6" d="M140.6,394.9h14.6v14.6h-14.6V394.9z"/>
<path class="st7" d="M249.5,369.7h14.6v14.6h-14.6V369.7z"/>
<path class="st23" d="M224.3,380.1h-57.8c-1.4,0-2.5-1.1-2.5-2.5v-2c0-1.4,1.1-2.5,2.5-2.5h57.8c1.4,0,2.5,1.1,2.5,2.5v2
	C226.8,379,225.7,380.1,224.3,380.1z M224.3,405.7h-57.8c-1.4,0-2.5-1.1-2.5-2.5v-2c0-1.4,1.1-2.5,2.5-2.5h57.8
	c1.4,0,2.5,1.1,2.5,2.5v2C226.8,404.6,225.7,405.7,224.3,405.7z M333.2,380.6h-57.8c-1.4,0-2.5-1.1-2.5-2.5v-2
	c0-1.4,1.1-2.5,2.5-2.5h57.8c1.4,0,2.5,1.1,2.5,2.5v2C335.7,379.4,334.6,380.6,333.2,380.6z"/>
<path class="st8" d="M249.5,395.9h14.6v14.6h-14.6V395.9z"/>
<path class="st23" d="M333.2,406.7h-57.8c-1.4,0-2.5-1.1-2.5-2.5v-2c0-1.4,1.1-2.5,2.5-2.5h57.8c1.4,0,2.5,1.1,2.5,2.5v2
	C335.7,405.6,334.6,406.7,333.2,406.7z"/>
<path class="st24" d="M489.4,191.9h-70.7c-1.4,0-2.5-1.1-2.5-2.5V186c0-1.4,1.1-2.5,2.5-2.5h70.7c1.4,0,2.5,1.1,2.5,2.5v3.4
	C491.9,190.8,490.8,191.9,489.4,191.9L489.4,191.9z M473.4,335.8h-54.8c-1.4,0-2.5-1.1-2.5-2.5v-3.4c0-1.4,1.1-2.5,2.5-2.5h54.8
	c1.4,0,2.5,1.1,2.5,2.5v3.4C476,334.6,474.8,335.8,473.4,335.8z"/>
<text transform="matrix(1 0 0 1 78.8 29.7)" class="st3 st25 st26">Análisis</text>
<text transform="matrix(1 0 0 1 78.8 126.4)" class="st5 st27 st28">Reembolso de gastos</text>
<text transform="matrix(1 0 0 1 78.8002 100.4001)" class="st11 st25 st29">Franco Morales</text>
<text transform="matrix(1 0 0 1 541.3 104.9)" class="st5 st27 st30">14 de abril - 21 de abril</text>
</svg>
