<?xml version="1.0" encoding="utf-8"?>
<!-- Generator: Adobe Illustrator 22.0.0, SVG Export Plug-In . SVG Version: 6.00 Build 0)  -->
<svg version="1.1" id="Layer_1" xmlns="http://www.w3.org/2000/svg" xmlns:xlink="http://www.w3.org/1999/xlink" x="0px" y="0px"
	 viewBox="0 0 950 550" style="enable-background:new 0 0 950 550;" xml:space="preserve">
<style type="text/css">
	.st0{opacity:0.1;fill:url(#SVGID_1_);enable-background:new    ;}
	.st1{fill:#FFD8CC;}
	.st2{fill:#FFFFFF;}
	.st3{fill:#505069;}
	.st4{fill:#F7F9FC;}
	.st5{fill:#EFF4FC;}
	.st6{fill:#D8E3F0;}
	.st7{fill:#FF615E;}
	.st8{fill:#E6EEF7;}
	.st9{fill:#B6E3C4;}
	.st10{fill:#5BA5F7;}
	.st11{fill:#F0B7B7;}
	.st12{fill:#A1CAF7;}
	.st13{fill:#FFEEED;}
	.st14{fill:#DEE8F2;}
	.st15{fill:#9696B3;}
	.st16{fill:#535E75;}
	.st17{fill:#B2BECF;}
	.st18{fill:#7A859C;}
	.st19{fill:#A6A6DB;}
	.st20{fill:#3A5C74;}
	.st21{fill:#467699;}
	.st22{fill:#444A7A;}
	.st23{fill:#EBF0FF;}
	.st24{fill:#787DA5;}
	.st25{fill:#BABFE5;}
	.st26{fill:#9EA2CE;}
	.st27{fill:#86E3A3;}
	.st28{fill:#6BB2FF;}
	.st29{opacity:0.1;fill:url(#SVGID_2_);enable-background:new    ;}
	.st30{fill:#FF8C8A;}
	.st31{font-family:'SourceHanSansCN-Medium-GBpc-EUC-H';}
	.st32{font-size:18px;}
	.st33{font-size:16px;}
	.st34{font-size:27px;}
	.st35{font-family:'SourceHanSansCN-Regular-GBpc-EUC-H';}
	.st36{font-size:12px;}
	.st37{font-size:14px;}
	.st38{font-size:13px;}
	.st39{fill:#3798E3;}
</style>
<linearGradient id="SVGID_1_" gradientUnits="userSpaceOnUse" x1="99.3912" y1="-156.6323" x2="951.9042" y2="258.5877" gradientTransform="matrix(1 0 0 1 0 288)">
	<stop  offset="0" style="stop-color:#363DBA"/>
	<stop  offset="1" style="stop-color:#363DBA;stop-opacity:0.2"/>
</linearGradient>
<path class="st0" d="M16.3,18.1h702.4c9,0,16.3,7.2,16.3,16.3v458.8c0,9-7.2,16.3-16.3,16.3l-693.6-0.4C11.2,509.1,0,497.9,0,484
	V34.3C0,25.3,7.3,18.1,16.3,18.1z"/>
<path class="st1" d="M949.8,423.2c-0.1-11.2-0.2-125.3-0.8-141.5c-0.3-9.1-1.8-18.7-8-25.4c-7.6-8.3-20-9.7-31.3-10.3
	c-33.9-2-153.4-2.6-187.4-1.2c-3.4,0.1-15.1-1.3-23.9,11.3c-8.7,12.5-9.9,30.2-10,45.4c-0.2,51.1-0.5,28-0.7,79.1
	c-12.3,1.9-23.7,6.1-29.3,15.6c-3.7,6.2-4.2,13.4-4.4,20.4c-0.6,26.9-0.6,60.9-0.6,84.6c0,12.4,6.3,22.6,21.4,22.6
	c49.7,0,46.2,0.1,71.4-0.1c-0.1,0-0.2,0.1-0.2,0.1s112.4-0.6,118-0.5c21.6,0.5,48.9,0.5,67.9,0.5c10,0,18.1-5.1,18.1-17.2
	C949.9,454.8,950,475.1,949.8,423.2L949.8,423.2z"/>
<path class="st2" d="M27.6,0h678.6c11,0,20,9,20,20v461.2c0,11-9,20-20,20H27.6c-11,0-20-9-20-20V20C7.6,9,16.6,0,27.6,0z"/>
<path class="st3" d="M152,501.2H27.6c-11,0-20-9-20-20V44.3H152V501.2L152,501.2z"/>
<path class="st4" d="M152,0h144.4v501.2H152V0z"/>
<path class="st5" d="M726.2,44.3H7.6V20c0-11,9-20,20-20h678.6c11,0,20,9,20,20L726.2,44.3L726.2,44.3z"/>
<path class="st6" d="M152,44.3h144.4v39.9H152V44.3z"/>
<path class="st7" d="M7.6,179.9H152v44.3H7.6V179.9z"/>
<path class="st8" d="M260.6,108h-94c-1.4,0-2.5-1.1-2.5-2.5v-4.6c0-1.4,1.1-2.5,2.5-2.5h94c1.4,0,2.5,1.1,2.5,2.5v4.6
	C263.2,106.8,262,108,260.6,108z"/>
<path class="st9" d="M277.3,108h-0.1c-2.6,0-4.8-2.1-4.8-4.8v-0.1c0-2.6,2.1-4.8,4.8-4.8h0.1c2.6,0,4.8,2.1,4.8,4.8v0.1
	C282.1,105.8,279.9,108,277.3,108z"/>
<path class="st10" d="M277.3,71.3h-0.1c-2.6,0-4.8-2.1-4.8-4.8v-0.1c0-2.6,2.1-4.8,4.8-4.8h0.1c2.6,0,4.8,2.1,4.8,4.8v0.1
	C282.1,69.2,279.9,71.3,277.3,71.3z"/>
<path class="st11" d="M277.3,153.1h-0.1c-2.6,0-4.8-2.1-4.8-4.8v-0.1c0-2.6,2.1-4.8,4.8-4.8h0.1c2.6,0,4.8,2.1,4.8,4.8v0.1
	C282.1,151,279.9,153.1,277.3,153.1z"/>
<path class="st12" d="M277.3,198.2h-0.1c-2.6,0-4.8-2.1-4.8-4.8v-0.1c0-2.6,2.1-4.8,4.8-4.8h0.1c2.6,0,4.8,2.1,4.8,4.8v0.1
	C282.1,196.1,279.9,198.2,277.3,198.2z"/>
<path class="st9" d="M277.3,243.3h-0.1c-2.6,0-4.8-2.1-4.8-4.8v-0.1c0-2.6,2.1-4.8,4.8-4.8h0.1c2.6,0,4.8,2.1,4.8,4.8v0.1
	C282.1,241.2,279.9,243.3,277.3,243.3z M277.3,288.5h-0.1c-2.6,0-4.8-2.1-4.8-4.8v-0.1c0-2.6,2.1-4.8,4.8-4.8h0.1
	c2.6,0,4.8,2.1,4.8,4.8v0.1C282.1,286.3,279.9,288.5,277.3,288.5z"/>
<path class="st2" d="M281.6,31.4h-104c-5,0-9.1-4.1-9.1-9.1V22c0-5,4.1-9.1,9.1-9.1h104c5,0,9.1,4.1,9.1,9.1v0.2
	C290.8,27.3,286.7,31.4,281.6,31.4z"/>
<path class="st13" d="M501.7,478.8H393c-2,0-3.6-1.6-3.6-3.6v-34c0-2,1.6-3.6,3.6-3.6h108.7c2,0,3.6,1.6,3.6,3.6v34
	C505.3,477.2,503.7,478.8,501.7,478.8z"/>
<path class="st14" d="M117.3,31.4H47.2c-5,0-9.1-4.1-9.1-9.1V22c0-5,4.1-9.1,9.1-9.1h70.1c5,0,9.1,4.1,9.1,9.1v0.2
	C126.4,27.3,122.4,31.4,117.3,31.4z"/>
<path class="st15" d="M111.8,71.3h-79c-1.4,0-2.5-1.1-2.5-2.5v-4.6c0-1.4,1.1-2.5,2.5-2.5h79c1.4,0,2.5,1.1,2.5,2.5v4.6
	C114.4,70.2,113.2,71.3,111.8,71.3z M91.6,116.5H32.8c-1.4,0-2.5-1.1-2.5-2.5v-4.6c0-1.4,1.1-2.5,2.5-2.5h58.8
	c1.4,0,2.5,1.1,2.5,2.5v4.6C94.2,115.3,93,116.5,91.6,116.5z M103.1,161.6H32.8c-1.4,0-2.5-1.1-2.5-2.5v-4.6c0-1.4,1.1-2.5,2.5-2.5
	h70.3c1.4,0,2.5,1.1,2.5,2.5v4.6C105.6,160.4,104.5,161.6,103.1,161.6z M91.6,251.8H32.8c-1.4,0-2.5-1.1-2.5-2.5v-4.6
	c0-1.4,1.1-2.5,2.5-2.5h58.8c1.4,0,2.5,1.1,2.5,2.5v4.6C94.2,250.7,93,251.8,91.6,251.8z"/>
<path class="st8" d="M260.6,153.1h-94c-1.4,0-2.5-1.1-2.5-2.5V146c0-1.4,1.1-2.5,2.5-2.5h94c1.4,0,2.5,1.1,2.5,2.5v4.6
	C263.2,152,262,153.1,260.6,153.1z M260.6,198.2h-94c-1.4,0-2.5-1.1-2.5-2.5v-4.6c0-1.4,1.1-2.5,2.5-2.5h94c1.4,0,2.5,1.1,2.5,2.5
	v4.6C263.2,197.1,262,198.2,260.6,198.2z M260.6,243.3h-94c-1.4,0-2.5-1.1-2.5-2.5v-4.6c0-1.4,1.1-2.5,2.5-2.5h94
	c1.4,0,2.5,1.1,2.5,2.5v4.6C263.2,242.2,262,243.3,260.6,243.3z M260.6,288.5h-94c-1.4,0-2.5-1.1-2.5-2.5v-4.6
	c0-1.4,1.1-2.5,2.5-2.5h94c1.4,0,2.5,1.1,2.5,2.5v4.6C263.2,287.3,262,288.5,260.6,288.5z"/>
<path class="st6" d="M699.6,242.6H325.2v-23.8c0-5.5,4.5-10,10-10h354.3c5.5,0,10,4.5,10,10L699.6,242.6z"/>
<path class="st4" d="M689.6,354.1H335.2c-5.5,0-10-4.5-10-10v-45.8h374.3v45.8C699.6,349.6,695.1,354.1,689.6,354.1z"/>
<path class="st4" d="M325.2,242.6h374.3v55.8H325.2V242.6L325.2,242.6z"/>
<path class="st2" d="M527.7,230.6h-94c-1.4,0-2.5-1.1-2.5-2.5v-4.6c0-1.4,1.1-2.5,2.5-2.5h94c1.4,0,2.5,1.1,2.5,2.5v4.6
	C530.2,229.4,529.1,230.6,527.7,230.6z M658.5,230.6H595c-1.4,0-2.5-1.1-2.5-2.5v-4.6c0-1.4,1.1-2.5,2.5-2.5h63.5
	c1.4,0,2.5,1.1,2.5,2.5v4.6C661.1,229.4,659.9,230.6,658.5,230.6z"/>
<path class="st16" d="M593.4,331.9v-1.1c3.9-3.1,6-4.9,6-6.7c0-1.4-1.1-2-2.3-2c-1.3,0-2.3,0.6-2.9,1.4l-0.8-0.9
	c0.8-1.1,2.2-1.7,3.8-1.7c1.8,0,3.6,1,3.6,3.2s-2.2,4.2-5.2,6.6h5.3v1.2H593.4L593.4,331.9z M602.8,326.5c0-2.6,1.2-5.6,4.1-5.6
	c2.9,0,4.1,2.9,4.1,5.6c0,2.6-1.2,5.6-4.1,5.6S602.8,329.2,602.8,326.5z M609.7,326.5c0-2.2-0.7-4.4-2.8-4.4s-2.8,2.2-2.8,4.4
	s0.7,4.4,2.8,4.4S609.7,328.7,609.7,326.5z M612.8,326.5c0-2.6,1.2-5.6,4.1-5.6c2.9,0,4.1,2.9,4.1,5.6c0,2.6-1.2,5.6-4.1,5.6
	C613.9,332.1,612.8,329.2,612.8,326.5z M619.6,326.5c0-2.2-0.7-4.4-2.8-4.4s-2.8,2.2-2.8,4.4s0.7,4.4,2.8,4.4
	S619.6,328.7,619.6,326.5z M622.3,331.2c0-0.5,0.4-0.9,0.9-0.9s0.9,0.4,0.9,0.9s-0.4,0.9-0.9,0.9S622.3,331.7,622.3,331.2z
	 M625.4,326.5c0-2.6,1.2-5.6,4.1-5.6c2.9,0,4.1,2.9,4.1,5.6c0,2.6-1.2,5.6-4.1,5.6C626.5,332.1,625.4,329.2,625.4,326.5z
	 M632.3,326.5c0-2.2-0.7-4.4-2.8-4.4s-2.8,2.2-2.8,4.4s0.7,4.4,2.8,4.4S632.3,328.7,632.3,326.5z M635.3,326.5
	c0-2.6,1.2-5.6,4.1-5.6c2.9,0,4.1,2.9,4.1,5.6c0,2.6-1.2,5.6-4.1,5.6S635.3,329.2,635.3,326.5z M642.2,326.5c0-2.2-0.7-4.4-2.8-4.4
	s-2.8,2.2-2.8,4.4s0.7,4.4,2.8,4.4S642.2,328.7,642.2,326.5z M595.4,273.9v-9l-1.7,1.8l-0.8-0.8l2.7-2.8h1.2v10.8H595.4z
	 M598.8,268.5c0-2.6,1.2-5.6,4.1-5.6c2.9,0,4.1,2.9,4.1,5.6c0,2.6-1.2,5.6-4.1,5.6C600,274,598.8,271.1,598.8,268.5z M605.7,268.5
	c0-2.2-0.7-4.4-2.8-4.4s-2.8,2.2-2.8,4.4s0.7,4.4,2.8,4.4C605,272.8,605.7,270.6,605.7,268.5z M608.7,268.5c0-2.6,1.2-5.6,4.1-5.6
	c2.9,0,4.1,2.9,4.1,5.6c0,2.6-1.2,5.6-4.1,5.6C609.9,274,608.7,271.1,608.7,268.5z M615.6,268.5c0-2.2-0.7-4.4-2.8-4.4
	s-2.8,2.2-2.8,4.4s0.7,4.4,2.8,4.4C614.9,272.8,615.6,270.6,615.6,268.5z M618.3,273.1c0-0.5,0.4-0.9,0.9-0.9s0.9,0.4,0.9,0.9
	s-0.4,0.9-0.9,0.9S618.3,273.6,618.3,273.1z M621.3,268.5c0-2.6,1.2-5.6,4.1-5.6c2.9,0,4.1,2.9,4.1,5.6c0,2.6-1.2,5.6-4.1,5.6
	C622.5,274,621.3,271.1,621.3,268.5z M628.2,268.5c0-2.2-0.7-4.4-2.8-4.4s-2.8,2.2-2.8,4.4s0.7,4.4,2.8,4.4S628.2,270.6,628.2,268.5
	z M631.3,268.5c0-2.6,1.2-5.6,4.1-5.6c2.9,0,4.1,2.9,4.1,5.6c0,2.6-1.2,5.6-4.1,5.6C632.4,274,631.3,271.1,631.3,268.5z
	 M638.1,268.5c0-2.2-0.7-4.4-2.8-4.4s-2.8,2.2-2.8,4.4s0.7,4.4,2.8,4.4S638.1,270.6,638.1,268.5z"/>
<path class="st16" d="M593,383.4l0.8-0.8c0.6,0.8,1.7,1.4,3,1.4c1.6,0,2.5-0.8,2.5-2c0-1.3-1.1-1.9-2.7-1.9h-1.1v-1.2h1.1
	c1.4,0,2.5-0.5,2.5-1.8c0-1.2-1.1-1.8-2.4-1.8c-1.2,0-2.1,0.5-2.9,1.3l-0.7-0.8c0.8-0.9,2-1.7,3.7-1.7c2.1,0,3.7,1.1,3.7,2.9
	c0,1.6-1.3,2.3-2.3,2.5c1,0.1,2.5,0.9,2.5,2.7c0,1.8-1.4,3.1-3.8,3.1C595,385.2,593.6,384.3,593,383.4L593,383.4z M602.3,379.6
	c0-2.6,1.2-5.6,4.1-5.6c2.9,0,4.1,2.9,4.1,5.6c0,2.6-1.2,5.6-4.1,5.6S602.3,382.2,602.3,379.6z M609.2,379.6c0-2.2-0.7-4.4-2.8-4.4
	s-2.8,2.2-2.8,4.4s0.7,4.4,2.8,4.4S609.2,381.7,609.2,379.6z M612.2,379.6c0-2.6,1.2-5.6,4.1-5.6c2.9,0,4.1,2.9,4.1,5.6
	c0,2.6-1.2,5.6-4.1,5.6S612.2,382.2,612.2,379.6z M619.1,379.6c0-2.2-0.7-4.4-2.8-4.4s-2.8,2.2-2.8,4.4s0.7,4.4,2.8,4.4
	S619.1,381.7,619.1,379.6z M621.8,384.2c0-0.5,0.4-0.9,0.9-0.9s0.9,0.4,0.9,0.9s-0.4,0.9-0.9,0.9S621.8,384.7,621.8,384.2z
	 M624.9,379.6c0-2.6,1.2-5.6,4.1-5.6c2.9,0,4.1,2.9,4.1,5.6c0,2.6-1.2,5.6-4.1,5.6C626,385.2,624.9,382.2,624.9,379.6z M631.8,379.6
	c0-2.2-0.7-4.4-2.8-4.4s-2.8,2.2-2.8,4.4s0.7,4.4,2.8,4.4S631.8,381.7,631.8,379.6z M634.8,379.6c0-2.6,1.2-5.6,4.1-5.6
	c2.9,0,4.1,2.9,4.1,5.6c0,2.6-1.2,5.6-4.1,5.6S634.8,382.2,634.8,379.6z M641.7,379.6c0-2.2-0.7-4.4-2.8-4.4s-2.8,2.2-2.8,4.4
	s0.7,4.4,2.8,4.4S641.7,381.7,641.7,379.6z M592.9,414.3l1-1.2c0.7,0.8,1.8,1.3,3,1.3c1.4,0,2.3-0.6,2.3-1.7s-0.9-1.5-2.4-1.5h-1.2
	v-1.7h1.2c1.3,0,2.2-0.4,2.2-1.4s-1-1.5-2.2-1.5c-1.1,0-2,0.4-2.8,1.2l-1-1.2c0.8-1,2.1-1.7,3.9-1.7c2.3,0,3.9,1.1,3.9,2.9
	c0,1.4-1.2,2.3-2.3,2.5c1.1,0.1,2.5,1,2.5,2.6c0,1.8-1.6,3.1-4.1,3.1C595,416,593.6,415.3,592.9,414.3L592.9,414.3z M602.5,410.5
	c0-2.7,1.3-5.6,4.3-5.6s4.3,2.8,4.3,5.6c0,2.7-1.3,5.6-4.3,5.6C603.8,416,602.5,413.2,602.5,410.5z M609.2,410.5
	c0-2.1-0.6-3.9-2.4-3.9c-1.8,0-2.4,1.8-2.4,3.9s0.6,3.9,2.4,3.9C608.5,414.4,609.2,412.5,609.2,410.5z M612.4,410.5
	c0-2.7,1.3-5.6,4.3-5.6s4.3,2.8,4.3,5.6c0,2.7-1.3,5.6-4.3,5.6S612.4,413.2,612.4,410.5z M619.1,410.5c0-2.1-0.6-3.9-2.4-3.9
	c-1.8,0-2.4,1.8-2.4,3.9s0.6,3.9,2.4,3.9S619.1,412.5,619.1,410.5z M622.2,414.9c0-0.6,0.5-1.1,1.1-1.1s1.1,0.5,1.1,1.1
	s-0.5,1.1-1.1,1.1S622.2,415.5,622.2,414.9z M625.6,410.5c0-2.7,1.3-5.6,4.3-5.6s4.3,2.8,4.3,5.6c0,2.7-1.3,5.6-4.3,5.6
	C626.9,416,625.6,413.2,625.6,410.5z M632.3,410.5c0-2.1-0.6-3.9-2.4-3.9c-1.8,0-2.4,1.8-2.4,3.9s0.6,3.9,2.4,3.9
	C631.6,414.4,632.3,412.5,632.3,410.5z M635.5,410.5c0-2.7,1.3-5.6,4.3-5.6s4.3,2.8,4.3,5.6c0,2.7-1.3,5.6-4.3,5.6
	S635.5,413.2,635.5,410.5z M642.2,410.5c0-2.1-0.6-3.9-2.4-3.9s-2.4,1.8-2.4,3.9s0.6,3.9,2.4,3.9S642.2,412.5,642.2,410.5z"/>
<path class="st17" d="M450.4,325.2c0-0.4-0.2-0.8-0.5-1.1c-0.3-0.3-0.7-0.5-1.1-0.5l-0.6-4.8c-0.1-1.2-1.1-2.1-2.3-2.1h-7.7
	c-1.2,0-2.1,0.9-2.3,2.1l-0.6,4.8c-0.9,0-1.6,0.7-1.6,1.6v4.9h1.5v1.3c0,0.5,0.4,0.9,0.9,0.9s0.9-0.4,0.9-0.9V330h10.3v1.3
	c0,0.5,0.4,0.9,0.9,0.9s0.9-0.4,0.9-0.9V330h1.5v-4.8H450.4L450.4,325.2z M437,319.2c0.1-0.7,0.7-1.3,1.5-1.3h7.1
	c0.8,0,1.4,0.5,1.5,1.3l0.6,4.1h-11.2L437,319.2z M436,327c-0.5,0-0.9-0.4-0.9-0.9s0.4-0.9,0.9-0.9s0.9,0.4,0.9,0.9
	C437,326.6,436.5,327,436,327z M448.1,327c-0.5,0-0.9-0.4-0.9-0.9s0.4-0.9,0.9-0.9s0.9,0.4,0.9,0.9S448.6,327,448.1,327z M451,277.2
	c-2.1,0.9-4.3,1.1-6.8,0.5c-0.1,0-0.3-0.1-0.4-0.1c-3.8-1-6.7-3.7-7.9-7.2c-0.8-2.1-1-4.4-0.5-6.7c0.1-0.3,0.1-0.6,0.2-0.9l2.2,0.7
	l2.5,0.8c-0.1,0.2-0.1,0.4-0.1,0.5c-0.3,1.3-0.2,2.7,0.3,3.9l-2.2,1.3c0.9,2.4,3.6,4.7,5.8,5.2l1.1-2.4c0.1,0,0.2,0,0.3,0.1
	c1.4,0.3,2.6,0.2,3.8-0.3l1,2.4L451,277.2z"/>
<path class="st16" d="M560.4,118.6l1.5-1.9c0.9,1,2.4,1.5,3.7,1.5c1.6,0,2.6-0.7,2.6-1.7c0-1.1-0.8-1.6-2.7-1.6h-1.7v-2.6h1.7
	c1.5,0,2.5-0.4,2.5-1.4c0-1.1-1.1-1.6-2.5-1.6c-1.3,0-2.5,0.5-3.4,1.4l-1.4-1.8c1.1-1.2,2.8-2.1,5.2-2.1c3.2,0,5.1,1.4,5.1,3.7
	c0,1.7-1.5,2.8-3,3.1c1.4,0.1,3.2,1.2,3.2,3.2c0,2.3-2.1,4-5.3,4C563.2,120.8,561.4,119.8,560.4,118.6L560.4,118.6z M572.6,113.8
	c0-3.5,1.7-7,5.6-7c3.8,0,5.6,3.5,5.6,7s-1.7,7-5.6,7S572.6,117.3,572.6,113.8z M580.8,113.8c0-2.5-0.7-4.4-2.7-4.4
	c-1.9,0-2.7,1.9-2.7,4.4s0.7,4.4,2.7,4.4S580.8,116.3,580.8,113.8z M585.1,113.8c0-3.5,1.7-7,5.6-7c3.8,0,5.6,3.5,5.6,7
	s-1.7,7-5.6,7S585.1,117.3,585.1,113.8z M593.4,113.8c0-2.5-0.7-4.4-2.7-4.4c-1.9,0-2.7,1.9-2.7,4.4s0.7,4.4,2.7,4.4
	C592.6,118.2,593.4,116.3,593.4,113.8z M597.5,119.1c0-0.9,0.7-1.6,1.6-1.6c0.9,0,1.6,0.7,1.6,1.6s-0.7,1.6-1.6,1.6
	C598.3,120.7,597.5,120,597.5,119.1z M602,113.8c0-3.5,1.7-7,5.6-7c3.8,0,5.6,3.5,5.6,7s-1.7,7-5.6,7S602,117.3,602,113.8z
	 M610.2,113.8c0-2.5-0.7-4.4-2.7-4.4c-1.9,0-2.7,1.9-2.7,4.4s0.7,4.4,2.7,4.4S610.2,116.3,610.2,113.8z M614.5,113.8
	c0-3.5,1.7-7,5.6-7c3.8,0,5.6,3.5,5.6,7s-1.7,7-5.6,7C616.3,120.8,614.5,117.3,614.5,113.8z M622.8,113.8c0-2.5-0.7-4.4-2.7-4.4
	c-1.9,0-2.7,1.9-2.7,4.4s0.7,4.4,2.7,4.4S622.8,116.3,622.8,113.8z"/>
<ellipse class="st18" cx="331" cy="128.3" rx="0.5" ry="0.5"/>
<ellipse class="st18" cx="336.1" cy="128.4" rx="0.5" ry="0.5"/>
<ellipse class="st18" cx="333.6" cy="128.4" rx="0.5" ry="0.5"/>
<path class="st18" d="M337.5,122h-1.1v-0.5h-0.7v0.5h-4.5v-0.5h-0.7v0.5h-1.1c-0.9,0-1.6,0.7-1.6,1.6v7.1c0,0.9,0.7,1.6,1.6,1.6h8
	c0.9,0,1.6-0.7,1.6-1.6v-7.1C339.1,122.7,338.4,122,337.5,122L337.5,122z M329.5,122.7h1.1v1.1h0.7v-1.1h4.5v1.1h0.7v-1.1h1.1
	c0.5,0,0.9,0.4,0.9,0.9v1.2h-9.8v-1.2C328.6,123.1,329,122.7,329.5,122.7L329.5,122.7z M337.5,131.5h-8c-0.5,0-0.9-0.4-0.9-0.9v-5.2
	h9.8v5.2C338.4,131.1,338,131.5,337.5,131.5z M328.6,110.7h-0.7v-0.8c0-2,1.6-3.7,3.7-3.7h3.8c1,0,1.9,0.4,2.6,1.1s1.1,1.6,1.1,2.6
	v0.8h-0.7v-0.8c0-0.8-0.3-1.6-0.9-2.1c-0.6-0.6-1.3-0.9-2.1-0.9h-3.8c-1.6,0-3,1.4-3,3V110.7z M333.5,104.9c-1.4,0-2.6-1.2-2.6-2.6
	s1.2-2.6,2.6-2.6s2.6,1.2,2.6,2.6S334.9,104.9,333.5,104.9z M333.5,100.4c-1,0-1.9,0.8-1.9,1.9s0.8,1.9,1.9,1.9c1,0,1.9-0.8,1.9-1.9
	S334.6,100.4,333.5,100.4z"/>
<path class="st6" d="M536.5,56.7h1v66.9h-1V56.7z"/>
<path class="st2" d="M380.7,230.6h-34.5c-1.4,0-2.5-1.1-2.5-2.5v-4.6c0-1.4,1.1-2.5,2.5-2.5h34.5c1.4,0,2.5,1.1,2.5,2.5v4.6
	C383.3,229.4,382.1,230.6,380.7,230.6z"/>
<path class="st19" d="M401.6,171.9h-4v-1h4V171.9z M395.5,171.9h-4v-1h4V171.9z M389.4,171.9h-4v-1h4V171.9z M383.4,171.9h-4v-1h4
	V171.9z M377.3,171.9h-4v-1h4V171.9z M371.2,171.9h-1.5v-1h1.5V171.9z"/>
<path class="st1" d="M517,171.5c0,1.6-0.2,3.2-0.6,4.7c-1.3,5.5-4.9,10.5-9.9,13.3c-8.4,4.9-19.5,3.2-26-4c-0.5-0.6-1-1.1-1.4-1.7
	c-9.9-13.6,0.2-33.2,16.9-33.2C507.7,150.6,517,159.9,517,171.5z"/>
<path class="st20" d="M516.5,176.2c-1.5,5.9-5.3,11-10.7,13.8c-7.8,4.1-17.4,2.7-23.5-2.8c-2-1.8-3.5-3.4-4.9-6.3
	c1.6-2.2,5-5.3,7.2-5.9c1.8-0.5,8.2-1.8,10.8-1.9C508.7,172.6,509.9,172.8,516.5,176.2L516.5,176.2z"/>
<path class="st2" d="M495.9,170.3v3.2c0.1,0.8,0.6,1.3,1.2,1.7s1.5,0.4,2.3,0.4c1.6,0,3.3-0.1,4.6-1.1c0.4-0.3,0.7-0.8,0.8-1.3
	c0-3.7,0.2-7.5,0.2-11.2l-9.2-0.4L495.9,170.3L495.9,170.3z"/>
<path class="st21" d="M497.9,176.3h2.2l-0.1,2.2l-2.4-0.1C497.4,178.5,497.6,176.3,497.9,176.3L497.9,176.3z M501.1,191.8
	c-1.6,0.4-3.2,0.6-4.9,0.6h-0.1l1.6-13.9h2.4L501.1,191.8L501.1,191.8z"/>
<path class="st2" d="M490.3,155.8c0.1,2.1,0.1,4.3,0.2,6.4c0.1,2,0.9,8.8,1.6,9.2c2.2,1.2,5.9,1,8,0.4c1.2-0.3,2.4-0.9,3.3-1.9
	c1.2-1.3,1.7-3.4,1.7-4.4c0-3.1,0-6.6-0.2-11.5L490.3,155.8z"/>
<path class="st22" d="M505.1,154.4c-0.1-2.5-0.4-3.4-0.7-3.7c-0.4-0.5-3.1-1.4-5-1.5s-4.5-0.1-6.7,0.6c-3.7,1-3.3,4.3-7.4,7.4
	c3.1,1.2,7.2,0.9,14-1.9c0,0,2,1.1,2,2.2c0,0,0.7-0.4,0.9-1.3c0,0,0.8,4.4,2.9,4.6L505.1,154.4L505.1,154.4z"/>
<path class="st2" d="M505,164.8c0.3,0.3,0.9,0.3,1.2,0s0.4-0.7,0.5-1.1c0.1-0.6,0.1-1.3,0-2c-0.1-0.4-0.2-0.9-0.6-1.2
	s-1-0.2-1.1,0.2V164.8z"/>
<path class="st23" d="M369.7,170.8c0,5.9-2.4,11.2-6.4,15c-3.8,3.6-8.9,5.9-14.5,5.9c-5.7,0-10.8-2.3-14.6-5.9
	c-3.9-3.8-6.3-9.1-6.3-14.9c0-11.5,9.4-20.9,20.9-20.9C360.3,149.9,369.7,159.2,369.7,170.8L369.7,170.8z"/>
<path class="st2" d="M357.3,170.7c0.2-0.5,0.9-0.6,1.3-0.3s0.6,0.8,0.7,1.3c0.1,0.7,0.1,1.5,0,2.3c-0.1,0.5-0.2,0.9-0.6,1.2
	c-0.3,0.3-0.9,0.4-1.3,0.1L357.3,170.7z"/>
<path class="st2" d="M357.2,163.7c-0.1,2,0.3,10.7,0.3,12.1c0,1.2-0.6,3.5-2,5.1c-1.2,1.3-2.9,1.7-3.9,1.9c-1.4,0.3-6.6,0-7.7-0.6
	c-1.5-0.8-2.4-2.2-2.9-3.8s-0.5-4.7-0.6-6.3c-0.1-2.5-0.2-4.9-0.2-7.4c0,0-1-5.5,7.9-5.6S357.2,163.7,357.2,163.7L357.2,163.7z"/>
<path class="st24" d="M340.1,164.8c4.1,0.4,9.7-0.9,13.8-1.1c0.2,0,0.5,0,0.7,0.1c0.3,0.2,0.4,0.6,0.5,0.9c0.1,1,0.1,2,0.4,3
	s1,2.6,1.9,2.9c0.1-3,0.5-6.6,1-9.6c0.2-1.1-0.7-3.1-2.2-3c0-1.9-2.6-2.8-5.5-2.8c-2.2,0-4.3,0.4-6.4,0.8c-2.1,0.4-4.4,0.6-6.4-0.1
	c-0.6,3.5,0.6,9,2.4,12.1L340.1,164.8L340.1,164.8z"/>
<path class="st2" d="M340.8,171.9c-0.1-0.6-0.3-0.9-0.8-1c-0.3-0.1-0.7,0-1.1,0.4c-0.6,0.6-0.6,1.9-0.2,2.7c0.5,1.2,1.8,2,2.3,1.6
	L340.8,171.9L340.8,171.9z"/>
<path class="st25" d="M363.3,185.8c-3.8,3.6-8.9,5.9-14.5,5.9c-5.7,0-10.8-2.3-14.6-5.9c1-0.5,2-0.8,2.9-1
	c3.1-0.7,11.7-0.7,14.4-0.7C355.5,184,359.7,184.3,363.3,185.8L363.3,185.8z"/>
<path class="st2" d="M344.9,181.6v3.4c0,0.9,0.7,1.7,1.5,2.1c0.8,0.4,1.7,0.5,2.6,0.5c1.9,0,3.9-0.2,5.3-1.3
	c0.5-0.4,0.9-0.8,1.1-1.4c-0.1-4.4,0.1-10-0.2-14.6l-10.4,1.3L344.9,181.6z"/>
<path class="st23" d="M443.4,170.8c0,3.7-1,7.2-2.7,10.3c-1,1.7-2.2,3.3-3.6,4.7c-3.8,3.7-8.9,5.9-14.6,5.9c-6,0-11.5-2.6-15.3-6.6
	c-3.5-3.7-5.6-8.7-5.6-14.2c0-11.5,9.4-20.9,20.9-20.9C434,149.9,443.4,159.2,443.4,170.8L443.4,170.8z"/>
<path class="st26" d="M437.1,185.7c-3.8,3.7-8.9,5.9-14.6,5.9c-6,0-11.5-2.6-15.3-6.6c1.2-0.8,2.4-1.2,3.6-1.5
	c2.8-0.6,10.7-0.6,13.1-0.6C428.4,182.9,433.2,183.4,437.1,185.7L437.1,185.7z"/>
<path class="st2" d="M417.6,175.2v7.7c0,0.8,0.6,1.5,1.3,1.9s1.6,0.4,2.4,0.4c1.7,0,3.5-0.1,4.8-1.2c0.4-0.3,0.8-0.7,1-1.2v-8.6
	L417.6,175.2L417.6,175.2z"/>
<path class="st2" d="M411.6,165.5c0.2,4.6,0.5,6.8-0.5,7.6c-1.2,1,0.6,5.3,3.2,8c5.3,1.1,12.9-4.1,12.9-5.1c0-3.2,0.5-8.2,0.5-12.7
	c0-3.1-2.2-6.8-9-6.8C415.4,156.5,411.4,159.8,411.6,165.5z"/>
<path class="st24" d="M440,182.1c-0.8,1.2-1.7,2.4-3,3.6l-4.1-1.7c-2.1,0.7-4.6,0.4-5.9-1.2v-8.6l-0.2-2.1c-0.6,2.9-1.1,2.5-2.3-0.4
	c-1-2.5-7.1-0.7-11.2-8.2c-0.2,0.7-1.6,1.7-1.9,2l0.1,2.9c-2.9-2.8-3.8-8.5-2.4-10.5c0.6-0.9,0.8-1,1.2-1.2c0.3-0.2,0.6-0.2,0.9-0.2
	c5.9-0.2,11.3-3.3,16.7-0.7c4,1.9,4.2,7.8,4.9,12.2c0.4,2.3,0.1,5.7,0.3,8.5c0.1,0,2.5-0.3,3,1.3c0.1,0.3,0.1,0.7,0.1,1
	c0,1.1-0.5,1.9-1.2,2.3C435.4,180.9,438.7,179.8,440,182.1L440,182.1z"/>
<path class="st2" d="M426.9,175.8c0.3,0.3,0.9,0.2,1.3,0s0.6-0.6,0.7-0.9c0.2-0.6,0.2-1.2,0.1-1.8c-0.1-0.4-0.2-0.8-0.6-1.1
	s-1.1-0.2-1.3,0.1L426.9,175.8z"/>
<path class="st27" d="M363.4,192.2h-0.1c-3.5,0-6.3-2.8-6.3-6.3v-0.1c0-3.5,2.8-6.3,6.3-6.3h0.1c3.5,0,6.3,2.8,6.3,6.3v0.1
	C369.7,189.3,366.9,192.2,363.4,192.2z M437.1,192.2H437c-3.5,0-6.3-2.8-6.3-6.3v-0.1c0-3.5,2.8-6.3,6.3-6.3h0.1
	c3.5,0,6.3,2.8,6.3,6.3v0.1C443.5,189.3,440.6,192.2,437.1,192.2z"/>
<path class="st28" d="M512.7,192.2c-3.6,0-6.4-2.8-6.4-6.3v-0.1c0-3.5,2.8-6.3,6.3-6.3h0.1c3.5,0,6.3,2.8,6.3,6.3v0.1
	C519,189.3,516.2,192.2,512.7,192.2z"/>
<path class="st2" d="M362.3,189.1l-3.3-3.3l0.7-0.7l2.6,2.5l4.9-4.8l0.7,0.7L362.3,189.1L362.3,189.1z M435.9,189.1l-3.3-3.3
	l0.8-0.7l2.5,2.5l4.9-4.8l0.7,0.7L435.9,189.1z M512.6,189.5v-1c0.3,0,0.6,0,0.8-0.1l0.3,1C513.4,189.4,513,189.5,512.6,189.5z
	 M511.4,189.3c-0.4-0.1-0.7-0.3-1-0.5l0.6-0.8c0.2,0.2,0.5,0.3,0.8,0.4L511.4,189.3L511.4,189.3z M514.8,188.7l-0.6-0.8l0.6-0.6
	l0.8,0.6C515.4,188.2,515.1,188.5,514.8,188.7z M509.6,187.9c-0.2-0.3-0.4-0.7-0.5-1l1-0.3c0.1,0.3,0.2,0.5,0.4,0.8L509.6,187.9z
	 M516.1,186.9l-1-0.3c0.1-0.3,0.1-0.5,0.1-0.8h1.1C516.3,186.1,516.2,186.5,516.1,186.9L516.1,186.9z M508.9,185.8
	c0-0.4,0.1-0.8,0.2-1.1l1,0.3c-0.1,0.3-0.1,0.5-0.1,0.8H508.9z M515.2,184.9c-0.1-0.3-0.2-0.5-0.4-0.7l0.8-0.6
	c0.2,0.3,0.4,0.7,0.5,1L515.2,184.9L515.2,184.9z M510.4,184.2l-0.8-0.6c0.2-0.3,0.5-0.6,0.8-0.8l0.6,0.8
	C510.7,183.7,510.5,183.9,510.4,184.2z M514.2,183.5c-0.2-0.2-0.5-0.3-0.8-0.4l0.3-1c0.4,0.1,0.7,0.3,1,0.5L514.2,183.5z
	 M511.7,183.2l-0.3-1c0.4-0.1,0.8-0.2,1.1-0.2v1C512.3,183,512,183.1,511.7,183.2z"/>
<path class="st19" d="M398.8,175.1l-0.7-0.7l2.8-3l-2.8-2.9l0.7-0.7l3.5,3.6L398.8,175.1L398.8,175.1z M475.3,171.9h-4v-1h4V171.9z
	 M469.2,171.9h-4v-1h4V171.9z M463.1,171.9h-4v-1h4V171.9z M457.1,171.9h-4v-1h4V171.9z M451,171.9h-4v-1h4V171.9z M444.9,171.9
	h-1.5v-1h1.5V171.9z"/>
<path class="st19" d="M472.5,175.1l-0.7-0.7l2.8-3l-2.8-2.9l0.7-0.7l3.5,3.6L472.5,175.1L472.5,175.1z"/>
<circle class="st14" cx="698.2" cy="22.2" r="5.4"/>
<circle class="st14" cx="677.2" cy="22.2" r="5.4"/>
<circle class="st14" cx="654.5" cy="22.2" r="5.4"/>
<path class="st1" d="M642.3,481h-122c-2,0-3.6-1.6-3.6-3.6v-34c0-2,1.6-3.6,3.6-3.6h122c2,0,3.6,1.6,3.6,3.6v34
	C645.9,479.4,644.3,481,642.3,481z"/>
<path class="st7" d="M642.3,478.8h-122c-2,0-3.6-1.6-3.6-3.6v-34c0-2,1.6-3.6,3.6-3.6h122c2,0,3.6,1.6,3.6,3.6v34
	C645.9,477.2,644.3,478.8,642.3,478.8z"/>
<linearGradient id="SVGID_2_" gradientUnits="userSpaceOnUse" x1="969.1732" y1="343.3568" x2="719.2122" y2="56.9429" gradientTransform="matrix(1 0 0 1 0 288)">
	<stop  offset="0" style="stop-color:#363DBA"/>
	<stop  offset="1" style="stop-color:#363DBA;stop-opacity:0.2"/>
</linearGradient>
<path class="st29" d="M698.9,326.4h203.4c9,0,16.3,7.2,16.3,16.3v191c0,9-7.2,16.3-16.3,16.3H698.9c-9,0-16.3-7.2-16.3-16.3V342.6
	C682.6,333.6,689.9,326.4,698.9,326.4z"/>
<path class="st2" d="M699.2,312.8h202.5c5.5,0,10,4.5,10,10v209.6c0,5.5-4.5,10-10,10H699.2c-5.5,0-10-4.5-10-10V322.8
	C689.2,317.3,693.7,312.8,699.2,312.8z"/>
<path class="st2" d="M911.7,384.6H688.9v-61.7c0-5.5,4.5-10,10-10h202.8c5.5,0,10,4.5,10,10V384.6z"/>
<path class="st7" d="M720.6,346.7c-5,0-9-4-9-9s4-9,9-9s9,4,9,9C729.6,342.6,725.6,346.7,720.6,346.7z M720.6,330.7
	c-3.8,0-7,3.1-7,7c0,3.8,3.1,7,7,7c3.8,0,7-3.1,7-7S724.5,330.7,720.6,330.7z"/>
<path class="st7" d="M719.6,332.7h2v5.8h-2V332.7z M719.6,339.9h2v2h-2V339.9z"/>
<circle class="st18" cx="717.3" cy="409.9" r="2.6"/>
<circle class="st8" cx="717.3" cy="455.5" r="2.6"/>
<circle class="st8" cx="717.3" cy="500.2" r="2.6"/>
<path class="st30" d="M875,413.8l1.3-1.6c0.9,1,2.3,1.6,3.7,1.6c1.8,0,2.8-0.8,2.8-2.1s-1.1-1.9-3-1.9h-1.6v-2.1h1.6
	c1.6,0,2.8-0.5,2.8-1.8s-1.2-1.9-2.7-1.9c-1.4,0-2.5,0.5-3.5,1.5l-1.2-1.5c1-1.2,2.7-2.1,4.9-2.1c2.9,0,4.9,1.4,4.9,3.6
	c0,1.8-1.5,2.9-2.9,3.1c1.3,0.1,3.1,1.2,3.1,3.3c0,2.3-2,3.9-5.1,3.9C877.7,416,876,415,875,413.8z"/>
<path class="st1" d="M875.6,463v-1.9c5.2-4,7.3-5.7,7.3-7.7c0-1.4-1.2-2.1-2.4-2.1c-1.6,0-2.8,0.6-3.6,1.6l-1.4-1.6
	c1.2-1.4,3.1-2.2,5-2.2c2.6,0,4.9,1.5,4.9,4.2c0,2.5-2.3,4.7-5.9,7.4h6v2.1h-9.9L875.6,463L875.6,463z M875.6,507.7v-1.9
	c5.2-4,7.3-5.7,7.3-7.7c0-1.4-1.2-2.1-2.4-2.1c-1.6,0-2.8,0.6-3.6,1.6l-1.4-1.6c1.2-1.4,3.1-2.2,5-2.2c2.6,0,4.9,1.5,4.9,4.2
	c0,2.5-2.3,4.7-5.9,7.4h6v2.1h-9.9L875.6,507.7L875.6,507.7z"/>
<path class="st8" d="M829.7,460.3h-94c-1.4,0-2.5-1.1-2.5-2.5v-4.6c0-1.4,1.1-2.5,2.5-2.5h94c1.4,0,2.5,1.1,2.5,2.5v4.6
	C832.3,459.2,831.1,460.3,829.7,460.3z M850.4,505H735.8c-1.4,0-2.5-1.1-2.5-2.5v-4.6c0-1.4,1.1-2.5,2.5-2.5h114.6
	c1.4,0,2.5,1.1,2.5,2.5v4.6C852.9,503.9,851.8,505,850.4,505L850.4,505z"/>
<text transform="matrix(1 0 0 1 51.65 209.8)" class="st2 st31 st32">Reporte</text>
<text transform="matrix(1 0 0 1 164.1001 71.5002)" class="st18 st31 st33">Visita a cliente</text>
<text transform="matrix(1 0 0 1 328.2 82.3002)" class="st16 st31 st34">Reporte de gastos</text>
<text transform="matrix(1 0 0 1 350.2998 110.0502)" class="st18 st35 st36">Franco Morales</text>
<text transform="matrix(1 0 0 1 351.2998 131.4999)" class="st18 st35 st36">13/abril - 21/abril</text>
<text transform="matrix(1 0 0 1 348.75 273.8999)" class="st18 st35 st37">13/abril</text>
<text transform="matrix(1 0 0 1 344.8 331.9)" class="st18 st35 st37">21/abril</text>
<text transform="matrix(1 0 0 1 518.2999 385.2996)" class="st18 st35 st37">Total</text>
<text transform="matrix(1 0 0 1 504.3001 415.8998)" class="st18 st35 st37">Reembolso</text>
<text transform="matrix(1 0 0 1 431.9 462.5754)" class="st7 st31 st33">Autorizar</text>
<text transform="matrix(1 0 0 1 734.3 343.6754)" class="st7 st31 st33">Infringe política de gastos</text>
<text transform="matrix(1 0 0 1 735.0002 413.3997)" class="st18 st31 st38">Gastos duplicados</text>
<text transform="matrix(1 0 0 1 563.4 462.8254)" class="st2 st31 st33">Rechazar</text>
<text transform="matrix(1 0 0 1 460.0003 330.9004)" class="st39 st35 st37">Combustible</text>
<text transform="matrix(1 0 0 1 459.9998 274.2)" class="st39 st35 st37">Teléfono</text>
<text transform="matrix(1 0 0 1 560.1 67.4999)" class="st18 st35 st36">Por Reembolsar</text>
</svg>
