<svg id="Layer_1" xmlns="http://www.w3.org/2000/svg" viewBox="0 0 950 550"><style>.st1{fill:#fff}.st3{fill:#f2b996}.st4{fill:#e0a59d}.st6{fill:#4078c5}.st11{fill:#b6bbd9}.st12{fill:#535e75}</style><path d="M235.5 88.8c-21.6 5.5-42.7 14.5-50.7 29.5-5 9.5-5.6 20.6-6.1 31.3-3 68.6-4.8 137.3-5.4 206-.5 57.9-7 118-2.3 175.6.3 4 .7 8.1 2.9 11.5 4.4 6.8 13.9 7.3 21.9 7.3 196.4 0 291.3-.1 492.8-.1 6 0 13.7-4.9 17.6-9.5 5.4-6.5 5.6-12.6 5.9-19 .4-10.9.2-37.5.2-47.9 0-18.5 2.3-25.2-13.5-34.8-9.8-6-30.3-5.3-41.8-5.3H481c-19.4 0-40.4-11.6-40.6-20.5-.5-28.3-.9-278.3-1.4-306.6-.1-3.3.7-8-1.7-13.1-5.9-12.4-25-14.3-34.5-14.3-41 0-84.2-2.5-124.8 2.4-11.4 1.4-27.1 3.6-42.5 7.5z" fill="#ffd8cc"/><path class="st1" d="M292.8 99.8v246.6h6.8v-.3c0-4.4 3.4-8 7.7-8 4.3 0 7.7 3.6 7.7 8v.3h7.8v-.3c0-4.4 3.4-8 7.7-8 4.3 0 7.7 3.6 7.7 8v.3h7.8v-.3c0-4.4 3.4-8 7.7-8 4.3 0 7.7 3.6 7.7 8v.3h7.8v-.3c0-4.4 3.4-8 7.7-8 4.3 0 7.7 3.6 7.7 8v.3h7.8v-.3c0-4.4 3.4-8 7.7-8 4.3 0 7.7 3.6 7.7 8v.3h7.8v-.3c0-4.4 3.4-8 7.7-8 4.3 0 7.7 3.6 7.7 8v.3h7.8v-.3c0-4.4 3.4-8 7.7-8 4.3 0 7.7 3.6 7.7 8v.3h7.6V99.8h-169z"/><path d="M311.5 140.4h46.4v8.2h-46.4v-8.2zm0 18.3h39.2v8.8h-39.2v-8.8zm-.1 31.3h85.9v8.8h-85.9V190zm94.8 0h35.1v8.8h-35.1V190zm-94.8 22.7h65.4v8.8h-65.4v-8.8zm94.8 0h35.1v8.8h-35.1v-8.8zm-94.8 21.4h65.4v8.8h-65.4v-8.8zm94.8 0h35.1v8.8h-35.1v-8.8zm-15.1 37.6h44.2v8.8h-44.2v-8.8zm-79.7 0h36.8v8.8h-36.8v-8.8zm0-94.8h3v1h-3v-1zm121.1 1.1h-5.9v-1h5.9v1zm-11.8 0h-5.9v-1h5.9v1zm-11.8 0H403v-1h5.9v1zm-11.8 0h-5.9v-1h5.9v1zm-11.9 0h-5.9v-1h5.9v1zm-11.7 0h-6v-1h5.9v1h.1zm-11.9 0h-5.9v-1h5.9v1zm-11.8 0h-5.9v-1h5.9v1zm-11.8 0h-5.9v-1h5.9v1zm-11.8 0h-5.9v-1h5.9v1zm112.2-1.1h3v1h-3v-1zm-127 79.5h3v1h-3v-1zm121.1 1h-5.9v-1h5.9v1zm-11.8 0h-5.9v-1h5.9v1zm-11.8 0H403v-1h5.9v1zm-11.8 0h-5.9v-1h5.9v1zm-11.9 0h-5.9v-1h5.9v1zm-11.7 0h-6v-1h5.9v1h.1zm-11.9 0h-5.9v-1h5.9v1zm-11.8 0h-5.9v-1h5.9v1zm-11.8 0h-5.9v-1h5.9v1zm-11.8 0h-5.9v-1h5.9v1zm112.2-1h3v1h-3v-1z" fill="#d5e8f5"/><path class="st3" d="M382.2 451.5c-1.9 7.7-5.6 14.7-8.5 22.1-10.9 27.7-17.7 49.2-26 76.4l-98.5-.1c6.4-14.8 10.9-28.6 13.8-41.8 8.7-39.2 3.3-72.5-7.7-106.4-5.3-16.4-11.6-33.3-9.4-50.4 1.4-10.8 20.7-37.7 46.9-64.5v59.6h6.8c0-4.4 2.7-8.3 7.7-8.3 4.5 0 6.6 3.7 6.7 4.1.5-1.2 1.1-2.5 1.7-3.8.4-1 .9-1.9 1.3-2.7.1-.3.2-.5.4-.8.3-.5.5-1 .7-1.4l.6-1.2.3-.6c1.7-3.2 3.7-6.2 5.9-8.4 4.7-4.7 11.1-6.6 17.3-5.7 3.2.5 6.3 1.8 9.1 3.8 1.7 1.3 3.3 2.8 4 4.8.6 1.8 2.8 6 1 12.2 1.2.1 5.1 2.8 5.1 7.8l22-.4c.1 21.2 3.8 85.2-1.2 105.7z"/><path class="st4" d="M382.2 451.5c-1.9 7.7-8.4 22.1-11.3 29.4-19.3-6.3-12.4-45.3-16.1-62.6-3.7-17.3-12.6-25.6-12.6-25.6l14-54.2c1.2.1 5.1 2.8 5.1 7.8l22-.4c.2 21.1 3.9 85.1-1.1 105.6z"/><path d="M374.8 17.6v429.1c0 5.3 2.8 9.4 8.9 11.9 6 2.4 13.6 2.3 20.6 2.5 32.6.8 153.1.6 173.1.4 4.3 0 8.8-.1 12.9-1.2 10-2.6 13-8.8 13-17V32.9c0-9.4.3-21.9-9.3-28C586.5.2 575.5 0 565.5.1c-8.1.1-16.3.1-24.5.1-38.2.1-96.4.2-133.8.2-11.9 0-13.8-.2-21.6 2.4-7.7 2.7-10.8 8-10.8 14.8z" fill="#091857"/><path class="st6" d="M367.5 17.6v428.5c0 5.3 2.7 9.2 5.5 11.3 2.9 2.2 8.7 3 15.6 3.1l5.5.1c-3.3-.2-8.1-1.1-10.3-2.1-5-2.4-8.9-6.6-8.9-11.9v-429c0-6.9 4.2-12.3 10.9-14.8C392.3.4 399.5.4 399.5.4c-8.6.1-19-.6-24.4 2.9-4.1 2.8-7.6 7.5-7.6 14.3z"/><path d="M386.8 41h207.6v382.2H386.8V41z" fill="#505069"/><path class="st1" d="M583.5 95.7h-1V82.2c0-4.1-2.9-7.5-6.4-7.5h-10.6v-1h10.4c4.1 0 7.5 3.8 7.5 8.5l.1 13.5zm-182.3 0h-1V82.2c0-4.7 3.3-8.5 7.5-8.5h10.4v1h-10.4c-3.6 0-6.4 3.4-6.4 7.5v13.5h-.1zM576 345h-10.5v-1h10.4c3.6 0 6.4-3.4 6.4-7.5V323h1v13.5c.2 4.7-3.3 8.5-7.3 8.5zm-157.8 0h-10.4c-4.1 0-7.5-3.8-7.5-8.5V323h1v13.5c0 4.1 2.9 7.5 6.4 7.5h10.4v1h.1z" opacity=".5"/><path class="st1" d="M568.4 133v199.8h-6.2v-.3c0-3.6-3.1-6.4-7-6.4s-7 2.9-7 6.4v.3h-7.1v-.3c0-3.6-3.1-6.4-7-6.4s-7 2.9-7 6.4v.3H520v-.3c0-3.6-3.1-6.4-7-6.4s-7 2.9-7 6.4v.3h-7.1v-.3c0-3.6-3.1-6.4-7-6.4s-7 2.9-7 6.4v.3h-7.1v-.3c0-3.6-3.1-6.4-7-6.4s-7 2.9-7 6.4v.3h-7.1v-.3c0-3.6-3.1-6.4-7-6.4s-7 2.9-7 6.4v.3h-7.1v-.3c0-3.6-3.1-6.4-7-6.4s-7 2.9-7 6.4v.3h-6.9V133h153.7z"/><path class="st6" d="M467.9 24.8h57.3c1.6 0 2.9-1.3 2.9-2.9v-.1c0-1.6-1.3-2.9-2.9-2.9h-57.3c-1.6 0-2.9 1.3-2.9 2.9v.1c.1 1.6 1.4 2.9 2.9 2.9z"/><ellipse class="st1" cx="499.9" cy="380.1" rx="19.1" ry="20.2"/><ellipse class="st6" cx="499.9" cy="380.1" rx="15.7" ry="16.6"/><path class="st1" d="M415.1 86.9h153.3v237.7H415.1V86.9z"/><path d="M473 100.7c-.1.1-.2.3-.4.5-.1.2-.3.4-.5.6s-.3.4-.5.7c-.2.2-.3.5-.5.7s-.3.5-.5.7-.3.5-.4.7h2.9v.6h-3.7v-.5c.1-.2.2-.4.4-.6.1-.2.3-.5.4-.7.2-.2.3-.5.5-.7s.3-.5.5-.7.3-.4.5-.6.3-.4.4-.5h-2.6v-.6h3.5v.4zm2.2 4.5v-2c-.3-.5-.7-1-1-1.5s-.6-1-.8-1.5h.8l.6 1.2c.2.4.5.8.7 1.2.2-.4.5-.8.7-1.2l.6-1.2h.8c-.3.5-.5 1-.8 1.5l-.9 1.5v2.1l-.7-.1zm6.3-.6v.6h-3.1v-5.1h.7v4.5h2.4zm4.5-4.5c-.2.2-.3.4-.5.6l-.6.6-.6.6-.6.6c.2.1.4.3.7.5.2.2.5.4.7.7.2.2.4.5.6.7.2.3.4.5.5.7h-.8c-.1-.2-.3-.5-.5-.7s-.4-.5-.6-.7l-.6-.6c-.2-.2-.4-.3-.6-.5v2.4h-.7v-5.1h.7v2.2c.2-.2.4-.3.6-.5l.6-.6.6-.6c.2-.2.3-.4.5-.5h.6v.2zm.9 5.1v-5.1h3.1v.6h-2.4v1.5h2.1v.6h-2.1v1.8h2.6v.6h-3.3zm6.6-2.1c.1.1.2.2.3.4.1.2.2.3.4.5.1.2.3.4.4.6l.3.6h-.9l-.3-.6c-.1-.2-.2-.4-.3-.5-.1-.2-.2-.3-.3-.5-.1-.2-.2-.3-.3-.4h-1v2h-.7v-5c.2 0 .4-.1.7-.1h.7c.7 0 1.3.1 1.6.4s.6.7.6 1.2c0 .3-.1.6-.3.9-.3.2-.5.4-.9.5zm-1.1-2.4h-.7v1.9h1.2c.2 0 .4-.1.5-.1l.3-.3c.1-.1.1-.3.1-.5s0-.3-.1-.5l-.3-.3c-.1-.1-.3-.1-.4-.2h-.6zm7.1 4.6c-.4 0-.7-.1-1-.2s-.5-.3-.8-.5c-.2-.2-.4-.5-.5-.8s-.2-.7-.2-1.1.1-.8.2-1.1c.1-.3.3-.6.5-.8.2-.2.5-.4.8-.5s.6-.2.9-.2h.6c.2 0 .3.1.4.1s.2.1.3.1c.1 0 .1.1.2.1l-.2.6s-.1-.1-.2-.1-.2-.1-.3-.1c-.1 0-.2-.1-.3-.1h-.4c-.3 0-.5 0-.7.1s-.4.2-.6.4c-.2.2-.3.4-.3.6-.1.3-.1.5-.1.8s0 .6.1.8c.1.2.2.5.3.6.1.2.3.3.5.4s.5.1.7.1c.3 0 .6 0 .8-.1.2-.1.4-.1.5-.2l.2.6s-.1.1-.2.1-.2.1-.3.1c-.1 0-.3.1-.5.1s-.2.2-.4.2zm5.9-.1c-.1-.2-.2-.4-.2-.6-.1-.2-.1-.4-.2-.6h-2.3l-.5 1.3h-.7l.6-1.5c.2-.5.3-.9.5-1.3s.3-.8.5-1.2c.2-.4.3-.7.5-1.1h.7c.2.4.3.7.5 1.1s.3.8.5 1.2.3.8.5 1.3l.6 1.5h-1v-.1zm-.6-1.9c-.2-.4-.3-.8-.5-1.2-.2-.4-.3-.8-.5-1.1-.2.4-.3.7-.5 1.1s-.3.8-.5 1.2h2zm2.1 1.9v-5.1h3.1v.6h-2.4v1.5h2.1v.6h-2.1v2.3l-.7.1zm3.9 0v-5.1h3.1v.6h-2.4v1.5h2.1v.6h-2.1v1.8h2.6v.6h-3.3zm-44.6 6.2c.2-.1.5-.2.7-.4.2-.1.4-.3.6-.5h.4v4.4h-.6v-3.5c-.1 0-.1.1-.2.1-.1.1-.2.1-.2.1-.1 0-.2.1-.3.1-.1 0-.2.1-.3.1l-.1-.4zm6 .2c0 .2 0 .3-.1.4s-.1.3-.2.4-.2.3-.3.4l-.4.4c-.1.1-.2.2-.2.3l-.3.3c-.1.1-.2.2-.2.3-.1.1-.1.2-.1.3h2v.5h-2.6v-.2c0-.2 0-.4.1-.5.1-.2.2-.3.3-.5.1-.2.2-.3.4-.4l.4-.4.3-.3.3-.3c.1-.1.1-.2.2-.3 0-.1.1-.2.1-.3 0-.1 0-.2-.1-.3 0-.1-.1-.2-.2-.2-.1-.1-.1-.1-.2-.1h-.3c-.1 0-.2 0-.3.1-.1 0-.2.1-.3.1-.1 0-.1.1-.2.1s-.1.1-.1.1l-.3-.4.2-.2c.1-.1.2-.1.3-.2.1-.1.2-.1.4-.1.1 0 .3-.1.4-.1.5 0 .8.1 1 .3-.2.1 0 .4 0 .8zm1.2-.2c.2-.1.5-.2.7-.4.2-.1.4-.3.6-.5h.4v4.4h-.6v-3.5c-.1 0-.1.1-.2.1-.1.1-.2.1-.2.1-.1 0-.2.1-.3.1-.1 0-.2.1-.3.1l-.1-.4zm3.5 0c.2-.1.5-.2.7-.4.2-.1.4-.3.6-.5h.4v4.4h-.6v-3.5c-.1 0-.1.1-.2.1-.1.1-.2.1-.2.1-.1 0-.2.1-.3.1-.1 0-.2.1-.3.1l-.1-.4zm7.6 1.3h.6v2c-.1 0-.1 0-.2.1-.1 0-.2 0-.3.1-.1 0-.3 0-.4.1h-.4c-.3 0-.6-.1-.8-.2-.3-.1-.5-.2-.6-.4-.2-.2-.3-.4-.4-.7-.1-.3-.1-.6-.1-1s.1-.7.2-1 .3-.5.4-.7c.2-.2.4-.3.7-.4.3-.1.5-.2.8-.2h.5c.2 0 .3.1.4.1s.2.1.3.1c.1 0 .1.1.1.1l-.2.5c-.1-.1-.3-.1-.5-.2s-.4-.1-.6-.1-.4 0-.6.1-.3.2-.5.3c-.1.2-.2.3-.3.5-.1.2-.1.5-.1.7 0 .3 0 .5.1.7s.2.4.3.5c.1.2.3.3.5.4s.4.1.6.1h.4c.1 0 .2 0 .3-.1v-1.4h-.2zm2.7-1.2h.7l-.1.5s-.1 0-.2-.1h-.9v2.7h-.6v-3.1c.1-.1.3-.1.5-.1.1.2.4.1.6.1zm1 1.7c0-.3 0-.5.1-.8.1-.2.2-.4.3-.5.1-.1.3-.2.5-.3.2-.1.4-.1.6-.1.4 0 .8.1 1 .4s.4.7.4 1.3v.2h-2.2c0 .3.1.6.3.8.2.2.4.3.8.3.2 0 .4 0 .5-.1.1 0 .2-.1.3-.1l.1.5c-.1 0-.2.1-.4.1s-.4.1-.6.1c-.3 0-.5 0-.7-.1s-.4-.2-.5-.4c-.1-.2-.2-.3-.3-.5-.2-.3-.2-.5-.2-.8zm2.3-.3c0-.3-.1-.5-.2-.7s-.3-.3-.6-.3c-.1 0-.3 0-.4.1s-.2.1-.3.2c-.1.1-.1.2-.2.3 0 .1-.1.2-.1.3l1.8.1zm1.3.3c0-.3 0-.5.1-.8.1-.2.2-.4.3-.5.1-.1.3-.2.5-.3.2-.1.4-.1.6-.1.4 0 .8.1 1 .4s.4.7.4 1.3v.2h-2.2c0 .3.1.6.3.8s.4.3.8.3c.2 0 .4 0 .5-.1.1 0 .2-.1.3-.1l.1.5c-.1 0-.2.1-.4.1s-.4.1-.6.1c-.3 0-.5 0-.7-.1s-.4-.2-.5-.4c-.1-.2-.2-.3-.3-.5-.2-.3-.2-.5-.2-.8zm2.2-.3c0-.3-.1-.5-.2-.7s-.3-.3-.6-.3c-.1 0-.3 0-.4.1s-.2.1-.3.2c-.1.1-.1.2-.2.3 0 .1-.1.2-.1.3l1.8.1zm1.5-1.2c.1 0 .3-.1.5-.1s.5-.1.8-.1.5 0 .6.1c.2.1.3.2.4.3.1.1.2.3.2.5s.1.4.1.6v1.8h-.6v-2.2c0-.1-.1-.3-.1-.3-.1-.1-.1-.2-.3-.2-.1 0-.2-.1-.4-.1h-.7v2.8h-.5v-3.1zm6.1 2.7c.6 0 1-.2 1-.7 0-.1 0-.2-.1-.3-.1-.1-.1-.2-.2-.2-.1-.1-.2-.1-.3-.2-.1-.1-.3-.1-.4-.2-.2-.1-.3-.1-.5-.2s-.3-.2-.4-.2c-.1-.1-.2-.2-.2-.3-.1-.1-.1-.3-.1-.5 0-.4.1-.7.4-.9.3-.2.6-.3 1.1-.3.3 0 .5 0 .7.1s.4.1.5.2l-.2.5c-.1-.1-.2-.1-.4-.2s-.4-.1-.6-.1h-.3c-.1 0-.2.1-.3.1l-.2.2c0 .1-.1.2-.1.3 0 .1 0 .2.1.3 0 .1.1.1.2.2s.2.1.3.2c.1.1.2.1.4.2s.4.2.5.2c.2.1.3.2.4.3.1.1.2.2.3.4.1.1.1.3.1.5 0 .4-.1.7-.4.9-.3.2-.7.3-1.2.3h-.5c-.1 0-.3-.1-.4-.1s-.2-.1-.3-.1c-.1 0-.1-.1-.2-.1l.2-.5c.1.1.2.1.4.2h.7zm2.8-2.8h1.2v.5h-1.2v1.9c0 .1.1.2.1.3 0 .1.1.1.2.1h.3c.2 0 .3 0 .4-.1.1 0 .2-.1.2-.1l.1.5c-.1 0-.2.1-.3.1-.1 0-.3.1-.5.1s-.4 0-.6-.1c-.1-.1-.3-.1-.3-.3-.1-.1-.1-.3-.2-.4s-.1-.4-.1-.6v-2.9l.6-.1.1 1.1zm3.2-.1h.7l-.1.5s-.1 0-.2-.1h-.9v2.7h-.6v-3.1c.1-.1.3-.1.5-.1.1.2.2.1.6.1zm1 1.7c0-.3 0-.5.1-.8.1-.2.2-.4.3-.5.1-.1.3-.2.5-.3.2-.1.4-.1.6-.1.4 0 .8.1 1 .4s.4.7.4 1.3v.2h-2.2c0 .3.1.6.3.8s.4.3.8.3c.2 0 .4 0 .5-.1.1 0 .2-.1.3-.1l.1.5c-.1 0-.2.1-.4.1s-.4.1-.6.1c-.3 0-.5 0-.7-.1s-.4-.2-.5-.4c-.1-.2-.2-.3-.3-.5-.1-.3-.2-.5-.2-.8zm2.3-.3c0-.3-.1-.5-.2-.7s-.3-.3-.6-.3c-.1 0-.3 0-.4.1s-.2.1-.3.2c-.1.1-.1.2-.2.3 0 .1-.1.2-.1.3l1.8.1zm1.2.3c0-.3 0-.5.1-.8.1-.2.2-.4.3-.5s.3-.2.5-.3c.2-.1.4-.1.6-.1.4 0 .8.1 1 .4s.4.7.4 1.3v.2h-2.2c0 .3.1.6.3.8.2.2.4.3.8.3.2 0 .4 0 .5-.1.1 0 .2-.1.3-.1l.1.5c-.1 0-.2.1-.4.1s-.4.1-.6.1c-.3 0-.5 0-.7-.1s-.4-.2-.5-.4c-.1-.2-.2-.3-.3-.5-.1-.3-.2-.5-.2-.8zm2.3-.3c0-.3-.1-.5-.2-.7-.1-.2-.3-.3-.6-.3-.1 0-.3 0-.4.1-.1.1-.2.1-.3.2s-.1.2-.2.3c0 .1-.1.2-.1.3l1.8.1zm2-1.3h1.2v.5h-1.2v1.9c0 .1.1.2.1.3 0 .1.1.1.2.1h.3c.2 0 .3 0 .4-.1.1 0 .2-.1.2-.1l.1.5c-.1 0-.2.1-.3.1s-.3.1-.5.1-.4 0-.6-.1c-.1-.1-.3-.1-.3-.3-.1-.1-.1-.3-.2-.4 0-.2-.1-.4-.1-.6v-2.9l.6-.1.1 1.1zM476 124.3c-.1-.2-.2-.3-.3-.5-.1-.2-.2-.4-.4-.6-.1-.2-.3-.4-.4-.6s-.3-.4-.4-.6-.3-.4-.4-.6-.3-.3-.4-.5v3.4h-.6v-4.4h.5c.2.2.4.5.6.7.2.3.4.6.7.9l.6.9c.2.3.4.5.5.8V120h.6v4.4l-.6-.1zm1.4-1.6c0-.3 0-.5.1-.8.1-.2.2-.4.3-.5.1-.1.3-.2.5-.3.2-.1.4-.1.6-.1.4 0 .8.1 1 .4s.4.7.4 1.3v.2H478c0 .3.1.6.3.8.2.2.4.3.8.3.2 0 .4 0 .5-.1s.2-.1.3-.1l.1.5c-.1 0-.2.1-.4.1s-.4.1-.6.1c-.3 0-.5 0-.7-.1s-.4-.2-.5-.4c-.1-.2-.2-.3-.3-.5-.1-.4-.1-.6-.1-.8zm2.2-.4c0-.3-.1-.5-.2-.7s-.3-.3-.6-.3c-.1 0-.3 0-.4.1s-.2.1-.3.2c-.1.1-.1.2-.2.3 0 .1-.1.2-.1.3l1.8.1zm4.1 2c-.1-.3-.2-.6-.4-1-.1-.4-.3-.8-.4-1.2-.1.4-.2.8-.4 1.2-.1.4-.3.7-.4 1h-.5c-.2-.4-.4-.9-.6-1.5s-.4-1.1-.5-1.8h.6c0 .2.1.4.2.6s.1.5.2.7.1.5.2.7.1.4.2.6c.1-.2.1-.4.2-.6s.1-.4.2-.7c.1-.2.1-.4.2-.7.1-.2.1-.4.1-.6h.5c0 .2.1.4.1.6.1.2.1.4.2.7.1.2.1.4.2.7.1.2.1.4.2.6.1-.2.1-.3.2-.6.1-.2.1-.4.2-.7.1-.2.1-.5.2-.7s.1-.4.2-.6h.6c-.2.6-.3 1.2-.5 1.8-.2.6-.4 1-.6 1.5h-.4zm4.8 0v-1.7c-.3-.4-.6-.9-.8-1.3-.3-.4-.5-.9-.7-1.3h.7c.2.3.3.7.5 1 .2.4.4.7.6 1 .2-.3.4-.7.6-1 .2-.4.4-.7.5-1h.7c-.2.4-.5.8-.7 1.3-.3.4-.5.9-.8 1.3v1.8h-.6v-.1zm5.2-1.6c0 .3 0 .5-.1.7s-.2.4-.3.5c-.1.2-.3.3-.5.3-.2.1-.4.1-.6.1s-.4 0-.6-.1-.4-.2-.5-.3c-.1-.2-.2-.3-.3-.5-.1-.2-.1-.4-.1-.7 0-.3 0-.5.1-.7s.2-.4.3-.5c.1-.2.3-.3.5-.3s.4-.1.6-.1.4 0 .6.1.4.2.5.3c.1.2.2.3.3.5.1.2.1.4.1.7zm-.6 0c0-.4-.1-.7-.2-.9-.2-.2-.4-.3-.7-.3-.3 0-.5.1-.7.3-.2.2-.2.5-.2.9s.1.7.2.9c.2.2.4.3.7.3.3 0 .5-.1.7-.3.1-.3.2-.6.2-.9zm2.6-1.7h.7l-.1.5s-.1 0-.2-.1h-.9v2.7h-.7V121c.1-.1.3-.1.5-.1.2.1.5.1.7.1zm2.4 1.5c.1.1.3.2.4.4.1.1.3.3.4.5s.3.3.4.5.2.3.3.5h-.7c-.1-.1-.2-.3-.3-.4-.1-.2-.2-.3-.4-.4l-.4-.4c-.1-.1-.3-.2-.4-.3v1.6h-.6v-4.8l.6-.1v3l.3-.3.4-.4c.1-.1.2-.2.3-.4l.3-.3h.7l-.3.3c-.1.1-.2.3-.4.4-.1.1-.2.3-.4.4.1 0-.1.1-.2.2zm2.8 1.1v.2c0 .3 0 .5-.1.8s-.2.5-.3.7l-.5-.1c.1-.2.2-.4.2-.6v-.9h.7v-.1zm5.3.7c-.1-.2-.2-.3-.3-.5-.1-.2-.2-.4-.4-.6-.1-.2-.3-.4-.4-.6s-.3-.4-.4-.6-.3-.4-.4-.6-.3-.3-.4-.5v3.4h-.6v-4.4h.5c.2.2.4.5.6.7.2.3.4.6.7.9l.6.9c.2.3.4.5.5.8V120h.6v4.4l-.6-.1zm2.7 0v-1.7c-.3-.4-.6-.9-.8-1.3-.3-.4-.5-.9-.7-1.3h.7c.2.3.3.7.5 1 .2.4.4.7.6 1 .2-.3.4-.7.6-1 .2-.4.4-.7.5-1h.7c-.2.4-.5.8-.7 1.3-.3.4-.5.9-.8 1.3v1.8h-.6v-.1zm7.3 12.6v.5h-1.4v3.8h-.6v-3.8h-1.4v-.5h3.4zm.8.5c-.1 0-.2 0-.3-.1s-.1-.2-.1-.3 0-.2.1-.3.2-.1.3-.1.2 0 .3.1.1.2.1.3 0 .2-.1.3c-.1 0-.1.1-.3.1zm.4 3.8h-.6v-3.3h.6v3.3zm1-3.2c.1 0 .3-.1.5-.1s.5-.1.8-.1c.2 0 .4 0 .5.1s.3.1.4.2l.1-.1c.1 0 .1-.1.2-.1s.2-.1.3-.1h.4c.3 0 .5 0 .6.1.2.1.3.2.4.3.1.1.2.3.2.5v2.4h-.6v-2.2c0-.1-.1-.3-.1-.3-.1-.1-.1-.2-.2-.2s-.2-.1-.3-.1c-.2 0-.4 0-.5.1s-.2.1-.3.1c0 .1.1.2.1.4v2.2h-.6v-2.2c0-.1-.1-.3-.1-.3-.1-.1-.1-.2-.2-.2s-.2-.1-.3-.1h-.7v2.8h-.6V138zm5.1 1.6c0-.3 0-.5.1-.8.1-.2.2-.4.3-.5s.3-.2.5-.3.4-.1.6-.1c.4 0 .8.1 1 .4.2.3.4.7.4 1.3v.2h-2.2c0 .3.1.6.3.8s.4.3.8.3c.2 0 .4 0 .5-.1.1 0 .2-.1.3-.1l.1.5c-.1 0-.2.1-.4.1s-.4.1-.6.1c-.3 0-.5 0-.7-.1s-.4-.2-.5-.4-.2-.3-.3-.5c-.2-.3-.2-.6-.2-.8zm2.4-.3c0-.3-.1-.5-.2-.7-.1-.2-.3-.3-.6-.3-.1 0-.3 0-.4.1-.1.1-.2.1-.3.2-.1.1-.1.2-.2.3 0 .1-.1.2-.1.3l1.8.1zm2.1-.9c0 .1 0 .2-.1.3s-.2.1-.3.1-.2 0-.3-.1-.1-.2-.1-.3 0-.2.1-.3.2-.1.3-.1.2 0 .3.1.1.1.1.3zm0 2.5c0 .1 0 .2-.1.3s-.2.1-.3.1-.2 0-.3-.1-.1-.2-.1-.3 0-.2.1-.3.2-.1.3-.1.2 0 .3.1.1.2.1.3zm2-1.9c0-.7.1-1.3.4-1.7.3-.4.6-.6 1.1-.6s.8.2 1.1.6c.3.4.4 1 .4 1.7s-.1 1.3-.4 1.7c-.3.4-.6.6-1.1.6s-.8-.2-1.1-.6c-.2-.4-.4-.9-.4-1.7zm2.4 0v-.7c0-.2-.1-.4-.1-.6-.1-.2-.2-.3-.3-.4-.1-.1-.2-.1-.4-.1s-.3 0-.4.1c-.1.1-.2.2-.3.4s-.1.3-.1.6v1.4c0 .2.1.4.1.6.1.2.2.3.3.4.1.1.2.1.4.1s.3 0 .4-.1c.1-.1.2-.2.3-.4s.1-.3.1-.6v-.7zm1.3.5c0-.4.1-.8.2-1.1.1-.3.3-.6.5-.8s.5-.4.8-.5.7-.2 1-.2v.5c-.2 0-.5 0-.7.1s-.4.1-.5.2c-.2.1-.3.3-.4.4-.1.2-.2.4-.2.6.1-.1.2-.1.4-.1.1 0 .3-.1.4-.1.2 0 .5 0 .6.1.2.1.3.2.4.3.1.1.2.3.2.4 0 .2.1.3.1.5s0 .3-.1.5-.1.3-.2.5c-.1.1-.3.3-.4.3-.2.1-.4.1-.6.1-.5 0-.8-.2-1.1-.5-.2-.2-.4-.7-.4-1.2zm1.3-.5h-.4c-.1 0-.3.1-.4.1v.7c0 .2.1.3.1.4l.3.3c.1.1.2.1.4.1.1 0 .3 0 .4-.1.1-.1.2-.1.2-.2.1-.1.1-.2.1-.3v-.3c0-.3-.1-.5-.2-.7 0 .1-.1 0-.5 0zm3-.6c0 .1 0 .2-.1.3s-.2.1-.3.1-.2 0-.3-.1-.1-.2-.1-.3 0-.2.1-.3.2-.1.3-.1.2 0 .3.1.1.1.1.3zm0 2.5c0 .1 0 .2-.1.3s-.2.1-.3.1-.2 0-.3-.1-.1-.2-.1-.3 0-.2.1-.3.2-.1.3-.1.2 0 .3.1.1.2.1.3zm1.8-.1c.4 0 .6-.1.8-.2.2-.1.2-.3.2-.6 0-.2 0-.3-.1-.4l-.3-.3c-.1-.1-.2-.1-.4-.1h-.6v-.5h.5c.1 0 .2-.1.3-.1.1-.1.2-.1.2-.2.1-.1.1-.2.1-.4 0-.1 0-.2-.1-.3 0-.1-.1-.2-.2-.2-.1-.1-.1-.1-.2-.1h-.3c-.2 0-.4 0-.5.1s-.3.1-.4.2l-.2-.4c.1 0 .1-.1.2-.1s.2-.1.3-.1.2-.1.3-.1h.3c.2 0 .4 0 .6.1.2.1.3.1.4.2.1.1.2.2.2.4.1.1.1.3.1.5s-.1.4-.2.6c-.1.2-.3.3-.5.4.1 0 .2.1.3.1.1.1.2.1.3.2.1.1.1.2.2.3 0 .1.1.3.1.4 0 .2 0 .4-.1.5-.1.2-.2.3-.3.4-.1.1-.3.2-.5.3s-.4.1-.7.1h-.3c-.1 0-.2 0-.3-.1-.1 0-.2-.1-.3-.1s-.1 0-.2-.1l.1-.5c.1 0 .2.1.4.1h.8zm5.1-2.8c0 .2 0 .3-.1.4-.1.1-.1.3-.2.4-.1.1-.2.3-.3.4l-.4.4c-.1.1-.2.2-.2.3l-.3.3c-.1.1-.2.2-.2.3-.1.1-.1.2-.1.3h2v.5h-2.6v-.2c0-.2 0-.4.1-.5.1-.2.2-.3.3-.5s.2-.3.4-.4l.4-.4.3-.3.3-.3c.1-.1.1-.2.2-.3 0-.1.1-.2.1-.3s0-.2-.1-.3c0-.1-.1-.2-.2-.2-.1-.1-.1-.1-.2-.1h-.3c-.1 0-.2 0-.3.1-.1 0-.2.1-.3.1s-.1.1-.2.1-.1.1-.1.1l-.3-.4.2-.2c.1-.1.2-.1.3-.2.1-.1.2-.1.4-.1.1 0 .3-.1.4-.1.5 0 .8.1 1 .3-.1.1 0 .4 0 .8zm3.8-1.2c.6 0 1.1.1 1.4.3.3.2.5.6.5 1 0 .3 0 .5-.1.6-.1.2-.2.3-.4.4-.2.1-.4.2-.6.2-.2.1-.5.1-.8.1h-.5v1.6h-.7v-4.3c.2 0 .4-.1.6-.1.1.2.4.2.6.2zm0 .5h-.6v1.7h1.1c.2 0 .3-.1.4-.1l.3-.3c.1-.1.1-.3.1-.4 0-.2 0-.3-.1-.4l-.3-.3c-.1-.1-.2-.1-.4-.1s-.3-.1-.5-.1zm4.5 3.3c0-.1-.1-.2-.2-.4s-.1-.3-.2-.5l-.3-.6c-.1-.2-.2-.4-.3-.5-.1-.2-.2-.3-.2-.5-.1-.1-.1-.2-.2-.3 0 .5-.1 1-.1 1.6s-.1 1.2-.1 1.7h-.6c0-.4 0-.8.1-1.1 0-.4 0-.8.1-1.1 0-.4.1-.7.1-1.1 0-.4.1-.7.1-1h.5c.1.2.2.4.4.7.1.3.3.5.4.8.1.3.3.5.4.8.1.3.2.5.3.8.1-.2.2-.5.3-.8s.2-.5.4-.8c.1-.3.3-.5.4-.8.1-.3.3-.5.4-.7h.5c.1 1.4.2 2.9.3 4.4h-.6c0-.6 0-1.2-.1-1.7 0-.6-.1-1.1-.1-1.6 0 .1-.1.2-.2.3-.1.1-.1.3-.2.5s-.2.3-.3.5l-.3.6c-.1.2-.2.3-.2.5-.1.2-.1.3-.2.4l-.3-.1zm-37.2 6.9h.6v4.4h-.6v-2h-2.1v2h-.6v-4.4h.6v1.8h2.1v-1.8zm1.5 2.2c0-.4.1-.7.2-1 .1-.3.3-.5.5-.7s.4-.3.7-.4c.3-.1.5-.1.8-.1s.5 0 .8.1c.2.1.5.2.7.4s.3.4.4.7c.1.3.2.6.2 1s-.1.7-.2 1c-.1.3-.3.5-.4.7-.2.2-.4.3-.7.4-.2.1-.5.1-.8.1s-.6 0-.8-.1c-.3-.1-.5-.2-.7-.4s-.3-.4-.5-.7-.2-.6-.2-1zm.7 0c0 .3 0 .5.1.7s.2.4.3.5c.1.2.3.3.5.3.2.1.4.1.6.1.2 0 .4 0 .6-.1.2-.1.3-.2.4-.3.1-.2.2-.3.3-.5s.1-.5.1-.7c0-.3 0-.5-.1-.7s-.2-.4-.3-.5c-.1-.2-.3-.3-.4-.3-.2-.1-.4-.1-.6-.1-.2 0-.4 0-.6.1-.2.1-.3.2-.5.3-.1.2-.2.3-.3.5s-.1.4-.1.7zm5.3 1.7c.6 0 1-.2 1-.7 0-.1 0-.2-.1-.3s-.1-.2-.2-.2c-.1-.1-.2-.1-.3-.2-.1-.1-.3-.1-.4-.2-.2-.1-.3-.1-.5-.2-.1-.1-.3-.2-.4-.2-.1-.1-.2-.2-.2-.3-.1-.1-.1-.3-.1-.5 0-.4.1-.7.4-.9.3-.2.6-.3 1.1-.3.3 0 .5 0 .7.1s.4.1.5.2l-.2.5c-.1-.1-.2-.1-.4-.2s-.4-.1-.6-.1h-.3c-.1 0-.2.1-.3.1l-.2.2c0 .1-.1.2-.1.3s0 .2.1.3c0 .1.1.1.2.2s.2.1.3.2c.1.1.2.1.4.2s.4.2.5.2c.2.1.3.2.4.3.1.1.2.2.3.4.1.1.1.3.1.5 0 .4-.1.7-.4.9-.3.2-.7.3-1.2.3h-.5c-.1 0-.3-.1-.4-.1-.1 0-.2-.1-.3-.1s-.1-.1-.2-.1l.2-.5c.1.1.2.1.4.2h.7zm5.3-3.9v.5h-1.4v3.8h-.6V148h-1.4v-.5h3.4zm5 4.4c-.1-.2-.1-.4-.2-.6-.1-.2-.1-.4-.2-.6h-2l-.4 1.1h-.6c.2-.5.3-.9.5-1.3.1-.4.3-.8.4-1.1.1-.4.3-.7.4-1 .1-.3.3-.6.4-1h.6c.2.3.3.6.4 1 .1.3.3.7.4 1 .1.4.3.7.4 1.1.1.4.3.8.5 1.3h-.6v.1zm-.6-1.6c-.1-.4-.3-.7-.4-1.1-.1-.3-.3-.7-.4-1-.1.3-.3.6-.4 1-.1.3-.3.7-.4 1.1h1.6zm4.5 1.1v.5h-2.6v-4.4h.6v3.8l2 .1zm.5-3.9h.6v4.4h-.6v-4.4zm2.8 3.9c.6 0 1-.2 1-.7 0-.1 0-.2-.1-.3s-.1-.2-.2-.2c-.1-.1-.2-.1-.3-.2-.1-.1-.3-.1-.4-.2-.2-.1-.3-.1-.5-.2-.1-.1-.3-.2-.4-.2-.1-.1-.2-.2-.2-.3-.1-.1-.1-.3-.1-.5 0-.4.1-.7.4-.9.3-.2.6-.3 1.1-.3.3 0 .5 0 .7.1s.4.1.5.2l-.2.5c-.1-.1-.2-.1-.4-.2s-.4-.1-.6-.1h-.3c-.1 0-.2.1-.3.1l-.2.2c0 .1-.1.2-.1.3s0 .2.1.3c0 .1.1.1.2.2s.2.1.3.2c.1.1.2.1.4.2s.4.2.5.2c.2.1.3.2.4.3.1.1.2.2.3.4.1.1.1.3.1.5 0 .4-.1.7-.4.9-.3.2-.7.3-1.2.3h-.5c-.1 0-.3-.1-.4-.1-.1 0-.2-.1-.3-.1s-.1-.1-.2-.1l.2-.5c.1.1.2.1.4.2h.7zm2.2-1.7c0-.4.1-.7.2-1 .1-.3.3-.5.5-.7s.4-.3.7-.4c.3-.1.5-.1.8-.1s.5 0 .8.1c.2.1.5.2.7.4s.3.4.4.7c.1.3.2.6.2 1s-.1.7-.2 1c-.1.3-.3.5-.4.7-.2.2-.4.3-.7.4-.2.1-.5.1-.8.1s-.6 0-.8-.1c-.3-.1-.5-.2-.7-.4s-.3-.4-.5-.7-.2-.6-.2-1zm.6 0c0 .3 0 .5.1.7s.2.4.3.5c.1.2.3.3.5.3.2.1.4.1.6.1.2 0 .4 0 .6-.1.2-.1.3-.2.4-.3.1-.2.2-.3.3-.5s.1-.5.1-.7c0-.3 0-.5-.1-.7s-.2-.4-.3-.5c-.1-.2-.3-.3-.4-.3-.2-.1-.4-.1-.6-.1-.2 0-.4 0-.6.1-.2.1-.3.2-.5.3-.1.2-.2.3-.3.5s-.1.4-.1.7zm7.4 2.2c-.1-.2-.2-.3-.3-.5s-.2-.4-.4-.6c-.1-.2-.3-.4-.4-.6-.1-.2-.3-.4-.4-.6-.1-.2-.3-.4-.4-.6s-.3-.3-.4-.5v3.4h-.6v-4.4h.5c.2.2.4.5.6.7.2.3.4.6.7.9l.6.9c.2.3.4.5.5.8v-3.2h.6v4.4l-.6-.1zM429.7 139c0 .4-.1.7-.2 1s-.3.5-.5.7-.5.3-.8.4c-.3.1-.6.1-1 .1h-.6c-.2 0-.4 0-.6-.1v-4.2c.2 0 .4-.1.6-.1h.6c.4 0 .7 0 1 .1s.6.2.8.4c.2.2.4.4.5.7.2.3.2.7.2 1zm-2.3 1.7c.6 0 1-.1 1.3-.4.3-.3.4-.7.4-1.2s-.1-.9-.4-1.2-.7-.4-1.3-.4h-.6v3.3h.2c.1 0 .2-.1.4-.1zm4.2-2.8c.2 0 .4 0 .6.1s.3.1.4.3c.1.1.2.2.2.4s.1.3.1.5v2h-1.3c-.2 0-.4 0-.5-.1-.2 0-.3-.1-.4-.2l-.3-.3c-.1-.1-.1-.3-.1-.5s0-.3.1-.5l.3-.3c.1-.1.3-.1.4-.2.2 0 .3-.1.5-.1h.6v-.5c0-.1-.1-.2-.1-.3l-.2-.2c-.1 0-.2-.1-.3-.1h-.6c-.1 0-.3.1-.3.1l-.1-.5c.1 0 .2-.1.4-.1.2.5.2.5.6.5zm0 2.9h.7v-1s-.1 0-.2-.1h-.6c-.1 0-.2 0-.3.1-.1 0-.2.1-.2.2-.1.1-.1.2-.1.3 0 .2.1.4.2.4s.3.1.5.1zm2.6-2.9h1.2v.5h-1.2v1.9c0 .1.1.2.1.3s.1.1.2.1h.3c.2 0 .3 0 .4-.1.1 0 .2-.1.2-.1l.1.5c-.1 0-.2.1-.3.1-.1 0-.3.1-.5.1s-.4 0-.6-.1c-.1-.1-.3-.1-.3-.3-.1-.1-.1-.3-.2-.4s-.1-.4-.1-.6V137l.6-.1.1 1zm1.9 1.7c0-.3 0-.5.1-.8.1-.2.2-.4.3-.5.1-.1.3-.2.5-.3s.4-.1.6-.1c.4 0 .8.1 1 .4.2.3.4.7.4 1.3v.2h-2.2c0 .3.1.6.3.8.2.2.4.3.8.3.2 0 .4 0 .5-.1s.2-.1.3-.1l.1.5c-.1 0-.2.1-.4.1s-.4.1-.6.1c-.3 0-.5 0-.7-.1s-.4-.2-.5-.4-.2-.3-.3-.5c-.2-.3-.2-.6-.2-.8zm2.1-.3c0-.3-.1-.5-.2-.7s-.3-.3-.6-.3c-.1 0-.3 0-.4.1s-.2.1-.3.2c-.1.1-.1.2-.2.3 0 .1-.1.2-.1.3l1.8.1zm2.2-.9c0 .1 0 .2-.1.3s-.2.1-.3.1c-.1 0-.2 0-.3-.1-.1-.1-.1-.2-.1-.3s0-.2.1-.3.2-.1.3-.1c.1 0 .2 0 .3.1.1.1.1.1.1.3zm0 2.5c0 .1 0 .2-.1.3s-.2.1-.3.1c-.1 0-.2 0-.3-.1-.1-.1-.1-.2-.1-.3s0-.2.1-.3.2-.1.3-.1c.1 0 .2 0 .3.1.1.1.1.2.1.3zm2.4-3.1c.2-.1.5-.2.7-.4.2-.1.4-.3.6-.5h.4v4.4h-.6v-3.5c-.1 0-.1.1-.2.1-.1.1-.2.1-.2.1-.1 0-.2.1-.3.1-.1 0-.2.1-.3.1l-.1-.4zm3.3 1.2c0-.7.1-1.3.4-1.7s.6-.6 1.1-.6.8.2 1.1.6c.3.4.4 1 .4 1.7s-.1 1.3-.4 1.7-.6.6-1.1.6-.8-.2-1.1-.6c-.3-.4-.4-.9-.4-1.7zm2.3 0v-.7c0-.2-.1-.4-.1-.6-.1-.2-.2-.3-.3-.4-.1-.1-.2-.1-.4-.1s-.3 0-.4.1-.2.2-.3.4c-.1.2-.1.3-.1.6v1.4c0 .2.1.4.1.6.1.2.2.3.3.4.1.1.2.1.4.1s.3 0 .4-.1.2-.2.3-.4c.1-.2.1-.3.1-.6v-.7zm1.4 3.4h-.6l2.1-6.1h.6l-2.1 6.1zm2.3-3.4c0-.7.1-1.3.4-1.7s.6-.6 1.1-.6.8.2 1.1.6c.3.4.4 1 .4 1.7s-.1 1.3-.4 1.7-.6.6-1.1.6-.8-.2-1.1-.6c-.3-.4-.4-.9-.4-1.7zm2.1 0v-.7c0-.2-.1-.4-.1-.6-.1-.2-.2-.3-.3-.4-.1-.1-.2-.1-.4-.1s-.3 0-.4.1-.2.2-.3.4c-.1.2-.1.3-.1.6v1.4c0 .2.1.4.1.6.1.2.2.3.3.4.1.1.2.1.4.1s.3 0 .4-.1.2-.2.3-.4c.1-.2.1-.3.1-.6v-.7zm1.7-1.2c.2-.1.5-.2.7-.4.2-.1.4-.3.6-.5h.4v4.4h-.6v-3.5c-.1 0-.1.1-.2.1-.1.1-.2.1-.2.1-.1 0-.2.1-.3.1-.1 0-.2.1-.3.1l-.1-.4zm3.3 4.6h-.6l2.1-6.1h.6l-2.1 6.1zm5-4.4c0 .2 0 .3-.1.4-.1.1-.1.3-.2.4-.1.1-.2.3-.3.4l-.4.4c-.1.1-.2.2-.2.3l-.3.3c-.1.1-.2.2-.2.3-.1.1-.1.2-.1.3h2v.5h-2.6v-.2c0-.2 0-.4.1-.5.1-.2.2-.3.3-.5.1-.2.2-.3.4-.4s.3-.3.4-.4l.3-.3.3-.3c.1-.1.1-.2.2-.3 0-.1.1-.2.1-.3s0-.2-.1-.3c0-.1-.1-.2-.2-.2-.1-.1-.1-.1-.2-.1h-.3c-.1 0-.2 0-.3.1-.1 0-.2.1-.3.1-.1 0-.1.1-.2.1s-.1.1-.1.1l-.3-.4.2-.2c.1-.1.2-.1.3-.2.1-.1.2-.1.4-.1.1 0 .3-.1.4-.1.5 0 .8.1 1 .3-.1.1 0 .4 0 .8zm.9 1c0-.7.1-1.3.4-1.7s.6-.6 1.1-.6.8.2 1.1.6c.3.4.4 1 .4 1.7s-.1 1.3-.4 1.7-.6.6-1.1.6-.8-.2-1.1-.6c-.3-.4-.4-.9-.4-1.7zm2.3 0v-.7c0-.2-.1-.4-.1-.6-.1-.2-.2-.3-.3-.4-.1-.1-.2-.1-.4-.1s-.3 0-.4.1-.2.2-.3.4c-.1.2-.1.3-.1.6v1.4c0 .2.1.4.1.6.1.2.2.3.3.4.1.1.2.1.4.1s.3 0 .4-.1.2-.2.3-.4c.1-.2.1-.3.1-.6v-.7zm1.5-1.2c.2-.1.5-.2.7-.4.2-.1.4-.3.6-.5h.4v4.4h-.6v-3.5c-.1 0-.1.1-.2.1-.1.1-.2.1-.2.1-.1 0-.2.1-.3.1-.1 0-.2.1-.3.1l-.1-.4zm4 3.4c0-.3.1-.7.2-1.1.1-.4.2-.7.3-1.1.1-.3.3-.7.5-1s.3-.5.5-.7h-2.1v-.5h2.8v.5c-.1.2-.3.4-.5.7s-.3.6-.5.9c-.1.3-.3.7-.4 1.1-.1.4-.2.8-.2 1.2h-.6zm-43.8 6.3v.5h-1.4v3.8h-.6V148h-1.4v-.5h3.4zm1.8 4.4h-.9c-.1 0-.2 0-.3-.1v-4.2c.1 0 .2 0 .3-.1h.9c.3 0 .5 0 .7.1.2 0 .4.1.6.2.2.1.3.2.4.4.1.1.1.3.1.5s-.1.4-.2.6c-.1.2-.3.3-.5.3.3.1.5.2.6.4.2.2.2.4.2.7 0 .4-.2.8-.5 1-.2.1-.7.2-1.4.2zm-.7-2.5h1c.1 0 .3-.1.3-.1.1-.1.2-.1.2-.2.1-.1.1-.2.1-.3s0-.2-.1-.3-.1-.2-.2-.2c-.1-.1-.2-.1-.4-.1h-1v1.2h.1zm0 .5v1.5h1.2c.2 0 .3-.1.4-.1.1-.1.2-.1.3-.2.1-.1.1-.2.1-.4 0-.1 0-.3-.1-.4-.1-.1-.1-.2-.2-.2-.1-.1-.2-.1-.4-.1h-1.3v-.1zm6.2 1.5v.5h-2.6v-4.4h.6v3.8l2 .1zm2.1-3c.2-.1.5-.2.7-.4.2-.1.4-.3.6-.5h.4v4.4h-.6v-3.5c-.1 0-.1.1-.2.1-.1.1-.2.1-.2.1-.1 0-.2.1-.3.1-.1 0-.2.1-.3.1l-.1-.4zm-8.8 9.8c-.2.5-.3.9-.5 1.3-.1.4-.3.8-.4 1.1-.1.4-.3.7-.4 1s-.3.6-.4 1h-.6c-.1-.3-.3-.6-.4-1-.1-.3-.3-.7-.4-1-.1-.4-.3-.7-.4-1.1-.1-.4-.3-.8-.5-1.3h.7c.2.7.4 1.3.7 1.9.2.6.4 1.2.7 1.7.2-.5.5-1.1.7-1.7.2-.6.4-1.3.7-1.9h.5zm.5 0h.6v4.4h-.6v-4.4zm2.8 3.9c.6 0 1-.2 1-.7 0-.1 0-.2-.1-.3s-.1-.2-.2-.2c-.1-.1-.2-.1-.3-.2-.1-.1-.3-.1-.4-.2-.2-.1-.3-.1-.5-.2-.1-.1-.3-.2-.4-.2-.1-.1-.2-.2-.2-.3-.1-.1-.1-.3-.1-.5 0-.4.1-.7.4-.9s.6-.3 1.1-.3c.3 0 .5 0 .7.1s.4.1.5.2l-.2.5c-.1-.1-.2-.1-.4-.2s-.4-.1-.6-.1h-.3c-.1 0-.2.1-.3.1l-.2.2c0 .1-.1.2-.1.3s0 .2.1.3c0 .1.1.1.2.2s.2.1.3.2c.1.1.2.1.4.2s.4.2.5.2c.2.1.3.2.4.3s.2.2.3.4c.1.1.1.3.1.5 0 .4-.1.7-.4.9s-.7.3-1.2.3h-.5c-.1 0-.3-.1-.4-.1s-.2-.1-.3-.1c-.1 0-.1-.1-.2-.1l.2-.5c.1.1.2.1.4.2h.7zm5.2.5c-.1-.2-.1-.4-.2-.6-.1-.2-.1-.4-.2-.6h-2l-.4 1.1h-.6c.2-.5.3-.9.5-1.3.1-.4.3-.8.4-1.1.1-.4.3-.7.4-1s.3-.6.4-1h.6c.2.3.3.6.4 1 .1.3.3.7.4 1 .1.4.3.7.4 1.1.1.4.3.8.5 1.3h-.6v.1zm-.6-1.7c-.1-.4-.3-.7-.4-1.1-.1-.3-.3-.7-.4-1-.1.3-.3.6-.4 1-.1.3-.3.7-.4 1.1h1.6zm6-1.5h1l.2-1.1h.5l-.2 1.1h.6v.5h-.6l-.2 1.1h.9v.5h-.9l-.2 1.1h-.5l.2-1.1h-1l-.2 1.1h-.7l.2-1.1h-.6v-.5h.6l.2-1.1h-.9v-.5h.9l.2-1.1h.5v1.1zm-.4 1.5h1l.2-1.1h-1l-.2 1.1zm4.6-1.5h1l.2-1.1h.5l-.2 1.1h.6v.5h-.6l-.3 1.1h.9v.5h-.9l-.2 1.1h-.5l.2-1.1h-1l-.2 1.1h-.5l.2-1.1h-.6v-.5h.6l.2-1.1h-.9v-.5h.9l.2-1.1h.5l-.1 1.1zm-.3 1.5h1l.2-1.1h-1l-.2 1.1zm4.5-1.5h1l.2-1.1h.5l-.2 1.1h.6v.5h-.6l-.2 1.1h.9v.5h-.9l-.2 1.1h-.5l.2-1.1h-1l-.2 1.1h-.6l.2-1.1h-.8v-.5h.6l.2-1.1h-.8v-.5h.9l.2-1.1h.5v1.1zm-.3 1.5h1l.2-1.1h-1l-.2 1.1zm4.5-1.5h1l.2-1.1h.5l-.2 1.1h.6v.5h-.6l-.2 1.1h.9v.5h-.9l-.2 1.1h-.5l.2-1.1h-1l-.2 1.1h-.5l.2-1.1h-.6v-.5h.6l.2-1.1h-.9v-.5h.9l.2-1.1h.5l-.2 1.1zm-.3 1.5h1l.2-1.1h-1l-.2 1.1zm4.5-1.5h1l.2-1.1h.5l-.2 1.1h.6v.5h-.6l-.2 1.1h.9v.5h-1.1l-.2 1.1h-.5l.2-1.1h-1l-.2 1.1h-.5l.2-1.1h-.6v-.5h.6l.2-1.1h-.9v-.5h.9l.2-1.1h.5v1.1zm-.3 1.5h1l.2-1.1h-1l-.2 1.1zm4.4-1.5h1l.2-1.1h.5l-.2 1.1h.6v.5h-.6l-.2 1.1h.9v.5h-.9l-.2 1.1h-.6l.2-1.1h-1l-.2 1.1h-.5l.2-1.1h-.6v-.5h.6l.2-1.1h-.9v-.5h.9l.2-1.1h.5l-.1 1.1zm-.3 1.5h1l.2-1.1h-1l-.2 1.1zm4.2 1.2c.4 0 .6-.1.8-.2.2-.1.2-.3.2-.6 0-.2 0-.3-.1-.4l-.3-.3c-.1-.1-.2-.1-.4-.1h-.6v-.5h.5c.1 0 .2-.1.3-.1.1-.1.2-.1.2-.2.1-.1.1-.2.1-.4 0-.1 0-.2-.1-.3 0-.1-.1-.2-.2-.2-.1-.1-.1-.1-.2-.1h-.3c-.2 0-.4 0-.5.1s-.3.1-.4.2l-.2-.4c.1 0 .1-.1.2-.1s.2-.1.3-.1c.1 0 .2-.1.3-.1h.3c.2 0 .4 0 .6.1s.3.1.4.2c.1.1.2.2.2.4.1.1.1.3.1.5s-.1.4-.2.6c-.1.2-.3.3-.5.4.1 0 .2.1.3.1.1.1.2.1.3.2.1.1.1.2.2.3 0 .1.1.3.1.4 0 .2 0 .4-.1.5-.1.2-.2.3-.3.4-.1.1-.3.2-.5.3s-.4.1-.7.1h-.3c-.1 0-.2 0-.3-.1-.1 0-.2-.1-.3-.1-.1 0-.1 0-.2-.1l.1-.5c.1 0 .2.1.4.1h.8zm2.7-3c.2-.1.5-.2.7-.4.2-.1.4-.3.6-.5h.4v4.4h-.6V159c-.1 0-.1.1-.2.1-.1.1-.2.1-.2.1-.1 0-.2.1-.3.1-.1 0-.2.1-.3.1l-.1-.3zm4.4 3c.4 0 .6-.1.8-.2.2-.1.2-.3.2-.6 0-.2 0-.3-.1-.4l-.3-.3c-.1-.1-.2-.1-.4-.1h-.6v-.5h.5c.1 0 .2-.1.3-.1.1-.1.2-.1.2-.2.1-.1.1-.2.1-.4 0-.1 0-.2-.1-.3 0-.1-.1-.2-.2-.2-.1-.1-.1-.1-.2-.1h-.3c-.2 0-.4 0-.5.1s-.3.1-.4.2l-.2-.4c.1 0 .1-.1.2-.1s.2-.1.3-.1c.1 0 .2-.1.3-.1h.3c.2 0 .4 0 .6.1s.3.1.4.2c.1.1.2.2.2.4.1.1.1.3.1.5s-.1.4-.2.6c-.1.2-.3.3-.5.4.1 0 .2.1.3.1.1.1.2.1.3.2.1.1.1.2.2.3 0 .1.1.3.1.4 0 .2 0 .4-.1.5-.1.2-.2.3-.3.4-.1.1-.3.2-.5.3s-.4.1-.7.1h-.3c-.1 0-.2 0-.3-.1-.1 0-.2-.1-.3-.1-.1 0-.1 0-.2-.1l.1-.5c.1 0 .2.1.4.1h.8zm5.3-.7c0 .2 0 .3-.1.5-.1.1-.2.3-.3.4-.1.1-.3.2-.4.3-.2.1-.4.1-.6.1-.3 0-.5 0-.7-.1s-.3-.2-.4-.3-.2-.2-.2-.4c0-.1-.1-.3-.1-.4 0-.1 0-.2.1-.3s.1-.2.2-.3.1-.2.2-.3.2-.1.3-.2c-.4-.2-.6-.6-.6-1 0-.2 0-.3.1-.5.1-.1.2-.3.3-.4.1-.1.3-.2.4-.3.2-.1.3-.1.5-.1s.4 0 .6.1.3.2.4.3.2.2.2.4c0 .1.1.3.1.4 0 .1 0 .2-.1.3 0 .1-.1.2-.1.3-.1.1-.1.2-.2.2-.1.1-.2.1-.2.2.3.3.6.6.6 1.1zm-2.3.1v.2c0 .1.1.2.1.2.1.1.2.1.3.2.1 0 .2.1.4.1.1 0 .3 0 .4-.1.1 0 .2-.1.3-.2l.2-.2c.1-.1.1-.2.1-.3s0-.3-.1-.4-.1-.2-.2-.3-.2-.1-.3-.2c-.1-.1-.3-.1-.4-.1-.2.1-.3.2-.4.4-.3.3-.4.5-.4.7zm1.6-2.3v-.2c0-.1-.1-.1-.1-.2l-.2-.2c-.1 0-.2-.1-.3-.1-.1 0-.2 0-.3.1-.1 0-.2.1-.2.2-.1.1-.1.1-.1.2v.2c0 .1 0 .2.1.3 0 .1.1.2.2.3s.2.2.3.2c.1.1.3.1.4.2.2-.1.3-.2.4-.4-.3-.2-.2-.3-.2-.6zm8.6 24.6c0-.4.1-.7.2-1s.3-.5.5-.7.4-.3.7-.4c.3-.1.5-.1.8-.1s.5 0 .8.1c.2.1.5.2.7.4s.3.4.4.7.2.6.2 1c0 .3 0 .6-.1.9-.1.3-.2.5-.3.7-.1.2-.3.3-.5.5-.2.1-.4.2-.6.2 0 .1 0 .2.1.3s.2.1.3.2c.1.1.3.1.4.1.2 0 .3.1.5.1l-.1.5c-.2 0-.4-.1-.6-.1s-.4-.1-.5-.2c-.2-.1-.3-.2-.4-.3s-.2-.3-.2-.5c-.3 0-.5-.1-.7-.2-.2-.1-.4-.3-.6-.4-.2-.2-.3-.4-.4-.7-.6-.5-.6-.8-.6-1.1zm.5 0c0 .3 0 .5.1.7s.2.4.3.5c.1.2.3.3.5.3.2.1.4.1.6.1s.4 0 .6-.1.3-.2.4-.3c.1-.2.2-.3.3-.5.1-.2.1-.5.1-.7 0-.3 0-.5-.1-.7s-.2-.4-.3-.5c-.1-.2-.3-.3-.4-.3-.2-.1-.4-.1-.6-.1s-.4 0-.6.1-.3.2-.5.3c-.1.2-.2.3-.3.5.1.2-.1.4-.1.7zm7.3-2.2v.5h-1.4v3.8h-.6v-3.8h-1.4v-.5h3.4zm1.7 4.4v-1.7c-.3-.4-.6-.9-.8-1.3-.3-.4-.5-.9-.7-1.3h.7c.2.3.3.7.5 1 .2.4.4.7.6 1 .2-.3.4-.7.6-1 .2-.4.4-.7.5-1h.7c-.2.4-.5.8-.7 1.3-.3.4-.5.9-.8 1.3v1.8h-.6v-.1zm3-.4c0 .1 0 .2-.1.3s-.2.1-.3.1c-.1 0-.2 0-.3-.1-.1-.1-.1-.2-.1-.3s0-.2.1-.3.2-.1.3-.1c.1 0 .2 0 .3.1.1.1.1.2.1.3zm-73.8-2.8h1l.2-1.1h.5l-.2 1.1h.6v.5h-.6l-.2 1.1h.9v.5h-1.1l-.2 1.1h-.5l.2-1.1h-1l-.2 1.1h-.5l.2-1.1h-.6v-.5h.6l.2-1.1h-.9v-.5h.9l.2-1.1h.5v1.1zm-.3 1.5h1l.2-1.1h-1l-.2 1.1zm8.3-.5c0 .4-.1.7-.2 1s-.3.5-.5.7-.5.3-.8.4c-.3.1-.6.1-1 .1h-.6c-.2 0-.4 0-.6-.1v-4.2c.2 0 .4-.1.6-.1h.6c.4 0 .7 0 1 .1s.6.2.8.4c.2.2.4.4.5.7 0 .3.2.6.2 1zm-2.4 1.7c.6 0 1-.1 1.3-.4.3-.3.4-.7.4-1.2s-.1-.9-.4-1.2-.7-.4-1.3-.4h-.6v3.3h.2c.1 0 .2-.1.4-.1zm3.2.5v-4.4h2.7v.5h-2v1.3h1.8v.5H437v1.5h2.2v.5l-3 .1zm4.7-.5c.6 0 1-.2 1-.7 0-.1 0-.2-.1-.3s-.1-.2-.2-.2c-.1-.1-.2-.1-.3-.2-.1-.1-.3-.1-.4-.2-.2-.1-.3-.1-.5-.2-.1-.1-.3-.2-.4-.2-.1-.1-.2-.2-.2-.3-.1-.1-.1-.3-.1-.5 0-.4.1-.7.4-.9s.6-.3 1.1-.3c.3 0 .5 0 .7.1s.4.1.5.2l-.2.5c-.1-.1-.2-.1-.4-.2s-.4-.1-.6-.1h-.3c-.1 0-.2.1-.3.1l-.2.2c0 .1-.1.2-.1.3s0 .2.1.3c0 .1.1.1.2.2s.2.1.3.2c.1.1.2.1.4.2s.4.2.5.2c.2.1.3.2.4.3s.2.2.3.4c.1.1.1.3.1.5 0 .4-.1.7-.4.9s-.7.3-1.2.3h-.5c-.1 0-.3-.1-.4-.1s-.2-.1-.3-.1c-.1 0-.1-.1-.2-.1l.2-.5c.1.1.2.1.4.2h.7zm4.2.6c-.3 0-.6-.1-.8-.2-.3-.1-.5-.2-.6-.4-.2-.2-.3-.4-.4-.7s-.1-.6-.1-1 .1-.7.2-1 .3-.5.4-.7c.2-.2.4-.3.7-.4.3-.1.5-.2.8-.2h.5c.1 0 .3.1.4.1s.2.1.3.1c.1 0 .1.1.1.1l-.2.5s-.1-.1-.2-.1-.2-.1-.2-.1c-.1 0-.2-.1-.3-.1h-.3c-.2 0-.4 0-.6.1s-.3.2-.5.3c-.1.2-.2.3-.3.5-.1.2-.1.5-.1.7 0 .3 0 .5.1.7s.2.4.3.5c.1.2.3.3.5.4.2.1.4.1.6.1.3 0 .5 0 .7-.1s.3-.1.4-.2l.2.5s-.1 0-.2.1c-.1 0-.2.1-.3.1-.1 0-.2.1-.4.1s-.6.3-.7.3zm43.8 14.9c.2-.1.5-.2.7-.4.2-.1.4-.3.6-.5h.4v4.4h-.6V201c-.1 0-.1.1-.2.1-.1.1-.2.1-.2.1-.1 0-.2.1-.3.1-.1 0-.2.1-.3.1l-.1-.4zm4.2 3.1c0 .1 0 .2-.1.3s-.2.1-.3.1c-.1 0-.2 0-.3-.1-.1-.1-.1-.2-.1-.3s0-.2.1-.3.2-.1.3-.1c.1 0 .2 0 .3.1 0 .1.1.2.1.3zm.6-1.8c0-.7.1-1.3.4-1.7s.6-.6 1.1-.6.8.2 1.1.6c.3.4.4 1 .4 1.7s-.1 1.3-.4 1.7-.6.6-1.1.6-.8-.2-1.1-.6c-.3-.4-.4-1-.4-1.7zm2.3 0v-.7c0-.2-.1-.4-.1-.6-.1-.2-.2-.3-.3-.4-.1-.1-.2-.1-.4-.1s-.3 0-.4.1-.2.2-.3.4c-.1.2-.1.3-.1.6v1.4c0 .2.1.4.1.6.1.2.2.3.3.4.1.1.2.1.4.1s.3 0 .4-.1.2-.2.3-.4c.1-.2.1-.3.1-.6v-.7zm1.2 0c0-.7.1-1.3.4-1.7s.6-.6 1.1-.6.8.2 1.1.6c.3.4.4 1 .4 1.7s-.1 1.3-.4 1.7-.6.6-1.1.6-.8-.2-1.1-.6c-.2-.4-.4-1-.4-1.7zm2.4 0v-.7c0-.2-.1-.4-.1-.6-.1-.2-.2-.3-.3-.4-.1-.1-.2-.1-.4-.1s-.3 0-.4.1-.2.2-.3.4c-.1.2-.1.3-.1.6v1.4c0 .2.1.4.1.6.1.2.2.3.3.4.1.1.2.1.4.1s.3 0 .4-.1.2-.2.3-.4c.1-.2.1-.3.1-.6-.1-.2 0-.5 0-.7zm-10.7 9.4c.2-.1.5-.2.7-.4.2-.1.4-.3.6-.5h.4v4.4h-.6v-3.5c-.1 0-.1.1-.2.1-.1.1-.2.1-.2.1-.1 0-.2.1-.3.1-.1 0-.2.1-.3.1l-.1-.4zm4.2 3.1c0 .1 0 .2-.1.3s-.2.1-.3.1c-.1 0-.2 0-.3-.1-.1-.1-.1-.2-.1-.3s0-.2.1-.3.2-.1.3-.1c.1 0 .2 0 .3.1 0 .1.1.2.1.3zm.6-1.8c0-.7.1-1.3.4-1.7s.6-.6 1.1-.6.8.2 1.1.6c.3.4.4 1 .4 1.7s-.1 1.3-.4 1.7-.6.6-1.1.6-.8-.2-1.1-.6c-.3-.4-.4-1-.4-1.7zm2.3 0v-.7c0-.2-.1-.4-.1-.6-.1-.2-.2-.3-.3-.4-.1-.1-.2-.1-.4-.1s-.3 0-.4.1-.2.2-.3.4c-.1.2-.1.3-.1.6v1.4c0 .2.1.4.1.6.1.2.2.3.3.4.1.1.2.1.4.1s.3 0 .4-.1.2-.2.3-.4c.1-.2.1-.3.1-.6v-.7zm1.2 0c0-.7.1-1.3.4-1.7s.6-.6 1.1-.6.8.2 1.1.6c.3.4.4 1 .4 1.7s-.1 1.3-.4 1.7-.6.6-1.1.6-.8-.2-1.1-.6c-.2-.4-.4-1-.4-1.7zm2.4 0v-.7c0-.2-.1-.4-.1-.6-.1-.2-.2-.3-.3-.4-.1-.1-.2-.1-.4-.1s-.3 0-.4.1-.2.2-.3.4c-.1.2-.1.3-.1.6v1.4c0 .2.1.4.1.6.1.2.2.3.3.4.1.1.2.1.4.1s.3 0 .4-.1.2-.2.3-.4c.1-.2.1-.3.1-.6-.1-.3 0-.5 0-.7zm-10.7 9.4c.2-.1.5-.2.7-.4.2-.1.4-.3.6-.5h.4v4.4h-.6v-3.5c-.1 0-.1.1-.2.1-.1.1-.2.1-.2.1-.1 0-.2.1-.3.1-.1 0-.2.1-.3.1l-.1-.4zm4.2 3.1c0 .1 0 .2-.1.3s-.2.1-.3.1c-.1 0-.2 0-.3-.1-.1-.1-.1-.2-.1-.3s0-.2.1-.3.2-.1.3-.1c.1 0 .2 0 .3.1 0 .1.1.2.1.3zm.6-1.8c0-.7.1-1.3.4-1.7s.6-.6 1.1-.6.8.2 1.1.6c.3.4.4 1 .4 1.7s-.1 1.3-.4 1.7-.6.6-1.1.6-.8-.2-1.1-.6c-.3-.5-.4-1-.4-1.7zm2.3 0v-.7c0-.2-.1-.4-.1-.6-.1-.2-.2-.3-.3-.4-.1-.1-.2-.1-.4-.1s-.3 0-.4.1-.2.2-.3.4c-.1.2-.1.3-.1.6v1.4c0 .2.1.4.1.6.1.2.2.3.3.4.1.1.2.1.4.1s.3 0 .4-.1.2-.2.3-.4c.1-.2.1-.3.1-.6v-.7zm1.2 0c0-.7.1-1.3.4-1.7s.6-.6 1.1-.6.8.2 1.1.6c.3.4.4 1 .4 1.7s-.1 1.3-.4 1.7-.6.6-1.1.6-.8-.2-1.1-.6c-.2-.5-.4-1-.4-1.7zm2.4 0v-.7c0-.2-.1-.4-.1-.6-.1-.2-.2-.3-.3-.4-.1-.1-.2-.1-.4-.1s-.3 0-.4.1-.2.2-.3.4c-.1.2-.1.3-.1.6v1.4c0 .2.1.4.1.6.1.2.2.3.3.4.1.1.2.1.4.1s.3 0 .4-.1.2-.2.3-.4c.1-.2.1-.3.1-.6-.1-.3 0-.5 0-.7zm-10.7 9.4c.2-.1.5-.2.7-.4.2-.1.4-.3.6-.5h.4v4.4h-.6V233c-.1 0-.1.1-.2.1-.1.1-.2.1-.2.1-.1 0-.2.1-.3.1-.1 0-.2.1-.3.1l-.1-.3zm4.2 3.1c0 .1 0 .2-.1.3s-.2.1-.3.1c-.1 0-.2 0-.3-.1-.1-.1-.1-.2-.1-.3s0-.2.1-.3.2-.1.3-.1c.1 0 .2 0 .3.1 0 .1.1.2.1.3zm.6-1.9c0-.7.1-1.3.4-1.7s.6-.6 1.1-.6.8.2 1.1.6c.3.4.4 1 .4 1.7s-.1 1.3-.4 1.7-.6.6-1.1.6-.8-.2-1.1-.6c-.3-.4-.4-.9-.4-1.7zm2.3 0v-.7c0-.2-.1-.4-.1-.6-.1-.2-.2-.3-.3-.4-.1-.1-.2-.1-.4-.1s-.3 0-.4.1-.2.2-.3.4c-.1.2-.1.3-.1.6v1.4c0 .2.1.4.1.6.1.2.2.3.3.4.1.1.2.1.4.1s.3 0 .4-.1.2-.2.3-.4c.1-.2.1-.3.1-.6v-.7zm1.2 0c0-.7.1-1.3.4-1.7s.6-.6 1.1-.6.8.2 1.1.6c.3.4.4 1 .4 1.7s-.1 1.3-.4 1.7-.6.6-1.1.6-.8-.2-1.1-.6c-.2-.4-.4-.9-.4-1.7zm2.4 0v-.7c0-.2-.1-.4-.1-.6-.1-.2-.2-.3-.3-.4-.1-.1-.2-.1-.4-.1s-.3 0-.4.1-.2.2-.3.4c-.1.2-.1.3-.1.6v1.4c0 .2.1.4.1.6.1.2.2.3.3.4.1.1.2.1.4.1s.3 0 .4-.1.2-.2.3-.4c.1-.2.1-.3.1-.6-.1-.2 0-.4 0-.7zm43.6-30.4c.3 0 .5-.1.7-.2.1-.1.2-.2.2-.4 0-.1 0-.2-.1-.3s-.1-.2-.2-.2c-.1-.1-.2-.1-.3-.2-.1-.1-.3-.1-.4-.1-.1 0-.3-.1-.4-.2-.1-.1-.2-.1-.3-.2-.1-.1-.2-.2-.2-.3-.1-.1-.1-.3-.1-.4 0-.3.1-.5.3-.7s.4-.3.8-.4v-.7h.5v.7c.2 0 .4 0 .5.1.2 0 .3.1.4.1l-.2.5c-.1 0-.2-.1-.4-.1s-.3-.1-.6-.1-.4 0-.6.1c-.1.1-.2.2-.2.4 0 .1 0 .2.1.2 0 .1.1.1.2.2s.2.1.3.1.2.1.3.1c.2.1.3.1.5.2.1.1.3.1.4.2l.3.3c.1.1.1.3.1.5 0 .3-.1.5-.3.7s-.5.3-.8.3v.8h-.5v-.8c-.3 0-.5 0-.7-.1s-.3-.1-.4-.2l.2-.5c.1.1.3.1.5.2 0 .4.2.4.4.4zm2.3-1.2c0-.4.1-.8.2-1.1.1-.3.3-.6.5-.8s.5-.4.8-.5.7-.2 1-.2v.5c-.2 0-.5 0-.7.1s-.4.1-.5.2c-.2.1-.3.3-.4.4-.1.2-.2.4-.2.6.1-.1.2-.1.4-.1.1 0 .3-.1.4-.1.2 0 .5 0 .6.1.2.1.3.2.4.3.1.1.2.3.2.4 0 .2.1.3.1.5s0 .3-.1.5-.1.3-.2.5c-.1.1-.3.3-.4.3-.2.1-.4.1-.6.1-.5 0-.8-.2-1.1-.5-.2-.1-.4-.6-.4-1.2zm1.5-.4h-.4c-.1 0-.3.1-.4.1v.7c0 .2.1.3.1.4l.3.3c.1.1.2.1.4.1.1 0 .3 0 .4-.1.1-.1.2-.1.2-.2.1-.1.1-.2.1-.3v-.3c0-.3-.1-.5-.2-.7 0 .1-.3 0-.5 0zm2.9 1.8c0 .1 0 .2-.1.3s-.2.1-.3.1-.2 0-.3-.1-.1-.2-.1-.3 0-.2.1-.3.2-.1.3-.1.2 0 .3.1.1.2.1.3zm.6-1.8c0-.7.1-1.3.4-1.7.3-.4.6-.6 1.1-.6s.8.2 1.1.6c.3.4.4 1 .4 1.7s-.1 1.3-.4 1.7c-.3.4-.6.6-1.1.6s-.8-.2-1.1-.6c-.2-.4-.4-1-.4-1.7zm2.4 0v-.7c0-.2-.1-.4-.1-.6-.1-.2-.2-.3-.3-.4-.1-.1-.2-.1-.4-.1s-.3 0-.4.1c-.1.1-.2.2-.3.4s-.1.3-.1.6v1.4c0 .2.1.4.1.6.1.2.2.3.3.4.1.1.2.1.4.1s.3 0 .4-.1c.1-.1.2-.2.3-.4s.1-.3.1-.6v-.7zm1.1 0c0-.7.1-1.3.4-1.7.3-.4.6-.6 1.1-.6s.8.2 1.1.6c.3.4.4 1 .4 1.7s-.1 1.3-.4 1.7c-.3.4-.6.6-1.1.6s-.8-.2-1.1-.6c-.2-.4-.4-1-.4-1.7zm2.4 0v-.7c0-.2-.1-.4-.1-.6-.1-.2-.2-.3-.3-.4-.1-.1-.2-.1-.4-.1s-.3 0-.4.1c-.1.1-.2.2-.3.4s-.1.3-.1.6v1.4c0 .2.1.4.1.6.1.2.2.3.3.4.1.1.2.1.4.1s.3 0 .4-.1c.1-.1.2-.2.3-.4s.1-.3.1-.6v-.7zm-16.6 12.3c.3 0 .5-.1.7-.2.1-.1.2-.2.2-.4 0-.1 0-.2-.1-.3s-.1-.2-.2-.2c-.1-.1-.2-.1-.3-.2-.1-.1-.3-.1-.4-.1-.1 0-.3-.1-.4-.2-.1-.1-.2-.1-.3-.2-.1-.1-.2-.2-.2-.3-.1-.1-.1-.3-.1-.4 0-.3.1-.5.3-.7s.4-.3.8-.4v-.7h.5v.7c.2 0 .4 0 .5.1.2 0 .3.1.4.1l-.1.5c-.1 0-.2-.1-.4-.1s-.3-.1-.6-.1-.4 0-.6.1c-.1.1-.2.2-.2.4 0 .1 0 .2.1.2 0 .1.1.1.2.2s.2.1.3.1.2.1.3.1c.2.1.3.1.5.2.1.1.3.1.4.2l.3.3c.1.1.1.3.1.5 0 .3-.1.5-.3.7s-.5.3-.8.3v.8h-.5v-.8c-.3 0-.5 0-.7-.1s-.3-.1-.4-.2l.2-.5c.1.1.3.1.5.2-.3.3 0 .4.3.4zm2.1-1l.3-.6c.1-.2.3-.5.5-.8s.4-.5.6-.8c.2-.3.4-.5.6-.7h.6v2.8h.5v.5h-.5v1.1h-.6V214H542l-.1-.4zm1.9-2.1l-.4.4c-.1.2-.3.3-.4.5l-.3.6-.3.6h1.4v-2.1zm4.4 1c0 .9-.2 1.5-.6 2-.4.4-1.1.7-1.9.7v-.5c.3 0 .5 0 .7-.1s.4-.1.6-.2c.2-.1.3-.3.4-.4.1-.2.2-.4.2-.6-.1.1-.2.1-.4.1h-.4c-.2 0-.5 0-.6-.1-.2-.1-.3-.2-.4-.3s-.2-.3-.2-.4c0-.2-.1-.3-.1-.5s0-.3.1-.5.1-.3.2-.5.3-.3.4-.3c.2-.1.4-.1.6-.1.2 0 .4 0 .6.1.2.1.3.2.5.4l.3.6v.6zm-1.3.5h.4c.1 0 .3-.1.4-.1v-.7c0-.2-.1-.3-.1-.4s-.2-.2-.3-.3-.2-.1-.4-.1c-.1 0-.3 0-.4.1-.1.1-.2.1-.2.2-.1.1-.1.2-.1.3v.3c0 .3.1.5.2.6.1 0 .3.1.5.1zm3 1.8c0 .1 0 .2-.1.3s-.2.1-.3.1-.2 0-.3-.1-.1-.2-.1-.3 0-.2.1-.3.2-.1.3-.1.2 0 .3.1.1.2.1.3zm.6-1.8c0-.7.1-1.3.4-1.7.3-.4.6-.6 1.1-.6s.8.2 1.1.6c.3.4.4 1 .4 1.7s-.1 1.3-.4 1.7c-.3.4-.6.6-1.1.6s-.8-.2-1.1-.6c-.2-.4-.4-1-.4-1.7zm2.4 0v-.7c0-.2-.1-.4-.1-.6-.1-.2-.2-.3-.3-.4-.1-.1-.2-.1-.4-.1s-.3 0-.4.1c-.1.1-.2.2-.3.4s-.1.3-.1.6v1.4c0 .2.1.4.1.6.1.2.2.3.3.4.1.1.2.1.4.1s.3 0 .4-.1c.1-.1.2-.2.3-.4s.1-.3.1-.6v-.7zm1.1 0c0-.7.1-1.3.4-1.7.3-.4.6-.6 1.1-.6s.8.2 1.1.6c.3.4.4 1 .4 1.7s-.1 1.3-.4 1.7c-.3.4-.6.6-1.1.6s-.8-.2-1.1-.6c-.2-.4-.4-1-.4-1.7zm2.4 0v-.7c0-.2-.1-.4-.1-.6-.1-.2-.2-.3-.3-.4-.1-.1-.2-.1-.4-.1s-.3 0-.4.1c-.1.1-.2.2-.3.4s-.1.3-.1.6v1.4c0 .2.1.4.1.6.1.2.2.3.3.4.1.1.2.1.4.1s.3 0 .4-.1c.1-.1.2-.2.3-.4s.1-.3.1-.6v-.7zm-13.2 12.2c.3 0 .5-.1.7-.2.1-.1.2-.2.2-.4 0-.1 0-.2-.1-.3s-.1-.2-.2-.2c-.1-.1-.2-.1-.3-.2-.1-.1-.3-.1-.4-.1-.1 0-.3-.1-.4-.2-.1-.1-.2-.1-.3-.2-.1-.1-.2-.2-.2-.3-.1-.1-.1-.3-.1-.4 0-.3.1-.5.3-.7s.4-.3.8-.4v-.6h.5v.7c.2 0 .4 0 .5.1.2 0 .3.1.4.1l-.1.5c-.1 0-.2-.1-.4-.1s-.3-.1-.6-.1-.4 0-.6.1c-.1.1-.2.2-.2.4 0 .1 0 .2.1.2 0 .1.1.1.2.2s.2.1.3.1.2.1.3.1c.2.1.3.1.5.2.1.1.3.1.4.2l.3.3c.1.1.1.3.1.5 0 .3-.1.5-.3.7s-.5.3-.8.3v.8h-.5v-.8c-.3 0-.5 0-.7-.1s-.3-.1-.4-.2l.2-.5c.1.1.3.1.5.2-.1.3.1.3.3.3zm3 .6c0-.3.1-.7.2-1.1.1-.4.2-.7.3-1.1.1-.3.3-.7.5-1s.3-.5.5-.7h-2.1v-.5h2.8v.5c-.1.2-.3.4-.5.7s-.3.6-.5.9c-.1.3-.3.7-.4 1.1-.1.4-.2.8-.2 1.2h-.6zm3.7-.3c0 .1 0 .2-.1.3s-.2.1-.3.1-.2 0-.3-.1-.1-.2-.1-.3 0-.2.1-.3.2-.1.3-.1.2 0 .3.1.1.2.1.3zm1.6-2.3c.6 0 1.1.2 1.4.4.3.3.4.6.4 1 0 .2 0 .4-.1.5-.1.2-.2.3-.3.4-.1.1-.3.2-.5.3s-.4.1-.7.1h-.3c-.1 0-.2 0-.3-.1-.1 0-.2-.1-.3-.1s-.1 0-.2-.1l.1-.5c.1 0 .2.1.3.1.2.1.4.1.6.1.2 0 .3 0 .5-.1.1 0 .2-.1.3-.2.1-.1.1-.2.2-.2 0-.1.1-.2.1-.3 0-.2 0-.3-.1-.4l-.3-.3c-.1-.1-.3-.1-.6-.2s-.5-.1-.9-.1c0-.2 0-.4.1-.6v-1.5h2.1v.5h-1.6v.9c.1.2.1.3.1.4zm2.5.5c0-.7.1-1.3.4-1.7.3-.4.6-.6 1.1-.6s.8.2 1.1.6c.3.4.4 1 .4 1.7s-.1 1.3-.4 1.7c-.3.4-.6.6-1.1.6s-.8-.2-1.1-.6c-.2-.5-.4-1-.4-1.7zm2.4 0v-.7c0-.2-.1-.4-.1-.6-.1-.2-.2-.3-.3-.4-.1-.1-.2-.1-.4-.1s-.3 0-.4.1c-.1.1-.2.2-.3.4s-.1.3-.1.6v1.4c0 .2.1.4.1.6.1.2.2.3.3.4.1.1.2.1.4.1s.3 0 .4-.1c.1-.1.2-.2.3-.4s.1-.3.1-.6v-.7zm-13.2 12.2c.3 0 .5-.1.7-.2.1-.1.2-.2.2-.4 0-.1 0-.2-.1-.3s-.1-.2-.2-.2c-.1-.1-.2-.1-.3-.2-.1-.1-.3-.1-.4-.1-.1 0-.3-.1-.4-.2-.1-.1-.2-.1-.3-.2-.1-.1-.2-.2-.2-.3-.1-.1-.1-.3-.1-.4 0-.3.1-.5.3-.7s.4-.3.8-.4v-.7h.5v.7c.2 0 .4 0 .5.1.2 0 .3.1.4.1l-.2.5c-.1 0-.2-.1-.4-.1s-.3-.1-.6-.1-.4 0-.6.1c-.1.1-.2.2-.2.4 0 .1 0 .2.1.2 0 .1.1.1.2.2s.2.1.3.1.2.1.3.1c.2.1.3.1.5.2.1.1.3.1.4.2l.3.3c.1.1.1.3.1.5 0 .3-.1.5-.3.7s-.5.3-.8.3v.8h-.5v-.8c-.3 0-.5 0-.7-.1s-.3-.1-.4-.2l.2-.5c.1.1.3.1.5.2 0 .4.2.4.4.4zm2.3-1.1c0-.4.1-.8.2-1.1.1-.3.3-.6.5-.8s.5-.4.8-.5.7-.2 1-.2v.5c-.2 0-.5 0-.7.1s-.4.1-.5.2c-.2.1-.3.3-.4.4-.1.2-.2.4-.2.6.1-.1.2-.1.4-.1.1 0 .3-.1.4-.1.2 0 .5 0 .6.1.2.1.3.2.4.3.1.1.2.3.2.4 0 .2.1.3.1.5s0 .3-.1.5-.1.3-.2.5c-.1.1-.3.3-.4.3-.2.1-.4.1-.6.1-.5 0-.8-.2-1.1-.5-.2-.2-.4-.7-.4-1.2zm1.5-.5h-.4c-.1 0-.3.1-.4.1v.7c0 .2.1.3.1.4l.3.3c.1.1.2.1.4.1.1 0 .3 0 .4-.1.1-.1.2-.1.2-.2.1-.1.1-.2.1-.3v-.3c0-.3-.1-.5-.2-.7 0 .1-.3 0-.5 0zm2.9 1.9c0 .1 0 .2-.1.3s-.2.1-.3.1-.2 0-.3-.1-.1-.2-.1-.3 0-.2.1-.3.2-.1.3-.1.2 0 .3.1.1.2.1.3zm1.6-2.4c.6 0 1.1.2 1.4.4.3.3.4.6.4 1 0 .2 0 .4-.1.5-.1.2-.2.3-.3.4-.1.1-.3.2-.5.3s-.4.1-.7.1h-.3c-.1 0-.2 0-.3-.1-.1 0-.2-.1-.3-.1s-.1 0-.2-.1l.1-.5c.1 0 .2.1.3.1.2.1.4.1.6.1.2 0 .3 0 .5-.1.1 0 .2-.1.3-.2.1-.1.1-.2.2-.2 0-.1.1-.2.1-.3 0-.2 0-.3-.1-.4l-.3-.3c-.1-.1-.3-.1-.6-.2s-.5-.1-.9-.1c0-.2 0-.4.1-.6V232h2.1v.5h-1.6v.9c.1.3.1.4.1.4zm2.5.5c0-.7.1-1.3.4-1.7.3-.4.6-.6 1.1-.6s.8.2 1.1.6c.3.4.4 1 .4 1.7s-.1 1.3-.4 1.7c-.3.4-.6.6-1.1.6s-.8-.2-1.1-.6c-.2-.4-.4-.9-.4-1.7zm2.4 0v-.7c0-.2-.1-.4-.1-.6-.1-.2-.2-.3-.3-.4-.1-.1-.2-.1-.4-.1s-.3 0-.4.1c-.1.1-.2.2-.3.4s-.1.3-.1.6v1.4c0 .2.1.4.1.6.1.2.2.3.3.4.1.1.2.1.4.1s.3 0 .4-.1c.1-.1.2-.2.3-.4s.1-.3.1-.6v-.7zm-25.5 24.9c.5 0 .8-.1 1-.2.2-.2.3-.3.3-.6 0-.2 0-.3-.1-.5l-.3-.3c-.1-.1-.3-.2-.5-.3-.2-.1-.4-.1-.6-.2-.2-.1-.4-.1-.6-.2-.2-.1-.3-.2-.5-.3l-.4-.4c-.1-.2-.1-.4-.1-.6 0-.4.1-.8.4-1.1.3-.3.7-.5 1.2-.5v-1.1h.8v1.1c.3 0 .5 0 .8.1.2.1.4.1.6.2l-.2.7c-.2-.1-.3-.1-.6-.2-.2-.1-.5-.1-.8-.1-.4 0-.7.1-.9.2-.2.1-.3.3-.3.6 0 .1 0 .3.1.4.1.1.1.2.3.3.1.1.2.1.4.2s.3.1.5.2.5.2.7.3c.2.1.4.2.6.4.2.1.3.3.4.5.1.2.2.4.2.7 0 .4-.1.8-.4 1.1-.3.3-.7.4-1.3.5v1.2h-.8V260c-.4 0-.8-.1-1.1-.1-.3-.1-.5-.2-.6-.2l.2-.7c.2.1.4.2.7.2h.9zm4.3.9c0-.5.1-1 .3-1.6.1-.6.3-1.1.5-1.6s.4-1 .7-1.5c.2-.4.5-.8.7-1.1h-3.2v-.8h4.2v.7c-.2.2-.4.6-.7 1s-.5.9-.7 1.4-.4 1.1-.6 1.7c-.2.6-.3 1.2-.3 1.8h-.9zm5.3 0c0-.5.1-1 .3-1.6.1-.6.3-1.1.5-1.6s.4-1 .7-1.5c.2-.4.5-.8.7-1.1h-3.2v-.8h4.2v.7c-.2.2-.4.6-.7 1s-.5.9-.7 1.4-.4 1.1-.6 1.7c-.2.6-.3 1.2-.3 1.8h-.9zm5.7-.5c0 .2-.1.3-.2.4-.1.1-.3.2-.5.2s-.3-.1-.5-.2c-.1-.1-.2-.3-.2-.4 0-.2.1-.3.2-.4.1-.1.3-.2.5-.2s.3.1.5.2.2.3.2.4zm1-2.7c0-1.1.2-1.9.6-2.5.4-.6.9-.9 1.6-.9s1.2.3 1.6.9c.4.6.6 1.4.6 2.5s-.2 1.9-.6 2.5c-.4.6-.9.9-1.6.9s-1.2-.3-1.6-.9-.6-1.4-.6-2.5zm3.5 0c0-.4 0-.7-.1-1 0-.3-.1-.6-.2-.8-.1-.2-.2-.4-.4-.6-.2-.1-.4-.2-.6-.2-.2 0-.4.1-.6.2-.2.1-.3.3-.4.6-.1.2-.2.5-.2.8 0 .3-.1.7-.1 1 0 .4 0 .7.1 1 0 .3.1.6.2.8.1.2.2.4.4.6.2.1.4.2.6.2.2 0 .4-.1.6-.2.2-.1.3-.3.4-.6.1-.2.2-.5.2-.8-.1-.3.1-.7.1-1zm1.8 0c0-1.1.2-1.9.6-2.5.4-.6.9-.9 1.6-.9.7 0 1.2.3 1.6.9.4.6.6 1.4.6 2.5s-.2 1.9-.6 2.5-.9.9-1.6.9c-.7 0-1.2-.3-1.6-.9s-.6-1.4-.6-2.5zm3.5 0c0-.4 0-.7-.1-1 0-.3-.1-.6-.2-.8-.1-.2-.2-.4-.4-.6-.2-.1-.4-.2-.6-.2-.2 0-.4.1-.6.2-.2.1-.3.3-.4.6-.1.2-.2.5-.2.8 0 .3-.1.7-.1 1 0 .4 0 .7.1 1 0 .3.1.6.2.8.1.2.2.4.4.6.2.1.4.2.6.2.2 0 .4-.1.6-.2.2-.1.3-.3.4-.6.1-.2.2-.5.2-.8s.1-.7.1-1zM533.9 186c-.1-.2-.1-.4-.2-.6-.1-.2-.1-.4-.2-.6h-2l-.4 1.1h-.6c.2-.5.3-.9.5-1.3.1-.4.3-.8.4-1.1.1-.4.3-.7.4-1 .1-.3.3-.6.4-1h.6c.2.3.3.6.4 1 .1.3.3.7.4 1 .1.4.3.7.4 1.1.1.4.3.8.5 1.3h-.6v.1zm-.7-1.7c-.1-.4-.3-.7-.4-1.1-.1-.3-.3-.7-.4-1-.1.3-.3.6-.4 1-.1.3-.3.7-.4 1.1h1.6zm3.8 1.1c0-.1-.1-.2-.2-.4s-.1-.3-.2-.5l-.3-.6c-.1-.2-.2-.4-.3-.5-.1-.2-.2-.3-.2-.5-.1-.1-.1-.2-.2-.3 0 .5-.1 1-.1 1.6s-.1 1.2-.1 1.7h-.6c0-.4 0-.8.1-1.1 0-.4 0-.8.1-1.1 0-.4.1-.7.1-1.1 0-.4.1-.7.1-1h.5c.1.2.2.4.4.7.1.3.3.5.4.8.1.3.3.5.4.8.1.3.2.5.3.8.1-.2.2-.5.3-.8s.2-.5.4-.8c.1-.3.3-.5.4-.8.1-.3.3-.5.4-.7h.5c.1 1.4.2 2.9.3 4.4h-.5c0-.6 0-1.2-.1-1.7 0-.6-.1-1.1-.1-1.6 0 .1-.1.2-.2.3-.1.1-.1.3-.2.5s-.2.3-.3.5l-.3.6c-.1.2-.2.3-.2.5-.1.2-.1.3-.2.4l-.4-.1zm3.4-1.6c0-.4.1-.7.2-1 .1-.3.3-.5.5-.7s.4-.3.7-.4c.3-.1.5-.1.8-.1s.5 0 .8.1c.2.1.5.2.7.4s.3.4.4.7c.1.3.2.6.2 1s-.1.7-.2 1c-.1.3-.3.5-.4.7-.2.2-.4.3-.7.4-.2.1-.5.1-.8.1s-.6 0-.8-.1c-.3-.1-.5-.2-.7-.4s-.3-.4-.5-.7c-.1-.3-.2-.7-.2-1zm.6 0c0 .3 0 .5.1.7s.2.4.3.5c.1.2.3.3.5.3.2.1.4.1.6.1.2 0 .4 0 .6-.1.2-.1.3-.2.4-.3.1-.2.2-.3.3-.5s.1-.5.1-.7c0-.3 0-.5-.1-.7s-.2-.4-.3-.5c-.1-.2-.3-.3-.4-.3-.2-.1-.4-.1-.6-.1-.2 0-.4 0-.6.1-.2.1-.3.2-.5.3-.1.2-.2.3-.3.5s-.1.4-.1.7zm6 2.3c-.3 0-.5 0-.7-.1s-.4-.2-.5-.4-.2-.3-.3-.5-.1-.4-.1-.7v-2.7h.6v2.7c0 .4.1.8.3.9.2.2.4.3.8.3.2 0 .3 0 .4-.1.1 0 .2-.1.3-.2.1-.1.2-.2.2-.4.1-.2.1-.3.1-.6v-2.7h.6v2.7c0 .2 0 .5-.1.7s-.2.4-.3.5c-.1.2-.3.3-.5.4-.3.1-.4.2-.8.2zm5.8-.1c-.1-.2-.2-.3-.3-.5s-.2-.4-.4-.6c-.1-.2-.3-.4-.4-.6-.1-.2-.3-.4-.4-.6-.1-.2-.3-.4-.4-.6-.1-.2-.3-.3-.4-.5v3.4h-.6v-4.4h.5c.2.2.4.5.6.7.2.3.4.6.7.9l.6.9c.2.3.4.5.5.8v-3.2h.6v4.4l-.6-.1zm4.4-4.4v.5h-1.4v3.8h-.6v-3.8h-1.4v-.5h3.4zm-126.4 72v.8h-2.1v5.7h-.9v-5.7h-2.1v-.8h5.1zm.4 3.3c0-.6.1-1.1.2-1.5.2-.4.4-.8.7-1.1.3-.3.6-.5 1-.6s.8-.2 1.2-.2c.4 0 .8.1 1.2.2.4.1.7.4 1 .6.3.3.5.6.7 1.1.2.4.2.9.2 1.5s-.1 1.1-.2 1.5c-.2.4-.4.8-.7 1.1-.3.3-.6.5-1 .6s-.8.2-1.2.2c-.4 0-.8-.1-1.2-.2-.4-.1-.7-.4-1-.6-.3-.3-.5-.6-.7-1.1s-.2-1-.2-1.5zm1 0c0 .4.1.8.2 1.1.1.3.2.6.4.8.2.2.4.4.7.5.3.1.6.2.9.2s.6-.1.9-.2.5-.3.7-.5.3-.5.4-.8.2-.7.2-1.1-.1-.8-.2-1.1c-.1-.3-.2-.6-.4-.8-.2-.2-.4-.4-.7-.5-.3-.1-.6-.2-.9-.2s-.6.1-.9.2c-.3.1-.5.3-.7.5s-.3.5-.4.8c-.2.3-.2.7-.2 1.1zm10.7-3.3v.8h-2.1v5.7h-.9v-5.7h-2.1v-.8h5.1zm4.7 6.5c-.1-.3-.2-.6-.3-.8-.1-.3-.2-.6-.3-.8h-3l-.6 1.7h-1c.3-.7.5-1.3.7-1.9s.4-1.1.6-1.7l.6-1.5c.2-.5.4-1 .7-1.4h.8c.2.5.4.9.6 1.4l.6 1.5c.2.5.4 1.1.6 1.7s.5 1.2.7 1.9h-.7v-.1zm-.8-2.4c-.2-.5-.4-1.1-.6-1.6l-.6-1.5-.6 1.5c-.2.5-.4 1-.6 1.6h2.4zm6.7 1.7v.8h-4v-6.5h.9v5.7h3.1zm86.3 16.7c.3 0 .5-.1.7-.2.1-.1.2-.2.2-.4 0-.1 0-.2-.1-.3-.1-.1-.1-.2-.2-.2-.1-.1-.2-.1-.3-.2s-.3-.1-.4-.1c-.1 0-.3-.1-.4-.2-.1-.1-.2-.1-.3-.2s-.2-.2-.2-.3c-.1-.1-.1-.3-.1-.4 0-.3.1-.5.3-.7s.4-.3.8-.4v-.7h.5v.7c.2 0 .4 0 .5.1.2 0 .3.1.4.1l-.1.5c-.1 0-.2-.1-.4-.1s-.3-.1-.6-.1-.4 0-.6.1c-.1.1-.2.2-.2.4 0 .1 0 .2.1.2 0 .1.1.1.2.2s.2.1.3.1.2.1.3.1c.2.1.3.1.5.2.1.1.3.1.4.2l.3.3c.1.1.1.3.1.5 0 .3-.1.5-.3.7s-.5.3-.8.3v.8h-.5v-.8c-.3 0-.5 0-.7-.1s-.3-.1-.4-.2l.2-.5c.1.1.3.1.5.2-.3.3 0 .4.3.4zm2.2-1.2c0-.4.1-.8.2-1.1.1-.3.3-.6.5-.8.2-.2.5-.4.8-.5s.7-.2 1-.2v.5c-.2 0-.5 0-.7.1s-.4.1-.5.2c-.2.1-.3.3-.4.4-.1.2-.2.4-.2.6.1-.1.2-.1.4-.1.1 0 .3-.1.4-.1.2 0 .5 0 .6.1.2.1.3.2.4.3.1.1.2.3.2.4 0 .2.1.3.1.5s0 .3-.1.5-.1.3-.2.5c-.1.1-.3.3-.4.3-.2.1-.4.1-.6.1-.5 0-.8-.2-1.1-.5-.2-.2-.4-.6-.4-1.2zm1.5-.4h-.4c-.1 0-.3.1-.4.1v.7c0 .2.1.3.1.4l.3.3c.1.1.2.1.4.1.1 0 .3 0 .4-.1.1-.1.2-.1.2-.2.1-.1.1-.2.1-.3v-.3c0-.3-.1-.5-.2-.7-.1.1-.3 0-.5 0zm4.7-.4c0 .9-.2 1.5-.6 2-.4.4-1.1.7-1.9.7v-.5c.3 0 .5 0 .7-.1s.4-.1.6-.2c.2-.1.3-.3.4-.4.1-.2.2-.4.2-.6-.1.1-.2.1-.4.1h-.4c-.2 0-.5 0-.6-.1-.2-.1-.3-.2-.4-.3s-.2-.3-.2-.4c0-.2-.1-.3-.1-.5s0-.3.1-.5.1-.3.2-.5c.1-.1.3-.3.4-.3.2-.1.4-.1.6-.1.2 0 .4 0 .6.1.2.1.3.2.5.4l.3.6v.6zm-1.3.4h.4c.1 0 .3-.1.4-.1v-.7c0-.2-.1-.3-.1-.4s-.2-.2-.3-.3c-.1-.1-.2-.1-.4-.1-.1 0-.3 0-.4.1-.1.1-.2.1-.2.2-.1.1-.1.2-.1.3v.3c0 .3.1.5.2.6.1 0 .3.1.5.1zm3 1.8c0 .1 0 .2-.1.3-.1.1-.2.1-.3.1s-.2 0-.3-.1-.1-.2-.1-.3c0-.1 0-.2.1-.3.1-.1.2-.1.3-.1s.2 0 .3.1.1.2.1.3zm.6-1.8c0-.7.1-1.3.4-1.7.3-.4.6-.6 1.1-.6s.8.2 1.1.6.4 1 .4 1.7-.1 1.3-.4 1.7c-.3.4-.6.6-1.1.6s-.8-.2-1.1-.6c-.2-.4-.4-1-.4-1.7zm2.4 0v-.7c0-.2-.1-.4-.1-.6-.1-.2-.2-.3-.3-.4s-.2-.1-.4-.1-.3 0-.4.1c-.1.1-.2.2-.3.4-.1.2-.1.3-.1.6v1.4c0 .2.1.4.1.6.1.2.2.3.3.4s.2.1.4.1.3 0 .4-.1c.1-.1.2-.2.3-.4.1-.2.1-.3.1-.6v-.7zm1.1 0c0-.7.1-1.3.4-1.7.3-.4.6-.6 1.1-.6s.8.2 1.1.6.4 1 .4 1.7-.1 1.3-.4 1.7c-.3.4-.6.6-1.1.6s-.8-.2-1.1-.6c-.2-.4-.4-1-.4-1.7zm2.4 0v-.7c0-.2-.1-.4-.1-.6-.1-.2-.2-.3-.3-.4s-.2-.1-.4-.1-.3 0-.4.1c-.1.1-.2.2-.3.4-.1.2-.1.3-.1.6v1.4c0 .2.1.4.1.6.1.2.2.3.3.4s.2.1.4.1.3 0 .4-.1c.1-.1.2-.2.3-.4.1-.2.1-.3.1-.6v-.7zm-13.2 12.3c.3 0 .5-.1.7-.2.1-.1.2-.2.2-.4 0-.1 0-.2-.1-.3-.1-.1-.1-.2-.2-.2-.1-.1-.2-.1-.3-.2s-.3-.1-.4-.1c-.1 0-.3-.1-.4-.2-.1-.1-.2-.1-.3-.2s-.2-.2-.2-.3c-.1-.1-.1-.3-.1-.4 0-.3.1-.5.3-.7s.4-.3.8-.4v-.7h.5v.7c.2 0 .4 0 .5.1.2 0 .3.1.4.1l-.1.5c-.1 0-.2-.1-.4-.1s-.3-.1-.6-.1-.4 0-.6.1c-.1.1-.2.2-.2.4 0 .1 0 .2.1.2 0 .1.1.1.2.2s.2.1.3.1.2.1.3.1c.2.1.3.1.5.2.1.1.3.1.4.2l.3.3c.1.1.1.3.1.5 0 .3-.1.5-.3.7s-.5.3-.8.3v.8h-.5v-.8c-.3 0-.5 0-.7-.1s-.3-.1-.4-.2l.2-.5c.1.1.3.1.5.2-.1.3.1.4.3.4zm5-2.1c0 .9-.2 1.5-.6 2-.4.4-1.1.7-1.9.7v-.5c.3 0 .5 0 .7-.1s.4-.1.6-.2c.2-.1.3-.3.4-.4.1-.2.2-.4.2-.6-.1.1-.2.1-.4.1h-.4c-.2 0-.5 0-.6-.1-.2-.1-.3-.2-.4-.3s-.2-.3-.2-.4c0-.2-.1-.3-.1-.5s0-.3.1-.5.1-.3.2-.5c.1-.1.3-.3.4-.3.2-.1.4-.1.6-.1.2 0 .4 0 .6.1.2.1.3.2.5.4l.3.6v.6zm-1.3.5h.4c.1 0 .3-.1.4-.1v-.7c0-.2-.1-.3-.1-.4s-.2-.2-.3-.3c-.1-.1-.2-.1-.4-.1-.1 0-.3 0-.4.1-.1.1-.2.1-.2.2-.1.1-.1.2-.1.3v.3c0 .3.1.5.2.6.1 0 .3.1.5.1zm3 1.8c0 .1 0 .2-.1.3-.1.1-.2.1-.3.1s-.2 0-.3-.1-.1-.2-.1-.3c0-.1 0-.2.1-.3.1-.1.2-.1.3-.1s.2 0 .3.1.1.2.1.3zm.6-1.8c0-.7.1-1.3.4-1.7.3-.4.6-.6 1.1-.6s.8.2 1.1.6.4 1 .4 1.7-.1 1.3-.4 1.7c-.3.4-.6.6-1.1.6s-.8-.2-1.1-.6c-.2-.4-.4-1-.4-1.7zm2.4 0v-.7c0-.2-.1-.4-.1-.6-.1-.2-.2-.3-.3-.4s-.2-.1-.4-.1-.3 0-.4.1c-.1.1-.2.2-.3.4-.1.2-.1.3-.1.6v1.4c0 .2.1.4.1.6.1.2.2.3.3.4s.2.1.4.1.3 0 .4-.1c.1-.1.2-.2.3-.4.1-.2.1-.3.1-.6v-.7zm1.1 0c0-.7.1-1.3.4-1.7.3-.4.6-.6 1.1-.6s.8.2 1.1.6.4 1 .4 1.7-.1 1.3-.4 1.7c-.3.4-.6.6-1.1.6s-.8-.2-1.1-.6c-.2-.4-.4-1-.4-1.7zm2.4 0v-.7c0-.2-.1-.4-.1-.6-.1-.2-.2-.3-.3-.4s-.2-.1-.4-.1-.3 0-.4.1c-.1.1-.2.2-.3.4-.1.2-.1.3-.1.6v1.4c0 .2.1.4.1.6.1.2.2.3.3.4s.2.1.4.1.3 0 .4-.1c.1-.1.2-.2.3-.4.1-.2.1-.3.1-.6v-.7zm-16.6 12.2c.3 0 .5-.1.7-.2.1-.1.2-.2.2-.4 0-.1 0-.2-.1-.3-.1-.1-.1-.2-.2-.2-.1-.1-.2-.1-.3-.2s-.3-.1-.4-.1c-.1 0-.3-.1-.4-.2-.1-.1-.2-.1-.3-.2s-.2-.2-.2-.3c-.1-.1-.1-.3-.1-.4 0-.3.1-.5.3-.7s.4-.3.8-.4v-.7h.5v.7c.2 0 .4 0 .5.1.2 0 .3.1.4.1l-.1.5c-.1 0-.2-.1-.4-.1s-.3-.1-.6-.1-.4 0-.6.1c-.1.1-.2.2-.2.4 0 .1 0 .2.1.2 0 .1.1.1.2.2s.2.1.3.1.2.1.3.1c.2.1.3.1.5.2.1.1.3.1.4.2l.3.3c.1.1.1.3.1.5 0 .3-.1.5-.3.7s-.5.3-.8.3v.8h-.5v-.8c-.3 0-.5 0-.7-.1s-.3-.1-.4-.2l.2-.5c.1.1.3.1.5.2-.3.4 0 .4.3.4zm2.9.6c0-.3.1-.7.2-1.1.1-.4.2-.7.3-1.1.1-.3.3-.7.5-1s.3-.5.5-.7h-2.1v-.5h2.8v.5c-.1.2-.3.4-.5.7-.2.3-.3.6-.5.9-.1.3-.3.7-.4 1.1-.1.4-.2.8-.2 1.2h-.6zm3.5 0c0-.3.1-.7.2-1.1.1-.4.2-.7.3-1.1.1-.3.3-.7.5-1s.3-.5.5-.7h-2.1v-.5h2.8v.5c-.1.2-.3.4-.5.7-.2.3-.3.6-.5.9-.1.3-.3.7-.4 1.1-.1.4-.2.8-.2 1.2h-.6zm3.7-.3c0 .1 0 .2-.1.3-.1.1-.2.1-.3.1s-.2 0-.3-.1-.1-.2-.1-.3c0-.1 0-.2.1-.3.1-.1.2-.1.3-.1s.2 0 .3.1.1.2.1.3zm.6-1.9c0-.7.1-1.3.4-1.7.3-.4.6-.6 1.1-.6s.8.2 1.1.6.4 1 .4 1.7-.1 1.3-.4 1.7c-.3.4-.6.6-1.1.6s-.8-.2-1.1-.6-.4-.9-.4-1.7zm2.4 0v-.7c0-.2-.1-.4-.1-.6-.1-.2-.2-.3-.3-.4s-.2-.1-.4-.1-.3 0-.4.1c-.1.1-.2.2-.3.4-.1.2-.1.3-.1.6v1.4c0 .2.1.4.1.6.1.2.2.3.3.4s.2.1.4.1.3 0 .4-.1c.1-.1.2-.2.3-.4.1-.2.1-.3.1-.6v-.7zm1.1 0c0-.7.1-1.3.4-1.7.3-.4.6-.6 1.1-.6s.8.2 1.1.6.4 1 .4 1.7-.1 1.3-.4 1.7c-.3.4-.6.6-1.1.6s-.8-.2-1.1-.6c-.2-.4-.4-.9-.4-1.7zm2.4 0v-.7c0-.2-.1-.4-.1-.6-.1-.2-.2-.3-.3-.4s-.2-.1-.4-.1-.3 0-.4.1c-.1.1-.2.2-.3.4-.1.2-.1.3-.1.6v1.4c0 .2.1.4.1.6.1.2.2.3.3.4s.2.1.4.1.3 0 .4-.1c.1-.1.2-.2.3-.4.1-.2.1-.3.1-.6v-.7zm-129.2-19.6c.6 0 1-.2 1-.7 0-.1 0-.2-.1-.3-.1-.1-.1-.2-.2-.2-.1-.1-.2-.1-.3-.2-.1-.1-.3-.1-.4-.2-.2-.1-.3-.1-.5-.2s-.3-.2-.4-.2c-.1-.1-.2-.2-.2-.3-.1-.1-.1-.3-.1-.5 0-.4.1-.7.4-.9.3-.2.6-.3 1.1-.3.3 0 .5 0 .7.1s.4.1.5.2l-.2.5c-.1-.1-.2-.1-.4-.2s-.4-.1-.6-.1h-.3c-.1 0-.2.1-.3.1l-.2.2c0 .1-.1.2-.1.3 0 .1 0 .2.1.3 0 .1.1.1.2.2s.2.1.3.2c.1.1.2.1.4.2s.4.2.5.2c.2.1.3.2.4.3.1.1.2.2.3.4.1.1.1.3.1.5 0 .4-.1.7-.4.9-.3.2-.7.3-1.2.3h-.5c-.1 0-.3-.1-.4-.1s-.2-.1-.3-.1c-.1 0-.1-.1-.2-.1l.2-.5c.1.1.2.1.4.2h.7zm3.9.6c-.3 0-.5 0-.7-.1s-.4-.2-.5-.4c-.1-.2-.2-.3-.3-.5-.1-.2-.1-.4-.1-.7v-2.7h.6v2.7c0 .4.1.8.3.9.2.2.4.3.8.3.2 0 .3 0 .4-.1.1 0 .2-.1.3-.2.1-.1.2-.2.2-.4.1-.2.1-.3.1-.6v-2.7h.6v2.7c0 .2 0 .5-.1.7s-.2.4-.3.5c-.1.2-.3.3-.5.4-.3.1-.5.2-.8.2zm3.9-.1h-.9c-.1 0-.2 0-.3-.1v-4.2c.1 0 .2 0 .3-.1h.9c.3 0 .5 0 .7.1.2 0 .4.1.6.2s.3.2.4.4c.1.1.1.3.1.5s-.1.4-.2.6-.3.3-.5.3c.3.1.5.2.6.4.2.2.2.4.2.7 0 .4-.2.8-.5 1-.2.1-.7.2-1.4.2zm-.6-2.5h1c.1 0 .3-.1.3-.1.1-.1.2-.1.2-.2.1-.1.1-.2.1-.3 0-.1 0-.2-.1-.3-.1-.1-.1-.2-.2-.2-.1-.1-.2-.1-.4-.1h-1v1.2h.1zm0 .4v1.5h1.2c.2 0 .3-.1.4-.1.1-.1.2-.1.3-.2.1-.1.1-.2.1-.4 0-.1 0-.3-.1-.4s-.1-.2-.2-.2c-.1-.1-.2-.1-.4-.1h-.5l-.8-.1zm3.1-.1h1.6v.5h-1.6v-.5zm4.7-2.2v.5h-1.4v3.8h-.6v-3.8h-1.4v-.5h3.4zm.4 2.2c0-.4.1-.7.2-1s.3-.5.5-.7.4-.3.7-.4c.3-.1.5-.1.8-.1s.5 0 .8.1c.2.1.5.2.7.4.2.2.3.4.4.7.1.3.2.6.2 1s-.1.7-.2 1-.3.5-.4.7c-.2.2-.4.3-.7.4-.2.1-.5.1-.8.1s-.6 0-.8-.1c-.3-.1-.5-.2-.7-.4-.2-.2-.3-.4-.5-.7-.1-.3-.2-.6-.2-1zm.6 0c0 .3 0 .5.1.7s.2.4.3.5c.1.2.3.3.5.3.2.1.4.1.6.1s.4 0 .6-.1.3-.2.4-.3c.1-.2.2-.3.3-.5.1-.2.1-.5.1-.7 0-.3 0-.5-.1-.7s-.2-.4-.3-.5c-.1-.2-.3-.3-.4-.3-.2-.1-.4-.1-.6-.1s-.4 0-.6.1-.3.2-.5.3c-.1.2-.2.3-.3.5-.1.2-.1.4-.1.7zm7.2-2.2v.5H449v3.8h-.6v-3.8H447v-.5h3.4zm3.2 4.4c-.1-.2-.1-.4-.2-.6s-.1-.4-.2-.6h-2l-.4 1.1h-.6c.2-.5.3-.9.5-1.3.1-.4.3-.8.4-1.1.1-.4.3-.7.4-1s.3-.6.4-1h.6c.2.3.3.6.4 1s.3.7.4 1c.1.4.3.7.4 1.1s.3.8.5 1.3h-.6v.1zm-.6-1.6c-.1-.4-.3-.7-.4-1.1-.1-.3-.3-.7-.4-1-.1.3-.3.6-.4 1-.1.3-.3.7-.4 1.1h1.6zm4.4 1v.5h-2.6v-4.4h.6v3.8h2v.1zm-28.3 6.9v.5h-1.4v3.8h-.6v-3.8h-1.4v-.5h3.4zm3.1 4.3c-.1-.2-.1-.4-.2-.6s-.1-.4-.2-.6h-2l-.4 1.1h-.6c.2-.5.3-.9.5-1.3.1-.4.3-.8.4-1.1.1-.4.3-.7.4-1s.3-.6.4-1h.6c.2.3.3.6.4 1 .1.3.3.7.4 1 .1.4.3.7.4 1.1s.3.8.5 1.3h-.6v.1zm-.6-1.6c-.1-.4-.3-.7-.4-1.1-.1-.3-.3-.7-.4-1-.1.3-.3.6-.4 1-.1.3-.3.7-.4 1.1h1.6zm4.6 1.6c-.1-.1-.1-.3-.2-.4-.1-.2-.2-.3-.3-.5-.1-.2-.2-.3-.3-.5-.1-.2-.2-.3-.3-.5-.1.1-.2.3-.3.5-.1.2-.2.3-.3.5-.1.2-.2.3-.3.5-.1.2-.2.3-.2.4h-.7c.2-.4.4-.7.7-1.1.2-.4.5-.8.8-1.2l-1.4-2.1h.7l1.1 1.6 1.1-1.6h.7l-1.4 2c.3.4.6.8.8 1.2.3.4.5.8.7 1.1h-.9v.1zm-9 10.8h-.9c-.1 0-.2 0-.3-.1v-4.2c.1 0 .2 0 .3-.1h.9c.3 0 .5 0 .7.1.2 0 .4.1.6.2s.3.2.4.4c.1.1.1.3.1.5s-.1.4-.2.6-.3.3-.5.3c.3.1.5.2.6.4.2.2.2.4.2.7 0 .4-.2.8-.5 1s-.6.2-1.4.2zm-.5-2.6h1c.1 0 .3-.1.3-.1.1-.1.2-.1.2-.2.1-.1.1-.2.1-.3 0-.1 0-.2-.1-.3-.1-.1-.1-.2-.2-.2-.1-.1-.2-.1-.4-.1h-1v1.2h.1zm0 .5v1.5h1.2c.2 0 .3-.1.4-.1.1-.1.2-.1.3-.2.1-.1.1-.2.1-.4 0-.1 0-.3-.1-.4s-.1-.2-.2-.2c-.1-.1-.2-.1-.4-.1h-.5l-.8-.1zm6.4 2c-.1-.2-.1-.4-.2-.6s-.1-.4-.2-.6h-2l-.4 1.1h-.6c.2-.5.3-.9.5-1.3.1-.4.3-.8.4-1.1.1-.4.3-.7.4-1s.3-.6.4-1h.6c.2.3.3.6.4 1 .1.3.3.7.4 1 .1.4.3.7.4 1.1s.3.8.5 1.3h-.7l.1.1zm-.6-1.6c-.1-.4-.3-.7-.4-1.1-.1-.3-.3-.7-.4-1-.1.3-.3.6-.4 1-.1.3-.3.7-.4 1.1h1.6zm4.5 1.1v.5h-2.6v-4.4h.6v3.8h2v.1zm3.7.5c-.1-.2-.1-.4-.2-.6s-.1-.4-.2-.6h-2l-.4 1.1h-.6c.2-.5.3-.9.5-1.3.1-.4.3-.8.4-1.1.1-.4.3-.7.4-1s.3-.6.4-1h.6c.2.3.3.6.4 1 .1.3.3.7.4 1 .1.4.3.7.4 1.1s.3.8.5 1.3h-.6v.1zm-.6-1.6c-.1-.4-.3-.7-.4-1.1-.1-.3-.3-.7-.4-1-.1.3-.3.6-.4 1-.1.3-.3.7-.4 1.1h1.6zm4.8 1.6c-.1-.2-.2-.3-.3-.5-.1-.2-.2-.4-.4-.6-.1-.2-.3-.4-.4-.6s-.3-.4-.4-.6-.3-.4-.4-.6-.3-.3-.4-.5v3.4h-.6v-4.4h.5c.2.2.4.5.6.7.2.3.4.6.7.9l.6.9c.2.3.4.5.5.8v-3.2h.6v4.4l-.6-.1zm3.5.1c-.3 0-.6-.1-.8-.2-.3-.1-.5-.2-.6-.4-.2-.2-.3-.4-.4-.7-.1-.3-.1-.6-.1-1s.1-.7.2-1 .3-.5.4-.7c.2-.2.4-.3.7-.4.3-.1.5-.2.8-.2h.5c.1 0 .3.1.4.1s.2.1.3.1c.1 0 .1.1.1.1l-.2.5s-.1-.1-.2-.1-.2-.1-.2-.1c-.1 0-.2-.1-.3-.1h-.3c-.2 0-.4 0-.6.1s-.3.2-.5.3c-.1.2-.2.3-.3.5-.1.2-.1.5-.1.7 0 .3 0 .5.1.7s.2.4.3.5c.1.2.3.3.5.4s.4.1.6.1c.3 0 .5 0 .7-.1s.3-.1.4-.2l.2.5s-.1 0-.2.1c-.1 0-.2.1-.3.1-.1 0-.2.1-.4.1-.4.3-.5.3-.7.3zm2-.1v-4.4h2.7v.5h-2v1.3h1.8v.5h-1.8v1.5h2.2v.5h-2.9v.1zm-24.2-97c.2-.1.5-.2.7-.4.2-.1.4-.3.6-.5h.4v4.4h-.6V201c-.1 0-.1.1-.2.1-.1.1-.2.1-.2.1-.1 0-.2.1-.3.1-.1 0-.2.1-.3.1l-.1-.4zm8.3 3.6c-.3 0-.6-.1-.8-.2-.3-.1-.5-.2-.6-.4-.2-.2-.3-.4-.4-.7s-.1-.6-.1-1 .1-.7.2-1 .3-.5.4-.7c.2-.2.4-.3.7-.4.3-.1.5-.2.8-.2h.5c.1 0 .3.1.4.1s.2.1.3.1c.1 0 .1.1.1.1l-.2.5s-.1-.1-.2-.1-.2-.1-.2-.1c-.1 0-.2-.1-.3-.1h-.3c-.2 0-.4 0-.6.1s-.3.2-.5.3c-.1.2-.2.3-.3.5-.1.2-.1.5-.1.7 0 .3 0 .5.1.7s.2.4.3.5c.1.2.3.3.5.4.2.1.4.1.6.1.3 0 .5 0 .7-.1s.3-.1.4-.2l.2.5s-.1 0-.2.1c-.1 0-.2.1-.3.1-.1 0-.2.1-.4.1-.4.3-.6.3-.7.3zm5-.1c-.1-.2-.1-.4-.2-.6-.1-.2-.1-.4-.2-.6h-2l-.4 1.1h-.7c.2-.5.3-.9.5-1.3.1-.4.3-.8.4-1.1.1-.4.3-.7.4-1s.3-.6.4-1h.6c.2.3.3.6.4 1 .1.3.3.7.4 1 .1.4.3.7.4 1.1.1.4.3.8.5 1.3h-.6v.1h.1zm-.5-1.6c-.1-.4-.3-.7-.4-1.1-.1-.3-.3-.7-.4-1-.1.3-.3.6-.4 1-.1.3-.3.7-.4 1.1h1.6zm3.9-.2l.3.3c.1.1.2.3.3.5.1.2.2.3.3.5s.2.4.3.5h-.7c-.1-.2-.2-.3-.3-.5-.1-.2-.2-.3-.3-.5-.1-.1-.2-.3-.3-.4l-.3-.3h-.9v1.7h-.6v-4.3c.2 0 .4-.1.6-.1h.6c.6 0 1.1.1 1.4.3s.5.6.5 1c0 .3-.1.5-.2.7-.2.3-.4.5-.7.6zm-.9-2.1h-.6v1.6h1c.2 0 .3-.1.4-.1.1-.1.2-.1.3-.2.1-.1.1-.2.1-.4s0-.3-.1-.4c-.1-.1-.1-.2-.3-.3-.1-.1-.2-.1-.4-.1-.2-.1-.2-.1-.4-.1zm4.9 2.1l.3.3c.1.1.2.3.3.5.1.2.2.3.3.5s.2.4.3.5h-.7c-.1-.2-.2-.3-.3-.5-.1-.2-.2-.3-.3-.5-.1-.1-.2-.3-.3-.4l-.3-.3h-.9v1.7h-.6v-4.3c.2 0 .4-.1.6-.1h.6c.6 0 1.1.1 1.4.3s.5.6.5 1c0 .3-.1.5-.2.7-.2.3-.4.5-.7.6zm-1-2.1h-.6v1.6h1c.2 0 .3-.1.4-.1.1-.1.2-.1.3-.2.1-.1.1-.2.1-.4s0-.3-.1-.4c-.1-.1-.1-.2-.3-.3-.1-.1-.2-.1-.4-.1-.1-.1-.2-.1-.4-.1zm2.5 1.7c0-.4.1-.7.2-1s.3-.5.5-.7.4-.3.7-.4c.3-.1.5-.1.8-.1s.5 0 .8.1c.2.1.5.2.7.4s.3.4.4.7.2.6.2 1-.1.7-.2 1-.3.5-.4.7c-.2.2-.4.3-.7.4-.2.1-.5.1-.8.1s-.6 0-.8-.1c-.3-.1-.5-.2-.7-.4s-.3-.4-.5-.7c-.1-.3-.2-.6-.2-1zm.7 0c0 .3 0 .5.1.7s.2.4.3.5c.1.2.3.3.5.3.2.1.4.1.6.1s.4 0 .6-.1.3-.2.4-.3c.1-.2.2-.3.3-.5.1-.2.1-.5.1-.7 0-.3 0-.5-.1-.7s-.2-.4-.3-.5c-.1-.2-.3-.3-.4-.3-.2-.1-.4-.1-.6-.1s-.4 0-.6.1-.3.2-.5.3c-.1.2-.2.3-.3.5-.1.2-.1.4-.1.7zm7.1-2.2v.5h-1.4v3.8h-.6v-3.8h-1.4v-.5h3.4zm3 3.9c.6 0 1-.2 1-.7 0-.1 0-.2-.1-.3s-.1-.2-.2-.2c-.1-.1-.2-.1-.3-.2-.1-.1-.3-.1-.4-.2-.2-.1-.3-.1-.5-.2-.1-.1-.3-.2-.4-.2-.1-.1-.2-.2-.2-.3-.1-.1-.1-.3-.1-.5 0-.4.1-.7.4-.9s.6-.3 1.1-.3c.3 0 .5 0 .7.1s.4.1.5.2l-.2.5c-.1-.1-.2-.1-.4-.2s-.4-.1-.6-.1h-.3c-.1 0-.2.1-.3.1l-.2.2c0 .1-.1.2-.1.3s0 .2.1.3c0 .1.1.1.2.2s.2.1.3.2c.1.1.2.1.4.2s.4.2.5.2c.2.1.3.2.4.3s.2.2.3.4c.1.1.1.3.1.5 0 .4-.1.7-.4.9s-.7.3-1.2.3h-.5c-.1 0-.3-.1-.4-.1s-.2-.1-.3-.1c-.1 0-.1-.1-.2-.1l.2-.5c.1.1.2.1.4.2h.7zm2.3-1.7c0-.4.1-.7.2-1s.3-.5.5-.7.4-.3.7-.4c.3-.1.5-.1.8-.1s.5 0 .8.1c.2.1.5.2.7.4s.3.4.4.7.2.6.2 1-.1.7-.2 1-.3.5-.4.7c-.2.2-.4.3-.7.4-.2.1-.5.1-.8.1s-.6 0-.8-.1c-.3-.1-.5-.2-.7-.4s-.3-.4-.5-.7c-.1-.3-.2-.6-.2-1zm.6 0c0 .3 0 .5.1.7s.2.4.3.5c.1.2.3.3.5.3.2.1.4.1.6.1s.4 0 .6-.1.3-.2.4-.3c.1-.2.2-.3.3-.5.1-.2.1-.5.1-.7 0-.3 0-.5-.1-.7s-.2-.4-.3-.5c-.1-.2-.3-.3-.4-.3-.2-.1-.4-.1-.6-.1s-.4 0-.6.1-.3.2-.5.3c-.1.2-.2.3-.3.5 0 .2-.1.4-.1.7zm6.1 2.3c-.3 0-.5 0-.7-.1s-.4-.2-.5-.4-.2-.3-.3-.5c-.1-.2-.1-.4-.1-.7v-2.7h.6v2.7c0 .4.1.8.3.9.2.2.4.3.8.3.2 0 .3 0 .4-.1.1 0 .2-.1.3-.2.1-.1.2-.2.2-.4.1-.2.1-.3.1-.6v-2.7h.6v2.7c0 .2 0 .5-.1.7s-.2.4-.3.5c-.1.2-.3.3-.5.4-.3.1-.5.2-.8.2zm3.8-4.5c.6 0 1.1.1 1.4.3s.5.6.5 1c0 .3 0 .5-.1.6-.1.2-.2.3-.4.4-.2.1-.4.2-.6.2-.2.1-.5.1-.8.1h-.5v1.6h-.6V200c.2 0 .4-.1.6-.1.2.2.4.2.5.2zm.1.5h-.6v1.7h1.1c.2 0 .3-.1.4-.1l.3-.3c.1-.1.1-.3.1-.4 0-.2 0-.3-.1-.4l-.3-.3c-.1-.1-.2-.1-.4-.1-.2-.1-.4-.1-.5-.1zm-43.6 11.3c0 .2 0 .3-.1.4-.1.1-.1.3-.2.4-.1.1-.2.3-.3.4l-.4.4c-.1.1-.2.2-.2.3l-.3.3c-.1.1-.2.2-.2.3-.1.1-.1.2-.1.3h2v.5H426v-.2c0-.2 0-.4.1-.5.1-.2.2-.3.3-.5.1-.2.2-.3.4-.4l.4-.4.3-.3.3-.3c.1-.1.1-.2.2-.3 0-.1.1-.2.1-.3s0-.2-.1-.3c0-.1-.1-.2-.2-.2-.1-.1-.1-.1-.2-.1h-.3c-.1 0-.2 0-.3.1-.1 0-.2.1-.3.1-.1 0-.1.1-.2.1s-.1.1-.1.1l-.3-.4.2-.2c.1-.1.2-.1.3-.2.1-.1.2-.1.4-.1.1 0 .3-.1.4-.1.5 0 .8.1 1 .3s.1.4.1.8zm5.1 2.8c.6 0 1-.2 1-.7 0-.1 0-.2-.1-.3s-.1-.2-.2-.2c-.1-.1-.2-.1-.3-.2-.1-.1-.3-.1-.4-.2-.2-.1-.3-.1-.5-.2-.1-.1-.3-.2-.4-.2-.1-.1-.2-.2-.2-.3-.1-.1-.1-.3-.1-.5 0-.4.1-.7.4-.9s.6-.3 1.1-.3c.3 0 .5 0 .7.1s.4.1.5.2l-.2.5c-.1-.1-.2-.1-.4-.2s-.4-.1-.6-.1h-.3c-.1 0-.2.1-.3.1l-.2.2c0 .1-.1.2-.1.3s0 .2.1.3c0 .1.1.1.2.2s.2.1.3.2c.1.1.2.1.4.2s.4.2.5.2c.2.1.3.2.4.3s.2.2.3.4c.1.1.1.3.1.5 0 .4-.1.7-.4.9s-.7.3-1.2.3h-.5c-.1 0-.3-.1-.4-.1s-.2-.1-.3-.1c-.1 0-.1-.1-.2-.1l.2-.5c.1.1.2.1.4.2h.7zm4 .6c-.3 0-.5 0-.7-.1s-.4-.2-.5-.4-.2-.3-.3-.5c-.1-.2-.1-.4-.1-.7v-2.7h.6v2.7c0 .4.1.8.3.9.2.2.4.3.8.3.2 0 .3 0 .4-.1.1 0 .2-.1.3-.2.1-.1.2-.2.2-.4.1-.2.1-.3.1-.6v-2.7h.6v2.7c0 .2 0 .5-.1.7s-.2.4-.3.5c-.1.2-.3.3-.5.4-.3.1-.6.2-.8.2zm4.8-2l.3.3c.1.1.2.3.3.5.1.2.2.3.3.5s.2.4.3.5h-.7c-.1-.2-.2-.3-.3-.5-.1-.2-.2-.3-.3-.5-.1-.1-.2-.3-.3-.4l-.3-.3h-.9v1.7h-.6v-4.3c.2 0 .4-.1.6-.1h.6c.6 0 1.1.1 1.4.3s.5.6.5 1c0 .3-.1.5-.2.7-.2.4-.4.5-.7.6zm-.9-2h-.6v1.6h1c.2 0 .3-.1.4-.1.1-.1.2-.1.3-.2.1-.1.1-.2.1-.4s0-.3-.1-.4c-.1-.1-.1-.2-.3-.3-.1-.1-.2-.1-.4-.1-.1-.1-.3-.1-.4-.1zm2.7 3.9v-4.4h2.6v.5h-2v1.3h1.8v.5h-1.8v2l-.6.1zm3-1.2c0-.2 0-.3.1-.4s.1-.2.2-.3l.3-.3c.1-.1.2-.1.4-.2-.3-.3-.5-.6-.5-1 0-.2 0-.3.1-.5.1-.1.1-.2.2-.3s.2-.2.4-.2c.1-.1.3-.1.4-.1.2 0 .3 0 .4.1s.2.1.3.2c.1.1.2.2.2.3s.1.2.1.4c0 .1 0 .3-.1.4 0 .1-.1.2-.2.3l-.3.3c-.1.1-.2.2-.3.2l1 1 .3-.9.5.1c0 .2-.1.4-.1.6l-.3.6c.1.2.3.3.4.5s.2.3.3.5h-.6c-.1-.1-.1-.2-.2-.3s-.1-.2-.2-.3c-.2.2-.4.3-.6.4-.2.1-.5.2-.8.2s-.5 0-.7-.1-.3-.2-.4-.3-.2-.3-.2-.4c-.1-.2-.1-.4-.1-.5zm.7 0v.2c0 .1.1.2.1.2.1.1.2.1.3.2s.2.1.4.1.4 0 .6-.1.3-.2.5-.3l-1.2-1.2c-.1 0-.2.1-.2.1l-.2.2c-.1.1-.1.2-.2.3-.1 0-.1.2-.1.3zm1.5-2.3c0-.1 0-.3-.1-.4-.1-.1-.2-.1-.4-.1s-.3.1-.4.2c-.1.1-.1.2-.1.4 0 .3.1.5.4.8.1 0 .2-.1.3-.2.1-.1.2-.1.2-.2.1-.1.1-.1.1-.2v-.3zm5.3-.9v.5h-1.4v3.8h-.6v-3.8h-1.4v-.5h3.4zm2.2 4.5c-.3 0-.5 0-.7-.1s-.4-.2-.5-.4-.2-.3-.3-.5c-.1-.2-.1-.4-.1-.7v-2.7h.6v2.7c0 .4.1.8.3.9.2.2.4.3.8.3.2 0 .3 0 .4-.1.1 0 .2-.1.3-.2.1-.1.2-.2.2-.4s.1-.3.1-.6v-2.7h.6v2.7c0 .2 0 .5-.1.7s-.2.4-.3.5c-.1.2-.3.3-.5.4-.2.1-.5.2-.8.2zm4.9-2l.3.3c.1.1.2.3.3.5.1.2.2.3.3.5s.2.4.3.5h-.7c-.1-.2-.2-.3-.3-.5-.1-.2-.2-.3-.3-.5-.1-.1-.2-.3-.3-.4l-.3-.3h-.9v1.7h-.6v-4.3c.2 0 .4-.1.6-.1h.6c.6 0 1.1.1 1.4.3s.5.6.5 1c0 .3-.1.5-.2.7-.3.4-.4.5-.7.6zm-1-2h-.6v1.6h1c.2 0 .3-.1.4-.1.1-.1.2-.1.3-.2.1-.1.1-.2.1-.4s0-.3-.1-.4c-.1-.1-.1-.2-.3-.3-.1-.1-.2-.1-.4-.1-.1-.1-.2-.1-.4-.1zm2.8 3.9v-4.4h2.6v.5h-2v1.3h1.8v.5h-1.8v2l-.6.1zM427 225.4c.4 0 .6-.1.8-.2.2-.1.2-.3.2-.6 0-.2 0-.3-.1-.4l-.3-.3c-.1-.1-.2-.1-.4-.1h-.6v-.5h.5c.1 0 .2-.1.3-.1.1-.1.2-.1.2-.2.1-.1.1-.2.1-.4 0-.1 0-.2-.1-.3 0-.1-.1-.2-.2-.2-.1-.1-.1-.1-.2-.1h-.3c-.2 0-.4 0-.5.1s-.3.1-.4.2l-.2-.4c.1 0 .1-.1.2-.1s.2-.1.3-.1c.1 0 .2-.1.3-.1h.3c.2 0 .4 0 .6.1s.3.1.4.2c.1.1.2.2.2.4s.1.3.1.5-.1.4-.2.6c-.1.2-.3.3-.5.4.1 0 .2.1.3.1.1.1.2.1.3.2.1.1.1.2.2.3 0 .1.1.3.1.4 0 .2 0 .4-.1.5-.1.2-.2.3-.3.4-.1.1-.3.2-.5.3s-.4.1-.7.1h-.3c-.1 0-.2 0-.3-.1-.1 0-.2-.1-.3-.1-.1 0-.1 0-.2-.1l.1-.5c.1 0 .2.1.4.1h.8zm8.2-3.9h.6v4.4h-.6v-2h-2.1v2h-.6v-4.4h.6v1.8h2.1v-1.8zm1.6 2.2c0-.4.1-.7.2-1s.3-.5.5-.7.4-.3.7-.4c.3-.1.5-.1.8-.1s.5 0 .8.1c.2.1.5.2.7.4s.3.4.4.7.2.6.2 1-.1.7-.2 1-.3.5-.4.7c-.2.2-.4.3-.7.4-.2.1-.5.1-.8.1s-.6 0-.8-.1c-.3-.1-.5-.2-.7-.4s-.3-.4-.5-.7c-.1-.3-.2-.7-.2-1zm.7 0c0 .3 0 .5.1.7s.2.4.3.5c.1.2.3.3.5.3.2.1.4.1.6.1s.4 0 .6-.1.3-.2.4-.3c.1-.2.2-.3.3-.5.1-.2.1-.5.1-.7 0-.3 0-.5-.1-.7s-.2-.4-.3-.5c-.1-.2-.3-.3-.4-.3-.2-.1-.4-.1-.6-.1s-.4 0-.6.1-.3.2-.5.3c-.1.2-.2.3-.3.5-.1.2-.1.4-.1.7zm6 2.2c-.3 0-.5 0-.7-.1s-.4-.2-.5-.4-.2-.3-.3-.5c-.1-.2-.1-.4-.1-.7v-2.7h.6v2.7c0 .4.1.8.3.9.2.2.4.3.8.3.2 0 .3 0 .4-.1.1 0 .2-.1.3-.2.1-.1.2-.2.2-.4.1-.2.1-.3.1-.6v-2.7h.6v2.7c0 .2 0 .5-.1.7s-.2.4-.3.5c-.1.2-.3.3-.5.4-.2.2-.5.2-.8.2zm3.7-.5c.6 0 1-.2 1-.7 0-.1 0-.2-.1-.3s-.1-.2-.2-.2c-.1-.1-.2-.1-.3-.2-.1-.1-.3-.1-.4-.2-.2-.1-.3-.1-.5-.2s-.3-.2-.4-.2c-.1-.1-.2-.2-.2-.3-.1-.1-.1-.3-.1-.5 0-.4.1-.7.4-.9s.6-.3 1.1-.3c.3 0 .5 0 .7.1s.4.1.5.2l-.2.5c-.1-.1-.2-.1-.4-.2s-.4-.1-.6-.1h-.3c-.1 0-.2.1-.3.1l-.2.2c0 .1-.1.2-.1.3s0 .2.1.3c0 .1.1.1.2.2s.2.1.3.2c.1.1.2.1.4.2s.4.2.5.2c.2.1.3.2.4.3s.2.2.3.4c.1.1.1.3.1.5 0 .4-.1.7-.4.9s-.7.3-1.2.3h-.5c-.1 0-.3-.1-.4-.1s-.2-.1-.3-.1c-.1 0-.1-.1-.2-.1l.2-.5c.1.1.2.1.4.2h.7zm2.4.4v-4.4h2.7v.5h-2v1.3h1.8v.5h-1.8v1.5h2.2v.5l-2.9.1zm6-.4c.6 0 1-.2 1-.7 0-.1 0-.2-.1-.3s-.1-.2-.2-.2c-.1-.1-.2-.1-.3-.2-.1-.1-.3-.1-.4-.2-.2-.1-.3-.1-.5-.2-.1-.1-.3-.2-.4-.2-.1-.1-.2-.2-.2-.3-.1-.1-.1-.3-.1-.5 0-.4.1-.7.4-.9s.6-.3 1.1-.3c.3 0 .5 0 .7.1s.4.1.5.2l-.2.5c-.1-.1-.2-.1-.4-.2s-.4-.1-.6-.1h-.3c-.1 0-.2.1-.3.1l-.2.2c0 .1-.1.2-.1.3s0 .2.1.3c0 .1.1.1.2.2s.2.1.3.2c.1.1.2.1.4.2s.4.2.5.2c.2.1.3.2.4.3s.2.2.3.4c.1.1.1.3.1.5 0 .4-.1.7-.4.9s-.7.3-1.2.3h-.5c-.1 0-.3-.1-.4-.1s-.2-.1-.3-.1c-.1 0-.1-.1-.2-.1l.2-.5c.1.1.2.1.4.2h.7zm5.2.4c-.1-.2-.1-.4-.2-.6-.1-.2-.1-.4-.2-.6h-2l-.4 1.1h-.5c.2-.5.3-.9.5-1.3.1-.4.3-.8.4-1.1.1-.4.3-.7.4-1s.3-.6.4-1h.6c.2.3.3.6.4 1 .1.3.3.7.4 1 .1.4.3.7.4 1.1.1.4.3.8.5 1.3h-.7v.1zm-.6-1.6c-.1-.4-.3-.7-.4-1.1-.1-.3-.3-.7-.4-1-.1.3-.3.6-.4 1-.1.3-.3.7-.4 1.1h1.6zm4.5 1.1v.5h-2.6v-4.4h.6v3.8l2 .1zm3.7.5c-.1-.2-.1-.4-.2-.6-.1-.2-.1-.4-.2-.6h-2l-.4 1.1h-.6c.2-.5.3-.9.5-1.3.1-.4.3-.8.4-1.1.1-.4.3-.7.4-1s.3-.6.4-1h.6c.2.3.3.6.4 1 .1.3.3.7.4 1 .1.4.3.7.4 1.1.1.4.3.8.5 1.3h-.6v.1zm-.5-1.6c-.1-.4-.3-.7-.4-1.1-.1-.3-.3-.7-.4-1-.1.3-.3.6-.4 1-.1.3-.3.7-.4 1.1h1.6zm4.8 1.6c-.1-.2-.2-.3-.3-.5-.1-.2-.2-.4-.4-.6-.1-.2-.3-.4-.4-.6-.1-.2-.3-.4-.4-.6-.1-.2-.3-.4-.4-.6-.1-.2-.3-.3-.4-.5v3.4h-.6v-4.4h.5c.2.2.4.5.6.7.2.3.4.6.7.9l.6.9c.2.3.4.5.5.8v-3.2h.6v4.4l-.6-.1zm5.1-2.1c0 .4-.1.7-.2 1s-.3.5-.5.7-.5.3-.8.4c-.3.1-.6.1-1 .1h-.6c-.2 0-.4 0-.6-.1v-4.2c.2 0 .4-.1.6-.1h.6c.4 0 .7 0 1 .1s.6.2.8.4c.2.2.4.4.5.7.2.2.2.6.2 1zm-2.3 1.6c.6 0 1-.1 1.3-.4.3-.3.4-.7.4-1.2s-.1-.9-.4-1.2-.7-.4-1.3-.4h-.6v3.3h.2c.1-.1.1-.1.4-.1zm-49.6 9.7l.3-.6c.1-.2.3-.5.5-.8s.4-.5.6-.8.4-.5.6-.7h.6v2.8h.5v.5h-.5v1.1h-.6v-1.1H426v-.4h-.1zm1.9-2.2l-.4.4c-.1.2-.3.3-.4.5l-.3.6-.3.6h1.4v-2.1zm6.7 3.8c-.3 0-.6-.1-.8-.2-.3-.1-.5-.2-.6-.4-.2-.2-.3-.4-.4-.7s-.1-.6-.1-1 .1-.7.2-1 .3-.5.4-.7c.2-.2.4-.3.7-.4.3-.1.5-.2.8-.2h.5c.1 0 .3.1.4.1s.2.1.3.1c.1 0 .1.1.1.1l-.2.5s-.1-.1-.2-.1-.2-.1-.2-.1c-.1 0-.2-.1-.3-.1h-.3c-.2 0-.4 0-.6.1s-.3.2-.5.3c-.1.2-.2.3-.3.5-.1.2-.1.5-.1.7 0 .3 0 .5.1.7s.2.4.3.5c.1.2.3.3.5.4.2.1.4.1.6.1.3 0 .5 0 .7-.1s.3-.1.4-.2l.2.5s-.1 0-.2.1c-.1 0-.2.1-.3.1-.1 0-.2.1-.4.1-.4.3-.6.3-.7.3zm4.7-4.4h.6v4.4h-.6v-2h-2.1v2h-.6v-4.4h.6v1.8h2.1v-1.8zm1.5 2.1c0-.4.1-.7.2-1s.3-.5.5-.7.4-.3.7-.4c.3-.1.5-.1.8-.1s.5 0 .8.1c.2.1.5.2.7.4s.3.4.4.7.2.6.2 1-.1.7-.2 1-.3.5-.4.7c-.2.2-.4.3-.7.4-.2.1-.5.1-.8.1s-.6 0-.8-.1c-.3-.1-.5-.2-.7-.4s-.3-.4-.5-.7c-.1-.3-.2-.6-.2-1zm.7 0c0 .3 0 .5.1.7s.2.4.3.5c.1.2.3.3.5.3.2.1.4.1.6.1s.4 0 .6-.1.3-.2.4-.3c.1-.2.2-.3.3-.5.1-.2.1-.5.1-.7 0-.3 0-.5-.1-.7s-.2-.4-.3-.5c-.1-.2-.3-.3-.4-.3-.2-.1-.4-.1-.6-.1s-.4 0-.6.1-.3.2-.5.3c-.1.2-.2.3-.3.5-.1.2-.1.5-.1.7zm6.3 2.3c-.3 0-.6-.1-.8-.2-.3-.1-.5-.2-.6-.4-.2-.2-.3-.4-.4-.7s-.1-.6-.1-1 .1-.7.2-1 .3-.5.4-.7c.2-.2.4-.3.7-.4.3-.1.5-.2.8-.2h.5c.1 0 .3.1.4.1s.2.1.3.1c.1 0 .1.1.1.1l-.2.5s-.1-.1-.2-.1-.2-.1-.2-.1c-.1 0-.2-.1-.3-.1h-.3c-.2 0-.4 0-.6.1s-.3.2-.5.3c-.1.2-.2.3-.3.5-.1.2-.1.5-.1.7 0 .3 0 .5.1.7s.2.4.3.5c.1.2.3.3.5.4.2.1.4.1.6.1.3 0 .5 0 .7-.1s.3-.1.4-.2l.2.5s-.1 0-.2.1c-.1 0-.2.1-.3.1-.1 0-.2.1-.4.1-.4.3-.6.3-.7.3zm5.3 0c-.3 0-.6-.1-.8-.2-.3-.1-.5-.2-.6-.4-.2-.2-.3-.4-.4-.7s-.1-.6-.1-1 .1-.7.2-1 .3-.5.4-.7c.2-.2.4-.3.7-.4.3-.1.5-.2.8-.2h.5c.1 0 .3.1.4.1s.2.1.3.1c.1 0 .1.1.1.1l-.2.5s-.1-.1-.2-.1-.2-.1-.2-.1c-.1 0-.2-.1-.3-.1h-.3c-.2 0-.4 0-.6.1s-.3.2-.5.3c-.1.2-.2.3-.3.5-.1.2-.1.5-.1.7 0 .3 0 .5.1.7s.2.4.3.5c.1.2.3.3.5.4.2.1.4.1.6.1.3 0 .5 0 .7-.1s.3-.1.4-.2l.2.5s-.1 0-.2.1c-.1 0-.2.1-.3.1-.1 0-.2.1-.4.1-.3.3-.5.3-.7.3zm5.1-.1c-.1-.2-.1-.4-.2-.6-.1-.2-.1-.4-.2-.6h-2l-.4 1.1h-.6c.2-.5.3-.9.5-1.3.1-.4.3-.8.4-1.1.1-.4.3-.7.4-1s.3-.6.4-1h.6c.2.3.3.6.4 1 .1.3.3.7.4 1 .1.4.3.7.4 1.1.1.4.3.8.5 1.3h-.7l.1.1zm-.6-1.6c-.1-.4-.3-.7-.4-1.1-.1-.3-.3-.7-.4-1-.1.3-.3.6-.4 1-.1.3-.3.7-.4 1.1h1.6zm5.1-2.7c-.1.1-.3.3-.4.5-.2.2-.3.4-.5.5l-.5.5-.5.5c.2.1.4.3.6.5l.6.6c.2.2.4.4.5.6.2.2.3.4.4.6h-.7c-.1-.2-.3-.4-.4-.6-.2-.2-.3-.4-.5-.6-.2-.2-.4-.4-.6-.5-.2-.2-.4-.3-.5-.4v2.1h-.6v-4.4h.6v1.9l.5-.5.5-.5.5-.5.4-.4.6.1zm.6 4.3v-4.4h2.7v.5h-2v1.3h1.8v.5H464v1.5h2.2v.5l-3 .1zm-37.6-61.7h2v.5h-2v-.5zm125.6.5h-4.1v-.5h4.1v.5zm-8.2 0h-4.1v-.5h4.1v.5zm-8.3 0h-4.1v-.5h4.1v.5zm-8.2 0h-4.1v-.5h4.1v.5zm-8.3 0h-4.1v-.5h4.1v.5zm-8.2 0h-4.1v-.5h4.1v.5zm-8.2 0h-4.1v-.5h4.1v.5zm-8.3 0h-4.1v-.5h4.1v.5zm-8.3 0h-4.1v-.5h4.1v.5zm-8.1 0H473v-.5h4.1v.5zm-8.3 0h-4.1v-.5h4.1v.5zm-8.2 0h-4.1v-.5h4.1v.5zm-8.4 0h-4.1v-.5h4.1v.5zm-8.1 0H440v-.5h4.1v.5zm-8.2 0h-4.1v-.5h4.1v.5zm119.3-.5h2v.5h-2v-.5zm-129.6 17.1h2v.5h-2v-.5zm125.6.5h-4.1v-.5h4.1v.5zm-8.2 0h-4.1v-.5h4.1v.5zm-8.3 0h-4.1v-.5h4.1v.5zm-8.2 0h-4.1v-.5h4.1v.5zm-8.3 0h-4.1v-.5h4.1v.5zm-8.2 0h-4.1v-.5h4.1v.5zm-8.2 0h-4.1v-.5h4.1v.5zm-8.3 0h-4.1v-.5h4.1v.5zm-8.3 0h-4.1v-.5h4.1v.5zm-8.1 0H473v-.5h4.1v.5zm-8.3 0h-4.1v-.5h4.1v.5zm-8.2 0h-4.1v-.5h4.1v.5zm-8.4 0h-4.1v-.5h4.1v.5zm-8.1 0H440v-.5h4.1v.5zm-8.2 0h-4.1v-.5h4.1v.5zm119.3-.5h2v.5h-2v-.5zm-129.6 53.4h2v.5h-2v-.5zm125.6.5h-4.1v-.5h4.1v.5zm-8.2 0h-4.1v-.5h4.1v.5zm-8.3 0h-4.1v-.5h4.1v.5zm-8.2 0h-4.1v-.5h4.1v.5zm-8.3 0h-4.1v-.5h4.1v.5zm-8.2 0h-4.1v-.5h4.1v.5zm-8.2 0h-4.1v-.5h4.1v.5zm-8.3 0h-4.1v-.5h4.1v.5zm-8.3 0h-4.1v-.5h4.1v.5zm-8.1 0H473v-.5h4.1v.5zm-8.3 0h-4.1v-.5h4.1v.5zm-8.2 0h-4.1v-.5h4.1v.5zm-8.4 0h-4.1v-.5h4.1v.5zm-8.1 0H440v-.5h4.1v.5zm-8.2 0h-4.1v-.5h4.1v.5zm119.3-.5h2v.5h-2v-.5z"/><path class="st3" d="M468.7 475c.9 24.6 5.5 53.2 15.5 75h7.9l124.3-.1h26.8c8.1-60.7 14.2-76.1 16.7-137.7.2-5.9.4-12-1-17.6-1.6-6.2-5.1-11.2-8.5-15.8-15.8-21.3-29.5-42.1-47.3-60.5v130.3c-22.5-32.4-34.8-54-57.2-86.4-2.4-3.4-6.5-7.9-9.2-9.4-4.4-2.4-8.7-3.2-13.3-2.2-3.9.9-8 3.2-12.5 7.1-9.8 8.5-13.3 19.9-9.6 38.4 1.9 9.6 8.7 25.5 18.8 47.3 4.4 9.4 9.3 19.8 14.8 31.3l-65.7.2-.5.1z"/><path class="st4" d="M467.2 461.8c.9 24.6 7 66.4 17 88.2h7.9c.6-1.2 1.1-2.4 1.4-3.8.5-2.2.7-3.8.7-4.1.3-2.8 5.5-16.7 18.7-27.6 13.4-11.1 28.2-13.3 34.6-13.9l-18.7-38.8c-22 .1-39.6-.1-61.6 0z"/><path class="st3" d="M461.6 461.8c3.5 3 7.1 6 10.8 8.8 7.5 5.9 13.8 11.8 21.9 16.9 7 4.4 18.5 8.5 27.1 5.1 2.4-.9 4.5-2.4 6.3-4.6 6.5-8.1 1.2-19-4.1-26.3-7.3 0-14.9.1-22.7.1h-39.3z"/><path d="M342.2 317.6c0 .7-.1 1.5-.4 2.1-1 2.5-3.8 3.5-4.5 3.9-8.1 4.9-12.5 13.9-16 22.7-6.2 15.7-14.5 35.7-17.9 44.2-1.4 3.4-5.7 3.4-7.6 1.4s-1.2-5.3-.2-7.9c5.1-12.9 9.2-22.3 15.1-34.9 1-2.2 2.2-4.7 3.3-7.2.6-1.3 4.5-9.5 4.7-9.8.1-.2 4-6.7 6.2-9 4.7-4.5 11.1-6.4 17.3-5.5z" fill="#ffcfb0"/><path class="st1" d="M741.7 258H950v86.5H741.7V258z"/><path d="M741.7 257.5h104.1v33.7H741.7v-33.7z" fill="#cee1ed"/><path class="st11" d="M827.2 280.5h3v1h-3v-1zm85.8 1.1h-5.9v-1h5.9v1zm-11.8 0h-5.9v-1h5.9v1zm-11.8 0h-5.9v-1h5.9v1zm-11.9 0h-5.9v-1h5.9v1zm-11.8 0h-5.9v-1h5.9v1zm-11.8 0H848v-1h5.9v1zm-11.8 0h-5.9v-1h5.9v1zm76.8-1.1h3v1h-3v-1z"/><path class="st1" d="M651.1 195.3h208.3v86.5H651.1v-86.5zM588 41.8h208.3v86.5H588V41.8zM47.3 144.6h208.3v86.5H47.3v-86.5zM0 306.5h208.3V393H0v-86.5z"/><path d="M68.6 175.2h2.6v11.2c0 2 1.2 3.7 2.9 4.3 1.8.6 3.7.1 4.9-1.3.7-.9 1-2 1-3.1v-10.7c0-.1 0-.1.1-.2h2.6v17.7h-2.6v-1.2c-1.2.5-2.4 1.1-3.7 1.4-3.6.8-7.4-1.8-7.7-5.5-.3-4.2-.1-8.4-.1-12.6zm16.1 0h2.4v6.4c2-1.7 4.2-2.3 6.6-1.7 1.5.4 2.7 1.3 3.7 2.6 1.8 2.6 1.7 6.1-.4 8.5-2.4 2.7-5.5 2.9-9.8.6 0 .4 0 .9-.1 1.3h-2.4v-17.7zm11.4 11.3c0-2.5-2-4.5-4.4-4.6-2.4 0-4.5 2.1-4.6 4.5 0 2.5 2.1 4.6 4.5 4.6 2.5.1 4.5-2 4.5-4.5zm16.7.8h-10.3c-.1 1.3.9 2.7 2.3 3.3 1.6.7 3.6.7 5.6-1.5.6.4 1.2.9 1.7 1.3-1.6 2.6-5.5 3.6-8.6 2.2-3.1-1.4-4.6-5-3.5-8.4 1.1-3.3 4.5-5.2 8-4.3 3.2.8 5.2 3.9 4.8 7.4zm-10.3-2.1h7.8c-.5-2-2.1-3.3-3.9-3.3-1.9.1-3.5 1.4-3.9 3.3zm18.4-5.2v2.3c-.2 0-.4.1-.6 0-2-.2-3.3 1.3-3.3 3.3v7.3h-2.5v-12.8h2.5c0 .4.1.8.1 1.4.9-1.4 2.2-1.8 3.8-1.5z"/><path class="st12" d="M160.3 193.3v-9.8l-2.2 2.3-1.6-1.7 4.2-4.3h2.5v13.5h-2.9zm5.2-1.8l1.6-2c.9 1 2.2 1.5 3.6 1.5 1.6 0 2.5-.9 2.5-2 0-1.2-.9-2-2.4-2-1.1 0-2 .3-2.8 1.1l-2-.5v-7.7h9.3v2.5h-6.4v3.3c.6-.6 1.7-1.1 3-1.1 2.3 0 4.3 1.6 4.3 4.4 0 2.9-2.1 4.7-5.4 4.7-2.4-.2-4.1-1-5.3-2.2zm12-5c0-3.5 1.7-7 5.6-7 3.8 0 5.6 3.5 5.6 7s-1.7 7-5.6 7-5.6-3.5-5.6-7zm8.2 0c0-2.5-.7-4.4-2.7-4.4-1.9 0-2.7 1.9-2.7 4.4s.7 4.4 2.7 4.4c2 .1 2.7-1.9 2.7-4.4zm4.2 5.3c0-.9.7-1.6 1.6-1.6.9 0 1.6.7 1.6 1.6 0 .9-.7 1.6-1.6 1.6-.9.1-1.6-.7-1.6-1.6zm4.5-5.3c0-3.5 1.7-7 5.6-7 3.8 0 5.6 3.5 5.6 7s-1.7 7-5.6 7c-3.9 0-5.6-3.5-5.6-7zm8.2 0c0-2.5-.7-4.4-2.7-4.4-1.9 0-2.7 1.9-2.7 4.4s.7 4.4 2.7 4.4c2 .1 2.7-1.9 2.7-4.4zm4.3 0c0-3.5 1.7-7 5.6-7 3.8 0 5.6 3.5 5.6 7s-1.7 7-5.6 7c-3.9 0-5.6-3.5-5.6-7zm8.2 0c0-2.5-.7-4.4-2.7-4.4-1.9 0-2.7 1.9-2.7 4.4s.7 4.4 2.7 4.4c2 .1 2.7-1.9 2.7-4.4z"/><path class="st11" d="M139.3 166.8h3v1h-3v-1zm85.8 1h-5.9v-1h5.9v1zm-11.9 0h-5.9v-1h5.9v1zm-11.8 0h-5.9v-1h5.9v1zm-11.8 0h-5.9v-1h5.9v1zm-11.8 0h-5.9v-1h5.9v1zm-11.9 0H160v-1h5.9v1zm-11.8 0h-5.9v-1h5.9v1zm76.9-1h3v1h-3v-1zm-91.7 39.1h3v1h-3v-1zm85.8 1.1h-5.9v-1h5.9v1zm-11.9 0h-5.9v-1h5.9v1zm-11.8 0h-5.9v-1h5.9v1zm-11.8 0h-5.9v-1h5.9v1zm-11.8 0h-5.9v-1h5.9v1zm-11.9 0H160v-1h5.9v1zm-11.8 0h-5.9v-1h5.9v1zm76.9-1.1h3v1h-3v-1z"/><path class="st12" d="M691.4 87.9c0-1.6 1.3-2.9 2.9-3.5-1.5-.5-2.7-1.5-2.7-3.2 0-2.5 2.7-3.6 5.2-3.6s5.2 1 5.2 3.6c0 1.7-1.2 2.7-2.7 3.2 1.6.6 2.9 1.8 2.9 3.5 0 2.5-2.6 3.7-5.4 3.7s-5.4-1.1-5.4-3.7zm7.8-.3c0-1.1-1.7-1.7-2.5-1.8-.8.1-2.5.7-2.5 1.8 0 1 1.1 1.6 2.5 1.6s2.5-.6 2.5-1.6zm-.2-5.9c0-1-1-1.5-2.3-1.5s-2.3.6-2.3 1.5c0 1 1.5 1.5 2.3 1.6 1-.1 2.3-.6 2.3-1.6zm4.5 3c0-3.5 1.7-7 5.6-7 3.8 0 5.6 3.5 5.6 7s-1.7 7-5.6 7c-3.7 0-5.6-3.5-5.6-7zm8.4 0c0-2.5-.7-4.4-2.6-4.4-1.9 0-2.7 1.9-2.7 4.4s.7 4.4 2.7 4.4c1.7 0 2.6-1.9 2.6-4.4zm4.3 0c0-3.5 1.7-7 5.6-7 3.8 0 5.6 3.5 5.6 7s-1.7 7-5.6 7-5.6-3.5-5.6-7zm8.2 0c0-2.5-.7-4.4-2.6-4.4-1.9 0-2.7 1.9-2.7 4.4s.7 4.4 2.7 4.4c1.9 0 2.6-1.9 2.6-4.4zm4.1 5.3c0-.9.7-1.6 1.6-1.6.9 0 1.6.7 1.6 1.6s-.7 1.6-1.6 1.6-1.6-.7-1.6-1.6zm4.5-5.3c0-3.5 1.7-7 5.6-7 3.8 0 5.6 3.5 5.6 7s-1.7 7-5.6 7c-3.8 0-5.6-3.5-5.6-7zm8.2 0c0-2.5-.7-4.4-2.6-4.4-1.9 0-2.7 1.9-2.7 4.4s.7 4.4 2.7 4.4c1.9 0 2.6-1.9 2.6-4.4zm4.3 0c0-3.5 1.7-7 5.6-7 3.8 0 5.6 3.5 5.6 7s-1.7 7-5.6 7-5.6-3.5-5.6-7zm8.3 0c0-2.5-.7-4.4-2.6-4.4-1.9 0-2.7 1.9-2.7 4.4s.7 4.4 2.7 4.4c1.8 0 2.6-1.9 2.6-4.4z"/><path class="st11" d="M677.8 64.9h3v1h-3v-1zm85.7 1h-5.9v-1h5.9v1zm-11.7 0h-5.9v-1h5.9v1zm-11.9 0H734v-1h5.9v1zm-11.9 0h-5.9v-1h5.9v1zm-11.8 0h-5.9v-1h5.9v1zm-11.7 0h-5.9v-1h5.9v1zm-12 0h-5.9v-1h5.9v1zm77-1h3v1h-3v-1zm-91.7 39.2h3v1h-3v-1zm85.7 1h-5.9v-1h5.9v1zm-11.7 0h-5.9v-1h5.9v1zm-11.9 0H734v-1h5.9v1zm-11.9 0h-5.9v-1h5.9v1zm-11.8 0h-5.9v-1h5.9v1zm-11.7 0h-5.9v-1h5.9v1zm-12 0h-5.9v-1h5.9v1zm77-1h3v1h-3v-1z"/><path class="st12" d="M762.7 242.9v-9.8l-2.2 2.3-1.6-1.7 4.2-4.3h2.5v13.5h-2.9zm4.9-6.7c0-3.5 1.7-7 5.6-7 3.8 0 5.6 3.5 5.6 7s-1.7 7-5.6 7-5.6-3.5-5.6-7zm8.2 0c0-2.5-.7-4.4-2.7-4.4-1.9 0-2.7 1.9-2.7 4.4s.7 4.4 2.7 4.4 2.7-1.9 2.7-4.4zm4.4 0c0-3.5 1.7-7 5.6-7 3.8 0 5.6 3.5 5.6 7s-1.7 7-5.6 7-5.6-3.5-5.6-7zm8.2 0c0-2.5-.7-4.4-2.7-4.4-1.9 0-2.7 1.9-2.7 4.4s.7 4.4 2.7 4.4 2.7-1.9 2.7-4.4zm4.1 5.3c0-.9.7-1.6 1.6-1.6.9 0 1.6.7 1.6 1.6 0 .9-.7 1.6-1.6 1.6-.8 0-1.6-.7-1.6-1.6zm4.5-5.3c0-3.5 1.7-7 5.6-7 3.8 0 5.6 3.5 5.6 7s-1.7 7-5.6 7-5.6-3.5-5.6-7zm8.3 0c0-2.5-.7-4.4-2.7-4.4-1.9 0-2.7 1.9-2.7 4.4s.7 4.4 2.7 4.4c1.9 0 2.7-1.9 2.7-4.4zm4.3 0c0-3.5 1.7-7 5.6-7 3.8 0 5.6 3.5 5.6 7s-1.7 7-5.6 7-5.6-3.5-5.6-7zm8.2 0c0-2.5-.7-4.4-2.7-4.4-1.9 0-2.7 1.9-2.7 4.4s.7 4.4 2.7 4.4 2.7-1.9 2.7-4.4z"/><path class="st11" d="M741.7 216.4h3v1h-3v-1zm85.8 1h-5.9v-1h5.9v1zm-11.9 0h-5.9v-1h5.9v1zm-11.8 0h-5.9v-1h5.9v1zm-11.8 0h-5.9v-1h5.9v1zm-11.8 0h-5.9v-1h5.9v1zm-11.9 0h-5.9v-1h5.9v1zm-11.8 0h-5.9v-1h5.9v1zm76.9-1h3v1h-3v-1zm-91.7 39.2h3v1h-3v-1zm85.8 1h-5.9v-1h5.9v1zm-11.9 0h-5.9v-1h5.9v1zm-11.8 0h-5.9v-1h5.9v1zm-11.8 0h-5.9v-1h5.9v1zm-11.8 0h-5.9v-1h5.9v1zm-11.9 0h-5.9v-1h5.9v1zm-11.8 0h-5.9v-1h5.9v1zm76.9-1h3v1h-3v-1z"/><path class="st12" d="M852 304.2c0-1.6 1.3-2.9 2.9-3.5-1.5-.5-2.7-1.5-2.7-3.2 0-2.5 2.7-3.6 5.2-3.6s5.2 1 5.2 3.6c0 1.7-1.2 2.7-2.7 3.2 1.6.6 2.9 1.8 2.9 3.5 0 2.5-2.6 3.7-5.4 3.7-2.9 0-5.4-1.2-5.4-3.7zm7.9-.4c0-1.1-1.7-1.7-2.5-1.8-.8.1-2.5.7-2.5 1.8 0 1 1.1 1.6 2.5 1.6 1.3.1 2.5-.6 2.5-1.6zm-.3-5.8c0-1-1-1.5-2.3-1.5s-2.3.6-2.3 1.5c0 1 1.5 1.5 2.3 1.6.9-.1 2.3-.6 2.3-1.6zm4.6 2.9c0-3.5 1.7-7 5.6-7 3.8 0 5.6 3.5 5.6 7s-1.7 7-5.6 7-5.6-3.5-5.6-7zm8.2 0c0-2.5-.7-4.4-2.6-4.4-1.9 0-2.7 1.9-2.7 4.4s.7 4.4 2.7 4.4c1.9.1 2.6-1.9 2.6-4.4zm4.2 5.4c0-.9.7-1.6 1.6-1.6s1.6.7 1.6 1.6-.7 1.6-1.6 1.6-1.6-.7-1.6-1.6zm4.5-5.4c0-3.5 1.7-7 5.6-7 3.8 0 5.6 3.5 5.6 7s-1.7 7-5.6 7-5.6-3.5-5.6-7zm8.2 0c0-2.5-.7-4.4-2.7-4.4-1.9 0-2.7 1.9-2.7 4.4s.7 4.4 2.7 4.4c2 .1 2.7-1.9 2.7-4.4zm4.3 0c0-3.5 1.7-7 5.6-7 3.8 0 5.6 3.5 5.6 7s-1.7 7-5.6 7-5.6-3.5-5.6-7zm8.2 0c0-2.5-.7-4.4-2.6-4.4-1.9 0-2.7 1.9-2.7 4.4s.7 4.4 2.7 4.4c1.9.1 2.6-1.9 2.6-4.4z"/><path class="st11" d="M827.2 320.4h3v1h-3v-1zm85.8 1h-5.9v-1h5.9v1zm-11.8 0h-5.9v-1h5.9v1zm-11.8 0h-5.9v-1h5.9v1zm-11.9 0h-5.9v-1h5.9v1zm-11.8 0h-5.9v-1h5.9v1zm-11.8 0H848v-1h5.9v1zm-11.8 0h-5.9v-1h5.9v1zm76.8-1h3v1h-3v-1z"/><path class="st12" d="M113 354.4l1.6-2c.9 1 2.2 1.5 3.6 1.5 1.6 0 2.5-.9 2.5-2 0-1.2-.9-2-2.4-2-1.1 0-2 .3-2.8 1.1l-2-.5v-7.7h9.3v2.5h-6.4v3.3c.6-.6 1.7-1.1 3-1.1 2.3 0 4.3 1.6 4.3 4.4 0 2.9-2.1 4.7-5.4 4.7-2.5-.2-4.2-1-5.3-2.2zm12-5c0-3.5 1.7-7 5.6-7 3.8 0 5.6 3.5 5.6 7s-1.7 7-5.6 7-5.6-3.5-5.6-7zm8.2 0c0-2.5-.7-4.4-2.7-4.4-1.9 0-2.7 1.9-2.7 4.4s.7 4.4 2.7 4.4c2 .1 2.7-1.9 2.7-4.4zm4.1 5.3c0-.9.7-1.6 1.6-1.6.9 0 1.6.7 1.6 1.6s-.7 1.6-1.6 1.6c-.8.1-1.6-.7-1.6-1.6zm4.5-5.3c0-3.5 1.7-7 5.6-7 3.8 0 5.6 3.5 5.6 7s-1.7 7-5.6 7c-3.8 0-5.6-3.5-5.6-7zm8.3 0c0-2.5-.7-4.4-2.7-4.4-1.9 0-2.7 1.9-2.7 4.4s.7 4.4 2.7 4.4c1.9.1 2.7-1.9 2.7-4.4zm4.3 0c0-3.5 1.7-7 5.6-7 3.8 0 5.6 3.5 5.6 7s-1.7 7-5.6 7c-3.9 0-5.6-3.5-5.6-7zm8.2 0c0-2.5-.7-4.4-2.7-4.4-1.9 0-2.7 1.9-2.7 4.4s.7 4.4 2.7 4.4c2 .1 2.7-1.9 2.7-4.4z"/><path class="st11" d="M92 329.7h3v1h-3v-1zm85.8 1h-5.9v-1h5.9v1zm-11.8 0h-5.9v-1h5.9v1zm-11.8 0h-5.9v-1h5.9v1zm-11.9 0h-5.9v-1h5.9v1zm-11.8 0h-5.9v-1h5.9v1zm-11.8 0h-5.9v-1h5.9v1zm-11.9 0h-5.9v-1h5.9v1zm76.9-1h3v1h-3v-1zM92 368.8h3v1h-3v-1zm85.8 1h-5.9v-1h5.9v1zm-11.8 0h-5.9v-1h5.9v1zm-11.8 0h-5.9v-1h5.9v1zm-11.9 0h-5.9v-1h5.9v1zm-11.8 0h-5.9v-1h5.9v1zm-11.8 0h-5.9v-1h5.9v1zm-11.9 0h-5.9v-1h5.9v1zm76.9-1h3v1h-3v-1z"/><path d="M65.7 335.4s-3.4.8-3.4 8.5v8.5H64l-.1 10.1h1.8v-27.1zM27 343.8h-1.2v-8.4h-1.2v8.4h-1.1v-8.4h-1.2v8.5c0 1.9 1 2.6 2 2.9v15.7H26v-15.6c1-.3 2.2-1 2.2-3v-8.5H27v8.4z"/><ellipse cx="44.7" cy="349" rx="10.6" ry="10.6"/><path d="M44.7 334.2c-8.1 0-14.8 6.6-14.8 14.8 0 8.1 6.6 14.8 14.8 14.8s14.9-6.7 14.8-14.8c0-8.1-6.6-14.8-14.8-14.8zm0 27.4c-7 0-12.7-5.7-12.7-12.7s5.7-12.7 12.7-12.7 12.7 5.7 12.7 12.7-5.7 12.7-12.7 12.7zM628.4 100l-3.2-6.3-6.5-3 2.2-1.6h5l7-7.3-12-6.4 3.1-3.1 14 4 4.3-4.3c.1-.1 1.8-1.8 3.7-1.8 1.5 0 2.7 1.2 2.7 2.7 0 1.8-1.7 3.6-1.8 3.7l-4.3 4.3 4 14-3.1 3.1-6.1-12-7 7v5l-2 2zm63.8 151.5h-.4c-1-.1-1.9-.2-2.8-.5-.1 0-.1 0-.1-.1v-5.3c.2.1.4.1.5.2.8.3 1.7.4 2.5.4.7 0 1.4-.2 2-.5.5-.3.8-.7 1-1.2v-.1c-.1.1-.2.2-.3.2-.6.4-1.3.7-2.1.7-1.1.1-2.2-.1-3.2-.6-1-.6-1.7-1.4-2-2.6-.2-.6-.2-1.1-.2-1.7v-10.3h5.9v8.5c0 .5.3.8.7.9.5.1 1.1-.3 1.1-.8V230h5.9v13.7c0 1.3-.3 2.6-.9 3.8-1 1.9-2.5 3.1-4.6 3.6-.6.2-1.3.2-1.9.3h-.1c-.4.1-.7.1-1 .1z"/><path d="M680.2 224.3h5.9v15.8c0 .8.1 1.6.4 2.4.3.8.7 1.6 1.4 2.2l.1.1.1.1c-.2.2-.5.4-.8.5-.8.3-1.7.5-2.5.4-1.1-.1-2-.5-2.9-1.2-.6-.6-1.1-1.3-1.4-2-.2-.6-.4-1.3-.4-2v-.1c.1-5.4.1-10.8.1-16.2zm27.2 9.1h3v5.9h-3v.1c0 .6 0 1.2-.1 1.8-.2 1.1-.7 2.1-1.5 2.9-.7.7-1.6 1.1-2.6 1.3-.5.1-1 .1-1.5 0h-.1v-13.8c0-2.4 1-4.3 2.8-5.8 1-.9 2.2-1.4 3.5-1.7 2.4-.5 4.6.1 6.5 1.6 1.4 1.1 2.2 2.6 2.6 4.3v.1h2v5.9h-1.8v1.6c0 1 .7 1.8 1.6 2h.3v5.8h-.4c-1-.1-1.9-.3-2.8-.7-2.4-1.1-3.8-2.9-4.4-5.5-.1-.6-.2-1.1-.2-1.7v-5.8c0-.9-.6-1.7-1.5-1.9-1.2-.3-2.3.5-2.5 1.7v1.8l.1.1zm94.7 79.5c-3.5 1.5-7.1 1.8-11.1.9-.2-.1-.5-.1-.7-.2-6.2-1.6-10.9-6.1-13.1-11.8-1.3-3.4-1.6-7.2-.8-11 .1-.5.2-1 .4-1.5l3.6 1.1 4 1.3c-.1.3-.2.6-.2.9-.5 2.2-.3 4.4.5 6.4l-3.7 2.2c1.4 4 6 7.7 9.5 8.5l1.8-3.9c.1 0 .3.1.4.1 2.3.5 4.2.4 6.3-.5l1.6 3.9 1.5 3.6z"/></svg>