<?xml version="1.0" encoding="utf-8"?>
<!-- Generator: Adobe Illustrator 22.0.0, SVG Export Plug-In . SVG Version: 6.00 Build 0)  -->
<svg version="1.1" id="Layer_1" xmlns="http://www.w3.org/2000/svg" xmlns:xlink="http://www.w3.org/1999/xlink" x="0px" y="0px"
	 viewBox="0 0 950 550" style="enable-background:new 0 0 950 550;" xml:space="preserve">
<style type="text/css">
	.st0{fill:#FFDECC;}
	.st1{fill:#FFD8CC;}
	.st2{opacity:0.1;fill:url(#SVGID_1_);enable-background:new    ;}
	.st3{fill:#FFFFFF;}
	.st4{fill:#505069;}
	.st5{fill:#FFEEED;}
	.st6{fill:#FF615E;}
	.st7{fill:#535E75;}
	.st8{fill:#FF9191;}
	.st9{fill:#212332;}
	.st10{fill:#E6EEF7;}
	.st11{fill:#059970;}
	.st12{fill:#07BF8B;}
	.st13{fill:#163B55;}
	.st14{fill:#3A5C74;}
	.st15{fill:#231F20;}
	.st16{fill:#F7726F;}
	.st17{fill:#B03D5C;}
	.st18{fill:#FAEDED;}
	.st19{fill:#EDCCCC;}
	.st20{fill:#D8E3F0;}
	.st21{opacity:0.1;fill:url(#SVGID_2_);enable-background:new    ;}
	.st22{font-family:'SourceHanSansCN-Medium-GBpc-EUC-H';}
	.st23{font-size:19px;}
	.st24{font-size:25px;}
	.st25{font-size:20px;}
	.st26{fill:#7A859C;}
	.st27{font-family:'SourceHanSansCN-Regular-GBpc-EUC-H';}
	.st28{font-size:16px;}
</style>
<path class="st0" d="M3.2,281.3c0.3,10.3,2,21.1,9,28.7c8.6,9.4,22.6,11,35.4,11.6c38.3,2.3,101.4,2.9,139.9,1.4
	c3.8-0.1,17.1,1.5,27-12.8c9.8-14.1,11.2-34.1,11.3-51.3c0.2-57.8,0.6-31.7,0.8-89.4c13.9-2.1,26.8-6.9,33.1-17.6
	c4.2-7,4.7-15.1,5-23.1c0.7-30.4,0.7-68.9,0.7-95.6c0-14-7.1-25.6-24.2-25.6c-73,0-44.4-0.1-117.5,0.2C108,7.9,90.5,8.6,79.2,18.4
	C68,28.2,66.9,43.8,66.4,57.9c-0.2,7.8-0.5,62.9-0.7,70.7c-1,35.2-65.5,0.2-65.7,35.3C-0.2,194.7,2.5,262.2,3.2,281.3L3.2,281.3z"/>
<path class="st1" d="M933.5,246.2v18.2c0,10.5-2.2,116.6-3.4,138.5c-0.7,13.7-3,29.8-16.7,36.7c-6.8,3.4-14.9,3.7-22.9,3.9
	c-57.5,1.1-161.6,0.7-218.4,0.7c-5.1,0-10.1-1-14.9-2.3c-15.5-4.1-29.8-15.4-33.1-29.2c-1.5-6-1.3-10.8-1.5-11.1V205.4h280.2
	c3.3,0,15.2,0,23.2,7.5C933.8,219.9,933.5,228.9,933.5,246.2z"/>
<linearGradient id="SVGID_1_" gradientUnits="userSpaceOnUse" x1="195.2921" y1="-179.0452" x2="871.0111" y2="150.0668" gradientTransform="matrix(1 0 0 1 0 288)">
	<stop  offset="0" style="stop-color:#363DBA"/>
	<stop  offset="1" style="stop-color:#363DBA;stop-opacity:0.2"/>
</linearGradient>
<path class="st2" d="M137.2,7.6h542.4c8.9,0,16.3,7.2,16.3,16.3v377.7c0,8.9-7.2,16.3-16.3,16.3H137.2c-8.9,0-16.3-7.2-16.3-16.3
	V23.8C120.9,14.9,128.2,7.6,137.2,7.6z"/>
<path class="st3" d="M137.4,0h541.2c5.5,0,10,4.5,10,10v390.7c0,5.5-4.5,10-10,10H137.4c-5.5,0-10-4.5-10-10V10
	C127.4,4.5,131.8,0,137.4,0z"/>
<path class="st1" d="M323.5,376.1H197.9c-2,0-3.6-1.6-3.6-3.6v-34.7c0-2,1.6-3.6,3.6-3.6h125.6c2,0,3.6,1.6,3.6,3.6v34.7
	C327.1,374.5,325.5,376.1,323.5,376.1z"/>
<path class="st4" d="M688.6,44.3H127.4V10c0-5.5,4.5-10,10-10h541.2c5.5,0,10,4.5,10,10V44.3z"/>
<path class="st5" d="M463.8,373.6H352.6c-2,0-3.6-1.6-3.6-3.6v-33.9c0-2,1.6-3.6,3.6-3.6h111.2c2,0,3.6,1.6,3.6,3.6V370
	C467.4,372,465.8,373.6,463.8,373.6z"/>
<path class="st6" d="M323.5,373.6H197.9c-2,0-3.6-1.6-3.6-3.6v-33.9c0-2,1.6-3.6,3.6-3.6h125.6c2,0,3.6,1.6,3.6,3.6V370
	C327.1,372,325.5,373.6,323.5,373.6z"/>
<path class="st7" d="M379.4,138.1l1.6-1.7c1.3,1.7,3.5,2.8,6,2.8c3.1,0,5-1.6,5-4c0-2.7-2.2-3.8-5.4-3.8h-2.2V129h2.2
	c2.7,0,5-1.1,5-3.6c0-2.4-2.2-3.7-4.8-3.7c-2.4,0-4.1,0.9-5.7,2.6l-1.5-1.7c1.6-1.9,4-3.3,7.4-3.3c4.1,0,7.3,2.1,7.3,5.8
	c0,3.1-2.6,4.7-4.7,5c2,0.2,5,1.8,5,5.3c0,3.6-2.9,6.2-7.6,6.2C383.4,141.6,380.7,140,379.4,138.1L379.4,138.1z M398.1,130.5
	c0-5.3,2.3-11.1,8.3-11.1c5.9,0,8.3,5.9,8.3,11.1s-2.4,11.2-8.3,11.2C400.4,141.6,398.1,135.7,398.1,130.5z M411.8,130.5
	c0-4.3-1.4-8.7-5.5-8.7s-5.5,4.4-5.5,8.7c0,4.3,1.4,8.8,5.5,8.8C410.5,139.3,411.8,134.8,411.8,130.5z M417.9,130.5
	c0-5.3,2.3-11.1,8.3-11.1c5.9,0,8.3,5.9,8.3,11.1s-2.4,11.2-8.3,11.2C420.2,141.6,417.9,135.7,417.9,130.5z M431.7,130.5
	c0-4.3-1.4-8.7-5.5-8.7s-5.5,4.4-5.5,8.7c0,4.3,1.4,8.8,5.5,8.8S431.7,134.8,431.7,130.5z M437,139.8c0-1,0.8-1.8,1.8-1.8
	s1.8,0.8,1.8,1.8s-0.8,1.8-1.8,1.8S437,140.8,437,139.8z M443.1,130.5c0-5.3,2.3-11.1,8.3-11.1c5.9,0,8.3,5.9,8.3,11.1
	s-2.4,11.2-8.3,11.2C445.5,141.6,443.1,135.7,443.1,130.5z M456.9,130.5c0-4.3-1.4-8.7-5.5-8.7s-5.5,4.4-5.5,8.7
	c0,4.3,1.4,8.8,5.5,8.8S456.9,134.8,456.9,130.5z M462.9,130.5c0-5.3,2.3-11.1,8.3-11.1c5.9,0,8.3,5.9,8.3,11.1s-2.4,11.2-8.3,11.2
	C465.3,141.6,462.9,135.7,462.9,130.5z M476.7,130.5c0-4.3-1.4-8.7-5.5-8.7s-5.5,4.4-5.5,8.7c0,4.3,1.4,8.8,5.5,8.8
	S476.7,134.8,476.7,130.5z"/>
<path class="st8" d="M457.4,227c0,0.9,0,1.8-0.1,2.7c-0.4,5.8-2.1,11.3-4.7,16.2c-0.8,1.5-1.7,2.9-2.7,4.2
	c-7.2,9.9-18.8,16.3-32,16.3c-15.5,0-29-8.9-35.4-22c-1.3-2.7-2.4-5.5-3.1-8.5c-0.7-2.9-1-5.9-1-9c0-21.8,17.7-39.5,39.5-39.5
	C439.7,187.5,457.4,205.2,457.4,227L457.4,227z"/>
<path class="st1" d="M452.5,245.9c-0.8,1.5-1.7,2.9-2.7,4.2c-7.2,9.9-18.8,16.3-32,16.3c-15.5,0-29-8.9-35.4-22
	c9.3-4.4,14.1-4.7,36.8-3.8c5.2,0.2,18.2,0.4,26,1.9C447.2,242.9,449.7,244.2,452.5,245.9L452.5,245.9z"/>
<path class="st3" d="M421.5,235.9c0,1.9,0,3.9-0.1,5.8c-0.1,1.4-1,2.4-2.2,3.1s-2.7,0.8-4.1,0.8c-2.9,0.1-6-0.3-8.4-2
	c-0.7-0.6-1.2-1.4-1.4-2.4c-0.1-6.6-0.3-13.5-0.4-20.1l16.6-0.7V235.9L421.5,235.9z"/>
<path class="st3" d="M431.7,209.8c-0.1,3.9-0.2,7.7-0.4,11.6c-0.1,3.7-0.5,15.9-4.7,17.2c-5,1.6-8.8,1.1-12.5,0
	c-2.2-0.6-4.3-1.5-6-3.4c-2.2-2.4-3.1-6.1-3.1-7.9c-0.1-5.6-0.1-11.9,0.4-20.6L431.7,209.8L431.7,209.8z"/>
<path class="st3" d="M405,225.9c-0.5,0.5-1.7,0.6-2.2,0.1s-0.8-1.2-0.9-1.9c-0.2-1.2-0.3-2.4,0-3.5c0.1-0.8,0.4-1.6,1.1-2.1
	s1.8-0.3,2,0.4V225.9z"/>
<path class="st9" d="M404.9,218.8c2.2-0.2,2.9-0.4,3.5-0.7c1.7-1,1.1-2.5,1.4-4.3c0.2-1.2,0.5-2.5,1.4-3.3c1.1-0.9,2.5-1,3.3-0.9
	c9.4,0.2,16.3,2,19.5-0.9c1-0.9,1.6-3,2.7-7.1c0.7-2.4,1-4.4,1.2-5.9c-3.2,0-6.3-0.1-9-0.1c-2.7-0.1-4.4-0.1-7-0.1
	c-8.5-0.1-10.1,0.2-11.8,1.1c-0.9,0.4-2.9,1.6-4.1,3.9c-0.8,1.6-0.8,3.1-0.8,3.9C404.8,208.6,404.8,214.4,404.9,218.8L404.9,218.8z"
	/>
<path class="st10" d="M619.2,234.8H490.6c-1.4,0-2.5-1.1-2.5-2.5v-4.6c0-1.4,1.1-2.5,2.5-2.5h128.5c1.4,0,2.5,1.1,2.5,2.5v4.6
	C621.7,233.7,620.6,234.8,619.2,234.8L619.2,234.8z M575.9,256.2h-85.3c-1.4,0-2.5-1.1-2.5-2.5v-4.6c0-1.4,1.1-2.5,2.5-2.5h85.3
	c1.4,0,2.5,1.1,2.5,2.5v4.6C578.5,255.1,577.3,256.2,575.9,256.2z"/>
<path class="st11" d="M863.5,332.6c0,0,4.1-19.4,22-16.1l8.8,7c0,0-7.8-0.7-10.1,0C878.7,325.1,870.1,328.4,863.5,332.6z"/>
<path class="st12" d="M862.4,333.6c0,0-0.6-27,15.6-34.1l12.7,6.6c0,0-10,6.3-10.8,18.9C873.6,327.1,867.7,330.1,862.4,333.6z"/>
<path class="st3" d="M792.1,332.7c-0.1-9.7-0.2-17.4-0.2-27.4c0-5.7,1.5-14.4,12.9-14.9s13.5,8.4,13.5,12.2c0,3.4,0.2,6.7,0.2,10.1
	c0.1,3.5,0,7.5-2.5,10c-2.1,2.1-5.4,2.5-8.5,2.6c0,1.5,0,3.6,0.1,5.4L792.1,332.7L792.1,332.7z"/>
<path class="st9" d="M791.7,320.4c3.7,0.3,8.2,0.5,11.8,0c0.7-0.1,1.5-0.2,2.2-0.6c2-1.2,1.9-4,1.8-6.3c-0.1-2.2,0-4.4,0.3-6.6
	c0.2-1.4,0.5-2.9,1.6-3.8c1-0.9,2.4-1,3.8-1.1c1.7-0.1,3.3-0.2,5-0.3c0.5,0,1-0.1,1.4-0.3c1.1-0.6,1.3-2,1.3-3.2
	c0.1-2.8,0.2-5.6,0.4-8.5c-3.7-0.3-7.3-0.6-11-0.7c-4.5-0.1-9.2-0.1-13.3,1.7c-1.7,0.8-3.3,1.9-4.2,3.5c-0.7,1.4-0.9,3-1,4.5
	C791.4,303.8,791.6,315.3,791.7,320.4L791.7,320.4z"/>
<path class="st13" d="M773.8,416.6c4.2,12.4,9.8,30.3,16.8,49.3c-3.9,12.5-14.4,41.4-20.7,57.1c-1.3,3.4-4.2,8.2-5.1,11.5
	c8.4,8.8,13.7,12.4,18.7,15.5c3.4-0.1,5.2,0.1,10.3,0c0.6-0.4,1.8-5.8-1.2-8.7c-4.1-4-5.7-5.5-7.6-7.8c10.5-21.9,21-45,25.6-55.8
	c2.2-5.1,5.9-14.6,6.5-19.9c2.6-21.2,4.7-38.6,3.3-50L773.8,416.6z"/>
<path class="st14" d="M827.2,406.3l-36.4,10.8c1.6,19.2,7.2,36.9,8.8,57.4c1.9,24.2-0.1,52.7,1.2,75.4h26.9c3.2,0,4.4-4.9,1.1-7.9
	c-3.3-3-14-3.2-14-3.2c2-20.1,8-42.5,9.8-61.5C826.9,453.7,825.1,430.5,827.2,406.3L827.2,406.3z"/>
<path class="st15" d="M719.8,466.4l-0.9-0.4c4.3-8.8,11.6-23.2,15.1-30.1l0.4-0.8c1-2.1,4.2-3.9,7.1-4h14.9c1.6-0.1,2.9,0.4,3.5,1.3
	c0.5,0.7,0.5,1.6,0,2.5c-4,8.1-11.4,22.9-15.3,31.4l-0.9-0.4c3.9-8.5,11.3-23.3,15.3-31.4c0.2-0.4,0.4-1,0.1-1.5
	c-0.4-0.6-1.4-0.9-2.7-0.9h-14.9c-2.5,0.1-5.4,1.7-6.2,3.4l-0.4,0.8C731.3,443.2,724.1,457.6,719.8,466.4L719.8,466.4z"/>
<path class="st15" d="M755.6,433.1h-15.3c-2.1-0.1-2-3.5,1.7-3.5h14.8C759.5,429.6,759.4,433.2,755.6,433.1z"/>
<path class="st16" d="M740.8,467c-0.5,1-1,1.9-1.5,2.9c-13,25.4-25.9,52.9-30.6,61.9c-1.2,2.2-3,6.2-5.6,7.9c-2.3,1.5-5,1.3-6.2,1.3
	c-5.6,0-8.3,0.1-18.5,0.3c-2.4,0-4.7,0.1-6.7,0.1h-3.4c-2.4,0-4.9,0-6.2-1.2c-2-1.7-0.7-5.2,0.8-8.2c11.7-23.5,19.9-39.8,31.5-63.2
	c2.9-5.9,8.4-6.9,12-6.9c13.5-0.2,16.8-0.3,30.1-0.3h1c1.4,0,2.7,0.2,3.4,0.9C742.1,463.8,741.3,466,740.8,467L740.8,467z"/>
<path class="st8" d="M690.9,531.8h-13.4c-2,0-2.9-1.4-2.1-3.1l3.4-6.9c0.8-1.7,3.1-3.1,5.1-3.1h13.4c2,0,2.9,1.4,2.1,3.1l-3.4,6.9
	C695.2,530.4,692.9,531.8,690.9,531.8z"/>
<path class="st17" d="M750.2,475.2c-13.5,26.2-27.3,55.4-32.1,64.8c-1.2,2.2-3,6.3-5.6,7.9c-2.3,1.5-5,1.3-6.2,1.3
	c-5.6,0-8.4,0.1-18.5,0.3c-4,0-7.5,0.1-10.1,0.1c-2.4,0-4.9,0-6.3-1.2l-9.4-8.2c1.3,1.2,3.9,1.2,6.2,1.2h3.4c2,0,4.3,0,6.7-0.1
	c10.2-0.1,12.9-0.3,18.5-0.3c1.2,0,3.9,0.2,6.2-1.3c2.6-1.7,4.5-5.7,5.6-7.9c4.7-9,17.6-36.5,30.6-61.9c0.5-1,1-1.9,1.5-2.9
	c0.5-0.9,1.3-3.1,0.1-4.4l9.4,8.2C751.5,472,750.7,474.3,750.2,475.2L750.2,475.2z"/>
<path class="st18" d="M871,339.4c-3.5,12.5-6.7,24.9-9.7,36.9c-0.4,1.6-0.6,3.3-1.5,4.7c-1.7,2.5-5.1,3.5-8.1,3.1s-5.7-2-8.3-3.6
	c-5.1-3.2-10.1-6.6-15-10.3c-0.1,10.2-0.3,25.5-0.4,35.4c0,2.6-0.1,5.4-1.2,7.7c-1.1,2.3-2.5,3.2-5.2,4.1
	c-10.3,2.3-36.8,2.3-47.1-0.1c-0.4-0.1-1.2-2.6-1.9-6.9c-0.3-1.9-0.6-4.1-1-6.5c-2.1-17.3-7-47.1,3-72.1c1-0.7,7-2.2,9-2.5
	c2.1-0.4,4.3-0.6,5.6-0.7c9.6-0.4,19.2-0.4,28.9,0.1c2.4,0.1,5,0.3,7.1,1.6c1.6,1,2.8,2.6,3.9,4.2c6.3,8.9,12.2,18,17.7,27.4
	c4.3-8.1,9.5-17.6,13.6-25.6l0.3-0.6C862.7,334.9,868.4,333.5,871,339.4L871,339.4z"/>
<path class="st3" d="M755.5,427.8c-0.7,1.9-2.8,1.8-2.8,1.8c-0.9,0.9-1.2,2.2-0.3,3.5c-0.5,2-8.7,1.5-9.6,0.5
	c-1-1.1-1.4-3.3-0.5-4.7c1.4-2.1,4.2-4.4,5.4-5.6C749.6,422.9,753.8,423.5,755.5,427.8L755.5,427.8z"/>
<path class="st19" d="M771.4,403.9c-4.3,6.3-11,16.8-15.9,23.9c-1.7-4.3-5.9-4.9-7.8-4.4c7.8-31.8,17.1-71.4,26.7-91.6
	C764.4,356.8,769.3,386.6,771.4,403.9z"/>
<ellipse transform="matrix(8.794226e-02 -0.9961 0.9961 8.794226e-02 478.6267 1159.2433)" class="st3" cx="872.4" cy="318.2" rx="4.3" ry="3.1"/>
<path class="st3" d="M880.7,324.7c0,0-2.1,0.6-5,1.7l1.2-3.8c-3.6-1.1-6.3,4.3-7.2,6.4c-4.2,0.8-7.6,4.1-9.2,6.8
	c2.2-0.8,7.9-2.2,10.5,3.7c0.1-0.3,0.1-0.5,0.2-0.8C879.5,334.7,881.3,330.1,880.7,324.7L880.7,324.7z"/>
<path class="st20" d="M199.6,299.5h422.1v1H199.6V299.5z"/>
<linearGradient id="SVGID_2_" gradientUnits="userSpaceOnUse" x1="608.2" y1="5.8" x2="869.8" y2="5.8" gradientTransform="matrix(1 0 0 -1 0 552)">
	<stop  offset="0" style="stop-color:#363DBA;stop-opacity:0"/>
	<stop  offset="0.554" style="stop-color:#363DBA"/>
	<stop  offset="0.996" style="stop-color:#363DBA;stop-opacity:9.000000e-03"/>
	<stop  offset="1" style="stop-color:#363DBA;stop-opacity:0"/>
</linearGradient>
<path class="st21" d="M608.2,550h261.5l0.1-7.6H608.2V550z"/>
<text transform="matrix(1 0 0 1 193 29.7)" class="st3 st22 st23">报销</text>
<text transform="matrix(1 0 0 1 194.4 88.4998)" class="st7 st22 st24">差旅</text>
<text transform="matrix(1 0 0 1 488.1002 210.2998)" class="st7 st22 st25">李华</text>
<text transform="matrix(1 0 0 1 193.0001 129.8998)" class="st26 st27 st28">报销金额</text>
<text transform="matrix(1 0 0 1 193.0002 211.8999)" class="st26 st27 st28">报销给</text>
<text transform="matrix(1 0 0 1 244.7999 359.1541)" class="st3 st22 st28">报销</text>
<text transform="matrix(1 0 0 1 393.3001 358.2998)" class="st6 st22 st28">取消</text>
</svg>
