<?xml version="1.0" encoding="utf-8"?>
<!-- Generator: Adobe Illustrator 22.0.0, SVG Export Plug-In . SVG Version: 6.00 Build 0)  -->
<svg version="1.1" id="Layer_1" xmlns="http://www.w3.org/2000/svg" xmlns:xlink="http://www.w3.org/1999/xlink" x="0px" y="0px"
	 viewBox="0 0 950 550" style="enable-background:new 0 0 950 550;" xml:space="preserve">
<style type="text/css">
	.st0{fill:#FFD8CC;}
	.st1{opacity:0.1;fill:url(#SVGID_1_);enable-background:new    ;}
	.st2{fill:#FFFFFF;}
	.st3{fill:#505069;}
	.st4{fill:#F7F9FC;}
	.st5{fill:#EFF4FC;}
	.st6{fill:#D8E3F0;}
	.st7{fill:#9CC1F5;}
	.st8{fill:#FF615E;}
	.st9{fill:#E6EEF7;}
	.st10{fill:#DEE8F2;}
	.st11{fill:#9696B3;}
	.st12{fill:#535E75;}
	.st13{fill:#B2BECF;}
	.st14{fill:#B03D5C;}
	.st15{fill:#F7726F;}
	.st16{fill:#231F20;}
	.st17{fill:#C45467;}
	.st18{fill:#7A859C;}
	.st19{fill:#163B55;}
	.st20{fill:#3A5C74;}
	.st21{fill:#EDCCCC;}
	.st22{fill:#212332;}
	.st23{fill:#FFCCCC;}
	.st24{fill:#FAF3F3;}
	.st25{fill:#466F8C;}
	.st26{font-family:'SourceHanSansCN-Medium-GBpc-EUC-H';}
	.st27{font-size:18px;}
	.st28{font-size:16px;}
	.st29{font-size:27px;}
	.st30{font-family:'SourceHanSansCN-Regular-GBpc-EUC-H';}
	.st31{font-size:12px;}
	.st32{font-size:14px;}
	.st33{fill:#3798E3;}
</style>
<path class="st0" d="M926.8,549.3c3,0,6.2-0.2,8.9-2.3c1.8-1.4,3.3-3,3.3-4.3c0-34.2,1.4-75.3,1.4-75.3c-0.5-6.9,2.6-24.4-13.3-24.4
	c-12.2,0-34.5,0.5-41.2-4.4c-6.4-4.7-5.9-9.8-5.9-13c0-31.8,1.9-79.3-2.4-118.4c-1-9.4-7.6-17.6-16.8-24.8c-9.5-7.5-33-9.3-77.5-9.3
	c-49.7,0.1-15.3-0.6-47.4-1c-18.1-0.2-34.3-1.1-51.6,7.2c-7,3.4-13.8,7.9-18.4,14.8c-3.8,5.6-6,12.4-7.5,19.2
	c-6.6,29.6,6.2,138.7-13.4,138.6c-11.8-0.1-26.1,0.5-32,12c-2.2,4.4-2.7,9.5-3.1,14.5c-1,14.7-1.1,30.2-0.3,44.9
	c0.5,8.2,1.8,9.9,2.2,10.7c5.5,10.8,20.7,15.5,27,15.5c92.6,0,220.5-0.2,250.9-0.2C905.3,549.4,911.3,549.3,926.8,549.3L926.8,549.3
	z"/>
<linearGradient id="SVGID_1_" gradientUnits="userSpaceOnUse" x1="98.9528" y1="-525.9684" x2="948.0938" y2="-939.5464" gradientTransform="matrix(1 0 0 -1 0 -394)">
	<stop  offset="0" style="stop-color:#363DBA"/>
	<stop  offset="1" style="stop-color:#363DBA;stop-opacity:0.2"/>
</linearGradient>
<path class="st1" d="M16.3,19h701.6c8.9,0,16.3,7.2,16.3,16.3L734,486.6c0,12.8-10.4,23.2-23.2,23.2L25,509.4
	c-13.8,0-25-11.2-25-25.1V35.1C0,26.2,7.3,19,16.3,19z"/>
<path class="st2" d="M27.6,0.3h677.7c11,0,20,9,20,20v460.6c0,11-9,20-20,20H27.6c-11,0-20-9-20-20V20.3C7.6,9.3,16.5,0.3,27.6,0.3z
	"/>
<path class="st3" d="M151.8,500.9H27.6c-11,0-20-9-20-20V44.6h144.2V500.9z"/>
<path class="st4" d="M151.8,0.3H296v500.6H151.8V0.3z"/>
<path class="st5" d="M725.3,44.6H7.6V20.3c0-11,9-20,20-20h677.7c11,0,20,9,20,20V44.6z"/>
<path class="st6" d="M151.8,44.6H296v39.8H151.8V44.6z M698.7,229.5H324.8v-23.7c0-5.5,4.5-10,10-10h353.9c5.5,0,10,4.5,10,10
	L698.7,229.5L698.7,229.5z"/>
<path class="st7" d="M687.2,365.9v-1.5h6.1v1.5H687.2z M681.1,365.9H675v-1.5h6.1L681.1,365.9L681.1,365.9z M669,365.9h-6.1v-1.5
	h6.1V365.9z M656.9,365.9h-6.1v-1.5h6.1V365.9z M644.7,365.9h-6.1v-1.5h6.1V365.9z M632.6,365.9h-6.1v-1.5h6.1V365.9z M620.4,365.9
	h-6.1v-1.5h6.1V365.9z M608.3,365.9h-6.1v-1.5h6.1V365.9z M596.2,365.9h-6.1v-1.5h6.1V365.9z M584,365.9h-6v-1.5h6.1L584,365.9z
	 M571.9,365.9h-6.1v-1.5h6.1V365.9z M559.7,365.9h-6.1v-1.5h6.1V365.9z M547.6,365.9h-6.1v-1.5h6.1V365.9z M535.5,365.9h-6.1v-1.5
	h6.1V365.9z M523.3,365.9h-6.1v-1.5h6.1V365.9z M511.2,365.9h-6.1v-1.5h6.1V365.9z M499,365.9h-6v-1.5h6.1v1.5H499z M486.9,365.9
	h-6.1v-1.5h6.1V365.9z M474.8,365.9h-6.1v-1.5h6.1V365.9z M462.6,365.9h-6.1v-1.5h6.1V365.9z M450.5,365.9h-6.1v-1.5h6.1V365.9z
	 M438.3,365.9h-6.1v-1.5h6.1V365.9z M426.2,365.9h-6.1v-1.5h6.1V365.9z M414.1,365.9H408v-1.5h6.1L414.1,365.9L414.1,365.9z
	 M401.9,365.9h-6.1v-1.5h6.1V365.9z M389.8,365.9h-6.1v-1.5h6.1V365.9z M377.6,365.9h-6.1v-1.5h6.1V365.9z M365.5,365.9h-6.1v-1.5
	h6.1V365.9z M353.4,365.9h-6.1v-1.5h6.1V365.9z M341.2,365.9h-6.1v-1.5h6.1V365.9z M328.9,365.7c-2.3-0.5-4.2-2.3-4.7-4.6l1.5-0.4
	c0.4,1.7,1.8,3.1,3.5,3.4L328.9,365.7z M698.9,362.3l-1.4-0.6c0.3-0.6,0.4-1.3,0.4-2V356h1.5v3.7
	C699.4,360.6,699.3,361.5,698.9,362.3L698.9,362.3z M325.6,354.9h-1.5v-6.1h1.5V354.9z M699.4,349.9h-1.5v-6.1h1.5V349.9z
	 M325.6,342.8h-1.5v-6.1h1.5V342.8z M699.4,337.8h-1.5v-6.1h1.5V337.8z M325.6,330.7h-1.5v-6.1h1.5V330.7z M699.4,325.7h-1.5v-6.1
	h1.5V325.7z M325.6,318.5h-1.5v-3.7c0-0.9,0.2-1.8,0.6-2.6l1.4,0.6c-0.3,0.6-0.4,1.3-0.4,2v3.7H325.6z M697.8,313.7
	c-0.4-1.7-1.8-3.1-3.6-3.4l0.3-1.5c2.3,0.5,4.2,2.3,4.7,4.5L697.8,313.7z M688.3,310.2h-6.1v-1.5h6.1V310.2z M676.2,310.2h-6.1v-1.5
	h6.1V310.2z M664,310.2h-6v-1.5h6.1L664,310.2z M651.9,310.2h-6.1v-1.5h6.1V310.2z M639.8,310.2h-6.1v-1.5h6.1V310.2z M627.6,310.2
	h-6.1v-1.5h6.1V310.2z M615.5,310.2h-6.1v-1.5h6.1V310.2z M603.3,310.2h-6.1v-1.5h6.1V310.2z M591.2,310.2h-6.1v-1.5h6.1V310.2z
	 M579.1,310.2H573v-1.5h6.1L579.1,310.2L579.1,310.2z M566.9,310.2h-6.1v-1.5h6.1V310.2z M554.8,310.2h-6.1v-1.5h6.1V310.2z
	 M542.6,310.2h-6.1v-1.5h6.1V310.2z M530.5,310.2h-6.1v-1.5h6.1V310.2z M518.4,310.2h-6.1v-1.5h6.1V310.2z M506.2,310.2h-6.1v-1.5
	h6.1V310.2z M494.1,310.2H488v-1.5h6.1L494.1,310.2L494.1,310.2z M481.9,310.2h-6.1v-1.5h6.1V310.2z M469.8,310.2h-6.1v-1.5h6.1
	V310.2z M457.7,310.2h-6.1v-1.5h6.1V310.2z M445.5,310.2h-6.1v-1.5h6.1V310.2z M433.4,310.2h-6.1v-1.5h6.1V310.2z M421.2,310.2h-6.1
	v-1.5h6.1V310.2z M409.1,310.2H403v-1.5h6.1L409.1,310.2L409.1,310.2z M397,310.2h-6.1v-1.5h6.1V310.2z M384.8,310.2h-6.1v-1.5h6.1
	V310.2z M372.7,310.2h-6.1v-1.5h6.1V310.2z M360.5,310.2h-6.1v-1.5h6.1V310.2z M348.4,310.2h-6.1v-1.5h6.1V310.2z M336.3,310.2h-6
	v-1.5h6.1v1.5H336.3z"/>
<path class="st4" d="M406.8,296.3h356.5V352H406.8V296.3z M324.8,229.5h373.9v55.7H324.8V229.5z"/>
<path class="st8" d="M7.6,134.7h144.2V179H7.6V134.7z"/>
<path class="st9" d="M270.4,108.1h-93.8c-1.4,0-2.5-1.1-2.5-2.5V101c0-1.4,1.1-2.5,2.5-2.5h93.8c1.4,0,2.5,1.1,2.5,2.5v4.6
	C272.9,107,271.8,108.1,270.4,108.1z"/>
<path class="st2" d="M281.3,31.6H177.4c-5,0-9.1-4.1-9.1-9.1v-0.2c0-5,4.1-9.1,9.1-9.1h103.9c5,0,9.1,4.1,9.1,9.1v0.2
	C290.4,27.6,286.3,31.6,281.3,31.6z"/>
<path class="st10" d="M117.1,31.6h-70c-5,0-9.1-4.1-9.1-9.1v-0.2c0-5,4.1-9.1,9.1-9.1h70c5,0,9.1,4.1,9.1,9.1v0.2
	C126.3,27.6,122.2,31.6,117.1,31.6z"/>
<path class="st11" d="M111.7,71.6H32.8c-1.4,0-2.5-1.1-2.5-2.5v-4.6c0-1.4,1.1-2.5,2.5-2.5h78.9c1.4,0,2.5,1.1,2.5,2.5V69
	C114.2,70.4,113.1,71.6,111.7,71.6z M91.5,116.6H32.8c-1.4,0-2.5-1.1-2.5-2.5v-4.6c0-1.4,1.1-2.5,2.5-2.5h58.7
	c1.4,0,2.5,1.1,2.5,2.5v4.6C94,115.5,92.9,116.6,91.5,116.6z M91.5,206.7H32.8c-1.4,0-2.5-1.1-2.5-2.5v-4.6c0-1.4,1.1-2.5,2.5-2.5
	h58.7c1.4,0,2.5,1.1,2.5,2.5v4.6C94,205.6,92.9,206.7,91.5,206.7z M91.5,251.8H32.8c-1.4,0-2.5-1.1-2.5-2.5v-4.6
	c0-1.4,1.1-2.5,2.5-2.5h58.7c1.4,0,2.5,1.1,2.5,2.5v4.6C94,250.7,92.9,251.8,91.5,251.8z"/>
<path class="st9" d="M270.4,153.2h-93.8c-1.4,0-2.5-1.1-2.5-2.5v-4.6c0-1.4,1.1-2.5,2.5-2.5h93.8c1.4,0,2.5,1.1,2.5,2.5v4.6
	C272.9,152.1,271.8,153.2,270.4,153.2z"/>
<path class="st2" d="M527,217.4h-93.8c-1.4,0-2.5-1.1-2.5-2.5v-4.6c0-1.4,1.1-2.5,2.5-2.5H527c1.4,0,2.5,1.1,2.5,2.5v4.6
	C529.6,216.3,528.4,217.4,527,217.4z M380.2,217.4h-34.4c-1.4,0-2.5-1.1-2.5-2.5v-4.6c0-1.4,1.1-2.5,2.5-2.5h34.4
	c1.4,0,2.5,1.1,2.5,2.5v4.6C382.8,216.3,381.6,217.4,380.2,217.4z M657.7,217.4h-63.4c-1.4,0-2.5-1.1-2.5-2.5v-4.6
	c0-1.4,1.1-2.5,2.5-2.5h63.4c1.4,0,2.5,1.1,2.5,2.5v4.6C660.2,216.3,659.1,217.4,657.7,217.4z"/>
<path class="st9" d="M270.4,198.3h-93.8c-1.4,0-2.5-1.1-2.5-2.5v-4.6c0-1.4,1.1-2.5,2.5-2.5h93.8c1.4,0,2.5,1.1,2.5,2.5v4.6
	C272.9,197.1,271.8,198.3,270.4,198.3z M270.4,243.3h-93.8c-1.4,0-2.5-1.1-2.5-2.5v-4.6c0-1.4,1.1-2.5,2.5-2.5h93.8
	c1.4,0,2.5,1.1,2.5,2.5v4.6C272.9,242.2,271.8,243.3,270.4,243.3z M270.4,288.4h-93.8c-1.4,0-2.5-1.1-2.5-2.5v-4.6
	c0-1.4,1.1-2.5,2.5-2.5h93.8c1.4,0,2.5,1.1,2.5,2.5v4.6C272.9,287.3,271.8,288.4,270.4,288.4z"/>
<path class="st12" d="M674.6,329.8v-1.1c3.9-3.1,6-4.9,6-6.7c0-1.4-1.1-2-2.2-2c-1.3,0-2.3,0.5-2.9,1.4l-0.8-0.9
	c0.8-1.1,2.2-1.7,3.8-1.7c1.8,0,3.6,1,3.6,3.2s-2.2,4.2-5.2,6.6h5.3v1.2H674.6L674.6,329.8z M684.1,324.4c0-2.6,1.2-5.6,4.1-5.6
	c2.9,0,4.1,2.9,4.1,5.6c0,2.6-1.2,5.6-4.1,5.6C685.2,330,684.1,327.1,684.1,324.4z M691,324.4c0-2.2-0.7-4.4-2.7-4.4
	c-2.1,0-2.8,2.2-2.8,4.4s0.7,4.4,2.8,4.4C690.3,328.8,691,326.6,691,324.4z M694,324.4c0-2.6,1.2-5.6,4.1-5.6c2.9,0,4.1,2.9,4.1,5.6
	c0,2.6-1.2,5.6-4.1,5.6C695.1,330,694,327.1,694,324.4z M700.9,324.4c0-2.2-0.7-4.4-2.8-4.4s-2.7,2.2-2.7,4.4s0.7,4.4,2.7,4.4
	C700.2,328.8,700.9,326.6,700.9,324.4z M703.5,329.1c0-0.5,0.4-0.9,0.9-0.9s0.9,0.4,0.9,0.9s-0.4,0.9-0.9,0.9
	S703.5,329.6,703.5,329.1z M706.6,324.4c0-2.6,1.2-5.6,4.1-5.6c2.9,0,4.1,2.9,4.1,5.6c0,2.6-1.2,5.6-4.1,5.6
	S706.6,327.1,706.6,324.4z M713.5,324.4c0-2.2-0.7-4.4-2.8-4.4s-2.7,2.2-2.7,4.4s0.7,4.4,2.7,4.4
	C712.8,328.8,713.5,326.6,713.5,324.4z M716.5,324.4c0-2.6,1.2-5.6,4.1-5.6c2.9,0,4.1,2.9,4.1,5.6c0,2.6-1.2,5.6-4.1,5.6
	S716.5,327.1,716.5,324.4z M723.4,324.4c0-2.2-0.7-4.4-2.7-4.4c-2.1,0-2.8,2.2-2.8,4.4s0.7,4.4,2.8,4.4
	C722.7,328.8,723.4,326.6,723.4,324.4z M594.6,260.7v-9l-1.7,1.8l-0.8-0.8l2.7-2.8h1.2v10.8H594.6z M598.1,255.3
	c0-2.6,1.2-5.6,4.1-5.6c2.9,0,4.1,2.9,4.1,5.6c0,2.6-1.2,5.6-4.1,5.6C599.2,260.9,598.1,257.9,598.1,255.3z M604.9,255.3
	c0-2.2-0.7-4.4-2.7-4.4c-2.1,0-2.8,2.2-2.8,4.4c0,2.2,0.7,4.4,2.8,4.4C604.2,259.7,604.9,257.4,604.9,255.3z M608,255.3
	c0-2.6,1.2-5.6,4.1-5.6c2.9,0,4.1,2.9,4.1,5.6c0,2.6-1.2,5.6-4.1,5.6C609.1,260.9,608,257.9,608,255.3z M614.8,255.3
	c0-2.2-0.7-4.4-2.8-4.4s-2.7,2.2-2.7,4.4c0,2.2,0.7,4.4,2.7,4.4C614.1,259.7,614.8,257.4,614.8,255.3z M617.5,260
	c0-0.5,0.4-0.9,0.9-0.9s0.9,0.4,0.9,0.9s-0.4,0.9-0.9,0.9C617.9,260.8,617.5,260.4,617.5,260z M620.6,255.3c0-2.6,1.2-5.6,4.1-5.6
	c2.9,0,4.1,2.9,4.1,5.6c0,2.6-1.2,5.6-4.1,5.6C621.7,260.9,620.6,257.9,620.6,255.3L620.6,255.3z M627.4,255.3
	c0-2.2-0.7-4.4-2.7-4.4s-2.7,2.2-2.7,4.4s0.7,4.4,2.7,4.4S627.4,257.4,627.4,255.3L627.4,255.3z M630.5,255.3c0-2.6,1.2-5.6,4.1-5.6
	c2.9,0,4.1,2.9,4.1,5.6c0,2.6-1.2,5.6-4.1,5.6C631.6,260.9,630.5,257.9,630.5,255.3L630.5,255.3z M637.3,255.3
	c0-2.2-0.7-4.4-2.8-4.4s-2.8,2.2-2.8,4.4s0.7,4.4,2.8,4.4S637.3,257.4,637.3,255.3L637.3,255.3z"/>
<path class="st12" d="M592.2,410.5l0.8-0.8c0.6,0.8,1.7,1.4,3,1.4c1.6,0,2.5-0.8,2.5-2c0-1.3-1.1-1.9-2.7-1.9h-1.1V406h1.1
	c1.4,0,2.5-0.5,2.5-1.8c0-1.2-1.1-1.8-2.4-1.8c-1.2,0-2.1,0.5-2.8,1.3l-0.7-0.8c0.8-0.9,2-1.7,3.7-1.7c2.1,0,3.7,1.1,3.7,2.9
	c0,1.6-1.3,2.3-2.3,2.5c1,0.1,2.5,0.9,2.5,2.7c0,1.8-1.4,3.1-3.8,3.1C594.2,412.3,592.9,411.5,592.2,410.5L592.2,410.5z
	 M601.6,406.7c0-2.6,1.2-5.6,4.1-5.6c2.9,0,4.1,2.9,4.1,5.6c0,2.6-1.2,5.6-4.1,5.6C602.8,412.3,601.6,409.3,601.6,406.7z
	 M608.5,406.7c0-2.2-0.7-4.4-2.8-4.4s-2.8,2.2-2.8,4.4s0.7,4.4,2.8,4.4S608.5,408.8,608.5,406.7z M611.5,406.7
	c0-2.6,1.2-5.6,4.1-5.6c2.9,0,4.1,2.9,4.1,5.6c0,2.6-1.2,5.6-4.1,5.6C612.6,412.3,611.5,409.3,611.5,406.7z M618.4,406.7
	c0-2.2-0.7-4.4-2.7-4.4s-2.7,2.2-2.7,4.4s0.7,4.4,2.7,4.4S618.4,408.8,618.4,406.7z M621,411.4c0-0.5,0.4-0.9,0.9-0.9
	s0.9,0.4,0.9,0.9s-0.4,0.9-0.9,0.9C621.4,412.2,621,411.8,621,411.4z M624.1,406.7c0-2.6,1.2-5.6,4.1-5.6c2.9,0,4.1,2.9,4.1,5.6
	c0,2.6-1.2,5.6-4.1,5.6C625.3,412.3,624.1,409.3,624.1,406.7z M631,406.7c0-2.2-0.7-4.4-2.7-4.4s-2.7,2.2-2.7,4.4s0.7,4.4,2.7,4.4
	S631,408.8,631,406.7z M634,406.7c0-2.6,1.2-5.6,4.1-5.6c2.9,0,4.1,2.9,4.1,5.6c0,2.6-1.2,5.6-4.1,5.6
	C635.2,412.3,634,409.3,634,406.7z M640.9,406.7c0-2.2-0.7-4.4-2.8-4.4s-2.8,2.2-2.8,4.4s0.7,4.4,2.8,4.4S640.9,408.8,640.9,406.7z
	 M592.1,441.4l1-1.2c0.7,0.8,1.8,1.3,3,1.3c1.4,0,2.2-0.6,2.2-1.7s-0.9-1.5-2.4-1.5h-1.2v-1.7h1.2c1.3,0,2.2-0.4,2.2-1.4
	s-1-1.5-2.2-1.5c-1.1,0-2,0.4-2.8,1.2l-1-1.2c0.8-1,2.1-1.7,3.9-1.7c2.3,0,3.9,1.1,3.9,2.9c0,1.4-1.2,2.3-2.3,2.5
	c1.1,0.1,2.5,1,2.5,2.6c0,1.8-1.6,3.1-4.1,3.1C594.3,443.1,592.9,442.4,592.1,441.4L592.1,441.4z M601.7,437.6
	c0-2.7,1.3-5.6,4.3-5.6s4.3,2.8,4.3,5.6c0,2.7-1.3,5.6-4.3,5.6S601.7,440.3,601.7,437.6z M608.4,437.6c0-2.1-0.6-3.9-2.4-3.9
	s-2.4,1.8-2.4,3.9s0.6,3.9,2.4,3.9S608.4,439.6,608.4,437.6z M611.7,437.6c0-2.7,1.3-5.6,4.3-5.6s4.3,2.8,4.3,5.6
	c0,2.7-1.3,5.6-4.3,5.6C613,443.1,611.7,440.3,611.7,437.6z M618.4,437.6c0-2.1-0.6-3.9-2.4-3.9s-2.4,1.8-2.4,3.9s0.6,3.9,2.4,3.9
	S618.4,439.6,618.4,437.6z M621.4,442c0-0.6,0.5-1.1,1.1-1.1s1.1,0.5,1.1,1.1s-0.5,1.1-1.1,1.1S621.4,442.6,621.4,442z M624.8,437.6
	c0-2.7,1.3-5.6,4.3-5.6s4.3,2.8,4.3,5.6c0,2.7-1.3,5.6-4.3,5.6S624.8,440.3,624.8,437.6z M631.5,437.6c0-2.1-0.6-3.9-2.4-3.9
	s-2.4,1.8-2.4,3.9s0.6,3.9,2.4,3.9S631.5,439.6,631.5,437.6z M634.7,437.6c0-2.7,1.3-5.6,4.3-5.6s4.3,2.8,4.3,5.6
	c0,2.7-1.3,5.6-4.3,5.6S634.7,440.3,634.7,437.6z M641.4,437.6c0-2.1-0.6-3.9-2.4-3.9s-2.4,1.8-2.4,3.9s0.6,3.9,2.4,3.9
	S641.4,439.6,641.4,437.6z"/>
<path class="st13" d="M531.8,325.1c0-0.4-0.2-0.8-0.5-1.1c-0.3-0.3-0.7-0.5-1.1-0.5l-0.6-4.8c-0.1-1.2-1.1-2.1-2.3-2.1h-7.7
	c-1.2,0-2.1,0.9-2.3,2.1l-0.6,4.8c-0.9,0-1.6,0.7-1.6,1.6v4.8h1.5v1.3c0,0.5,0.4,0.9,0.9,0.9s0.9-0.4,0.9-0.9V330h10.3v1.3
	c0,0.5,0.4,0.9,0.9,0.9s0.9-0.4,0.9-0.9V330h1.5v-4.9H531.8L531.8,325.1z M518.5,319.2c0.1-0.7,0.7-1.3,1.5-1.3h7.1
	c0.8,0,1.4,0.5,1.5,1.3l0.5,4.1H518L518.5,319.2z M517.5,326.9c-0.5,0-0.9-0.4-0.9-0.9s0.4-0.9,0.9-0.9s0.9,0.4,0.9,0.9
	S518,326.9,517.5,326.9z M529.5,326.9c-0.5,0-0.9-0.4-0.9-0.9s0.4-0.9,0.9-0.9s0.9,0.4,0.9,0.9S530,326.9,529.5,326.9z M450.4,262
	c-2.1,0.9-4.3,1.1-6.7,0.5c-0.1,0-0.3-0.1-0.4-0.1c-3.8-1-6.6-3.7-7.9-7.1c-0.8-2.1-1-4.4-0.5-6.7c0.1-0.3,0.1-0.6,0.2-0.9l2.2,0.7
	l2.5,0.8c-0.1,0.2-0.1,0.4-0.1,0.5c-0.3,1.3-0.2,2.7,0.3,3.9l-2.2,1.3c0.9,2.4,3.6,4.7,5.8,5.2l1.1-2.4c0.1,0,0.2,0,0.3,0.1
	c1.4,0.3,2.6,0.2,3.8-0.3l1,2.4L450.4,262L450.4,262z"/>
<path class="st14" d="M833.5,538.7c0,2.6-0.1,7.4,1.7,9.3c1.6,1.7,4.4,1.5,5.6,1.5c5.6,0,18.4,0.2,28.5,0.3c3.9,0.1,7.5,0.1,10,0.1
	c2.4,0,4.9,0,6.8-1.4c2.9-2,3.3-6.1,3.3-9.6c0-27.7-0.1-46.9-0.1-74.4c0-6.9-4.9-8.1-8.6-8.2c-13.3-0.3-26.7-0.4-40-0.3h-1
	c-1.4,0-2.8,0.3-3.8,1.1c-1.9,1.5-2.1,4.1-2.1,5.2C834.2,493.2,833.4,527.6,833.5,538.7L833.5,538.7z"/>
<path class="st15" d="M820.2,538.7c0,2.6-0.1,7.4,1.7,9.3c1.6,1.7,4.4,1.5,5.6,1.5c7.8,0,29.3,0.3,38.5,0.4c1.1,0,2.2,0,3.3-0.1
	c-10.1-0.1-22.9-0.3-28.5-0.3c-1.2,0-4,0.2-5.6-1.5c-1.8-2-1.6-6.7-1.7-9.3c-0.2-11.1,0.6-45.5,0.2-76.3c0-1.1,0.3-3.7,2.1-5.2
	c1.1-0.8,2.4-1,3.8-1.1h-12.3c-1.7,0-3.5,0.1-4.9,1.1c-1.9,1.5-2.1,4.1-2.1,5.2C820.9,493.2,820,527.6,820.2,538.7L820.2,538.7z"/>
<path class="st16" d="M866.4,456.2h-1c0-10.4,0-27.4-0.1-35.6v-0.8c0-2-2-3.7-4.4-3.9H846c-1.3-0.1-2.4,0.3-3.2,1.1
	c-0.6,0.6-0.9,1.3-0.9,2.1c0,7.6,0,26.5-0.3,36.9h-1c0.3-10.4,0.3-29.3,0.3-36.9c0-1.1,0.4-2.1,1.3-2.9c1-0.9,2.4-1.4,3.9-1.3H861
	c3,0.2,5.3,2.3,5.4,4.9v0.8C866.4,428.8,866.5,445.8,866.4,456.2L866.4,456.2z"/>
<path class="st17" d="M848.3,538.7h23.5c2,0,3.6-1.6,3.6-3.6v-8.2c0-2-1.6-3.6-3.6-3.6h-23.5c-2,0-3.6,1.6-3.6,3.6v8.2
	C844.7,537.1,846.3,538.7,848.3,538.7z"/>
<path class="st16" d="M846,417.4h15.3c1.2,0,1.2-4.1,0-4.1H846C844.7,413.3,844.7,417.4,846,417.4z"/>
<path class="st12" d="M559.7,149.1l1.5-1.9c0.9,1,2.4,1.5,3.7,1.5c1.6,0,2.5-0.7,2.5-1.7c0-1.1-0.8-1.6-2.7-1.6H563v-2.6h1.7
	c1.5,0,2.5-0.4,2.5-1.4c0-1.1-1.1-1.6-2.5-1.6c-1.3,0-2.5,0.5-3.4,1.4l-1.4-1.8c1.1-1.2,2.8-2.1,5.2-2.1c3.2,0,5.1,1.4,5.1,3.7
	c0,1.7-1.5,2.8-3,3.1c1.4,0.1,3.2,1.2,3.2,3.2c0,2.3-2.1,4-5.3,4C562.5,151.2,560.7,150.3,559.7,149.1L559.7,149.1z M571.9,144.3
	c0-3.5,1.7-7,5.6-7c3.8,0,5.6,3.5,5.6,7s-1.7,7-5.6,7C573.6,151.2,571.9,147.7,571.9,144.3z M580.1,144.3c0-2.5-0.7-4.4-2.6-4.4
	c-1.9,0-2.7,1.9-2.7,4.4s0.7,4.4,2.7,4.4C579.4,148.7,580.1,146.8,580.1,144.3z M584.4,144.3c0-3.5,1.7-7,5.6-7c3.8,0,5.6,3.5,5.6,7
	s-1.7,7-5.6,7C586.1,151.2,584.4,147.7,584.4,144.3z M592.6,144.3c0-2.5-0.7-4.4-2.6-4.4c-1.9,0-2.7,1.9-2.7,4.4s0.7,4.4,2.7,4.4
	C591.9,148.7,592.6,146.8,592.6,144.3z M596.8,149.6c0-0.9,0.7-1.6,1.6-1.6s1.6,0.7,1.6,1.6c0,0.9-0.7,1.6-1.6,1.6
	S596.8,150.5,596.8,149.6z M601.2,144.3c0-3.5,1.7-7,5.6-7c3.8,0,5.6,3.5,5.6,7s-1.7,7-5.6,7C603,151.2,601.2,147.7,601.2,144.3z
	 M609.5,144.3c0-2.5-0.7-4.4-2.6-4.4c-1.9,0-2.7,1.9-2.7,4.4s0.7,4.4,2.7,4.4C608.7,148.7,609.5,146.8,609.5,144.3z M613.8,144.3
	c0-3.5,1.7-7,5.6-7c3.8,0,5.6,3.5,5.6,7s-1.7,7-5.6,7C615.5,151.2,613.8,147.7,613.8,144.3z M622,144.3c0-2.5-0.7-4.4-2.6-4.4
	c-1.9,0-2.7,1.9-2.7,4.4s0.7,4.4,2.7,4.4C621.3,148.7,622,146.8,622,144.3z"/>
<ellipse class="st18" cx="330.5" cy="138" rx="0.5" ry="0.5"/>
<ellipse class="st18" cx="335.7" cy="138.1" rx="0.5" ry="0.5"/>
<ellipse class="st18" cx="333.1" cy="138.1" rx="0.5" ry="0.5"/>
<path class="st18" d="M337.1,131.7H336v-0.5h-0.7v0.5h-4.5v-0.5h-0.7v0.5H329c-0.9,0-1.6,0.7-1.6,1.6v7.1c0,0.9,0.7,1.6,1.6,1.6h8
	c0.9,0,1.6-0.7,1.6-1.6v-7.1C338.7,132.4,338,131.7,337.1,131.7z M329.1,132.4h1.1v1.1h0.7v-1.1h4.5v1.1h0.7v-1.1h1.1
	c0.5,0,0.9,0.4,0.9,0.9v1.2h-9.8v-1.2C328.2,132.8,328.6,132.4,329.1,132.4L329.1,132.4z M337.1,141.2h-8c-0.5,0-0.9-0.4-0.9-0.9
	v-5.2h9.8v5.2C338,140.8,337.6,141.2,337.1,141.2z"/>
<path class="st6" d="M535.8,87.2h1V154h-1V87.2z"/>
<circle class="st10" cx="697.4" cy="22.4" r="5.4"/>
<circle class="st10" cx="676.4" cy="22.4" r="5.4"/>
<circle class="st10" cx="653.7" cy="22.4" r="5.4"/>
<path class="st19" d="M794.5,484c8.5,19.1,14.9,32.8,25.7,55c-3,3-4.4,3.1-5.6,4.5c-1,1.1-2,4.9-0.4,6.1c1.2-1.4,3.3-1.5,5-2.2
	c3.4-1.4,5.4-4.7,7.6-7.6c2.2-2.9,5.3-5.8,8.9-5.3c0.6,0.1,1.3,0.3,1.7,0.7c-10-26.1-17.8-48.4-20.9-58.1c-1-3.2,1.3-33.9,4.4-63.1
	c-6.6,0.9-13.2,1.5-19.8,1.9c-4,11.1-8.9,24.3-13.4,37.2C789.4,462.8,790.7,468.9,794.5,484z"/>
<path class="st20" d="M814.3,549.6c6.1,0.1,12.6,0.2,18.9,0c5.4-4.9,6.6-8.8,5.1-13.1c-0.2-0.5-0.4-1.1-0.8-1.4
	c-0.5-0.4-1.1-0.6-1.7-0.7c-3.6-0.4-6.8,2.4-8.9,5.3c-2.2,2.9-4.2,6.3-7.6,7.6C817.6,548,815.5,548.2,814.3,549.6L814.3,549.6z
	 M801.3,415.8c-4,11.1-8.9,24.3-13.4,37.1c-3.7,10.4-7.1,20.7-9.6,29.4c-1.7,15.7-1.2,36.5-4.5,65c0.2,1.2-1.4,2-2.6,2.1
	c-5.4,0.3-10.9,0.2-16.5,0c-0.4,0-0.9-0.1-1.2-0.4c-0.4-0.3-0.5-0.8-0.6-1.3c-0.6-2.4-0.9-5.3,0.9-6.9c1.7-1.4,4.6-0.9,6.1-2.6
	c-0.7-22-3.2-34.5-4.7-52.4c-0.3-3-0.5-6.1-0.7-9.5c0-27.4-2-40.4,0.7-68.6c0.1,0.1,0.1,0.3,0.2,0.4c1.2,2.8,3.6,4.5,6.5,5.5
	c2.7,1,5.8,1.5,8.6,1.7C780.7,416.2,791,416.3,801.3,415.8L801.3,415.8z"/>
<path class="st21" d="M824.1,389.7c4.2,4.1,9.9,5.1,13.4,2.8c4.2-2.7,4-9,3.9-10.5c-0.1-2.5-1.1-4.8-1.8-7.1
	c-5.2-16.6-9.9-33.4-18-43.5C823.4,342.3,824.6,383.2,824.1,389.7L824.1,389.7z"/>
<path class="st2" d="M802.8,328.7c0.1-9.7,0.2-17.4,0.2-27.3c0-5.7-1.5-14.4-12.9-14.9s-13.5,8.4-13.5,12.2c0,3.4-0.2,6.7-0.2,10.1
	c-0.1,3.5,0,7.5,2.5,10c2.1,2.1,5.4,2.5,8.4,2.6c0,1.5,0,3.6-0.1,5.4L802.8,328.7L802.8,328.7z"/>
<path class="st22" d="M803.2,316.4c-3.7,0.3-8.2,0.5-11.8,0c-0.7-0.1-1.5-0.2-2.2-0.6c-2-1.2-1.9-4-1.8-6.3c0.1-2.2,0-4.4-0.3-6.6
	c-0.2-1.4-0.5-2.9-1.6-3.8c-1-0.9-2.4-1-3.8-1.1c-1.7-0.1-3.3-0.2-5-0.3c-0.5,0-1-0.1-1.4-0.3c-1.1-0.6-1.3-2-1.3-3.2
	c-0.1-2.8-0.2-5.6-0.4-8.4c3.7-0.3,7.3-0.6,11-0.7c4.5-0.1,9.2-0.1,13.3,1.7c1.7,0.8,3.3,1.9,4.2,3.5c0.7,1.4,0.8,3,1,4.5
	C803.4,299.9,803.3,311.4,803.2,316.4L803.2,316.4z"/>
<path class="st23" d="M690.2,362.7l-3-0.9c-2,0-3.3,0.3-5.3,0.2c-1,0-2-0.1-2.8-0.6c-1.1-0.6-7.4-7.5-8-9.4c2.6,0,5.4,0,8.1-0.1
	c5.7-3.5,11.1-0.8,11.9-0.6c-1,1-2.1,2.5-2.4,4.6C688.5,358.7,689.4,361.2,690.2,362.7z"/>
<path class="st24" d="M824.4,386.9c-0.6,8.6-1.6,16.6-2.8,23.7c-0.2,1.1-0.4,2.3-0.6,3.3c-6.6,0.9-13.2,1.5-19.8,1.9
	c-10.3,0.6-20.6,0.4-30.8-0.3c-0.4,0-0.7-0.1-1.1-0.1c-1-0.1-2-0.2-2.9-0.4c-2.5-0.6-4.9-1.1-7.1-2.4c-1-0.6-1.8-1.3-2.6-2.1
	c-0.4-0.4-0.7-0.9-1-1.3c-0.2-0.4-0.4-1.1-0.7-1.4c-0.8-2.1-0.8-4.3-0.7-6.6c0.2-14.4,0.3-28.8,0.5-43.2
	c-10,5.2-16.2,10.3-26.6,12.7c-14,0-25.7-4.2-38.2-8c-0.8-1.5-1.7-4.1-1.4-6.8c0.3-2.1,1.3-3.6,2.4-4.6c15,1.6,24,2,33.4,0.4
	c6.3-7,20.6-23.8,28.3-26.8c3.5-1.4,7.3-1.3,11-1.2c6.6,0.2,14.8,0.5,23.4,1.3c5.1,0.5,10.4,1.1,15.5,1.9c6.8,1.1,13.3,2.6,19,4.5
	c0.6,3.7,1.2,7.5,1.6,11.6c0.1,0.4,0.1,0.9,0.1,1.3c0.1,0.8,0.2,1.5,0.2,2.3c0.3,3.3,0.6,6.8,0.8,10.3c0,0.5,0.1,1.1,0.1,1.6
	c0.2,3.3,0.3,6.7,0.3,10.1C825,369.3,824.4,386.3,824.4,386.9L824.4,386.9z"/>
<path class="st23" d="M682.7,351.6l-6.1-3.9c0,0-2.6,2.4,1,5.3L682.7,351.6z"/>
<path class="st2" d="M762.3,353v61c-3.1-1-5.8-2.8-7.1-5.8c-0.1-0.1-0.1-0.3-0.2-0.4c-0.8-2.1-0.8-4.3-0.7-6.6
	c0.2-14.4,0.3-28.8,0.5-43.2L762.3,353z"/>
<path class="st25" d="M761.7,474.8c-1,4.3-3.1,8.4-6.5,11.1c-0.3-3-0.5-6.1-0.7-9.5c0-27.4-2-40.4,0.7-68.6c0.1,0.1,0.1,0.3,0.2,0.4
	c1.2,2.8,3.6,4.5,6.5,5.5c0.3,15.6,0.5,31.3,0.8,46.9C762.7,465.4,762.8,470.2,761.7,474.8z"/>
<text transform="matrix(1 0 0 1 31.2001 164.2002)" class="st2 st26 st27">Reporte</text>
<text transform="matrix(1 0 0 1 174.0999 71.6)" class="st18 st26 st28">Viaje de negocios</text>
<text transform="matrix(1 0 0 1 326.4998 113.2)" class="st12 st26 st29">Visita a cliente</text>
<text transform="matrix(1 0 0 1 348.3748 140.8998)" class="st18 st30 st31">13/abril - 21/abril</text>
<text transform="matrix(1 0 0 1 559.3998 99.5999)" class="st18 st30 st31">Por Reembolsar</text>
<text transform="matrix(1 0 0 1 506.0994 412.3998)" class="st18 st30 st28">Total</text>
<text transform="matrix(1 0 0 1 343.2998 261.1004)" class="st18 st30 st32">13/abril</text>
<text transform="matrix(1 0 0 1 427.7998 329.7998)" class="st18 st30 st32">21/abril</text>
<text transform="matrix(1 0 0 1 539.5502 329.1)" class="st33 st30 st32">Combustible</text>
<text transform="matrix(1 0 0 1 459.5502 260.9002)" class="st33 st30 st32">Teléfono</text>
<text transform="matrix(1 0 0 1 490.0998 442.1004)" class="st18 st30 st28">Reembolso</text>
</svg>
