<svg xmlns="http://www.w3.org/2000/svg" viewBox="0 0 512 512"><path fill="#FFF" stroke="#15AE9F" stroke-width="1.527" stroke-miterlimit="10" d="M384 160V0H128v160H0v347h5v5h502v-5h5V160H384zM128 490H22V182h106v308zm170 0h-84V342h84v148zm64 0h-42V320H192v170h-42V22h212v468zm128 0H384V182h106v308z"/><path fill="#E6F4F4" d="M214 342h84v148h-84zM384 182v308h106V182H384zm64 266h-32v-32h32v32zm0-64h-32v-32h32v32zm0-64h-32v-32h32v32zm0-64h-32v-32h32v32z"/><path fill="#E6F4F4" d="M150 22v468h42V320h128v170h42V22H150zm74 266h-32v-32h32v32zm0-64h-32v-32h32v32zm0-64h-32v-32h32v32zm0-64h-32V64h32v32zm96 192h-32v-32h32v32zm0-64h-32v-32h32v32zm0-64h-32v-32h32v32zm0-64h-32V64h32v32zM22 182v308h106V182H22zm74 266H64v-32h32v32zm0-64H64v-32h32v32zm0-64H64v-32h32v32zm0-64H64v-32h32v32z"/><path fill="#FFF" stroke="#E6F4F4" stroke-width="9.962" stroke-miterlimit="10" d="M192 64h32v32h-32zM416 224h32v32h-32zM416 288h32v32h-32zM416 352h32v32h-32zM416 416h32v32h-32zM64 224h32v32H64zM64 288h32v32H64zM64 352h32v32H64zM64 416h32v32H64zM288 64h32v32h-32zM192 128h32v32h-32zM288 192h32v32h-32zM288 128h32v32h-32zM192 192h32v32h-32z"/><path fill="#FFF" d="M288 256h32v32h-32zM192 256h32v32h-32z"/><path fill="#FFF" stroke="#15AE9F" stroke-width="1.79" stroke-miterlimit="10" d="M205.5 445.1h100.9v66H205.5z"/><path fill="#FFF" stroke="#15AE9F" stroke-width="1.79" stroke-miterlimit="10" d="M438.1 455.5H73.9c-10.9 0-19.8-8.9-19.8-19.8V196.5c0-10.9 8.9-19.8 19.8-19.8H438c10.9 0 19.8 8.9 19.8 19.8v239.1c.1 11-8.8 19.9-19.7 19.9z"/><path fill="#FFF" stroke="#15AE9F" stroke-width="1.79" stroke-miterlimit="10" d="M429.2 426H82.8c-5 0-9-4-9-9V203.9c0-5 4-9 9-9h346.4c5 0 9 4 9 9V417c0 5-4 9-9 9z"/><g><g stroke="#15AE9F" stroke-width="1.518" stroke-miterlimit="10"><path fill="none" d="M396.5 232.2h-6.9c-1.7 0-3.1 1.4-3.1 3.1v57.5c0 1.7 1.4 3.1 3.1 3.1h6.9c1.7 0 3.1-1.4 3.1-3.1v-57.5c0-1.7-1.4-3.1-3.1-3.1z"/><path fill="#15AE9F" d="M366.3 251.8h-6.9c-1.7 0-3.1 1.4-3.1 3.1v37.9c0 1.7 1.4 3.1 3.1 3.1h6.9c1.7 0 3.1-1.4 3.1-3.1v-37.9c0-1.7-1.4-3.1-3.1-3.1z"/><path fill="none" d="M332.5 278.5h-6.9c-1.7 0-3.1 1.4-3.1 3.1v11.2c0 1.7 1.4 3.1 3.1 3.1h6.9c1.7 0 3.1-1.4 3.1-3.1v-11.2c.1-1.7-1.3-3.1-3.1-3.1z"/></g><g stroke="#15AE9F" stroke-miterlimit="10"><path fill="none" stroke-width="1.654" d="M122.5 291.2l25.3-29.7 26.1 25.6 30.9-39.7"/><circle fill="#15AE9F" stroke-width=".551" cx="121.2" cy="292.4" r="8.8"/><circle fill="#FFF" stroke-width="1.79" cx="121.2" cy="292.4" r="5.4"/><circle fill="#15AE9F" stroke-width=".551" cx="147.8" cy="261.5" r="8.8"/><circle fill="#FFF" stroke-width="1.79" cx="147.8" cy="261.5" r="5.4"/><circle fill="#15AE9F" stroke-width=".551" cx="173.9" cy="287.1" r="8.8"/><circle fill="#FFF" stroke-width="1.79" cx="173.9" cy="287.1" r="5.4"/><circle fill="#15AE9F" stroke-width=".551" cx="204.8" cy="247.4" r="8.8"/><circle fill="#FFF" stroke-width="1.79" cx="204.8" cy="247.4" r="5.4"/></g><g fill="#FFF"><circle cx="204.8" cy="247.4" r="3.3"/><circle cx="173.9" cy="287.1" r="3.3"/><circle cx="147.8" cy="261.5" r="3.3"/><circle cx="121.2" cy="292.4" r="3.3"/></g></g><circle fill="#FFF" stroke="#15AE9F" stroke-width="1.79" stroke-miterlimit="10" cx="256" cy="440.9" r="9.5"/><g fill="none" stroke="#15AE9F" stroke-width="1.79" stroke-miterlimit="10"><path d="M113 322.9h73.7M113 343.7h23.1M323.8 322.9h47.6"/></g><g stroke-miterlimit="10"><path fill="#15AE9F" stroke="#15AE9F" stroke-width="3.881" d="M189 352.5h133.9v57.1H189z"/><text transform="translate(217.907 391.661)" fill="#FFF" stroke="#FFF" stroke-width="1.116" font-family="'Merienda-Regular_0_wt'" font-size="22.836" letter-spacing="4">VIEW</text></g></svg>