<svg xmlns="http://www.w3.org/2000/svg" viewBox="0 0 512 512"><path fill="none" stroke="#15AE9F" stroke-width="3.214" stroke-miterlimit="10" d="M266.4 490.8l-3 1.7v-47.1l2.4-1.4S469.7 326.3 428.4 98.1C341 90.6 263.4 47 263.4 47V0s95.9 53.9 204 63.2c51.1 282.1-201 427.6-201 427.6z"/><path fill="none" stroke="#15AE9F" stroke-width="3.214" stroke-miterlimit="10" d="M98.5 98.1C57.2 326.4 261.1 444 261.1 444l2.4 1.4v47.1l-3-1.7S8.5 345.4 59.5 63.2C167.6 53.9 263.5 0 263.5 0v47s-77.6 43.7-165 51.1z"/><path fill="#F1F9FB" d="M265.9 444l-2.4 1.4V47s77.6 43.6 165 51.1C469.8 326.4 265.9 444 265.9 444z"/><path fill="#DFEFED" d="M263.5 47v398.4l-2.4-1.4S57.2 326.3 98.5 98.1c87.4-7.4 165-51.1 165-51.1z"/><g fill="none" stroke="#15AE9F" stroke-width="1.607" stroke-miterlimit="10"><circle cx="308.4" cy="47" r="7.3"/><circle cx="377.6" cy="69" r="7.3"/><circle cx="448.5" cy="86.4" r="7.3"/><circle cx="457.9" cy="147.9" r="7.3"/><circle cx="448.2" cy="218" r="7.3"/><circle cx="427.6" cy="284" r="7.3"/><circle cx="397.5" cy="343.3" r="7.3"/><circle cx="359.3" cy="393.8" r="7.3"/><circle cx="315.8" cy="435.5" r="7.3"/><circle cx="220" cy="43.2" r="7.3"/><circle cx="150.8" cy="65.2" r="7.3"/><circle cx="79.9" cy="82.6" r="7.3"/><circle cx="70.6" cy="144.1" r="7.3"/><circle cx="80.3" cy="214.2" r="7.3"/><circle cx="100.8" cy="280.2" r="7.3"/><circle cx="130.9" cy="339.5" r="7.3"/><circle cx="169.2" cy="390" r="7.3"/><circle cx="212.7" cy="431.7" r="7.3"/></g><g><path fill="#FFF" d="M208.5 183c-2.9-3.1-7.8-4.2-11.7-2.6 4.2 9.8 6.3 20.4 6.3 31.1 0 2.4-.1 5 1.2 7.1 1.2 2.1 4.4 3.2 6.1 1.5.6-.6 1-1.5 1.7-2.1 1.6-1.4 4.3-.3 5.4 1.6 1 1.9.9 4.1.7 6.3-.7 9.2-.6 19 3.9 27.1 5.9 10.7 18.6 16.7 23.1 28 .9 2.2 1.5 4.6 3.1 6.2 1.8 1.8 4.5 2.4 7 2.8 11.9 2.2 25.7 4 34.7-4 3-2.7 5.2-6.3 8.3-8.9 3.5-2.9 7.9-4.4 11.2-7.5 12.5-11.6.7-35 11.2-48.4 4.1 3.1 11 5.8 13.5 1.3.5-.9.7-2 .8-3.1 1.3-9.4 2.6-18.7 3.9-28.1.6-4 1-8.4-1-11.9-2.1-3.5-7.9-4.9-10.1-1.5-3.3-17.3 3.9-37.5-6.7-51.6-7.4-9.9-20.8-12.7-33.1-13.7-10.4-.8-20.9-.8-31.4 0-13.3 1.1-27.8 4.2-36.1 14.7-11.6 14.5-6.4 35.9-10.6 54"/><path fill="#15AE9F" d="M209.1 182.4c-3.5-3.3-7.9-4.3-12.5-2.8-.4.1-.7.6-.6 1 2.9 7.1 4.9 14.4 5.8 22 .5 4.8-1 12.3 1.9 16.5 2.2 3.1 4.3 2.4 7.1 1.6 7.9-2 6.7 1.7 6.4 6.6-.2 3.8-.3 7.7 0 11.5 1.1 11.7 7 19.4 15.3 27.3 4.3 4.1 8.8 8.3 11.4 13.8 2.5 5.3 3.4 8.9 9.7 10.4 9.9 2.4 22.5 4.1 32-.6 5.3-2.6 8.1-7.3 12.2-11.2 4.3-4 10.3-5.7 14-10.3 6.2-7.6 4.8-18.5 4.8-27.7 0-5.4.3-11 2.7-15.9 1.7-3.3 2.4-1.5 5.3-.3 1.9.8 4.1 1.5 6.2 1.1 5.4-.9 5.1-7.4 5.7-11.7 1-7.6 2.1-15.1 3.1-22.7.6-4.7 1.3-10.9-2.9-14.3-2.9-2.4-7.1-2.6-9.6.3.5.1.9.2 1.4.4-2.5-14.4 2-29.8-2.7-43.8-4.4-13-16.7-18.9-29.5-21.1-15.6-2.6-32.6-2.5-48.2 0-13.2 2.1-26.3 7.6-32.2 20.3-7 14.8-3.4 32.3-6.9 47.9-.2 1 1.3 1.5 1.6.4 2.8-12.8 1.3-26 3.9-38.7 3.1-14.9 13.7-23.7 28.1-27.2 15-3.6 31.5-3.4 46.8-2 14.2 1.3 29.8 5.8 34.8 20.7 4.7 14 .2 29.5 2.7 43.8.1.6 1 .8 1.4.4 2.6-3 6.9-1.6 8.8 1.3 1.6 2.4 1.5 5.6 1.3 8.4-.4 5.3-1.4 10.7-2.2 16-.7 4.7-.6 10.5-2.1 15-2.5 7.4-8.5 4.6-13.1 1.4-.4-.3-.9 0-1.1.3-8.8 12.1-2 27.7-6.5 41-3 8.9-12 10.6-17.9 16.9-3.1 3.3-5.5 7-9.5 9.2-4.7 2.6-10.1 3.3-15.3 3.2-4.6-.1-9.2-.8-13.7-1.6-2.7-.5-6.1-.9-8.1-2.9-1.8-1.8-2.3-4.5-3.3-6.7-3-6.8-8.8-11.7-14-16.7-7.3-7.1-12-14.6-12.8-25-.4-4.4 0-8.7.2-13.1.1-2.5.1-5.4-2-7.2-2.2-2-3.9-1.2-6 .1s2.7-.1-2.6 1.2c-4 .9-4.3-2.8-4.6-6.1-.2-2.8-.1-5.7-.3-8.6-.4-4.8-1.3-9.5-2.5-14.2-.6-2.1-3.1-6.4-2.8-8.4.5-3.9 8.3.5 9.7 1.7.8 1 1.9-.1 1.2-.9z"/><path fill="#15AE9F" d="M220.3 127.5c-2.9-3.7-6.2-7.6-10.9-8.2-6.2-.7-11.5 5.7-11.8 12-.3 6.3 2.8 12.1 6 17.5 1.3 2.2 2.7 4.3 3.6 6.7.9 2.4 1.3 5 1.6 7.6l3 21.3c15.1-14 7.8-23.5 15.1-36 2.6-4.5-3.5-15.1-2.7-20.2"/><path fill="#FFF" d="M221.5 126.4c-3.8-4.8-8.9-10.1-15.7-8.3-5.7 1.6-9.4 7.6-9.8 13.2-.5 8.5 4.9 15.2 8.6 22.3 2.3 4.6 2.7 9.8 3.4 14.8.8 5.5 1.5 10.9 2.3 16.4.2 1.3 1.9 1.5 2.7.7 4.2-4.1 7.8-8.6 9.7-14.3 1.6-4.8 1.6-10 2.8-14.9 1.1-4.6 4.1-8 3.6-12.8-.6-5.1-3.7-10.2-3.2-15.4.2-2.1-3-2.1-3.2 0-.4 4.3 1.5 8.5 2.5 12.6.7 2.7 1.1 4.8 0 7.4-.9 2.1-1.9 4-2.5 6.2-1.2 4.2-1.3 8.5-2.2 12.7-1.4 6.5-5 11.6-9.7 16.2.9.2 1.8.5 2.7.7-1-7.3-2-14.7-3.1-22-.9-6-3.1-10.2-6.1-15.4-3.6-6.1-7.3-14.1-3.1-20.8 5.5-8.9 13.4-2.9 18.1 3 1.2 1.6 3.4-.7 2.2-2.3z"/><path fill="#15AE9F" d="M224.2 128c-7.8-7.9-9.9-20.8-5.1-30.8 1.3-2.7 3.1-5.2 5.5-6.9 2.4-1.7 5.4-2.5 8.3-3 34.7-6.7 69 12.8 104.3 13.9 2.1.1 4.2.1 6.1 1 3.7 1.9 4.8 6.7 4.3 10.8-1.3 10.1-9.9 18-19.5 21.6-9.5 3.5-20 3.5-30.2 3.5-13.4-.1-26.7-.2-40.1-.2-11.6-.1-24.1-.4-33.4-7.3"/><path fill="#FFF" d="M225.4 126.9c-6.4-6.9-8.9-16.9-6-25.9 3.7-11.6 14.8-13 25.5-13.4 19.3-.7 38.1 5.1 56.6 9.5 8.9 2.2 17.9 4.1 27.1 5.1 4.3.5 12.3-.7 15.5 2.6 3.5 3.6 1.9 10.2 0 14.2-9.6 19.5-35.6 17.5-53.8 17.4-11.3-.1-22.7-.1-34-.2-10.8-.1-21.8-.7-31-7.1-1.7-1.2-3.3 1.6-1.6 2.8 8.7 6 19.1 7.2 29.4 7.5 13 .3 26.1.2 39.1.3 19.3.1 46.6.9 55.4-20.7 2.5-6.1 2.8-15.8-4.6-18.6-4.4-1.6-9.9-.9-14.4-1.4-6.8-.7-13.5-2-20.2-3.5-23-5.2-46.4-13.4-70.3-10.5-10.7 1.3-18.8 4.9-22.1 16-2.9 10 .1 20.8 7.1 28.4 1.4 1.3 3.7-1 2.3-2.5z"/><g><path fill="#15AE9F" d="M310.1 138.8c-3.5 4.9-.5 11.6 1.4 17.3 3.7 10.9 8.8 26.1 8.5 37.6 1.2-4.2.6-8.8 3.7-12 1.9-2 1-6.7 3.2-8.3 13.9-10.1 20.3-29.4 15.2-45.7-12.4 4.2-21.4 3.8-32 11.1"/><path fill="#FFF" d="M308.7 138c-4.5 7.8.9 17.2 3.4 24.8 3.3 10 6.4 20.4 6.3 30.9 0 1.8 2.7 2.2 3.2.4 1-4.1 1.2-7.5 3.2-11.3 1.2-2.1 1.2-4 2.1-6.2 1.2-3.1 5.2-5.4 7.4-7.8 1.8-2.1 3.4-4.3 4.8-6.7 6.2-10.5 7.9-23.2 4.4-34.9-.2-.8-1.1-1.4-2-1.1-11 3.6-22.4 4.7-32.3 11.3-1.7 1.1-.1 4 1.6 2.8 9.6-6.4 20.8-7.5 31.5-10.9-.7-.4-1.3-.8-2-1.1 3.8 13 .8 27.5-8 37.9-3.3 3.9-7.7 5.8-8.9 11-.6 2.5-2 4.3-3 6.6-1.3 3-1.3 6.5-2.1 9.7 1.1.1 2.1.3 3.2.4.1-8.8-2-17.4-4.5-25.8-1.2-4.1-2.6-8.2-4-12.3-1.8-5.1-4.6-10.9-1.6-16.1 1.1-1.7-1.7-3.4-2.7-1.6z"/></g><g><path fill="#E6F4F4" d="M454.4 463.3c-117.8 2.5-235.6 5-353.5 7.5-7 .1-14.4.2-20.2-3.6-5.8-3.8-8.6-13-3.6-17.8l.3 3.3c-1.5-21.9-3-43.8-4.5-65.8-.4-5.5-.5-11.7 3.2-15.7 2.3-2.5 5.6-3.6 8.7-4.7l92.4-31.8c14.8-5.1 30.1-10.5 41.6-20.8 9.5 7.5 48.1 33.4 96.6-.9 36.5 16.9 75.2 29.2 114.8 36.3 8.1 1.4 17.3 3.4 21.2 10.7 2 3.7 2.1 8.1 2.1 12.3.2 30.3.5 60.7.9 91z"/><path fill="#15AE9F" d="M226.1 287c-3.6 6.4-6.5 13.1-8.9 20-.5 1.6-1.1 3.3-.8 5 .3 1.9 1.7 3.5 3 4.9 10.8 10.9 26.9 16.3 42.1 14.1.4-4.3-1.9-8.5-5-11.6-3-3.1-6.7-5.4-10-8.3-8-7.1-12.8-17.1-17.4-26.8M307 287c3.6 6.4 6.5 13.1 8.9 20 .5 1.6 1.1 3.3.8 5-.3 1.9-1.7 3.5-3 4.9-10.8 10.9-26.9 16.3-42.1 14.1-.4-4.3 1.9-8.5 5-11.6 3-3.1 6.7-5.4 10-8.3 8-7.1 12.8-17.1 17.4-26.8"/><path fill="none" d="M316.6 312c-.5.3-.9.7-1.4 1M218.7 313.9c-1.5-1.2-2.2-1.9-2.2-1.9"/></g><path fill="#15AE9F" d="M265.4 330.3l-12.9 137.3 28.6-.6z"/></g><g stroke-miterlimit="10"><path fill="#FFF" stroke="#3D7CC0" stroke-width="2.441" d="M279.7 429.8h222.5V512H279.7z"/><text transform="translate(324.5 479.06)" fill="#15AE9F" stroke="#15AE9F" stroke-width="1.607" font-family="'Merienda-Regular_0_wt'" font-size="28.926" letter-spacing="5">REJECT</text></g><g stroke-miterlimit="10"><path fill="#15AE9F" stroke="#15AE9F" stroke-width="6.582" d="M9.8 429.8h267.4V512H9.8z"/><text transform="translate(56.87 482.274)" fill="#FFF" stroke="#FFF" stroke-width="1.607" font-family="'Merienda-Regular_0_wt'" font-size="28.926" letter-spacing="5">APPROVE</text></g></svg>