<svg xmlns="http://www.w3.org/2000/svg" viewBox="0 0 512 512"><path fill="#E6F4F4" stroke="#15AE9F" stroke-width="1.117" stroke-miterlimit="10" d="M434.5 512h-357c-16.7 0-30.3-13.6-30.3-30.3v-175c0-16.7 13.6-30.3 30.3-30.3h357.1c16.7 0 30.3 13.6 30.3 30.3v175c-.1 16.7-13.6 30.3-30.4 30.3z"/><path fill="#E6F4F4" d="M77.5 503.1c-11.8 0-21.4-9.6-21.4-21.4v-175c0-11.8 9.6-21.4 21.4-21.4h357.1c11.8 0 21.4 9.6 21.4 21.4v175c0 11.8-9.6 21.4-21.4 21.4H77.5z"/><path fill="#FFF" d="M434.5 294.3c6.9 0 12.4 5.6 12.4 12.4v175c0 6.9-5.6 12.4-12.4 12.4h-357c-6.9 0-12.4-5.6-12.4-12.4v-175c0-6.9 5.6-12.4 12.4-12.4h357m0-17.9h-357c-16.7 0-30.3 13.6-30.3 30.3v175c0 16.7 13.6 30.3 30.3 30.3h357.1c16.7 0 30.3-13.6 30.3-30.3v-175c-.1-16.7-13.6-30.3-30.4-30.3z"/><path fill="#15AE9F" d="M322.6 108.8v129.6c0 4.4-5.3 6.5-8.3 3.5l-4-4c-1.9-1.9-5-1.9-6.9 0l-8.8 8.8c-1.9 1.9-5 1.9-6.9 0l-8.8-8.8c-1.9-1.9-5-1.9-6.9 0l-8.8 8.8c-1.9 1.9-5 1.9-6.9 0l-8.8-8.8c-1.9-1.9-5-1.9-6.9 0l-8.8 8.8c-1.9 1.9-5 1.9-6.9 0l-8.8-8.8c-1.9-1.9-5-1.9-6.9 0l-4 4c-3.1 3.1-8.3.9-8.3-3.5V108.8c0-4.6 3.7-8.3 8.3-8.3h109.5c4.2 0 7.9 3.7 7.9 8.3z"/><path fill="#3D7CC0" d="M414.2 7.8c-.6-.6-1.3-1.2-2-1.8-4.6-3.7-10.5-6-16.9-6h-262c-16.6 0-30.1 13.5-30.1 30.1v287.5c0 14.9 12.1 27 26.9 27h265.1c14.9 0 27-12.1 27-27V27c0-7.5-3.1-14.3-8-19.2zM380 223l-68.4 68.4H213.7l-68.3-68.3-.8-.8v-97.8l69.2-69.2h97.8l.8.8 67.4 67.4 1 1v97.8l-.8.7z"/><path fill="#3D7CC0" d="M312.3 53.5h-99.2l-70.2 70.2v99.2l70.2 70.2h99.2l.4-.3 69.8-69.8v-99.2l-70.2-70.3zm-97.8 236.2l-68.2-68.2v-96.4l68.2-68.2h96.4l68.2 68.2v96.4l-68.2 68.2h-96.4zm97.8-236.2h-99.2l-70.2 70.2v99.2l70.2 70.2h99.2l.4-.3 69.8-69.8v-99.2l-70.2-70.3zm-97.8 236.2l-68.2-68.2v-96.4l68.2-68.2h96.4l68.2 68.2v96.4l-68.2 68.2h-96.4zm97.8-236.2h-99.2l-70.2 70.2v99.2l70.2 70.2h99.2l.4-.3 69.8-69.8v-99.2l-70.2-70.3zm-97.8 236.2l-68.2-68.2v-96.4l68.2-68.2h96.4l68.2 68.2v96.4l-68.2 68.2h-96.4z"/><path fill="#FFF" stroke="#15AE9F" stroke-width="2.235" stroke-miterlimit="10" d="M414.2 7.8c-.6-.6-1.3-1.2-2-1.8-4.6-3.7-10.5-6-16.9-6H130.1c-14.9 0-26.9 12.1-26.9 26.9v290.7c0 14.9 12.1 27 26.9 27h265.1c14.9 0 27-12.1 27-27V27c0-7.5-3.1-14.3-8-19.2zM214.5 289.7l-68.2-68.2v-96.4l68.2-68.2h96.4l68.2 68.2v96.4l-68.2 68.2h-96.4z"/><path fill="#15AE9F" d="M225.2 0h2.6c-.3.4-.5.9-.7 1.3-.3.4-.5.9-.7 1.3-2.7 4.9-4.7 9.6-6.3 13.9-6.4 17.8-5.8 32.5-5.3 37.1.1 1 .2 1.5.2 1.5l-1.1.2-1.1.2c0-.1-.1-.5-.2-1.3-.5-4.4-1.4-19.4 5.4-38.3 1.5-4.1 3.4-8.6 5.9-13.3.2-.4.4-.9.7-1.3.1-.4.3-.9.6-1.3zM410.5 6.3c1-.2 2.1 0 2.9.8.2.2.5.4.7.7l-1.5.3-1.5.3C364.4 19.2 322 48.9 313.8 55c-.7.5-1.2.9-1.4 1l-.1.1-.6-.8-.1-.1-.7-.9s.4-.3 1.1-.8c7.2-5.3 49.5-35.4 96.9-46.8.5-.1 1.1-.3 1.6-.4zM420.9 126.7c.4.2.9.4 1.3.6v2.4c-.4-.2-.9-.4-1.3-.6-.4-.2-.9-.4-1.3-.6-12.8-5.6-24.9-7.8-32.3-7-1.3.2-4.2.6-5.1 2-.2.3-.3.6-.3 1h-2.2c0-.3 0-.6.1-.9.1-.5.4-1 .8-1.5 1-1.1 2.9-2.2 6.4-2.6 7.5-.9 19.6 1.3 32.6 6.8.5 0 .9.2 1.3.4zM420.9 295c.5 1.2.9 2.4 1.3 3.6v7c-.4-1.3-.8-2.6-1.3-3.9-.4-1.2-.8-2.5-1.3-3.7-13.2-37.3-33.7-66.7-38.6-73.5-.5-.7-.9-1.2-1-1.4l-.1-.1.9-.7.9-.7s.3.4.8 1.1c4.2 5.7 23.6 33.2 37.2 68.9.4 1.1.8 2.3 1.2 3.4zM312.7 291.5s0 .5-.1 1.3c-.3 5.4-1.7 27.1-8 49.3-.1.4-.2.9-.4 1.3-.1.4-.2.9-.4 1.3h-2.4c.1-.4.3-.8.4-1.3.1-.4.2-.9.4-1.3 6.2-21.7 7.8-42.9 8.1-49 0-.9.1-1.5.1-1.7h1.1l1.2.1zM214.7 292s-.3.4-.7 1.1c-3.4 4.9-18.8 26.6-38.9 49-.7.8-1.4 1.6-2.2 2.5-.1 0-.1.1-.2.1h-3.1c.4-.4.8-.9 1.2-1.3.4-.4.8-.9 1.2-1.3 20.6-22.6 36.3-44.7 40-50 .5-.7.8-1.2.9-1.2l.9.6h.1l.8.5zM145.6 222.8s-.1.1-.2.3c-.2.3-.5.8-.9 1.5-3.2 4.7-13.9 17.7-38.8 26-.4.1-.8.3-1.3.4-.4.1-.8.3-1.3.4v-2.5c.4-.1.9-.3 1.3-.4.4-.1.9-.3 1.3-.4 24.4-8.5 34.6-21.4 37.2-25.2.5-.7.7-1.1.7-1.1l1 .5 1 .5zM144.8 123.3l-.2 1.1-.2 1.1s-.5-.1-1.4-.4c-4.7-1.2-20.4-5.8-37.2-16.9-.4-.3-.9-.5-1.3-.8-.4-.3-.9-.6-1.3-.9v-2.7c.4.3.9.6 1.3.9.4.3.8.6 1.3.9 17.2 11.6 33.4 16.3 37.9 17.5.7.1 1.1.2 1.1.2z"/><g stroke="#15AE9F" stroke-miterlimit="10"><circle fill="#15AE9F" stroke-width="1.117" cx="450.9" cy="174.3" r="11.2"/><circle fill="#15AE9F" stroke-width="1.117" cx="74.5" cy="174.3" r="11.2"/><path fill="#FFF" stroke-width="5.178" d="M74.5 174.3h376.4"/></g><path fill="none" stroke="#FFF" stroke-width="3.018" stroke-miterlimit="10" d="M224 129.4h59.5M224 147.7h12.9M223.6 195h64.9M254.3 211.9h16.9"/><path fill="#15AE9F" d="M99.6 378.3H193v12H99.6zM322.6 378.3H416v12h-93.4zM99.6 428.5H416v12H99.6z"/><g><path fill="none" stroke="#15AE9F" stroke-width="2.235" stroke-miterlimit="10" d="M277.9 397.2c-2.8 8.4-10.8 14.4-20.1 14.4-9.8 0-18.1-6.6-20.5-15.7"/><path fill="#15AE9F" d="M270.8 402.6c.2.2.5.3.8.1l6.3-5.3 2.1 7.9c.1.3.4.5.7.4.3-.1.5-.4.4-.7l-2.3-8.7c0-.2-.2-.3-.4-.4-.2-.1-.4 0-.5.1l-6.9 5.8c-.1.1-.1.2-.2.2-.2.3-.1.5 0 .6z"/><g><path fill="none" stroke="#15AE9F" stroke-width="2.235" stroke-miterlimit="10" d="M237.8 383c3-8.1 10.8-13.9 20-13.9 9.6 0 17.7 6.4 20.4 15.2"/><path fill="#15AE9F" d="M245.1 377.8c-.2-.2-.5-.3-.8-.1l-6.4 5.1-1.9-8c-.1-.3-.4-.5-.6-.4-.3.1-.5.4-.4.6l2.1 8.8c0 .2.2.3.3.4s.4 0 .5-.1l7.1-5.6c.1-.1.1-.2.2-.2 0-.2 0-.4-.1-.5z"/></g></g></svg>