<svg xmlns="http://www.w3.org/2000/svg" viewBox="0 0 1756.8 857.1"><g opacity=".17"><linearGradient id="a" gradientUnits="userSpaceOnUse" x1="1.262" y1="699.51" x2="964.476" y2="699.51"><stop offset="0" stop-color="#fff"/><stop offset="1"/></linearGradient><path fill="url(#a)" d="M1.3 543c21.4-.3 42.7.8 64.1 2.2 5.3.4 10.7.7 16 1.2l16 1.4c10.6 1.1 21.3 2.1 31.8 3.4 42.4 5 84.6 11.6 126.5 19.9 41.9 8.2 83.5 17.9 124.7 29l7.7 2 3.9 1 3.8 1.1 15.4 4.4 15.4 4.4c2.6.7 5.1 1.5 7.7 2.3l7.7 2.3 15.3 4.7 7.7 2.3c2.6.8 5.1 1.6 7.6 2.4l30.4 10c2.5.8 5.1 1.6 7.6 2.5l7.5 2.7 15.1 5.3 15.1 5.3c5 1.8 10 3.7 15 5.6l30 11.3 29.7 11.9 14.8 6 14.7 6.3 29.4 12.6 29.1 13.2 14.6 6.6 14.4 6.9C817 770 892 811 964.5 856c-72.6-44.8-147.7-85.7-224.8-122.2l-14.4-6.9-14.6-6.6-29.2-13.2-29.4-12.5-14.7-6.2-14.9-5.9-29.7-11.8-30-11.2c-5-1.8-10-3.8-15-5.5l-15.1-5.3-15.1-5.3-7.5-2.6c-2.5-.9-5.1-1.7-7.6-2.5l-30.4-9.9c-2.5-.8-5.1-1.6-7.6-2.4l-7.7-2.3-15.3-4.7-7.7-2.3c-2.5-.8-5.1-1.6-7.7-2.3l-15.4-4.3-15.4-4.3-3.8-1.1-3.9-1-7.7-2c-41.2-11-82.8-20.6-124.7-28.7-41.9-8.1-84-14.7-126.4-19.5-10.6-1.3-21.2-2.2-31.8-3.3l-15.9-1.3c-5.3-.5-10.6-.8-15.9-1.2-21.3-1.4-42.6-2.3-63.8-2l-.1-2.7z"/><linearGradient id="b" gradientUnits="userSpaceOnUse" x1="1.268" y1="687.111" x2="1002.837" y2="687.111"><stop offset="0" stop-color="#fff"/><stop offset="1"/></linearGradient><path fill="none" stroke="url(#b)" stroke-width="2.452" stroke-miterlimit="10" d="M1.3 518.4c15.1.4 375.3-8.2 822.4 230.1 59.4 31.7 118.2 67.7 178.4 107.6"/><linearGradient id="c" gradientUnits="userSpaceOnUse" x1="1.268" y1="674.173" x2="1040.549" y2="674.173"><stop offset="0" stop-color="#fff"/><stop offset="1"/></linearGradient><path fill="none" stroke="url(#c)" stroke-width="2.452" stroke-miterlimit="10" d="M1.3 492.5c30.2.8 404.8-5.7 856.1 246.4 62.1 34.7 121.5 74.3 182.5 117.1"/><linearGradient id="d" gradientUnits="userSpaceOnUse" x1="1.268" y1="661.235" x2="1078.259" y2="661.235"><stop offset="0" stop-color="#fff"/><stop offset="1"/></linearGradient><path fill="none" stroke="url(#d)" stroke-width="2.452" stroke-miterlimit="10" d="M1.3 466.7c45.4 1.1 434.1-2.9 889.7 262.7 64.8 37.8 124.7 80.8 186.5 126.7"/><linearGradient id="e" gradientUnits="userSpaceOnUse" x1="1.268" y1="648.297" x2="1115.967" y2="648.297"><stop offset="0" stop-color="#fff"/><stop offset="1"/></linearGradient><path fill="none" stroke="url(#e)" stroke-width="2.452" stroke-miterlimit="10" d="M1.3 440.8c60.5 1.5 463.2.3 923.4 279.1 67.5 40.9 127.9 87.4 190.5 136.2"/><linearGradient id="f" gradientUnits="userSpaceOnUse" x1="1.268" y1="635.36" x2="1153.674" y2="635.36"><stop offset="0" stop-color="#fff"/><stop offset="1"/></linearGradient><path fill="none" stroke="url(#f)" stroke-width="2.452" stroke-miterlimit="10" d="M1.3 414.9c75.6 1.9 492.3 3.7 957 295.4 70.2 44 131.1 93.9 194.6 145.7"/><linearGradient id="g" gradientUnits="userSpaceOnUse" x1="1.268" y1="622.423" x2="1191.378" y2="622.423"><stop offset="0" stop-color="#fff"/><stop offset="1"/></linearGradient><path fill="none" stroke="url(#g)" stroke-width="2.452" stroke-miterlimit="10" d="M1.3 389.1c90.7 2.3 521.2 7.3 990.7 311.7 72.8 47.2 134.3 100.5 198.6 155.2"/><linearGradient id="h" gradientUnits="userSpaceOnUse" x1="1.268" y1="609.486" x2="1229.081" y2="609.486"><stop offset="0" stop-color="#fff"/><stop offset="1"/></linearGradient><path fill="none" stroke="url(#h)" stroke-width="2.452" stroke-miterlimit="10" d="M1.3 363.2c105.8 2.6 550 11.1 1024.4 328 75.4 50.4 137.6 107 202.6 164.8"/><linearGradient id="i" gradientUnits="userSpaceOnUse" x1="1.268" y1="596.549" x2="1266.783" y2="596.549"><stop offset="0" stop-color="#fff"/><stop offset="1"/></linearGradient><path fill="none" stroke="url(#i)" stroke-width="2.452" stroke-miterlimit="10" d="M1.3 337.4c121 3 578.8 15 1058 344.4 78.1 53.6 140.8 113.6 206.6 174.3"/><linearGradient id="j" gradientUnits="userSpaceOnUse" x1="1.268" y1="583.613" x2="1304.483" y2="583.613"><stop offset="0" stop-color="#fff"/><stop offset="1"/></linearGradient><path fill="none" stroke="url(#j)" stroke-width="2.452" stroke-miterlimit="10" d="M1.3 311.5c136.1 3.4 607.4 19.1 1091.7 360.7 80.7 56.9 144 120.1 210.7 183.8"/><linearGradient id="k" gradientUnits="userSpaceOnUse" x1="1.268" y1="570.677" x2="1342.182" y2="570.677"><stop offset="0" stop-color="#fff"/><stop offset="1"/></linearGradient><path fill="none" stroke="url(#k)" stroke-width="2.452" stroke-miterlimit="10" d="M1.3 285.7c151.2 3.8 635.9 23.4 1125.3 377 83.3 60.2 147.2 126.7 214.7 193.4"/><linearGradient id="l" gradientUnits="userSpaceOnUse" x1="1.268" y1="557.741" x2="1379.881" y2="557.741"><stop offset="0" stop-color="#fff"/><stop offset="1"/></linearGradient><path fill="none" stroke="url(#l)" stroke-width="2.452" stroke-miterlimit="10" d="M1.3 259.8c166.3 4.1 664.4 27.7 1159 393.3 85.8 63.4 150.4 133.2 218.7 202.9"/><g><linearGradient id="m" gradientUnits="userSpaceOnUse" x1="1.268" y1="544.805" x2="1417.578" y2="544.805"><stop offset="0" stop-color="#fff"/><stop offset="1"/></linearGradient><path fill="none" stroke="url(#m)" stroke-width="2.452" stroke-miterlimit="10" d="M1.3 233.9C182.7 238.5 694 266 1193.9 643.6c88.4 66.8 153.7 139.8 222.7 212.4"/></g><g><linearGradient id="n" gradientUnits="userSpaceOnUse" x1="1.268" y1="531.87" x2="1455.274" y2="531.87"><stop offset="0" stop-color="#fff"/><stop offset="1"/></linearGradient><path fill="none" stroke="url(#n)" stroke-width="2.452" stroke-miterlimit="10" d="M1.3 208.1c196.6 4.9 721 36.5 1226.3 426 90.9 70.1 156.9 146.3 226.8 222"/></g><g><linearGradient id="o" gradientUnits="userSpaceOnUse" x1="1.268" y1="518.935" x2="1492.97" y2="518.935"><stop offset="0" stop-color="#fff"/><stop offset="1"/></linearGradient><path fill="none" stroke="url(#o)" stroke-width="2.452" stroke-miterlimit="10" d="M1.3 182.2c211.7 5.3 749.3 41.1 1260 442.3 93.4 73.4 160.1 152.9 230.8 231.5"/></g><g><linearGradient id="p" gradientUnits="userSpaceOnUse" x1="1.268" y1="506" x2="1530.665" y2="506"><stop offset="0" stop-color="#fff"/><stop offset="1"/></linearGradient><path fill="none" stroke="url(#p)" stroke-width="2.452" stroke-miterlimit="10" d="M1.3 156.4C228.1 162 778.7 202 1294.9 615c95.9 76.8 163.3 159.4 234.8 241"/></g><g><linearGradient id="q" gradientUnits="userSpaceOnUse" x1="1.268" y1="493.066" x2="1568.359" y2="493.066"><stop offset="0" stop-color="#fff"/><stop offset="1"/></linearGradient><path fill="none" stroke="url(#q)" stroke-width="2.452" stroke-miterlimit="10" d="M1.3 130.5c241.9 6 805.5 50.3 1327.3 475 98.4 80.1 166.5 166 238.9 250.6"/></g><g><linearGradient id="r" gradientUnits="userSpaceOnUse" x1="1.268" y1="480.132" x2="1606.053" y2="480.132"><stop offset="0" stop-color="#fff"/><stop offset="1"/></linearGradient><path fill="none" stroke="url(#r)" stroke-width="2.452" stroke-miterlimit="10" d="M1.3 104.7c257 6.4 833.6 55 1360.9 491.3 100.9 83.5 169.8 172.5 242.9 260.1"/></g><g><linearGradient id="s" gradientUnits="userSpaceOnUse" x1="1.268" y1="467.197" x2="1643.746" y2="467.197"><stop offset="0" stop-color="#fff"/><stop offset="1"/></linearGradient><path fill="none" stroke="url(#s)" stroke-width="2.452" stroke-miterlimit="10" d="M1.3 78.8c272.2 6.8 861.6 59.7 1394.6 507.6 103.4 86.9 173 179.1 246.9 269.6"/></g><g><linearGradient id="t" gradientUnits="userSpaceOnUse" x1="1.268" y1="454.264" x2="1681.439" y2="454.264"><stop offset="0" stop-color="#fff"/><stop offset="1"/></linearGradient><path fill="none" stroke="url(#t)" stroke-width="2.452" stroke-miterlimit="10" d="M1.3 52.9c287.3 7.2 889.5 64.5 1428.2 524 105.9 90.3 176.2 185.6 250.9 279.2"/></g><g><linearGradient id="u" gradientUnits="userSpaceOnUse" x1="1.268" y1="441.33" x2="1719.131" y2="441.33"><stop offset="0" stop-color="#fff"/><stop offset="1"/></linearGradient><path fill="none" stroke="url(#u)" stroke-width="2.452" stroke-miterlimit="10" d="M1.3 27.1c302.4 7.5 916.8 70.1 1461.9 540.3 108.2 93.9 179.4 192.2 255 288.7"/></g><linearGradient id="v" gradientUnits="userSpaceOnUse" x1="1.268" y1="428.396" x2="1756.823" y2="428.396"><stop offset="0" stop-color="#fff"/><stop offset="1"/></linearGradient><path fill="none" stroke="url(#v)" stroke-width="2.452" stroke-miterlimit="10" d="M1.3 1.2c317.5 7.9 945.3 74.1 1495.6 556.6 110.7 97.1 182.6 198.7 259 298.2"/><g fill="none" stroke="#208C77" stroke-width="2.452" stroke-miterlimit="10"><path d="M1.3 544.2s439.9-13 963.2 311.8M1.3 543c21.4-.3 42.7.8 64.1 2.2 5.3.4 10.7.7 16 1.2l16 1.4c10.6 1.1 21.3 2.1 31.8 3.4 42.4 5 84.6 11.6 126.5 19.9 41.9 8.2 83.5 17.9 124.7 29l7.7 2 3.9 1 3.8 1.1 15.4 4.4 15.4 4.4c2.6.7 5.1 1.5 7.7 2.3l7.7 2.3 15.3 4.7 7.7 2.3c2.6.8 5.1 1.6 7.6 2.4l30.4 10c2.5.8 5.1 1.6 7.6 2.5l7.5 2.7 15.1 5.3 15.1 5.3c5 1.8 10 3.7 15 5.6l30 11.3 29.7 11.9 14.8 6 14.7 6.3 29.4 12.6 29.1 13.2 14.6 6.6 14.4 6.9C817 770 892 811 964.5 856c-72.6-44.8-147.7-85.7-224.8-122.2l-14.4-6.9-14.6-6.6-29.2-13.2-29.4-12.5-14.7-6.2-14.9-5.9-29.7-11.8-30-11.2c-5-1.8-10-3.8-15-5.5l-15.1-5.3-15.1-5.3-7.5-2.6c-2.5-.9-5.1-1.7-7.6-2.5l-30.4-9.9c-2.5-.8-5.1-1.6-7.6-2.4l-7.7-2.3-15.3-4.7-7.7-2.3c-2.5-.8-5.1-1.6-7.7-2.3l-15.4-4.3-15.4-4.3-3.8-1.1-3.9-1-7.7-2c-41.2-11-82.8-20.6-124.7-28.7-41.9-8.1-84-14.7-126.4-19.5-10.6-1.3-21.2-2.2-31.8-3.3l-15.9-1.3c-5.3-.5-10.6-.8-15.9-1.2-21.3-1.4-42.6-2.3-63.8-2l-.1-2.7z"/><path d="M1.3 518.4c15.1.4 375.3-8.2 822.4 230.1 59.4 31.7 118.2 67.7 178.4 107.6"/><path d="M1.3 518.4c15.1.4 375.3-8.2 822.4 230.1 59.4 31.7 118.2 67.7 178.4 107.6"/><path d="M1.3 492.5c30.2.8 404.8-5.7 856.1 246.4 62.1 34.7 121.5 74.3 182.5 117.1"/><path d="M1.3 492.5c30.2.8 404.8-5.7 856.1 246.4 62.1 34.7 121.5 74.3 182.5 117.1"/><path d="M1.3 466.7c45.4 1.1 434.1-2.9 889.7 262.7 64.8 37.8 124.7 80.8 186.5 126.7"/><path d="M1.3 466.7c45.4 1.1 434.1-2.9 889.7 262.7 64.8 37.8 124.7 80.8 186.5 126.7"/><path d="M1.3 440.8c60.5 1.5 463.2.3 923.4 279.1 67.5 40.9 127.9 87.4 190.5 136.2"/><path d="M1.3 440.8c60.5 1.5 463.2.3 923.4 279.1 67.5 40.9 127.9 87.4 190.5 136.2"/><path d="M1.3 414.9c75.6 1.9 492.3 3.7 957 295.4 70.2 44 131.1 93.9 194.6 145.7"/><path d="M1.3 414.9c75.6 1.9 492.3 3.7 957 295.4 70.2 44 131.1 93.9 194.6 145.7"/><path d="M1.3 389.1c90.7 2.3 521.2 7.3 990.7 311.7 72.8 47.2 134.3 100.5 198.6 155.2"/><path d="M1.3 389.1c90.7 2.3 521.2 7.3 990.7 311.7 72.8 47.2 134.3 100.5 198.6 155.2"/><path d="M1.3 363.2c105.8 2.6 550 11.1 1024.4 328 75.4 50.4 137.6 107 202.6 164.8"/><path d="M1.3 363.2c105.8 2.6 550 11.1 1024.4 328 75.4 50.4 137.6 107 202.6 164.8"/><path d="M1.3 337.4c121 3 578.8 15 1058 344.4 78.1 53.6 140.8 113.6 206.6 174.3"/><path d="M1.3 337.4c121 3 578.8 15 1058 344.4 78.1 53.6 140.8 113.6 206.6 174.3"/><path d="M1.3 311.5c136.1 3.4 607.4 19.1 1091.7 360.7 80.7 56.9 144 120.1 210.7 183.8"/><path d="M1.3 311.5c136.1 3.4 607.4 19.1 1091.7 360.7 80.7 56.9 144 120.1 210.7 183.8"/><path d="M1.3 285.7c151.2 3.8 635.9 23.4 1125.3 377 83.3 60.2 147.2 126.7 214.7 193.4"/><path d="M1.3 285.7c151.2 3.8 635.9 23.4 1125.3 377 83.3 60.2 147.2 126.7 214.7 193.4"/><g><path d="M1.3 259.8c166.3 4.1 664.4 27.7 1159 393.3 85.8 63.4 150.4 133.2 218.7 202.9"/><path d="M1.3 259.8c166.3 4.1 664.4 27.7 1159 393.3 85.8 63.4 150.4 133.2 218.7 202.9"/></g><g><path d="M1.3 233.9C182.7 238.5 694 266 1193.9 643.6c88.4 66.8 153.7 139.8 222.7 212.4"/><path d="M1.3 233.9C182.7 238.5 694 266 1193.9 643.6c88.4 66.8 153.7 139.8 222.7 212.4"/></g><g><path d="M1.3 208.1c196.6 4.9 721 36.5 1226.3 426 90.9 70.1 156.9 146.3 226.8 222"/><path d="M1.3 208.1c196.6 4.9 721 36.5 1226.3 426 90.9 70.1 156.9 146.3 226.8 222"/></g><g><path d="M1.3 182.2c211.7 5.3 749.3 41.1 1260 442.3 93.4 73.4 160.1 152.9 230.8 231.5"/><path d="M1.3 182.2c211.7 5.3 749.3 41.1 1260 442.3 93.4 73.4 160.1 152.9 230.8 231.5"/></g><g><path d="M1.3 156.4C228.1 162 778.7 202 1294.9 615c95.9 76.8 163.3 159.4 234.8 241"/><path d="M1.3 156.4C228.1 162 778.7 202 1294.9 615c95.9 76.8 163.3 159.4 234.8 241"/></g><g><path d="M1.3 130.5c241.9 6 805.5 50.3 1327.3 475 98.4 80.1 166.5 166 238.9 250.6"/><path d="M1.3 130.5c241.9 6 805.5 50.3 1327.3 475 98.4 80.1 166.5 166 238.9 250.6"/></g><g><path d="M1.3 104.7c257 6.4 833.6 55 1360.9 491.3 100.9 83.5 169.8 172.5 242.9 260.1"/><path d="M1.3 104.7c257 6.4 833.6 55 1360.9 491.3 100.9 83.5 169.8 172.5 242.9 260.1"/></g><g><path d="M1.3 78.8c272.2 6.8 861.6 59.7 1394.6 507.6 103.4 86.9 173 179.1 246.9 269.6"/><path d="M1.3 78.8c272.2 6.8 861.6 59.7 1394.6 507.6 103.4 86.9 173 179.1 246.9 269.6"/></g><g><path d="M1.3 52.9c287.3 7.2 889.5 64.5 1428.2 524 105.9 90.3 176.2 185.6 250.9 279.2"/><path d="M1.3 52.9c287.3 7.2 889.5 64.5 1428.2 524 105.9 90.3 176.2 185.6 250.9 279.2"/></g><g><path d="M1.3 27.1c302.4 7.5 916.8 70.1 1461.9 540.3 108.2 93.9 179.4 192.2 255 288.7"/><path d="M1.3 27.1c302.4 7.5 916.8 70.1 1461.9 540.3 108.2 93.9 179.4 192.2 255 288.7"/></g><path d="M1.3 1.2c317.5 7.9 945.3 74.1 1495.6 556.6 110.7 97.1 182.6 198.7 259 298.2"/></g></g></svg>