<svg xmlns="http://www.w3.org/2000/svg" viewBox="0 0 7056.9 1478.4"><g fill="none" stroke="#18BB83" stroke-width="4.153" stroke-miterlimit="10"><path d="M1.9 1477.5s698.9-1580.1 3500.2-411.9c2285.8 953.1 3553.4-148.1 3553.4-148.1"/><path d="M5 1418.3s714.4-1535.4 3481.1-372C5761.8 2004.8 7052.4 874 7052.4 874"/><path d="M8.2 1358.9s730.1-1490.7 3462.1-332.1c2265.5 964 3579-196.6 3579-196.6"/><path d="M11.5 1299.7s745.6-1446 3443-292.2C5710 1976.9 7046.3 786.7 7046.3 786.7"/><path d="M14.7 1240.4S775.9-160.9 3438.6 988.1C5684 1962.9 7043.2 743 7043.2 743"/><path d="M17.8 1181.1S794.6-175.4 3422.7 968.6C5658 1948.9 7040.1 699.4 7040.1 699.4"/><path d="M21 1121.9S813.3-189.9 3406.9 949.3C5632.1 1935 7037 655.8 7037 655.8"/><path d="M24.3 1062.6s808-1267.1 3366.8-132.7C5606.2 1921 7034 612.1 7034 612.1"/><path d="M27.4 1003.3s823.5-1222.4 3347.8-92.8c2205 996.5 3655.7-342 3655.7-342"/><path d="M30.6 944s839.2-1177.7 3328.7-52.9c2194.9 1002 3668.4-366.2 3668.4-366.2"/><path d="M33.8 884.8s856.9-1137.9 3309.6-13.1c2186.9 1003 3681.3-390.5 3681.3-390.5"/><path d="M36.9 825.5s872.5-1093.2 3290.6 26.9c2176.8 1008.4 3694.1-414.7 3694.1-414.7"/><path d="M40.2 766.2s888.1-1048.5 3271.5 66.7C5478.4 1846.7 7018.6 394 7018.6 394"/><path d="M43.4 707s901.4-998.9 3252.5 106.6c2154.6 1023.7 3719.7-463.1 3719.7-463.1"/><path d="M46.5 647.7s917.1-954.2 3233.4 146.5c2144.6 1029.1 3732.4-487.4 3732.4-487.4"/><path d="M49.7 588.4s932.6-909.5 3214.4 186.4c2134.4 1034.5 3745.1-511.6 3745.1-511.6"/><path d="M52.9 529.2S1001-335.6 3248.3 755.5c2124.3 1039.9 3757.9-535.9 3757.9-535.9"/><path d="M56.1 469.9S1019.9-350.2 3232.3 736C5346.6 1781.2 7003 175.9 7003 175.9"/><path d="M59.3 410.6s979.3-775.4 3157.2 306C5320.7 1767.3 7000 132.3 7000 132.3"/><path d="M62.5 351.4s995-730.7 3138.1 345.9C5294.8 1753.5 6996.9 88.8 6996.9 88.8"/><path d="M65.6 292s1010.5-686 3119.1 385.8c2084 1061.6 3809.1-632.7 3809.1-632.7"/><path d="M68.9 232.8S1095-408.5 3169 658.5s3821.8-657 3821.8-657"/></g></svg>