<svg xmlns="http://www.w3.org/2000/svg" viewBox="0 0 512 512"><path fill="#E6F4F4" stroke="#15AE9F" stroke-width="1.147" stroke-miterlimit="10" d="M440.1 512H71.9c-16.7 0-30.3-13.6-30.3-30.3V300.4c0-16.7 13.6-30.3 30.3-30.3h368.2c16.7 0 30.3 13.6 30.3 30.3v181.3c0 16.7-13.5 30.3-30.3 30.3z"/><path fill="#E6F4F4" d="M71.9 502.8c-11.7 0-21.1-9.5-21.1-21.1V300.4c0-11.7 9.5-21.1 21.1-21.1h368.2c11.7 0 21.1 9.5 21.1 21.1v181.3c0 11.7-9.5 21.1-21.1 21.1H71.9z"/><path fill="#FFF" d="M440.1 288.5c6.6 0 12 5.4 12 12v181.3c0 6.6-5.4 12-12 12H71.9c-6.6 0-12-5.4-12-12V300.4c0-6.6 5.4-12 12-12h368.2m0-18.3H71.9c-16.7 0-30.3 13.6-30.3 30.3v181.3c0 16.7 13.6 30.3 30.3 30.3h368.2c16.7 0 30.3-13.6 30.3-30.3V300.4c0-16.7-13.5-30.3-30.3-30.3z"/><path fill="#15AE9F" d="M118.3 381.3h275.3V440H118.3z"/><path fill="#FFF" stroke="#15AE9F" stroke-width="2.295" stroke-miterlimit="10" d="M399.8 18.9v295.7c0 9.9-12 14.9-19 7.9l-9-9c-4.4-4.4-11.4-4.4-15.8 0l-20.2 20.2c-4.4 4.4-11.4 4.4-15.8 0l-20.2-20.2c-4.4-4.4-11.4-4.4-15.8 0l-20.2 20.2c-4.4 4.4-11.4 4.4-15.8 0l-20.2-20.2c-4.4-4.4-11.4-4.4-15.8 0l-20 20.1c-4.4 4.4-11.4 4.4-15.8 0L156 313.4c-4.4-4.4-11.4-4.4-15.8 0l-9 9c-7 7-19 2-19-7.9V18.9c0-10.4 8.4-18.9 18.9-18.9H381c10.3 0 18.8 8.4 18.8 18.9z"/><circle fill="#15AE9F" cx="171.1" cy="59.7" r="10.4"/><circle fill="#15AE9F" cx="194.9" cy="178.8" r="10.4"/><circle fill="#15AE9F" cx="331.3" cy="186.4" r="10.4"/><circle fill="#15AE9F" cx="325.4" cy="227.3" r="10.4"/><circle fill="#15AE9F" cx="304.6" cy="59.7" r="10.4"/><path fill="none" stroke="#15AE9F" stroke-width="3.442" stroke-miterlimit="10" d="M194.9 178.8v52.7c0 9.5-7.7 17.1-17.1 17.1-9.5 0-17.1 7.7-17.1 17.1v50.5M331.3 186.4h-54.2c-14.4 0-26 11.6-26 26v123.2M325.4 227.3v18.4c0 11 8.9 19.9 19.9 19.9h53.1M304.6 59.7V0M171.1 59.7h34.7c7.8 0 14.2 6.3 14.2 14.2V91c0 7.8-6.3 14.2-14.2 14.2h-91.6"/><text transform="translate(162.804 423.315)" fill="#FFF" stroke="#FFF" stroke-width="1.147" stroke-miterlimit="10" font-family="'Merienda-Regular_0_wt'" font-size="36.713" letter-spacing="7">SUBMIT</text></svg>