<svg xmlns="http://www.w3.org/2000/svg" viewBox="0 0 512 512"><path fill="#FFF" stroke="#15AE9F" stroke-width="1.263" stroke-miterlimit="10" d="M256 0C135.1 0 36.7 98.3 36.7 219.3c0 120.9 98.3 219.3 219.3 219.3 120.9 0 219.3-98.3 219.3-219.3C475.3 98.3 376.9 0 256 0zm-14 233v76.3h-68.7c-6.9-24.5-11-50.3-12-76.3H242zm-80.7-28.3c1.1-26 5.1-51.7 12.1-76.2h68.1v76.2h-80.2zm60.8-173.5c6.6-1.1 12.7-2 19.4-2.5v74.1h-58.9c10-26 23.3-50.8 39.5-71.6zm-42 12.6c-10.8 18-19.8 38.6-27 58.9h-47.5c19.8-25.3 45.2-46.2 74.5-58.9zm-92.5 84.7h57.1c-6.3 24.7-10.1 50.3-11 76.2H65.4c2-26.8 9.5-52.5 22.2-76.2zm-.2 180.8c-12.7-23.7-20.2-49.6-22.2-76.3h68.3c1 25.9 4.9 51.7 11.2 76.3H87.4zm18 27.3h47.7c7.2 20.5 16.3 40 27.1 58.1-29.4-12.7-54.9-32.7-74.8-58.1zm136.9 73.2c-6.7-.4-13.6-1.3-20.2-2.5-16.3-20.9-28.8-44.7-38.9-70.8h59.1v73.3zm182.1-281.3c12.8 23.7 20.2 49.4 22.2 76.2h-73.1c-.9-26-4.7-51.6-11-76.2h61.9zm-17.9-25.7h-52.3c-7.5-21.4-17-42.8-28.5-61.5 31.5 12.4 59.7 34.6 80.8 61.5zM270.6 28.6c5 .4 9.3.9 14 1.6 16.5 21.1 29.8 46.3 40 72.5h-54V28.6zm0 99.9H334c6.9 24.5 11 50.2 12.1 76.2h-75.5v-76.2zm-.5 104.5h76c-1 26-5.1 51.9-12 76.3h-64V233zm14.3 175.2c-4.6.8-9.8.9-14.7 1.2v-72.8h55.1c-10.2 26.4-23.7 50.5-40.4 71.6zm41.2-10.9c11.5-18.8 21.1-39.2 28.6-60.7h52.4c-21.1 27-49.4 48.2-81 60.7zm37-88c6.3-24.6 10.1-50.4 11-76.3h73.1c-2 26.8-9.4 52.7-22.1 76.3h-62z"/><g fill="#E6F4F4"><path d="M180.2 394.7c-29.4-12.7-54.9-32.6-74.8-58.1h47.7c7.2 20.5 16.3 40 27.1 58.1zM144.7 309.3H87.4c-12.7-23.7-20.2-49.6-22.2-76.3h68.3c1 25.8 4.9 51.7 11.2 76.3zM144.7 128.5c-6.3 24.7-10.1 50.3-11 76.2H65.4c2-26.8 9.4-52.5 22.2-76.2h57.1zM180.1 43.8c-10.8 18-19.8 38.6-27 58.9h-47.5c19.8-25.3 45.2-46.2 74.5-58.9zM241.4 28.7v74.1h-58.9c10.1-26 23.4-50.8 39.6-71.6 6.6-1.1 12.7-2 19.3-2.5zM241.4 128.5v76.2h-80.2c1.1-26 5.1-51.7 12.1-76.2h68.1zM242 233v76.3h-68.7c-6.9-24.5-11-50.3-12-76.3H242zM242.3 336.6v73.2c-6.7-.4-13.6-1.3-20.2-2.5-16.3-20.9-28.8-44.7-38.9-70.8h59.1zM406.6 336.6c-21.1 27-49.3 48.2-81 60.7 11.5-18.8 21.1-39.2 28.6-60.7h52.4zM324.8 336.6c-10.2 26.4-23.7 50.5-40.3 71.6-4.6.8-9.8.9-14.7 1.2v-72.8h55zM346 233c-1 26-5.1 51.9-12 76.3h-64V233h76zM346 204.7h-75.5v-76.2H334c6.9 24.5 11 50.2 12 76.2zM324.5 102.8h-54V28.6c5 .4 9.3.9 14 1.6 16.6 21.1 29.8 46.3 40 72.6zM406.5 102.8h-52.3c-7.5-21.4-17-42.8-28.5-61.5 31.5 12.4 59.7 34.6 80.8 61.5zM446.6 204.7h-73.1c-.9-26-4.7-51.6-11-76.2h61.9c12.8 23.7 20.2 49.4 22.2 76.2zM446.7 233c-2 26.8-9.4 52.7-22.1 76.3h-62c6.3-24.6 10.1-50.4 11-76.3h73.1z"/></g><g fill="#FFF" stroke="#15AE9F" stroke-miterlimit="10"><path stroke-width="1.928" d="M134.1 292.4h24.2v94.8h-24.2zM208.4 292.4h24.2v94.8h-24.2zM282.6 292.4h24.2v94.8h-24.2zM356.8 292.4H381v94.8h-24.2zM97.3 254.3l139.6-86.8c11.7-7.3 26.4-7.3 38.1 0l139.6 86.8c9 6.7 4.3 21-7 21H104.3c-11.2 0-16-14.3-7-21zM106.8 409.4h298.4v22.7H106.8z"/><path stroke-width="1.928" d="M92.6 431.7h326.8v22.7H92.6zM129.1 275.3h33.1v17.1h-33.1zM203.5 275.3h33.1v17.1h-33.1zM278 275.3h33.1v17.1H278zM352.4 275.3h33.1v17.1h-33.1z"/><g stroke-width="1.928"><path d="M129.1 370.5h33.1v17.1h-33.1zM203.5 370.5h33.1v17.1h-33.1zM278 370.5h33.1v17.1H278zM352.4 370.5h33.1v17.1h-33.1z"/></g><path stroke-width="1.928" d="M122.8 387.2h266.4v22.7H122.8z"/><circle stroke-width="1.542" cx="256" cy="227.2" r="25.4"/><circle stroke-width="1.164" cx="256.4" cy="227.2" r="19.2"/></g><g><path fill="#E9EFF4" stroke="#15AE9F" stroke-width="1.986" stroke-miterlimit="10" d="M224.9 447.4h187.4V512H224.9z"/><path fill="#189383" stroke="#189383" stroke-width="4.45" stroke-miterlimit="10" d="M99.7 446h155.6v64.6H99.7z"/><g stroke="#15AE9F" stroke-miterlimit="10"><path fill="#FFF" stroke-width="1.707" d="M252.7 422.2h138.5v64.6H252.7z"/><text transform="translate(287.508 460.861)" fill="#15AE9F" stroke-width="1.263" font-family="'Merienda-Regular_0_wt'" font-size="22.73" letter-spacing="4">IMPS</text></g><path fill="#15AE9F" stroke="#15AE9F" stroke-width=".947" stroke-miterlimit="10" d="M120.4 420.8h128.9v64.6H120.4z"/><text transform="translate(148.001 462.024)" fill="#FFF" stroke="#FFF" stroke-width="1.263" stroke-miterlimit="10" font-family="'Merienda-Regular_0_wt'" font-size="22.73" letter-spacing="4">NEFT</text></g></svg>