<svg xmlns="http://www.w3.org/2000/svg" viewBox="0 0 512 512"><path fill="#E6F4F4" stroke="#15AE9F" stroke-width="1.101" stroke-miterlimit="10" d="M431.5 512h-351c-16.7 0-30.3-13.6-30.3-30.3V310.2c0-16.7 13.6-30.3 30.3-30.3h351c16.7 0 30.3 13.6 30.3 30.3v171.5c0 16.7-13.6 30.3-30.3 30.3z"/><path fill="#E6F4F4" d="M80.5 503.2c-11.9 0-21.5-9.6-21.5-21.5V310.2c0-11.9 9.6-21.5 21.5-21.5h351c11.9 0 21.5 9.6 21.5 21.5v171.5c0 11.9-9.6 21.5-21.5 21.5h-351z"/><path fill="#FFF" d="M431.5 297.5c7 0 12.7 5.7 12.7 12.7v171.5c0 7-5.7 12.7-12.7 12.7h-351c-7 0-12.7-5.7-12.7-12.7V310.2c0-7 5.7-12.7 12.7-12.7h351m0-17.6h-351c-16.7 0-30.3 13.6-30.3 30.3v171.5c0 16.7 13.6 30.3 30.3 30.3h351c16.7 0 30.3-13.6 30.3-30.3V310.2c0-16.8-13.6-30.3-30.3-30.3z"/><path fill="#15AE9F" stroke="#15AE9F" stroke-width="5.416" stroke-miterlimit="10" d="M123.9 385h264.2v56.3H123.9z"/><text transform="translate(166.552 425.402)" fill="#FFF" stroke="#FFF" stroke-width="1.101" stroke-miterlimit="10" font-family="'Merienda-Regular_0_wt'" font-size="35.237" letter-spacing="7">SUBMIT</text><g stroke-miterlimit="10"><path fill="#FFF" stroke="#15AE9F" stroke-width="2.202" d="M376.6 18.1v283.8c0 9.5-11.5 14.3-18.3 7.6l-8.7-8.7c-4.2-4.2-11-4.2-15.1 0l-19.4 19.4c-4.2 4.2-11 4.2-15.1 0l-19.4-19.4c-4.2-4.2-11-4.2-15.1 0l-19.4 19.4c-4.2 4.2-11 4.2-15.1 0l-19.4-19.4c-4.2-4.2-11-4.2-15.1 0l-19.4 19.4c-4.2 4.2-11 4.2-15.1 0l-19.4-19.4c-4.2-4.2-11-4.2-15.1 0l-8.7 8.7c-6.7 6.7-18.3 2-18.3-7.6V18.1c0-10 8.1-18.1 18.1-18.1h239.8c10.1 0 18.2 8.1 18.2 18.1z"/><text transform="translate(149.674 138.591)" fill="#FFF" stroke="#3D7CC0" stroke-width="6.607" font-family="'MyriadPro-Regular'" font-size="67.838">$</text><path fill="none" stroke="#3D7CC0" stroke-width="6.607" d="M225.3 120.7h97.1M154.9 191.1h167.5M165.4 239.7h157"/></g><path fill="#15AE9F" d="M85.9 19.4h301.7v33.5H85.9z"/><g><g stroke="#15AE9F" stroke-miterlimit="10"><path fill="#FFF" stroke-width="2.202" d="M411.9 40.1v283.8c0 9.5-11.5 14.3-18.3 7.6l-8.7-8.7c-4.2-4.2-11-4.2-15.1 0l-19.4 19.4c-4.2 4.2-11 4.2-15.1 0l-19.4-19.4c-4.2-4.2-11-4.2-15.1 0l-19.4 19.4c-4.2 4.2-11 4.2-15.1 0l-19.4-19.4c-4.2-4.2-11-4.2-15.1 0l-19.4 19.4c-4.2 4.2-11 4.2-15.1 0l-19.4-19.4c-4.2-4.2-11-4.2-15.1 0l-8.7 8.7c-6.7 6.7-18.3 2-18.3-7.6V40.1c0-10 8.1-18.1 18.1-18.1h239.8c10.1 0 18.2 8.1 18.2 18.1z"/><text transform="translate(184.911 160.614)" fill="#FFF" stroke-width="6.607" font-family="'MyriadPro-Regular'" font-size="67.838">$</text><path fill="none" stroke-width="6.607" d="M260.5 142.8h97.1M190.1 213.2h167.5M200.6 261.7h157"/></g><path fill="#15AE9F" d="M121.2 41.5h301.7V75H121.2z"/></g></svg>