<svg xmlns="http://www.w3.org/2000/svg" xmlns:xlink="http://www.w3.org/1999/xlink" viewBox="0 0 512 512"><path fill="#DAECF9" d="M477 256c0 26.7-4.7 52.2-13.4 75.9-1.6 4.4-3.4 8.8-5.3 13.1L269.4 222.6c-1.2-.7-.4-2.5 1-2.2l-7.1-1.8.5-183.4C379.4 42.3 477 138.6 477 256z"/><path fill="#ECF6FD" d="M270.5 244.5l-72.9 42.1-14.1 8.1-120.3 69.5c-4.2-7.4-7.9-15-11.2-22.9-10.9-26.2-17-55.1-17-85.3 0-17.1 2-33.8 5.6-49.9C63.3 108.1 151.1 35 256 35c2.6 0 5.2 0 7.8.1l-.5 183.4v13.8l7.2 4.2v8z"/><path fill="#FBF1D4" d="M463.6 331.9c-1.6 4.4-3.4 8.8-5.3 13.1-34.2 77.7-112 132-202.4 132-76.1 0-143.3-38.5-183-97.1-3.5-5.1-6.7-10.4-9.8-15.8-4.2-7.4-7.9-15-11.2-22.9l136.2-79.1 9.2-5.4 65.8-38.2 7.1 1.8 193.4 111.6z"/><path fill="#4BBD96" d="M75.54 315.208l3.5-6.062 7.274 4.199-3.499 6.063zM182.4 375.4c-1 0-2.1-.2-3-.5l2.1-6.7c.3.1.6.1 1 .1.6 0 1-.1 1.2-.2l9.3-5.4 3.5 6-9.3 5.4c-1.4.8-3.1 1.3-4.8 1.3zm-17.5-8.6l-13.7-7.9 3.5-6 13.7 7.9-3.5 6zm45.1-5.9l-3.5-6 13.7-7.9 3.5 6-13.7 7.9zm-72.5-9.9l-13.7-7.9 3.5-6L141 345l-3.5 6zm99.9-6l-3.5-6 13.7-7.9 3.5 6-13.7 7.9zm-127.2-9.8l-13.7-7.9 3.5-6 13.7 7.9-3.5 6zm154.5-6.1l-3.5-6 13.7-7.9 3.5 6-13.7 7.9zm27.3-15.9l-3.5-6 13.7-7.9 3.5 6-13.7 7.9zM315.832 291.279l7.26-4.224 3.52 6.051-7.26 4.224z"/><path fill="#9D82BC" d="M154.3 350.3v.2h-.1z"/><path fill="#DF976D" d="M173.9 294.8c0 3.2-2.2 7-4.8 8.6L67.5 362.1c-3-4.4-5.7-8.9-8.3-13.5-3.5-6.3-6.7-12.8-9.5-19.5C40.2 306.6 35 282 35 256.2c0-14.6 1.7-28.9 4.8-42.6l128.8-74.4c2.7-1.5 4.8-.2 4.8 3v.1c0 2.6-1.5 5.8-3.6 7.6-6.4 5.6-11.2 15.4-11.2 23.7 0 8.3 4.8 12.6 11.3 10.8 2.1-.6 3.6.9 3.6 3.5v7.8c0 2.6-1.5 5.7-3.6 7.5-6.5 5.6-11.2 15.4-11.2 23.7 0 8.3 4.8 12.6 11.3 10.8 2.1-.6 3.6.9 3.6 3.5v7.8c0 2.6-1.5 5.8-3.6 7.6-1.5 1.3-3 2.9-4.3 4.7-4.2 5.6-6.9 12.7-6.9 19.1 0 3.9 1.1 6.8 2.8 8.8 2 2.2 5 3 8.5 2 2.3-.5 3.8 1 3.8 3.6z"/><defs><path id="a" d="M99.5 280.2l-.1-36.7 32-18.5.1 36.8z"/></defs><clipPath id="b"><use xlink:href="#a" overflow="visible"/></clipPath><g clip-path="url(#b)"><path fill="#FFF" d="M115.4 234.3c-8.8 5.1-16 17.5-15.9 27.6 0 10.1 7.2 14.2 16 9.1s16-17.5 15.9-27.6c0-10.1-7.2-14.2-16-9.1"/></g><g><path fill="#F9AB7D" d="M200.2 327.5c0 2.9-1.9 6.3-4.3 7.6L85.5 396.8c-2.6-3.9-6.5-7.8-8.8-11.9-3.2-5.6-7.2-9.8-10.1-15.6-1.1-2.1-2.2-4.2-3.3-6.4l-6-11.7c-3.8-7.5-7.4-15.2-10.3-23.1-1.6-4.2-2.9-8.5-3.9-12.9-.7-2.9-1.3-5.8-1.7-8.7-1.9-13.7-8.2-22.2-5.3-34.4l159.5-82.8c2.3-1.4 4.3-.2 4.3 2.7v.1c0 2.3-1.3 5.1-3.2 6.8-5.7 5-10 13.7-9.9 21.1 0 7.4 4.3 11.2 10 9.6 1.9-.5 3.2.8 3.2 3.1V239.6c0 2.3-1.3 5.1-3.2 6.7-5.7 5-10 13.7-10 21.1 0 7.4 4.3 11.2 10 9.6 1.9-.5 3.2.8 3.2 3.1v6.9c0 2.3-1.3 5.1-3.2 6.8-1.4 1.2-2.7 2.6-3.8 4.1-3.7 4.9-6.1 11.3-6.1 16.9 0 3.4.9 6.1 2.5 7.8 1.8 2 4.5 2.6 7.5 1.8 2-.5 3.3.8 3.3 3.1z"/><defs><path id="c" d="M134.2 314.6l-.1-32.7 28.4-16.4.1 32.7z"/></defs><clipPath id="d"><use xlink:href="#c" overflow="visible"/></clipPath><g clip-path="url(#d)"><path fill="#FFF" d="M148.3 273.7c-7.8 4.5-14.2 15.5-14.2 24.5s6.4 12.7 14.2 8.1c7.8-4.5 14.2-15.5 14.2-24.5s-6.4-12.6-14.2-8.1"/></g></g><g><defs><path id="e" d="M281 252l.5-173L408 152.1l-.5 172.9z"/></defs><clipPath id="f"><use xlink:href="#e" overflow="visible"/></clipPath><g clip-path="url(#f)"><path fill="#98A7D5" d="M301 128.3l-.3 2.3c-1.8 3-3.9 5.9-5.6 8.9-.9 1.7-1.8 4.1-.3 6.7.7 1.3 1.9 2.4 2 3.7.1.7-.2 1.1-.4 1.5-3.8 6.8-9.3 11.5-14.2 16.8-.8.9-1.7 2.5-.6 4.3.6 1 1.5 1.6 2.3 2.1 3.4 2.1 4.1 3.8 7.5 5.9l38.1-8.8c-.5-2-1.5-3.9-3.1-5.5l-5-5.1c.2-3.2 6.2-15 3.3-17.1L301 128.3M329.7 171.7l-38.1 8.8c3.1 4.6 3.5 10 3.5 14.5 0 6.8-.4 13.3-1.2 19.5-.3 2.1-.5 4.7.9 7.2.9 1.6 2.3 2.8 3.6 3.6.1.1.2.1.3.2 4.7 2.5 8.4.7 12-.7l.2-.1v-.1l.2.1c7.8-2.9 16.6-3.6 26.1-2.1 3.1.5 6.5 1.1 8-1.3.7-1 .9-2.4.9-4 0-.8-.1-1.7-.2-2.6-.5-4.7-2.1-9.6-3.2-14.4-.4-1.7-.7-3.4-.8-5-.1-1.5 1.1-7.8 1.1-10.3 0-.8-.4-1.4-1.1-1.8-.9-.5-2.4-.5-3.7.2l-4 10.5c-2.2 1.6-3.6 2.7-4.4 2.2-1.3-.7-.9-5.5.4-18.7.1-1.8 0-3.8-.5-5.7"/><path fill="#6582C1" d="M391.9 142.8c-.6-.3-1.2-.7-1.8-1-34.5-19.2-48.1-26.3-82.6-45.5-7.5-4.2-15.8-8.5-20.8-4-2 4.3.9 8 3.6 11 10.8 12.1 2.5 10.2 10.7 25l23.8 15.8c2.9 2.1-3.1 13.9-3.3 17.1l5 5.1c1.6 1.6 2.6 3.5 3.1 5.5.5 1.9.6 3.9.4 5.8-1.3 13.3-1.7 18-.4 18.7.8.4 2.2-.6 4.4-2.2l4-10.5c1.4-.8 2.8-.8 3.7-.2.6.4 1 1 1.1 1.8.1 2.5-1.2 8.8-1.1 10.3l1.6 2.6c3 5.9 5.4 11.9 7.7 18 5.2 13.4 10.5 27.1 13.8 40.4l12.5 7.3c-2.9-13.7-2.2-26.5 2-35.5 4.4-9.2 12.1-14.4 18-21.8 7.2-9 11.8-21.9 10.6-38.1-.4-4.8-1.4-10.3-4.4-15.1-3-5.1-7.4-8.1-11.6-10.5"/><path fill="#5A3F99" d="M378 266.3v.1-.1"/><path fill="#8297CD" d="M341.8 195.3c.2 1.6.5 3.3.8 5 1.1 4.8 2.6 9.8 3.2 14.4.1.9.2 1.7.2 2.6 0 1.6-.2 3-.9 4-1.6 2.4-5 1.8-8 1.3-9.4-1.5-18.3-.8-26.1 2.1l53.9 31.6c-3.2-13.3-8.5-26.9-13.8-40.4-2.3-6-4.7-12.1-7.7-18l-1.6-2.6"/><path fill="#8297CD" d="M310.9 224.6l-.2-.1v.1c1.1 11.1 0 21.3-3.2 29.4-.3.7-.6 1.5-.3 2.6.2.9.9 1.9 1.5 2.7 9.5 12.8 21.5 21 32.9 27.6.1.1.3.1.4.2 11.2 6.4 22.4 11.8 33.4 16.1 3 1.2 6.5 2.1 7.5-.6.6-1.4.2-3.5-.1-5.6-1.6-10.3-3.3-20.5-4.9-30.8v-.2c-.1-.9-.3-1.7-.4-2.6l-.2-.1-12.5-7.3-53.9-31.4"/></g></g><g><path fill="#FFF" d="M90.2 303.1l-43.2 25c-1.6-4.2-2.9-8.5-3.9-12.9l47-27.2.1 15.1z"/></g><g><path fill="#FFF" d="M90.2 347.4l-26.9 15.5-6-11.7 32.8-18.9.1 15.1z"/></g><g><path fill="#1A926B" d="M393.7 393.8L302.2 447c-4.9 2.9-12.9 2.9-17.9 0L256 430.6c-2.6-1.5-3.9-3.5-3.7-5.5v-12.3c.1 1.8 1.4 3.5 3.7 4.8l2.2 1.3 26.1 15.1c4.9 2.9 12.9 2.9 17.8 0l89.2-51.8 2.3-1.3c2.1-1.2 3.4-2.8 3.6-4.5V388c.4 2.1-.8 4.2-3.5 5.8z"/><path fill="#50BD93" d="M391.4 382.1L302.2 434c-4.9 2.9-12.9 2.9-17.8 0l-26.1-15.1 89.2-51.8c4.9-2.8 12.9-2.8 17.8 0l26.1 15z"/><path fill="#4BBD96" d="M397.3 376.4c-.3 1.6-1.5 3.2-3.6 4.5l-2.3 1.3-89.2 51.8c-4.9 2.9-12.9 2.9-17.8 0l-26.1-15.1-2.2-1.3c-2.3-1.3-3.6-3.1-3.7-4.8-.2-2 1.1-4 3.7-5.5l91.5-53.2c4.9-2.9 12.9-2.9 17.9 0l28.3 16.3c2.6 1.7 3.8 3.9 3.5 6z"/><path fill="#50BD93" d="M324.9 392.2h-.1.1zM324.8 392.2h-.1.1z"/><path fill="#4BBD96" d="M345.7 389.6v.6c-.1.9-.4 1.8-.8 2.6-1 2-2.9 3.8-5.5 5.1-3.8 2.1-8.9 3.3-14.6 3.3s-11-1.2-14.8-3.2c-2.6-1.4-4.5-3.2-5.5-5.1-.5-1-.8-2.1-.8-3.2 0-6.4 9.4-11.7 21-11.7s21 5.2 21 11.6z"/><path fill="#1A926B" d="M345.6 390.2l-.2 4.3-.1 3.4c-1.7 5.5-10.3 9.7-20.7 9.7s-19-4.2-20.7-9.7c-.2-.6-.3-1.3-.3-1.9v-6.4c0 1.1.3 2.2.8 3.2 1 2 2.9 3.8 5.5 5.1 3.8 2.1 8.9 3.3 14.6 3.3s10.9-1.3 14.6-3.3c2.6-1.4 4.5-3.2 5.5-5.1.7-.8.9-1.7 1-2.6z"/><path fill="#4BBD96" d="M342.7 335c0 6.5-3.5 12.2-8.8 15.3-2.7 1.6-5.8 2.5-9.1 2.5h-.2c-3.3 0-6.5-1-9.1-2.6-5.1-3.1-8.5-8.8-8.5-15.2 0-9.9 8-17.8 17.8-17.8 9.9-.1 17.9 7.9 17.9 17.8z"/><g><path fill="#1A926B" d="M331.6 382.4c.3.8.4 1.6.4 2.4 0 3.8-3 7.2-7.1 7.3h-.1-.1c-4.1-.1-7.1-3.5-7.1-7.3 0-.8.1-1.6.4-2.4 2.5-7.1 3.7-18-2.4-32.3 2.7 1.6 5.8 2.6 9.1 2.6h.2c3.3 0 6.4-.9 9.1-2.5-6 14.4-4.9 25.2-2.4 32.2z"/></g><g><path fill="none" d="M367.1 377.1v-.9"/></g><g><path fill="none" d="M367.1 366.7v-.2"/></g></g><g><path fill="#DAECF9" d="M462 79.2c9.3-10.9 25.7-12.1 36.6-2.8 10.9 9.3 18.6 79 9.2 89.9-9.3 10.9-32.2-41.2-43-50.5S452.6 90 462 79.2z"/><ellipse transform="rotate(-17.541 379.415 494.416)" fill="#FBF1D4" cx="379.5" cy="494.5" rx="22.4" ry="10.6"/><ellipse transform="rotate(-65.99 15.158 171.46)" fill="#ECF6FD" cx="15.2" cy="171.5" rx="25.5" ry="12.1"/><g><path fill="#FBF1D4" d="M442.7 419.7c-.2.9-1.2 1.4-2.1 1.1-.8-.3-1.4-1.2-1.5-2-.1-.9.1-1.8.5-2.6.8-2.1 2.2-3.8 3.5-5.6 2.8-3.7 5.6-7.4 9.1-10.3.4-.3.8-.6 1.2-.6.3 0 .5.2.7.3 3.2 2.3 4 6.9 2.7 10.7-1.3 3.7-4.3 6.6-7.6 8.7-2.7 1.7-5.8 3-8.9 2.8"/><path fill="#DAECF9" d="M318.5 17.7c-1.5-2.9-1.7-6.3-1.2-9.5.4-2.1 1.2-4.3 2.9-5.6 1.6-1.3 3.8-1.5 5.9-1.4s4.1.6 6.1.6c3.2.1 6.3-.9 9.5-1.5s6.6-.7 9.4 1c.6.3 1.1.8 1.4 1.3.3.6.4 1.3.5 2 .3 2.7.6 5.7-1.2 7.8-1.4 1.7-3.8 2.3-5.8 3.1-3.8 1.5-7.1 4-9.6 7.2-.6.7-1.1 1.5-1.9 2-.8.4-1.8.5-2.7.5-1.5 0-3.3.1-4.8-.3-1.4-.4-1.6-1-2.6-1.9-2.3-1.6-4.4-2.4-5.9-5.3z"/><path fill="#FBF1D4" d="M161.3 492.9c8.4 6.4 17 12.9 27.1 16.1 8.3 2.6 17.1 2.8 25.8 3 2.7.1 5.5.1 8-1s4.5-3.6 4.2-6.3c-.4-3.1-3.6-4.9-6.5-6.2-15.8-7.3-31.7-14.6-47.5-21.9-5.3-2.5-23.3-12.3-27.8-4.8-4.5 7.5 11.9 17.4 16.7 21.1z"/><path fill="#ECF6FD" d="M36 79.7c18.1-16.1 39.6-28.5 62.7-36 4.8-1.5 9.7-2.9 14.7-2.9.7 0 1.4 0 2 .4.9.6 1.2 1.7 1.3 2.8 1.1 10.7-7.9 19.4-16.2 26.3-13.9 11.6-30 25.9-46.9 32.7-6.3 2.5-19.1 5.2-24.4-.1-7.7-7.5.9-18 6.8-23.2z"/></g></g></svg>