<svg xmlns="http://www.w3.org/2000/svg" xmlns:xlink="http://www.w3.org/1999/xlink" viewBox="0 0 512 512"><path fill="#ECF6FD" d="M256.3 220.5l-.2-.4-73.4 38.5-134 74.1c-8.1-21.9-12.9-45.3-13.6-69.8-.1-2.3-.1-4.6-.1-7 0-119.2 94.4-216.4 212.5-220.8l8.8 185.4z"/><path fill="#FBF1D4" d="M461 338.5c-.8 2-1.6 4-2.5 5.9-7.9 18-18.1 34.7-30.2 49.8C387.8 444.7 325.7 477 256 477c-76.6 0-144.1-39-183.7-98.1-7.8-11.6-14.4-23.9-19.9-36.9-1.3-3.1-2.5-6.2-3.7-9.3l134-74.1 73.4-38.5.2.4.1.1 1.7 1.1 24.4 14.3L461 338.5z"/><path fill="#DAECF9" d="M477 256c0 29.2-5.7 57.1-16 82.6L282.4 236 258 221.8l-1.7-1.1-.1-.1-8.8-185.4s23.3-.6 35.5 1.5C392.3 49.9 477 143 477 256z"/><path fill="#F9AB7D" d="M189.9 306.1c0 2.7-1.8 5.9-4 7.1l-50.4 29.1-63.2 36.5c-6.9-10.2-12.9-21.1-18-32.5-.7-1.4-1.3-2.9-1.9-4.4-1.1-2.6-2.1-5.2-3.1-7.9-.2-.5-.4-1-.5-1.4-2.8-7.5-5.2-15.2-7.1-23.1-1.1-4.4-2.1-8.9-2.9-13.4-2-10.8-3.2-22-3.6-33.3L185.6 176c2.2-1.3 4-.2 4 2.5 0 2.2-1.2 4.8-3 6.4-5.4 4.7-9.4 12.9-9.4 19.9 0 7 4 10.5 9.5 9 1.8-.5 3 .8 3 2.9v6.4c0 2.2-1.2 4.8-3 6.4-5.4 4.7-9.4 12.9-9.4 19.8 0 5.1 2.2 8.3 5.4 9.1 1.2.3 2.5.3 4-.1 1.8-.5 3 .7 3 2.9v6.5c0 2.2-1.2 4.8-3 6.4-5.4 4.7-9.4 12.9-9.4 19.9 0 7 4 10.5 9.4 9 2-.3 3.2.9 3.2 3.1z"/><path fill="none" d="M477 256c0 29.2-5.7 57.1-16 82.6-.8 2-1.6 4-2.5 5.9-7.9 18-18.1 34.7-30.2 49.8L282.2 310l.2-67.1V236l.6-199.4C392.3 49.9 477 143 477 256z"/><path fill="#98A7D5" d="M276.5 35.6l5.9 197.9v6.9l-.2 67.1 146.1 84.4c12.1-15.1 22.4-31.9 30.2-49.8.9-2 1.7-3.9 2.5-5.9 10.3-25.5 16-53.4 16-82.6 0-113-91.1-204.6-200.5-218zm91.8 85.4v-.1-.1-.2c0-.5.2-1 .4-1.4 0-.1.1-.2.1-.2l.1-.1c.1-.1.1-.2.2-.3l.1-.1.2-.2c.1-.1.2-.1.3-.2h.1c.1 0 .2-.1.3-.1h1.6c.3.1.6.2 1 .4l79.4 45.9c.2.1.4.2.6.4.1.1.2.1.3.2.4.4.9.8 1.2 1.3l.3.3c.2.2.3.5.5.7.1.2.2.3.3.5.1.2.2.5.3.7.2.3.3.7.4 1 .2.5.3 1 .3 1.5V178.1c0 .7-.2 1.4-.4 1.8 0 0-.1.1-.1.2-.2.3-.4.5-.7.7-.1 0-.1.1-.2.1-.1.1-.3.1-.5.2-.4.1-.9.1-1.4-.1-.3-.1-.6-.2-1-.4l-79.4-45.9-.9-.6c-.1-.1-.2-.2-.3-.2-1.1-1-2-2.4-2.5-3.8v-.1-.1c-.1-.2-.1-.4-.2-.7v-.2c-.1-.3-.1-.7-.2-1v-7zm-.2 55.1v-.7c0-.1 0-.2.1-.3 0-.2.1-.4.2-.6 0-.1.1-.2.2-.3 0-.1.1-.2.1-.2 0-.1.1-.1.2-.2.2-.3.5-.5.9-.6.1 0 .2-.1.3-.1h.3c.2 0 .5 0 .8.1.1 0 .2 0 .3.1.1 0 .2.1.3.1.1 0 .2.1.3.1.1 0 .2.1.3.1l79.4 45.9c.4.3.9.6 1.2.9l.4.4.4.4c.4.4.7.9 1 1.4.1.2.3.5.4.8.1.3.2.5.3.8.1.2.2.4.2.6.1.2.1.5.2.7 0 .2.1.4.1.6v7.6c0 .3-.1.5-.1.7 0 .1-.1.3-.1.4v.1c-.1.1-.1.2-.2.3-.1.1-.2.3-.3.4l-.1.1-.1.1-.6.3h-.2-.8c-.1 0-.3-.1-.5-.1s-.3-.1-.5-.2-.3-.2-.5-.3l-79.4-45.8c-.1-.1-.3-.2-.4-.3-.3-.2-.6-.4-.8-.7-.3-.2-.5-.5-.8-.8-.1-.2-.3-.3-.4-.5-.3-.4-.6-.9-.8-1.4-.1-.2-.2-.3-.2-.5-.1-.1-.1-.3-.2-.4-.1-.1-.1-.3-.1-.4-.1-.3-.2-.5-.2-.8 0-.2-.1-.4-.1-.5 0-.2 0-.3-.1-.5v-.5l-.4-6.3zm-8.7 68.5v-.4c0-.2.1-.5.1-.7 0-.1.1-.2.1-.3l.3-.6v-.1c0-.1.1-.1.1-.2.1-.1.2-.3.4-.4.1 0 .1-.1.2-.1h.2c.1 0 .1 0 .2-.1h.9c.1 0 .3 0 .4.1H362.6c.2.1.5.2.7.3.1 0 .2.1.3.1l43.3 25 .9.6c.1.1.2.1.2.2l.4.4.5.5c.2.3.5.6.7.9.2.2.3.5.4.7.1.2.3.5.4.8.2.3.3.7.4 1 .2.5.3 1.1.3 1.6V285.2c0 .1 0 .2-.1.4 0 .2-.1.4-.2.6-.1.2-.1.3-.2.5-.3.5-.8.8-1.4.9h-.7c-.4 0-.8-.1-1.2-.3 0 0-.1 0-.1-.1-.1 0-.2-.1-.3-.1l-43.3-25-1.2-.9-.5-.5-.1-.1c-.2-.2-.3-.4-.5-.6-.1-.2-.2-.3-.3-.5-.1-.1-.2-.3-.3-.4-.3-.4-.5-.9-.7-1.4 0-.1-.1-.2-.1-.3-.3-.8-.5-1.7-.5-2.5v-10.3zM317.8 91.8v-.2-.2-.3c0-.1 0-.2.1-.3 0-.1 0-.2.1-.3.1-.2.1-.4.2-.5 0-.1.1-.2.1-.2.1-.1.1-.2.2-.3 0-.1.1-.1.2-.2.2-.2.4-.3.6-.4.1 0 .2-.1.3-.1h1c.2 0 .4.1.5.1.1 0 .2.1.3.1.1 0 .2.1.4.2.1 0 .2.1.3.1l27.2 15.7c.4.3.9.6 1.2.9.3.2.5.5.8.8.2.3.5.6.7.9.1.1.2.2.2.4.1.1.2.3.3.5.1.1.1.3.2.4.1.3.2.5.3.8.1.2.1.3.2.5.1.3.2.7.2 1 .1.3.1.7.1 1v7.1c0 .3-.1.6-.2.8 0 .1-.1.2-.1.2 0 .1-.1.1-.1.2-.1.2-.3.4-.4.6-.1.1-.2.2-.3.2-.1.1-.2.2-.4.2-.1 0-.2.1-.3.1h-.2-.8c-.1 0-.2 0-.3-.1h-.2l-.6-.3c-.1 0-.2-.1-.3-.1L322 105.7c-2.3-1.3-4.2-4.6-4.2-7.3v-6.6zm-.1 55.1v-.3-.2-.1-.1-.2c.1-.3.2-.6.3-.8.1-.1.1-.2.2-.3.1-.1.1-.2.2-.3l.1-.1s.1-.1.2-.1c.1-.1.2-.1.3-.2.1 0 .1-.1.2-.1H319.8c.4 0 .9 0 1.4.2.1 0 .3.1.4.2.1.1.2.1.3.2l27.2 15.7c.1.1.3.2.4.3.1 0 .1.1.1.1.2.2.5.3.7.5.2.1.3.3.5.5l.1.1c.1.1.2.3.3.4.5.6.9 1.3 1.3 2.1 0 .1.1.2.1.3v.1c0 .1.1.2.1.3 0 .1.1.3.1.4v.1c.2.6.3 1.1.3 1.6v7.6c0 .2 0 .3-.1.4 0 .1 0 .2-.1.3 0 .1-.1.2-.1.3-.1.2-.1.3-.2.5-.1.1-.2.3-.3.4l-.3.3s-.1 0-.1.1c-.2.1-.5.2-.8.3h-.1c-.6 0-1.3-.1-2.1-.6l-27.2-15.7c-.2-.1-.4-.3-.6-.4-.1-.1-.3-.2-.4-.3-.1-.1-.2-.1-.2-.2l-.4-.4c-.2-.2-.3-.3-.4-.5-.1-.1-.1-.2-.2-.3-.1-.2-.3-.3-.4-.5-.2-.2-.3-.5-.4-.7-.1-.1-.2-.3-.2-.4v-.1c-.1-.2-.2-.4-.2-.5-.1-.2-.1-.4-.2-.6 0-.1-.1-.3-.1-.4-.1-.2-.1-.4-.1-.6v-.1c0-.2-.1-.4-.1-.6v-.2-.1-.4l-.1-6.9z"/><path fill="#FFF" d="M349.3 107.6L322 91.9c-2.3-1.3-4.2-.3-4.2 2.4v6.6c0 2.7 1.9 5.9 4.2 7.3l27.2 15.7c2.3 1.3 4.2.3 4.2-2.4v-6.6c.1-2.7-1.8-6-4.1-7.3zM451.9 166.9L372.5 121c-2.3-1.3-4.2-.3-4.2 2.4v6.6c0 2.7 1.9 5.9 4.2 7.3l79.4 45.9c2.3 1.3 4.2.3 4.2-2.4v-6.6c0-2.7-1.9-6-4.2-7.3zM349.1 162.7L321.9 147c-2.3-1.3-4.2-.3-4.2 2.4v6.6c0 2.7 1.9 5.9 4.2 7.3l27.2 15.7c2.3 1.3 4.2.3 4.2-2.4V170c0-2.7-1.9-6-4.2-7.3zM451.8 222l-79.4-45.9c-2.3-1.3-4.2-.3-4.2 2.4v6.6c0 2.7 1.9 5.9 4.2 7.3l79.4 45.9c2.3 1.3 4.2.3 4.2-2.4v-6.6c0-2.8-1.9-6-4.2-7.3zM406.9 269.6l-43.3-25c-2.3-1.3-4.2-.3-4.2 2.4v10.1c0 2.7 1.9 5.9 4.2 7.3l43.3 25c2.3 1.3 4.2.3 4.2-2.4v-10.1c0-2.7-1.9-5.9-4.2-7.3z"/><defs><path id="a" d="M98.2 368.3l128-74.4 136 78.6-128 74.4z"/></defs><clipPath id="b"><use xlink:href="#a" overflow="visible"/></clipPath><g clip-path="url(#b)"><path fill="#4CBD96" d="M327.5 352.4l-89.4 27.7 29.8 5c-3.3 1.7-6.6 3.4-9.9 5.2-8 4.1-15.5 8.2-23.5 11.4-4 1.6-8.2 2.9-12.5 3.8-4.3.9-8.8 1.4-13.5 1.5-9.4.2-19.1-1.2-27.9-3.8-4.4-1.3-8.5-2.9-12.4-4.8-1.4-.7-2.8-1.4-4.1-2.2-2.3-1.3-4.4-2.7-6.3-4.2-6.2-4.7-10.9-10.1-14.2-15.9-1.6-2.9-2.9-5.9-3.8-8.9-.5-1.5-.9-3-1.2-4.6-.3-1.5-.5-3-.5-4.6 0-3.1.5-6.1 1.9-9 .8-1.4 1.7-2.9 3-4.2 1.3-1.3 2.9-2.5 4.7-3.6l-1.4-.9c-2.2 1.1-4.1 2.3-5.8 3.6-1.6 1.3-3 2.8-4.1 4.3-2.2 3.1-3.3 6.3-3.8 9.6s-.4 6.6.1 9.8c.5 3.2 1.4 6.5 2.6 9.7 2.5 6.4 6.8 12.7 13.2 18.4 3.1 2.8 6.8 5.5 10.9 7.9 4.3 2.5 9.1 4.7 14.3 6.5 10.3 3.6 22.2 5.9 34.6 6.1 6.2.2 12.6-.3 18.7-1.2 6.1-.9 11.9-2.3 17.2-4 10.7-3.3 19.7-7.6 27.8-12 4.1-2.2 8.1-4.6 12-7l15.4 16.7 28.1-56.3"/></g><path fill="#C6B3D7" d="M283 36.6l-35.5-1.5s23.3-.5 35.5 1.5z"/><g><defs><path id="c" d="M114.1 307l-.2-42.8 37.3-21.5.1 42.8z"/></defs><clipPath id="d"><use xlink:href="#c" overflow="visible"/></clipPath><g clip-path="url(#d)"><path fill="#FFF" d="M132.6 253.5c-10.3 5.9-18.6 20.3-18.6 32.1s8.4 16.6 18.7 10.6c10.3-5.9 18.6-20.3 18.6-32.1-.1-11.8-8.5-16.6-18.7-10.6"/></g></g><path fill="none" d="M87.2 283.3l-45.6 26.4c-1.1-4.4-2.1-8.9-2.9-13.4l48.5-28v15z"/><g><path fill="#FFF" d="M87.2 283.3l-45.6 26.4c-1.1-4.4-2.1-8.9-2.9-13.4l48.5-28v15z"/></g><g><path fill="#FFF" d="M87.2 327.4l-32.9 19c-.7-1.4-1.3-2.9-1.9-4.4-1.1-2.6-2.1-5.2-3.1-7.9l37.9-21.9v15.2z"/></g><g><path fill="#DAECF9" d="M462 79.2c9.3-10.9 25.7-12.1 36.6-2.8 10.9 9.3 18.6 79 9.2 89.9-9.3 10.9-32.2-41.2-43-50.5S452.6 90 462 79.2z"/><ellipse transform="rotate(-17.541 379.415 494.416)" fill="#FBF1D4" cx="379.5" cy="494.5" rx="22.4" ry="10.6"/><ellipse transform="rotate(-65.99 15.158 171.46)" fill="#ECF6FD" cx="15.2" cy="171.5" rx="25.5" ry="12.1"/><g><path fill="#FBF1D4" d="M442.7 419.7c-.2.9-1.2 1.4-2.1 1.1-.8-.3-1.4-1.2-1.5-2-.1-.9.1-1.8.5-2.6.8-2.1 2.2-3.8 3.5-5.6 2.8-3.7 5.6-7.4 9.1-10.3.4-.3.8-.6 1.2-.6.3 0 .5.2.7.3 3.2 2.3 4 6.9 2.7 10.7-1.3 3.7-4.3 6.6-7.6 8.7-2.7 1.7-5.8 3-8.9 2.8"/><path fill="#DAECF9" d="M318.5 17.7c-1.5-2.9-1.7-6.3-1.2-9.5.4-2.1 1.2-4.3 2.9-5.6 1.6-1.3 3.8-1.5 5.9-1.4s4.1.6 6.1.6c3.2.1 6.3-.9 9.5-1.5s6.6-.7 9.4 1c.6.3 1.1.8 1.4 1.3.3.6.4 1.3.5 2 .3 2.7.6 5.7-1.2 7.8-1.4 1.7-3.8 2.3-5.8 3.1-3.8 1.5-7.1 4-9.6 7.2-.6.7-1.1 1.5-1.9 2-.8.4-1.8.5-2.7.5-1.5 0-3.3.1-4.8-.3-1.4-.4-1.6-1-2.6-1.9-2.3-1.6-4.4-2.4-5.9-5.3z"/><path fill="#FBF1D4" d="M161.3 492.9c8.4 6.4 17 12.9 27.1 16.1 8.3 2.6 17.1 2.8 25.8 3 2.7.1 5.5.1 8-1s4.5-3.6 4.2-6.3c-.4-3.1-3.6-4.9-6.5-6.2-15.8-7.3-31.7-14.6-47.5-21.9-5.3-2.5-23.3-12.3-27.8-4.8-4.5 7.5 11.9 17.4 16.7 21.1z"/><path fill="#ECF6FD" d="M36 79.7c18.1-16.1 39.6-28.5 62.7-36 4.8-1.5 9.7-2.9 14.7-2.9.7 0 1.4 0 2 .4.9.6 1.2 1.7 1.3 2.8 1.1 10.7-7.9 19.4-16.2 26.3-13.9 11.6-30 25.9-46.9 32.7-6.3 2.5-19.1 5.2-24.4-.1-7.7-7.5.9-18 6.8-23.2z"/></g></g></svg>