<svg xmlns="http://www.w3.org/2000/svg" xmlns:xlink="http://www.w3.org/1999/xlink" viewBox="0 0 512 512"><path fill="#9D82BC" d="M47.6 276.3v.1h-.1z"/><path fill="none" d="M477 256c0 36-8.6 70-23.9 100.1-1.9 3.8-3.9 7.5-6.1 11.1-1.7 2.9-3.4 5.7-5.2 8.5l-153-88.3-30.4-17.6v-11.5L257.8 35c84.9.7 158.5 49.2 194.9 120 .4.7.7 1.3 1 2 14.9 29.8 23.3 63.4 23.3 99z"/><path fill="#DAECF9" d="M477 256c0 36-8.6 70-23.9 100.1-1.9 3.8-3.9 7.5-6.1 11.1-1.7 2.9-3.4 5.7-5.2 8.5l-153-88.3-30.4-17.6-5.1-12.8.6-222c84.9.7 162.3 49.2 198.7 120 .4.7.7 1.3 1 2 15 29.8 23.4 63.4 23.4 99z"/><path fill="none" d="M258.4 275.5L74.3 381.9c-3.4-4.9-6.6-10-9.7-15.2C45.8 334.1 35 296.3 35 256c0-121.4 97.8-219.9 218.9-221l-.6 222v9.8l5.1 3v5.7z"/><path fill="#ECF6FD" d="M253.3 257v9.8l5.1 3v5.8L74.3 381.9c-3.4-4.9-6.6-10-9.7-15.2C45.8 334.1 35 296.3 35 256c0-121.4 97.8-219.9 218.9-221l-.6 222z"/><path fill="none" d="M447 367.2c-1.7 2.9-3.4 5.7-5.2 8.5-3.7 5.7-7.6 11.2-11.8 16.6-21 26.8-48.1 48.6-79.2 63.4-6.7 3.2-13.6 6.1-20.7 8.6C307 472.5 282 477 256 477c-75.3 0-141.8-37.6-181.7-95.1-3.4-4.9-6.6-10-9.7-15.2L253.3 257l1.4-.8 3.7 2.1 30.5 17.6L447 367.2z"/><path fill="#FBF1D4" d="M447 367.2c-1.7 2.9-3.4 5.7-5.2 8.5-3.7 5.7-7.6 11.2-11.8 16.6-17 21.7-38 40.1-61.8 54.2-5.6 3.3-11.4 6.4-17.3 9.2-5.4 2.6-11 5-16.7 7.1-1.3.5-2.7 1-4 1.5C307 472.5 282 477 256 477c-75.3 0-141.8-37.6-181.7-95.1-3.4-4.9-6.7-10-9.7-15.2L253.3 257l1.4-.8 3.7 2.1 30.5 17.6L447 367.2z"/><path fill="#9D82BC" d="M175.5 351.1v.1h-.1z"/><path fill="none" d="M453.6 157l-.6 199c-1.9 3.8-3.9 7.5-6.1 11.1-1.7 2.9-3.4 5.7-5.2 8.5-3.7 5.7-7.6 11.2-11.8 16.6l-141.2-81.5.1-23.4v-11.5l.6-215.1L452.6 155c.4.7.7 1.4 1 2z"/><path fill="#98A7D5" d="M352.7 277.5v6.4l67.8 39.2v-6.4l-67.8-39.2zm.2-56.7v6.4l67.8 39.2V260l-67.8-39.2zm.1-56.7v6.4l67.8 39.2v-6.4L353 164.1zm-.3 113.4v6.4l67.8 39.2v-6.4l-67.8-39.2zm.2-56.7v6.4l67.8 39.2V260l-67.8-39.2zm.1-56.7v6.4l67.8 39.2v-6.4L353 164.1zm-.3 113.4v6.4l67.8 39.2v-6.4l-67.8-39.2zm.3-113.4v6.4l67.8 39.2v-6.4L353 164.1zm0 0v6.4l67.8 39.2v-6.4L353 164.1zm99.6-9.1L289.5 60.8l-.6 215.1v11.5l-.1 23.4L430 392.3c4.2-5.3 8.1-10.9 11.8-16.6 1.8-2.8 3.5-5.6 5.2-8.5 2.1-3.6 4.2-7.4 6.1-11.1l.6-199c-.4-.7-.7-1.4-1.1-2.1zM353 170.5l67.8 39.2v-6.4L353 164.1v6.4z"/><path fill="#FFF" d="M420.9 203.2l-.1 18.6-67.8-39.2v-18.5zM420.9 259.1l-.1 18.6-67.8-39.2v-18.6zM420.9 317.4l-.1 18.6-67.8-39.2v-18.5z"/><g fill="#FFF"><path d="M340.3 144.3c-.4 3.3-2.6 5-5.3 4-.3-.1-.7-.3-1-.5-2.8-1.6-5.6-5.8-7.9-12l-.6-1.7-.6.9c-2.3 3.5-5.1 4.5-7.9 2.9-.3-.2-.7-.4-1-.7-2.7-2.1-4.9-6.4-5.2-10.1l-1.4-.7c0 18.1 7.2 37 16.1 42.2 8.9 5.2 16.2-5.4 16.3-23.5l-1.5-.8zm-14.9 22.8c-7.4-4.3-13.5-19.3-14.5-34.9 1.2 2.6 2.9 5 4.8 6.5.4.3.8.6 1.3.9 2.2 1.3 5.4 1.9 8.6-2.1 3.1 7.6 6.3 10.7 8.5 12 .5.3.9.5 1.2.6 1.9.7 3.7.3 4.8-1-1.1 14.3-7.3 22.2-14.7 18z"/><path d="M340.1 149c-1.1 14.3-7.3 22.3-14.7 18-7.4-4.3-13.5-19.3-14.5-34.9 1.2 2.6 2.9 5 4.8 6.5.4.3.8.6 1.3.9 2.2 1.3 5.4 1.9 8.6-2.1 3.1 7.6 6.3 10.7 8.5 12 .5.3.9.5 1.2.6 1.9.7 3.6.3 4.8-1z"/></g><g fill="#FFF"><path d="M340.3 204.9c-.4 3.3-2.6 4.9-5.3 4-.3-.1-.7-.3-1-.5-2.8-1.6-5.6-5.8-7.9-12l-.6-1.7-.6.9c-2.3 3.5-5.1 4.5-7.9 2.9-.3-.2-.7-.4-1-.7-2.7-2.1-4.9-6.4-5.2-10.1l-1.4-.7c0 18.1 7.2 37 16.1 42.2 8.9 5.2 16.2-5.4 16.3-23.5l-1.5-.8zm-14.9 22.8c-7.4-4.3-13.5-19.3-14.5-34.9 1.2 2.6 2.9 5 4.8 6.5.4.3.8.6 1.3.9 2.2 1.3 5.4 1.9 8.6-2.1 3.1 7.6 6.3 10.7 8.5 12 .5.3.9.4 1.2.6 1.9.7 3.7.3 4.8-1-1.1 14.3-7.3 22.2-14.7 18z"/><path d="M340.1 209.7c-1.1 14.3-7.3 22.3-14.7 18-7.4-4.3-13.5-19.3-14.5-34.9 1.2 2.6 2.9 5 4.8 6.5.4.3.8.6 1.3.9 2.2 1.3 5.4 1.9 8.6-2.1 3.1 7.6 6.3 10.7 8.5 12 .5.3.9.4 1.2.6 1.9.6 3.6.2 4.8-1z"/></g><g fill="#FFF"><path d="M340.3 262.6c-.4 3.3-2.6 4.9-5.3 4-.3-.1-.7-.3-1-.5-2.8-1.6-5.6-5.8-7.9-12l-.6-1.7-.6.9c-2.3 3.5-5.1 4.5-7.9 2.9-.3-.2-.7-.4-1-.7-2.7-2.1-4.9-6.4-5.2-10.1l-1.4-.7c0 18.1 7.2 37 16.1 42.2 8.9 5.2 16.2-5.4 16.3-23.5l-1.5-.8zm-14.9 22.7c-7.4-4.3-13.5-19.3-14.5-34.9 1.2 2.6 2.9 5 4.8 6.5.4.3.8.6 1.3.9 2.2 1.3 5.4 1.9 8.6-2.1 3.1 7.6 6.3 10.7 8.5 12 .5.3.9.4 1.2.6 1.9.7 3.7.3 4.8-1-1.1 14.3-7.3 22.3-14.7 18z"/><path d="M340.1 267.3c-1.1 14.3-7.3 22.3-14.7 18-7.4-4.3-13.5-19.3-14.5-34.9 1.2 2.6 2.9 5 4.8 6.5.4.3.8.6 1.3.9 2.2 1.3 5.4 1.9 8.6-2.1 3.1 7.6 6.3 10.7 8.5 12 .5.3.9.4 1.2.6 1.9.7 3.6.3 4.8-1z"/></g><defs><path id="a" d="M112.4 368.9l-.5-159.6 90.1-52 .4 159.6z"/></defs><clipPath id="b"><use xlink:href="#a" overflow="visible"/></clipPath><g clip-path="url(#b)"><path fill="#F9AB7D" d="M202 157.3l-90.1 52 .1.1v13.1l.4 146.4 11-19.7 11.5 6.6 11.6-19.9 9.8 7.6 11.4-19.8 11.5 6.5 11.6-19.9 11.5 6.6.1-13.2-.4-146.4"/></g><g fill="#4BBD96"><path d="M368.1 446.5c-5.6 3.3-11.4 6.4-17.3 9.2-5.4 2.6-11 5-16.7 7.1l-99.3-61.3 24.1-14 109.2 59zM283.4 373.2l-38.8-22.4-73.1 42.5 38.8 22.4 24.5-14.2 24.1-14 24.5-14.3zM296 368.7l-43.6-25.2c-1.9-1.1-5-1.1-6.9 0-1.9 1.1-1.9 2.9 0 4l43.6 25.2c1.9 1.1 5 1.1 6.9 0 1.9-1.1 1.9-2.9 0-4zM209.4 419l-43.6-25.2c-1.9-1.1-5-1.1-6.9 0-1.9 1.1-1.9 2.9 0 4l43.6 25.2c1.9 1.1 5 1.1 6.9 0 2-1.1 2-2.9 0-4z"/></g><g><defs><path id="c" d="M125.5 255.5l-.1-13.7 62.9-36.4.1 13.7z"/></defs><clipPath id="d"><use xlink:href="#c" overflow="visible"/></clipPath><g clip-path="url(#d)"><path fill="#FFF" d="M188.3 205.4l-62.9 36.4.1 13.7 62.9-36.4-.1-13.7"/></g></g><g><defs><path id="e" d="M125.5 294.3l-.1-13.7 62.9-36.3.1 13.7z"/></defs><clipPath id="f"><use xlink:href="#e" overflow="visible"/></clipPath><g clip-path="url(#f)"><path fill="#FFF" d="M188.3 244.3l-62.9 36.3.1 13.7 62.9-36.3-.1-13.7"/></g></g><g><path fill="#DAECF9" d="M462 79.2c9.3-10.9 25.7-12.1 36.6-2.8 10.9 9.3 18.6 79 9.2 89.9-9.3 10.9-32.2-41.2-43-50.5S452.6 90 462 79.2z"/><ellipse transform="rotate(-17.541 379.415 494.416)" fill="#FBF1D4" cx="379.5" cy="494.5" rx="22.4" ry="10.6"/><ellipse transform="rotate(-65.99 15.158 171.46)" fill="#ECF6FD" cx="15.2" cy="171.5" rx="25.5" ry="12.1"/><g><path fill="#FBF1D4" d="M442.7 419.7c-.2.9-1.2 1.4-2.1 1.1-.8-.3-1.4-1.2-1.5-2-.1-.9.1-1.8.5-2.6.8-2.1 2.2-3.8 3.5-5.6 2.8-3.7 5.6-7.4 9.1-10.3.4-.3.8-.6 1.2-.6.3 0 .5.2.7.3 3.2 2.3 4 6.9 2.7 10.7-1.3 3.7-4.3 6.6-7.6 8.7-2.7 1.7-5.8 3-8.9 2.8"/><path fill="#DAECF9" d="M318.5 17.7c-1.5-2.9-1.7-6.3-1.2-9.5.4-2.1 1.2-4.3 2.9-5.6 1.6-1.3 3.8-1.5 5.9-1.4s4.1.6 6.1.6c3.2.1 6.3-.9 9.5-1.5s6.6-.7 9.4 1c.6.3 1.1.8 1.4 1.3.3.6.4 1.3.5 2 .3 2.7.6 5.7-1.2 7.8-1.4 1.7-3.8 2.3-5.8 3.1-3.8 1.5-7.1 4-9.6 7.2-.6.7-1.1 1.5-1.9 2-.8.4-1.8.5-2.7.5-1.5 0-3.3.1-4.8-.3-1.4-.4-1.6-1-2.6-1.9-2.3-1.6-4.4-2.4-5.9-5.3z"/><path fill="#FBF1D4" d="M161.3 492.9c8.4 6.4 17 12.9 27.1 16.1 8.3 2.6 17.1 2.8 25.8 3 2.7.1 5.5.1 8-1s4.5-3.6 4.2-6.3c-.4-3.1-3.6-4.9-6.5-6.2-15.8-7.3-31.7-14.6-47.5-21.9-5.3-2.5-23.3-12.3-27.8-4.8-4.5 7.5 11.9 17.4 16.7 21.1z"/><path fill="#ECF6FD" d="M36 79.7c18.1-16.1 39.6-28.5 62.7-36 4.8-1.5 9.7-2.9 14.7-2.9.7 0 1.4 0 2 .4.9.6 1.2 1.7 1.3 2.8 1.1 10.7-7.9 19.4-16.2 26.3-13.9 11.6-30 25.9-46.9 32.7-6.3 2.5-19.1 5.2-24.4-.1-7.7-7.5.9-18 6.8-23.2z"/></g></g></svg>