<svg xmlns="http://www.w3.org/2000/svg" viewBox="0 0 1816.9 857.2"><g opacity=".3"><linearGradient id="a" gradientUnits="userSpaceOnUse" x1="1.316" y1="758.847" x2="1024.586" y2="758.847"><stop offset="0" stop-color="#fff"/><stop offset="1"/></linearGradient><path fill="url(#a)" d="M1.3 663c10.9-.7 21.8-1 32.8-1.2l8.2-.1h16.4l8.2.1 8.2.1 8.2.2c5.5.1 10.9.2 16.4.4l16.4.5 16.4.7c5.5.2 10.9.5 16.3.8 5.4.3 10.9.6 16.3.9l16.3 1.1 8.2.6 8.2.7c10.9.9 21.8 1.7 32.6 2.8l16.3 1.5c5.4.5 10.8 1.1 16.3 1.7 43.4 4.6 86.7 10.3 129.8 17 43.1 6.7 86 14.5 128.8 23l32 6.6c5.3 1.1 10.7 2.3 16 3.5l16 3.5 16 3.5c5.3 1.1 10.6 2.5 15.9 3.7l31.8 7.5c42.3 10.5 84.6 21.4 126.5 33.5 83.9 23.9 167 50.7 249 80.5-82.1-29.5-165.2-56.2-249.1-79.9-41.9-12-84.2-22.8-126.6-33.2l-31.8-7.5c-5.3-1.2-10.6-2.5-15.9-3.7l-16-3.5-16-3.5c-5.3-1.2-10.6-2.4-16-3.4l-32-6.5c-42.8-8.4-85.7-16.1-128.8-22.7-43.1-6.6-86.4-12.2-129.7-16.7-5.4-.6-10.8-1.2-16.3-1.7l-16.3-1.5c-10.8-1.1-21.7-1.8-32.6-2.7l-8.1-.6-8.2-.5-16.3-1.1c-5.4-.3-10.9-.6-16.3-.9-5.4-.3-10.9-.6-16.3-.8l-16.3-.7-16.3-.5c-5.4-.2-10.9-.3-16.3-.4l-8.2-.1H50.8l-8.2.1-8.2.1c-10.9.2-21.8.5-32.6 1.3l-.5-2.5z"/><linearGradient id="b" gradientUnits="userSpaceOnUse" x1="1.377" y1="743.838" x2="1062.737" y2="743.838"><stop offset="0" stop-color="#fff"/><stop offset="1"/></linearGradient><path fill="none" stroke="url(#b)" stroke-width="2.452" stroke-miterlimit="10" d="M1.4 632.7c15.1.4 355.3-23.5 861.1 147.5 65 22 131.5 47.8 199.8 75.9"/><linearGradient id="c" gradientUnits="userSpaceOnUse" x1="1.377" y1="728.267" x2="1100.468" y2="728.267"><stop offset="0" stop-color="#fff"/><stop offset="1"/></linearGradient><path fill="none" stroke="url(#c)" stroke-width="2.452" stroke-miterlimit="10" d="M1.4 601.1c30.2.8 388.1-21.9 894.8 168 67.5 25.3 135 55.3 203.8 87"/><linearGradient id="d" gradientUnits="userSpaceOnUse" x1="1.377" y1="712.656" x2="1138.196" y2="712.656"><stop offset="0" stop-color="#fff"/><stop offset="1"/></linearGradient><path fill="none" stroke="url(#d)" stroke-width="2.452" stroke-miterlimit="10" d="M1.4 569.5c45.4 1.1 420.9-19.6 928.5 188.4 70 28.7 138.6 62.9 207.7 98.1"/><linearGradient id="e" gradientUnits="userSpaceOnUse" x1="1.377" y1="696.921" x2="1175.921" y2="696.921"><stop offset="0" stop-color="#fff"/><stop offset="1"/></linearGradient><path fill="none" stroke="url(#e)" stroke-width="2.452" stroke-miterlimit="10" d="M1.4 538c60.5 1.5 453.5-16.7 962.2 208.9 72.5 32.1 142.2 70.4 211.7 109.2"/><linearGradient id="f" gradientUnits="userSpaceOnUse" x1="1.377" y1="681.124" x2="1213.644" y2="681.124"><stop offset="0" stop-color="#fff"/><stop offset="1"/></linearGradient><path fill="none" stroke="url(#f)" stroke-width="2.452" stroke-miterlimit="10" d="M1.4 506.4c75.6 1.9 486-13.2 996 229.3 74.9 35.6 145.7 78 215.6 120.3"/><linearGradient id="g" gradientUnits="userSpaceOnUse" x1="1.377" y1="665.327" x2="1251.363" y2="665.327"><stop offset="0" stop-color="#fff"/><stop offset="1"/></linearGradient><path fill="none" stroke="url(#g)" stroke-width="2.452" stroke-miterlimit="10" d="M1.4 474.8c90.7 2.3 518.3-9.3 1029.7 249.8 77.4 39.2 149.3 85.5 219.6 131.5"/><linearGradient id="h" gradientUnits="userSpaceOnUse" x1="1.377" y1="649.53" x2="1289.08" y2="649.53"><stop offset="0" stop-color="#fff"/><stop offset="1"/></linearGradient><path fill="none" stroke="url(#h)" stroke-width="2.452" stroke-miterlimit="10" d="M1.4 443.2c105.8 2.6 550.4-5 1063.4 270.2 79.8 42.8 152.8 93.1 223.6 142.6"/><linearGradient id="i" gradientUnits="userSpaceOnUse" x1="1.377" y1="633.733" x2="1326.795" y2="633.733"><stop offset="0" stop-color="#fff"/><stop offset="1"/></linearGradient><path fill="none" stroke="url(#i)" stroke-width="2.452" stroke-miterlimit="10" d="M1.4 411.7c121 3 582.4-.4 1097.1 290.7 82.2 46.5 156.4 100.6 227.5 153.7"/><linearGradient id="j" gradientUnits="userSpaceOnUse" x1="1.377" y1="617.936" x2="1364.507" y2="617.936"><stop offset="0" stop-color="#fff"/><stop offset="1"/></linearGradient><path fill="none" stroke="url(#j)" stroke-width="2.452" stroke-miterlimit="10" d="M1.4 380.1c136.1 3.4 614.3 4.5 1130.9 311.1 84.5 50.2 160 108.2 231.5 164.8"/><linearGradient id="k" gradientUnits="userSpaceOnUse" x1="1.377" y1="602.139" x2="1402.217" y2="602.139"><stop offset="0" stop-color="#fff"/><stop offset="1"/></linearGradient><path fill="none" stroke="url(#k)" stroke-width="2.452" stroke-miterlimit="10" d="M1.4 348.5c151.2 3.8 645.9 9.6 1164.6 331.6 86.9 53.9 163.5 115.7 235.4 175.9"/><linearGradient id="l" gradientUnits="userSpaceOnUse" x1="1.377" y1="586.343" x2="1439.926" y2="586.343"><stop offset="0" stop-color="#fff"/><stop offset="1"/></linearGradient><path fill="none" stroke="url(#l)" stroke-width="2.452" stroke-miterlimit="10" d="M1.4 316.9C167.7 321 678.8 331.8 1199.7 669c89.2 57.7 167.1 123.3 239.4 187"/><g><linearGradient id="m" gradientUnits="userSpaceOnUse" x1="1.377" y1="570.547" x2="1477.632" y2="570.547"><stop offset="0" stop-color="#fff"/><stop offset="1"/></linearGradient><path fill="none" stroke="url(#m)" stroke-width="2.452" stroke-miterlimit="10" d="M1.4 285.4c181.4 4.5 708.8 20.4 1232 372.5 91.5 61.5 170.6 130.8 243.4 198.2"/></g><g><linearGradient id="n" gradientUnits="userSpaceOnUse" x1="1.377" y1="554.751" x2="1515.337" y2="554.751"><stop offset="0" stop-color="#fff"/><stop offset="1"/></linearGradient><path fill="none" stroke="url(#n)" stroke-width="2.452" stroke-miterlimit="10" d="M1.4 253.8c196.6 4.9 740 26 1265.8 393 93.7 65.4 174.2 138.4 247.3 209.3"/></g><g><linearGradient id="o" gradientUnits="userSpaceOnUse" x1="1.377" y1="538.956" x2="1553.041" y2="538.956"><stop offset="0" stop-color="#fff"/><stop offset="1"/></linearGradient><path fill="none" stroke="url(#o)" stroke-width="2.452" stroke-miterlimit="10" d="M1.4 222.2c211.7 5.3 771.1 31.8 1299.5 413.4 95.9 69.3 177.7 145.9 251.3 220.4"/></g><g><linearGradient id="p" gradientUnits="userSpaceOnUse" x1="1.377" y1="523.161" x2="1590.743" y2="523.161"><stop offset="0" stop-color="#fff"/><stop offset="1"/></linearGradient><path fill="none" stroke="url(#p)" stroke-width="2.452" stroke-miterlimit="10" d="M1.4 190.7c226.8 5.6 802 37.6 1333.2 433.9 98.1 73.2 181.3 153.5 255.2 231.5"/></g><g><linearGradient id="q" gradientUnits="userSpaceOnUse" x1="1.377" y1="507.366" x2="1628.444" y2="507.366"><stop offset="0" stop-color="#fff"/><stop offset="1"/></linearGradient><path fill="none" stroke="url(#q)" stroke-width="2.452" stroke-miterlimit="10" d="M1.4 159.1c241.9 6 832.9 43.6 1366.9 454.3 100.3 77.1 184.9 161 259.2 242.6"/></g><g><linearGradient id="r" gradientUnits="userSpaceOnUse" x1="1.377" y1="491.572" x2="1666.143" y2="491.572"><stop offset="0" stop-color="#fff"/><stop offset="1"/></linearGradient><path fill="none" stroke="url(#r)" stroke-width="2.452" stroke-miterlimit="10" d="M1.4 127.5c257 6.4 863.6 49.6 1400.7 474.8 102.4 81.1 188.4 168.5 263.2 253.7"/></g><g><linearGradient id="s" gradientUnits="userSpaceOnUse" x1="1.377" y1="475.777" x2="1703.842" y2="475.777"><stop offset="0" stop-color="#fff"/><stop offset="1"/></linearGradient><path fill="none" stroke="url(#s)" stroke-width="2.452" stroke-miterlimit="10" d="M1.4 95.9c272.2 6.8 894.2 55.6 1434.4 495.2 104.5 85.1 192 176.1 267.1 264.9"/></g><g><linearGradient id="t" gradientUnits="userSpaceOnUse" x1="1.377" y1="459.983" x2="1741.54" y2="459.983"><stop offset="0" stop-color="#fff"/><stop offset="1"/></linearGradient><path fill="none" stroke="url(#t)" stroke-width="2.452" stroke-miterlimit="10" d="M1.4 64.4c287.3 7.2 924.6 61.8 1468.1 515.7 106.6 89.1 195.5 183.6 271.1 276"/></g><g><linearGradient id="u" gradientUnits="userSpaceOnUse" x1="1.377" y1="444.19" x2="1779.236" y2="444.19"><stop offset="0" stop-color="#fff"/><stop offset="1"/></linearGradient><path fill="none" stroke="url(#u)" stroke-width="2.452" stroke-miterlimit="10" d="M1.4 32.8c302.4 7.5 955 67.9 1501.8 536.2 108.7 93.1 199.1 191.2 275 287.1"/></g><linearGradient id="v" gradientUnits="userSpaceOnUse" x1="1.377" y1="428.396" x2="1816.932" y2="428.396"><stop offset="0" stop-color="#fff"/><stop offset="1"/></linearGradient><path fill="none" stroke="url(#v)" stroke-width="2.452" stroke-miterlimit="10" d="M1.4 1.2C318.9 9.1 986.7 75.3 1537 557.8c110.7 97.1 202.6 198.7 279 298.2"/><g fill="none" stroke="#FFF" stroke-width="2.452" stroke-miterlimit="10"><path d="M1.4 664.2S408.7 633.5 1024.6 856M1.3 663c10.9-.7 21.8-1 32.8-1.2l8.2-.1h16.4l8.2.1 8.2.1 8.2.2c5.5.1 10.9.2 16.4.4l16.4.5 16.4.7c5.5.2 10.9.5 16.3.8 5.4.3 10.9.6 16.3.9l16.3 1.1 8.2.6 8.2.7c10.9.9 21.8 1.7 32.6 2.8l16.3 1.5c5.4.5 10.8 1.1 16.3 1.7 43.4 4.6 86.7 10.3 129.8 17 43.1 6.7 86 14.5 128.8 23l32 6.6c5.3 1.1 10.7 2.3 16 3.5l16 3.5 16 3.5c5.3 1.1 10.6 2.5 15.9 3.7l31.8 7.5c42.3 10.5 84.6 21.4 126.5 33.5 83.9 23.9 167 50.7 249 80.5-82.1-29.5-165.2-56.2-249.1-79.9-41.9-12-84.2-22.8-126.6-33.2l-31.8-7.5c-5.3-1.2-10.6-2.5-15.9-3.7l-16-3.5-16-3.5c-5.3-1.2-10.6-2.4-16-3.4l-32-6.5c-42.8-8.4-85.7-16.1-128.8-22.7-43.1-6.6-86.4-12.2-129.7-16.7-5.4-.6-10.8-1.2-16.3-1.7l-16.3-1.5c-10.8-1.1-21.7-1.8-32.6-2.7l-8.1-.6-8.2-.5-16.3-1.1c-5.4-.3-10.9-.6-16.3-.9-5.4-.3-10.9-.6-16.3-.8l-16.3-.7-16.3-.5c-5.4-.2-10.9-.3-16.3-.4l-8.2-.1H50.8l-8.2.1-8.2.1c-10.9.2-21.8.5-32.6 1.3l-.5-2.5z"/><path d="M1.4 632.7c15.1.4 355.3-23.5 861.1 147.5 65 22 131.5 47.8 199.8 75.9"/><path d="M1.4 632.7c15.1.4 355.3-23.5 861.1 147.5 65 22 131.5 47.8 199.8 75.9"/><path d="M1.4 601.1c30.2.8 388.1-21.9 894.8 168 67.5 25.3 135 55.3 203.8 87"/><path d="M1.4 601.1c30.2.8 388.1-21.9 894.8 168 67.5 25.3 135 55.3 203.8 87"/><path d="M1.4 569.5c45.4 1.1 420.9-19.6 928.5 188.4 70 28.7 138.6 62.9 207.7 98.1"/><path d="M1.4 569.5c45.4 1.1 420.9-19.6 928.5 188.4 70 28.7 138.6 62.9 207.7 98.1"/><path d="M1.4 538c60.5 1.5 453.5-16.7 962.2 208.9 72.5 32.1 142.2 70.4 211.7 109.2"/><path d="M1.4 538c60.5 1.5 453.5-16.7 962.2 208.9 72.5 32.1 142.2 70.4 211.7 109.2"/><path d="M1.4 506.4c75.6 1.9 486-13.2 996 229.3 74.9 35.6 145.7 78 215.6 120.3"/><path d="M1.4 506.4c75.6 1.9 486-13.2 996 229.3 74.9 35.6 145.7 78 215.6 120.3"/><path d="M1.4 474.8c90.7 2.3 518.3-9.3 1029.7 249.8 77.4 39.2 149.3 85.5 219.6 131.5"/><path d="M1.4 474.8c90.7 2.3 518.3-9.3 1029.7 249.8 77.4 39.2 149.3 85.5 219.6 131.5"/><path d="M1.4 443.2c105.8 2.6 550.4-5 1063.4 270.2 79.8 42.8 152.8 93.1 223.6 142.6"/><path d="M1.4 443.2c105.8 2.6 550.4-5 1063.4 270.2 79.8 42.8 152.8 93.1 223.6 142.6"/><path d="M1.4 411.7c121 3 582.4-.4 1097.1 290.7 82.2 46.5 156.4 100.6 227.5 153.7"/><path d="M1.4 411.7c121 3 582.4-.4 1097.1 290.7 82.2 46.5 156.4 100.6 227.5 153.7"/><path d="M1.4 380.1c136.1 3.4 614.3 4.5 1130.9 311.1 84.5 50.2 160 108.2 231.5 164.8"/><path d="M1.4 380.1c136.1 3.4 614.3 4.5 1130.9 311.1 84.5 50.2 160 108.2 231.5 164.8"/><path d="M1.4 348.5c151.2 3.8 645.9 9.6 1164.6 331.6 86.9 53.9 163.5 115.7 235.4 175.9"/><path d="M1.4 348.5c151.2 3.8 645.9 9.6 1164.6 331.6 86.9 53.9 163.5 115.7 235.4 175.9"/><g><path d="M1.4 316.9C167.7 321 678.8 331.8 1199.7 669c89.2 57.7 167.1 123.3 239.4 187"/><path d="M1.4 316.9C167.7 321 678.8 331.8 1199.7 669c89.2 57.7 167.1 123.3 239.4 187"/></g><g><path d="M1.4 285.4c181.4 4.5 708.8 20.4 1232 372.5 91.5 61.5 170.6 130.8 243.4 198.2"/><path d="M1.4 285.4c181.4 4.5 708.8 20.4 1232 372.5 91.5 61.5 170.6 130.8 243.4 198.2"/></g><g><path d="M1.4 253.8c196.6 4.9 740 26 1265.8 393 93.7 65.4 174.2 138.4 247.3 209.3"/><path d="M1.4 253.8c196.6 4.9 740 26 1265.8 393 93.7 65.4 174.2 138.4 247.3 209.3"/></g><g><path d="M1.4 222.2c211.7 5.3 771.1 31.8 1299.5 413.4 95.9 69.3 177.7 145.9 251.3 220.4"/><path d="M1.4 222.2c211.7 5.3 771.1 31.8 1299.5 413.4 95.9 69.3 177.7 145.9 251.3 220.4"/></g><g><path d="M1.4 190.7c226.8 5.6 802 37.6 1333.2 433.9 98.1 73.2 181.3 153.5 255.2 231.5"/><path d="M1.4 190.7c226.8 5.6 802 37.6 1333.2 433.9 98.1 73.2 181.3 153.5 255.2 231.5"/></g><g><path d="M1.4 159.1c241.9 6 832.9 43.6 1366.9 454.3 100.3 77.1 184.9 161 259.2 242.6"/><path d="M1.4 159.1c241.9 6 832.9 43.6 1366.9 454.3 100.3 77.1 184.9 161 259.2 242.6"/></g><g><path d="M1.4 127.5c257 6.4 863.6 49.6 1400.7 474.8 102.4 81.1 188.4 168.5 263.2 253.7"/><path d="M1.4 127.5c257 6.4 863.6 49.6 1400.7 474.8 102.4 81.1 188.4 168.5 263.2 253.7"/></g><g><path d="M1.4 95.9c272.2 6.8 894.2 55.6 1434.4 495.2 104.5 85.1 192 176.1 267.1 264.9"/><path d="M1.4 95.9c272.2 6.8 894.2 55.6 1434.4 495.2 104.5 85.1 192 176.1 267.1 264.9"/></g><g><path d="M1.4 64.4c287.3 7.2 924.6 61.8 1468.1 515.7 106.6 89.1 195.5 183.6 271.1 276"/><path d="M1.4 64.4c287.3 7.2 924.6 61.8 1468.1 515.7 106.6 89.1 195.5 183.6 271.1 276"/></g><g><path d="M1.4 32.8c302.4 7.5 955 67.9 1501.8 536.2 108.7 93.1 199.1 191.2 275 287.1"/><path d="M1.4 32.8c302.4 7.5 955 67.9 1501.8 536.2 108.7 93.1 199.1 191.2 275 287.1"/></g><path d="M1.4 1.2C318.9 9.1 986.7 75.3 1537 557.8c110.7 97.1 202.6 198.7 279 298.2"/></g></g></svg>