<svg xmlns="http://www.w3.org/2000/svg" viewBox="0 0 7389.2 1547.9"><g fill="none" stroke="#2C94E8" stroke-width="4" stroke-miterlimit="10"><path d="M0 1547.1s733.6-1654.5 3666.9-431.3c2393.4 998.1 3722.2-155 3722.2-155"/><path d="M0 1485s753.3-1607.7 3650.3-389.5C6033.2 2099.2 7389.2 915 7389.2 915"/><path d="M0 1422.9S773-138 3633.7 1075.1C6006 2084.6 7389.2 869.2 7389.2 869.2"/><path d="M0 1360.9s792.6-1514.1 3617.1-306C5978.8 2070 7389.2 823.5 7389.2 823.5"/><path d="M0 1298.8s812.3-1467.3 3600.5-264.2c2351.2 1020.8 3788.7-256.8 3788.7-256.8"/><path d="M0 1236.7s831.9-1420.5 3583.9-222.5C5924.5 2040.7 7389.2 732 7389.2 732"/><path d="M0 1174.7S851.6-198.9 3567.3 994c2330.1 1032.1 3821.9-307.7 3821.9-307.7"/><path d="M0 1112.6S871.2-214.2 3550.7 973.7c2319.5 1037.8 3838.5-333.2 3838.5-333.2"/><path d="M0 1050.5s890.9-1280 3534.1-97.2C5843 1996.8 7389.2 594.7 7389.2 594.7"/><path d="M0 988.5s910.6-1233.2 3517.4-55.4C5815.8 1982.2 7389.2 549 7389.2 549"/><path d="M0 926.4s932.6-1191.6 3500.8-13.7c2290 1050.3 3888.4-409.5 3888.4-409.5"/><path d="M0 864.3s952.2-1144.8 3484.2 28.1c2279.4 1055.9 3905-434.9 3905-434.9"/><path d="M0 802.3s971.9-1097.9 3467.6 69.9c2268.9 1061.6 3921.6-460.4 3921.6-460.4"/><path d="M0 740.2s989.2-1046 3451 111.6C5707.1 1923.7 7389.2 366 7389.2 366"/><path d="M0 678.1s1008.8-999.2 3434.4 153.4C5680 1909.1 7389.2 320.2 7389.2 320.2"/><path d="M0 616.1s1028.5-952.4 3417.8 195.2c2235 1083.2 3971.4-536.7 3971.4-536.7"/><path d="M0 554s1048.2-905.6 3401.2 236.9c2224.5 1088.9 3988-562.2 3988-562.2"/><path d="M0 491.9s1067.8-858.8 3384.6 278.7C5598.5 1865.2 7389.2 183 7389.2 183"/><path d="M0 429.9s1087.5-812 3367.9 320.4c2203.3 1100.3 4021.2-613.1 4021.2-613.1"/><path d="M0 367.8S1107.1-397.4 3351.3 730C5544.1 1835.9 7389.2 91.5 7389.2 91.5"/><path d="M0 305.7s1126.8-718.4 3334.7 404c2182.2 1111.6 4054.5-664 4054.5-664"/><path d="M0 243.7s1146.4-671.5 3318.1 445.7S7389.2 0 7389.2 0"/></g></svg>