<svg xmlns="http://www.w3.org/2000/svg" xmlns:xlink="http://www.w3.org/1999/xlink" viewBox="0 0 512 512"><path fill="#9D82BC" d="M47.6 276.3v.1h-.1z"/><path fill="none" d="M477 256c0 36-8.6 70-23.9 100.1-1.9 3.8-3.9 7.5-6.1 11.1-1.7 2.9-3.4 5.7-5.2 8.5l-153-88.3-30.4-17.6v-11.5L257.8 35c84.9.7 158.5 49.2 194.9 120 .4.7.7 1.3 1 2 14.9 29.8 23.3 63.4 23.3 99z"/><path fill="#DAECF9" d="M477 256c0 36-8.6 70-23.9 100.1-.6 1.3-1.3 2.6-2 3.8-1.3 2.5-2.7 4.9-4.1 7.3-1.7 2.9-3.4 5.7-5.2 8.5l-9.9-5.7-21-12.1-36.9-21.4-3.8-2.2-30.2-17.4-51.1-29.5-14.9-8.6-15.5-9-5.1-12.8.6-222c6.9 0 13.8.4 20.7 1.1 75.9 7.6 143.3 53 177.1 117.1l.9 1.8c.4.7.7 1.3 1 2 8.4 16.7 14.7 34.7 18.7 53.5 3 14.7 4.6 29.9 4.6 45.5z"/><path fill="none" d="M258.4 275.5L74.3 381.9c-3.4-4.9-6.6-10-9.7-15.2C45.8 334.1 35 296.3 35 256c0-121.4 97.8-219.9 218.9-221l-.6 222v9.8l5.1 3v5.7z"/><path fill="#ECF6FD" d="M253.3 257v9.8l5.1 3v5.8L74.3 381.9c-3.4-4.9-6.6-10-9.7-15.2C45.8 334.1 35 296.3 35 256c0-121.4 97.8-219.9 218.9-221l-.6 222z"/><path fill="none" d="M447 367.2c-1.7 2.9-3.4 5.7-5.2 8.5-3.7 5.7-7.6 11.2-11.8 16.6-21 26.8-48.1 48.6-79.2 63.4-6.7 3.2-13.6 6.1-20.7 8.6C307 472.5 282 477 256 477c-75.3 0-141.8-37.6-181.7-95.1-3.4-4.9-6.6-10-9.7-15.2L253.3 257l1.4-.8 3.7 2.1 30.5 17.6L447 367.2z"/><path fill="#FBF1D4" d="M447 367.2c-1.7 2.9-3.4 5.7-5.2 8.5-.2.4-.5.7-.7 1.1-3.5 5.3-7.2 10.5-11.1 15.5-1.5 2-3.1 3.9-4.7 5.8-20.3 24.2-45.6 43.9-74.4 57.6-6.7 3.2-13.6 6-20.7 8.6C307 472.5 282 477 256 477c-75.3 0-141.8-37.6-181.7-95.1-3.4-4.9-6.7-10-9.7-15.2L253.3 257l1.4-.8 3.7 2.1 15.6 9 14.9 8.6 51.1 29.5 30.2 17.4 3.8 2.2 36.9 21.3 21 12.1 15.1 8.8z"/><path fill="#9D82BC" d="M175.5 351.1v.1h-.1z"/><path fill="none" d="M453.6 157l-.6 199c-1.9 3.8-3.9 7.5-6.1 11.1-1.7 2.9-3.4 5.7-5.2 8.5-3.7 5.7-7.6 11.2-11.8 16.6l-141.2-81.5.1-23.4v-11.5l.6-215.1L452.6 155c.4.7.7 1.4 1 2z"/><path fill="none" d="M309.2 159.3l.1-34.5 32.4 18.7-.1 34.5zM309.2 220l.1-34.6 32.4 18.7-.1 34.5zM309.2 277.6l.1-34.5 32.4 18.7-.1 34.5z"/><defs><path id="a" d="M162.1 364.4l84.7-49.2 109.1 63-84.8 49.2z"/></defs><clipPath id="b"><use xlink:href="#a" overflow="visible"/></clipPath><g clip-path="url(#b)" fill="#4CBD96"><path d="M302.2 347.2c-9.8-5.7-22.5-9.1-35.8-9.9-13.3-.9-27.1.8-39.2 5.3-3.7 1.4-7 2.9-10 4.7-1.2.7-2.4 1.5-3.5 2.2l2.7 1.9 4.8-.5c.4-.2.8-.5 1.2-.7 2.6-1.5 5.5-2.9 8.8-4.1 10.6-4 22.8-5.4 34.4-4.7 11.7.8 22.8 3.8 31.5 8.7 1.1.6 2.2 1.3 3.2 2 .1 0 .1.1.2.1 1.3.8 3.5.8 4.9.1 1.5-.7 1.7-2.1.4-3-1.1-.6-2.3-1.4-3.6-2.1"/><path d="M238.6 349.3l-17.4 1.6-4.9.5-2.6-1.9-11.6-8.3 1.3 29.9 35.2-21.8M313.2 387.9l-3.3-1.5-4.6 1c-2.2 2.2-4.9 4.2-8 6-2.6 1.5-5.5 2.9-8.8 4.1-10.6 4-22.8 5.4-34.4 4.7-11.7-.8-22.8-3.8-31.5-8.7-2.6-1.5-5-3.2-7.1-5.1-.8-.7-1.6-1.5-2.3-2.2-.2-.2-.4-.4-.6-.5-1.1-.6-2.8-.8-4.3-.4-1.8.5-2.4 1.8-1.5 2.9.8.9 1.7 1.7 2.6 2.5 2.4 2.1 5.1 4.1 8.1 5.8 9.8 5.7 22.5 9.1 35.8 10 13.3.9 27.1-.8 39.2-5.3 3.7-1.4 7-2.9 10-4.7 4.4-2.6 8-5.5 10.7-8.6"/><path d="M315.2 365.5l-26.3 25.7 16.4-3.7 4.6-1.1 3.3 1.5 14.4 6.7-12.4-29.1"/></g><g><defs><path id="c" d="M71 306.1l-.2-67.1 58.4-33.7.2 67.1z"/></defs><clipPath id="d"><use xlink:href="#c" overflow="visible"/></clipPath><g clip-path="url(#d)"><path fill="#D38F67" d="M100.2 284.1c-13.6 7.9-24.7 1.6-24.8-14.1 0-15.7 11-34.8 24.6-42.6s24.7-1.6 24.8 14.1c0 15.6-11 34.7-24.6 42.6m-.2-62c-16.1 9.3-29.1 31.9-29.1 50.4.1 18.5 13.2 26 29.3 16.7s29.1-31.9 29.1-50.4c-.1-18.5-13.2-26-29.3-16.7"/><path fill="#F9AB7D" d="M100 227.3c-13.6 7.9-24.7 27-24.6 42.6 0 15.7 11.1 22 24.8 14.1s24.7-27 24.6-42.6c-.1-15.7-11.2-22-24.8-14.1"/></g><defs><path id="e" d="M121.8 193.4l-.2-67L180 92.7l.1 67z"/></defs><clipPath id="f"><use xlink:href="#e" overflow="visible"/></clipPath><g clip-path="url(#f)"><path fill="#D38F67" d="M150.9 171.4c-13.6 7.9-24.7 1.6-24.8-14.1s11-34.8 24.6-42.6c13.6-7.9 24.7-1.6 24.8 14.1.1 15.7-10.9 34.8-24.6 42.6m-.1-61.9c-16.1 9.3-29.1 31.9-29.1 50.4.1 18.5 13.2 26 29.3 16.7s29.1-31.9 29.1-50.4c-.1-18.5-13.2-26-29.3-16.7"/><path fill="#F9AB7D" d="M150.8 114.7c-13.6 7.9-24.7 27-24.6 42.6s11.1 22 24.8 14.1c13.6-7.9 24.7-27 24.6-42.6-.1-15.7-11.2-22-24.8-14.1"/></g><g><defs><path id="g" d="M166 284.6l-.2-67 58.4-33.7.1 67z"/></defs><clipPath id="h"><use xlink:href="#g" overflow="visible"/></clipPath><g clip-path="url(#h)"><path fill="#D38F67" d="M195.1 262.6c-13.6 7.9-24.7 1.6-24.8-14.1 0-15.7 11-34.8 24.6-42.6 13.6-7.9 24.7-1.6 24.8 14.1.1 15.7-10.9 34.8-24.6 42.6m-.1-61.9c-16.1 9.3-29.1 31.9-29.1 50.4.1 18.5 13.2 26 29.3 16.7s29.1-31.9 29.1-50.4c-.1-18.5-13.2-26-29.3-16.7"/><path fill="#F9AB7D" d="M195 205.9c-13.6 7.9-24.7 27-24.6 42.6 0 15.7 11.1 22 24.8 14.1 13.6-7.9 24.7-27 24.6-42.6-.1-15.7-11.2-22-24.8-14.1"/></g></g><g><defs><path id="i" d="M93.7 275.4l-.1-30.8 14.2-8.2.1 30.8z"/></defs><clipPath id="j"><use xlink:href="#i" overflow="visible"/></clipPath><g clip-path="url(#j)"><path fill="#FFF" d="M101.5 266.7v-11c2.8-.6 5.3-1 5.3 2.5 0 2.2-1.1 5.8-5.3 8.5m-1-12c-2.7.6-5.1 1.1-5.1-1.9 0-2.8 2.2-6.2 5.1-7.9v9.8m1-14.6l-1 .6v3.2c-3.3 2-6.2 5.9-6.2 9.6 0 4 3.1 3.3 6.2 2.5v11.3c-2.8 1.5-4.9 1-6.1 0l-.8 1.3c1.4 1.3 3.8 1.5 6.9-.2v3.1l1-.6v-3.2c5-3.2 6.4-7.5 6.4-10.1 0-4.5-3.2-3.9-6.4-3.2v-10.1c2.1-1 3.9-1.1 5.2.1l.8-1.3c-1.3-1.1-3.3-1.2-5.9.1l-.1-3.1"/></g></g><g><defs><path id="k" d="M142.4 159.3l-.1-24.5 14.4-8.3.1 24.5z"/></defs><clipPath id="l"><use xlink:href="#k" overflow="visible"/></clipPath><g clip-path="url(#l)"><path fill="#FFF" d="M149.8 130.5c-3.9 2.2-6.4 7-6.4 10.4 0 3.5 2 3.8 3.4 4.9l-4.4 2.5v1.1l5.1-2.9c.3.5.6 1.1.6 1.9 0 2.4-1.5 5.6-4.7 9l.4.9c1.3-1.5 2.6-3 3.7-3.6 2.7-1.6 2.7.2 5.5-1.5 1.6-.9 3-2.4 3.8-3.8l-.6-.6c-.4.9-1.8 2.6-3.2 3.4-1.9 1.1-2.9 0-5 1.2-.7.4-1.3.9-1.7 1.3 1.4-2.1 2.6-4.2 2.6-6.8 0-.9-.2-1.5-.5-2l4.1-2.4v-1.1l-4.7 2.7c-1.3-1.2-3.4-1.5-3.4-4.9 0-3.6 2.5-7.1 5.4-8.7 2.3-1.3 4-.6 4.6.6l.8-1.1c-.9-1.6-3.1-1.9-5.4-.5"/></g></g><g><defs><path id="m" d="M186.8 251.6v-24.5l18.8-10.9.1 24.5z"/></defs><clipPath id="n"><use xlink:href="#m" overflow="visible"/></clipPath><g clip-path="url(#n)"><path fill="#FFF" d="M198.5 220.4c-4.8 2.8-8.9 8.7-10 14.9l-1.7 1v1.1l1.5-.9c-.1.7-.1 1.4-.1 2.1 0 .7 0 1.3.1 1.9l-1.5.9v1.1l1.7-1c1.1 4.9 5.1 6.2 10 3.4 2.9-1.7 5.2-4.3 7.2-7.9l-.8-.3c-1.4 2.9-3.8 5.6-6.4 7.1-4.3 2.5-7.9 1.4-8.9-3l10.7-6.2v-1.1l-10.9 6.3c-.1-.6-.1-1.2-.1-1.9s0-1.4.1-2.1l10.9-6.3v-1.1l-10.7 6.2c1-5.5 4.5-10.7 8.9-13.2 2.6-1.5 4.9-1.5 6.4-.3l.8-1.2c-1.9-1.3-4.3-1.2-7.2.5"/></g></g></g><g><path fill="#98A7D5" d="M274.6 36.1l-.7 231.1v11.5l-.1 31.9 66.1 38.1.1-31.9v-11.5l.1-29.8 34 19.6-.1 29.9v11.5l-.1 31.9 51.4 29.7c1.6-1.9 3.2-3.9 4.7-5.8 3.9-5 7.6-10.1 11.1-15.5.3-.4.5-.7.7-1.1 1.8-2.8 3.5-5.6 5.2-8.5 1.4-2.4 2.8-4.8 4.1-7.3l.6-206.6C417.9 89.2 350.5 43.7 274.6 36.1zm28.2 72.6c0-.9.7-1.3 1.5-.8l17.2 9.9c.8.5 1.5 1.6 1.5 2.5v11.2c0 .9-.7 1.3-1.5.9l-17.2-9.9c-.8-.5-1.5-1.6-1.5-2.5v-11.3zm-.1 43.4c0-.9.7-1.3 1.5-.8l17.2 9.9c.8.5 1.5 1.6 1.5 2.5v11.2c0 .9-.7 1.3-1.5.9l-17.2-9.9c-.8-.5-1.5-1.6-1.5-2.5v-11.3zm-.1 43.3c0-.9.7-1.3 1.5-.8l17.2 9.9c.8.5 1.5 1.6 1.5 2.5v11.2c0 .9-.7 1.3-1.5.9l-17.2-9.9c-.8-.5-1.5-1.6-1.5-2.6v-11.2zm70.2 51.8c0 .9-.7 1.3-1.5.9l-17.2-9.9c-.8-.5-1.5-1.6-1.5-2.5v-11.2c0-.9.7-1.3 1.5-.8l17.2 10c.8.5 1.5 1.6 1.5 2.5v11zm.1-43.3c0 .9-.7 1.3-1.5.9l-17.2-9.9c-.8-.5-1.5-1.6-1.5-2.5v-11.2c0-.9.7-1.3 1.5-.8l17.2 9.9c.8.5 1.5 1.6 1.5 2.5v11.1zm.2-43.4c0 .9-.7 1.3-1.5.8l-17.2-9.9c-.8-.5-1.5-1.6-1.5-2.5v-11.2c0-.9.7-1.3 1.5-.8l17.2 9.9c.8.5 1.5 1.6 1.5 2.5v11.2zm29.9 6c0-.9.7-1.3 1.5-.8l17.2 9.9c.8.5 1.5 1.6 1.5 2.5v11.2c0 .9-.7 1.3-1.5.8l-17.2-9.9c-.8-.5-1.5-1.6-1.5-2.5v-11.2zm-.1 43.4c0-.9.7-1.3 1.5-.8l17.2 9.9c.8.5 1.5 1.6 1.5 2.5v11.2c0 .9-.7 1.3-1.5.8l-17.2-9.9c-.8-.5-1.5-1.6-1.5-2.6v-11.1zm-.2 43.4c0-.9.7-1.3 1.5-.8l17.2 9.9c.8.5 1.5 1.6 1.5 2.5v11.2c0 .9-.7 1.3-1.5.8l-17.2-9.9c-.8-.5-1.5-1.6-1.5-2.6v-11.1z"/><path fill="#FFF" d="M374.1 295.2l-34-19.6-.2 73.2 34 19.6.2-73.2M321.3 204.6l-17.2-10c-.8-.5-1.5-.1-1.5.8v11.2c0 .9.7 2.1 1.5 2.5l17.2 10c.8.5 1.5.1 1.5-.8v-11.2c0-.9-.7-2.1-1.5-2.5M371.4 233.5l-17.2-10c-.8-.5-1.5-.1-1.5.8v11.2c0 .9.7 2.1 1.5 2.5l17.2 10c.8.5 1.5.1 1.5-.8V236c0-.9-.7-2.1-1.5-2.5M421.5 262.4l-17.2-10c-.8-.5-1.5-.1-1.5.8v11.2c0 .9.7 2.1 1.5 2.5l17.2 10c.8.5 1.5.1 1.5-.8v-11.2c-.1-.9-.7-2-1.5-2.5M321.4 161.2l-17.2-10c-.8-.5-1.5-.1-1.5.8v11.2c0 .9.7 2.1 1.5 2.5l17.2 10c.8.5 1.5.1 1.5-.8v-11.2c0-.9-.7-2-1.5-2.5M371.5 190.1l-17.2-10c-.8-.5-1.5-.1-1.5.8v11.2c0 .9.7 2.1 1.5 2.5l17.2 10c.8.5 1.5.1 1.5-.8v-11.2c0-.9-.7-2-1.5-2.5M421.6 219l-17.2-10c-.8-.5-1.5-.1-1.5.8V221c0 .9.7 2.1 1.5 2.5l17.2 10c.8.5 1.5.1 1.5-.8v-11.2c0-.9-.7-2-1.5-2.5M321.6 117.8l-17.2-10c-.8-.5-1.5-.1-1.5.8v11.2c0 .9.7 2.1 1.5 2.5l17.2 10c.8.5 1.5.1 1.5-.8v-11.2c-.1-.9-.7-2-1.5-2.5M371.6 146.7l-17.2-10c-.8-.5-1.5-.1-1.5.8v11.2c0 .9.7 2.1 1.5 2.5l17.2 10c.8.5 1.5.1 1.5-.8v-11.2c0-.9-.7-2-1.5-2.5M421.7 175.6l-17.2-10c-.8-.5-1.5-.1-1.5.8v11.2c0 .9.7 2.1 1.5 2.5l17.2 10c.8.5 1.5.1 1.5-.8v-11.2c0-.8-.7-2-1.5-2.5"/></g><g><path fill="#DAECF9" d="M462 79.2c9.3-10.9 25.7-12.1 36.6-2.8 10.9 9.3 18.6 79 9.2 89.9-9.3 10.9-32.2-41.2-43-50.5S452.6 90 462 79.2z"/><ellipse transform="rotate(-17.541 379.415 494.416)" fill="#FBF1D4" cx="379.5" cy="494.5" rx="22.4" ry="10.6"/><ellipse transform="rotate(-65.99 15.158 171.46)" fill="#ECF6FD" cx="15.2" cy="171.5" rx="25.5" ry="12.1"/><g><path fill="#FBF1D4" d="M442.7 419.7c-.2.9-1.2 1.4-2.1 1.1-.8-.3-1.4-1.2-1.5-2-.1-.9.1-1.8.5-2.6.8-2.1 2.2-3.8 3.5-5.6 2.8-3.7 5.6-7.4 9.1-10.3.4-.3.8-.6 1.2-.6.3 0 .5.2.7.3 3.2 2.3 4 6.9 2.7 10.7-1.3 3.7-4.3 6.6-7.6 8.7-2.7 1.7-5.8 3-8.9 2.8"/><path fill="#DAECF9" d="M318.5 17.7c-1.5-2.9-1.7-6.3-1.2-9.5.4-2.1 1.2-4.3 2.9-5.6 1.6-1.3 3.8-1.5 5.9-1.4s4.1.6 6.1.6c3.2.1 6.3-.9 9.5-1.5s6.6-.7 9.4 1c.6.3 1.1.8 1.4 1.3.3.6.4 1.3.5 2 .3 2.7.6 5.7-1.2 7.8-1.4 1.7-3.8 2.3-5.8 3.1-3.8 1.5-7.1 4-9.6 7.2-.6.7-1.1 1.5-1.9 2-.8.4-1.8.5-2.7.5-1.5 0-3.3.1-4.8-.3-1.4-.4-1.6-1-2.6-1.9-2.3-1.6-4.4-2.4-5.9-5.3z"/><path fill="#FBF1D4" d="M161.3 492.9c8.4 6.4 17 12.9 27.1 16.1 8.3 2.6 17.1 2.8 25.8 3 2.7.1 5.5.1 8-1s4.5-3.6 4.2-6.3c-.4-3.1-3.6-4.9-6.5-6.2-15.8-7.3-31.7-14.6-47.5-21.9-5.3-2.5-23.3-12.3-27.8-4.8-4.5 7.5 11.9 17.4 16.7 21.1z"/><path fill="#ECF6FD" d="M36 79.7c18.1-16.1 39.6-28.5 62.7-36 4.8-1.5 9.7-2.9 14.7-2.9.7 0 1.4 0 2 .4.9.6 1.2 1.7 1.3 2.8 1.1 10.7-7.9 19.4-16.2 26.3-13.9 11.6-30 25.9-46.9 32.7-6.3 2.5-19.1 5.2-24.4-.1-7.7-7.5.9-18 6.8-23.2z"/></g></g></svg>