<svg xmlns="http://www.w3.org/2000/svg" xmlns:xlink="http://www.w3.org/1999/xlink" viewBox="0 0 512 512"><path fill="#DAECF9" d="M477 256c0 19.5-2.5 38.5-7.3 56.6-.6 2.1-1.1 4.2-1.7 6.2-.8 2.6-1.6 5.2-2.5 7.8-.2.7-.5 1.5-.8 2.2-.4 1.1-.7 2.1-1.1 3.1-.4 1-.7 2-1.1 2.9l-.9 2.4c-1 2.6-2.1 5.2-3.2 7.7l-1.7-1.1-98.4-63.8-45-29-32.3-20.9-11.6-7.5c-1.1-.7-.4-2.5 1-2.2l-7.1-1.8.5-183.4C379.4 42.3 477 138.6 477 256z"/><path fill="#ECF6FD" d="M270.4 244.5l-72.9 42.1-14.1 8.1-120.2 69.5c-4.2-7.4-7.9-15-11.2-22.9-10.9-26.2-17-55.1-17-85.3 0-17.1 2-33.8 5.6-49.9C63.3 108.1 151.1 35 256 35c2.6 0 5.2 0 7.8.1l-.5 183.4v13.8l7.2 4.2-.1 8z"/><path fill="#FBF1D4" d="M463.6 331.9c-.4 1-.7 2-1.1 2.9l-.9 2.4c-1 2.6-2.1 5.2-3.2 7.7-.6 1.3-1.1 2.5-1.7 3.8-3.5 7.5-7.4 14.9-11.7 21.9C406.1 434.4 336 477 256 477c-76.1 0-143.3-38.5-183-97.1-3.5-5.1-6.7-10.4-9.7-15.8-4.2-7.4-7.9-15-11.2-22.9l136.2-79.1 9.2-5.4 65.8-38.2 7.1 1.8 10.7 6.2 31.3 18.1 50.5 29.2 63.2 36.5 37.5 21.6z"/><path fill="#9D82BC" d="M154.3 350.3v.2h-.1z"/><defs><path id="a" d="M190.4 361l76.8-44.7 56.6 32.7-76.8 44.6z"/></defs><clipPath id="b"><use xlink:href="#a" overflow="visible"/></clipPath><g clip-path="url(#b)"><path fill="#4CBD96" d="M322.2 348.1c-6.1 1-11.9 2.2-17.5 3.6s-11.2 2.8-16.6 4.3c-10.8 3.1-21.2 6.5-31.3 10.1-2.5.9-5 1.8-7.5 2.8l-1.9.7-.2.1h-.2c-.1 0-.2.1-.3.1-.4.1-.7.2-1.1.2-.2.1-.4 0-.6.1h-.6c-.4 0-.8 0-1.2-.1-.8-.1-1.5-.3-2.2-.6-.1 0-.1-.1-.2-.1s-.1 0-.2-.1c0 0-.1 0-.1-.1-.1 0-.2-.1-.2-.1l-.7-.5-2.7-2.1c-1.8-1.4-3.7-2.7-5.6-4.1-3.8-2.7-7.7-5.3-11.8-7.9h-.1c-.2-.2-.4-.3-.6-.5l-1.2-.9c-3-1.7-7.6-2.2-11.5-1-4.8 1.5-6.6 4.9-4.1 7.7l1.2 1.3c2.8 3.1 5.8 6.1 8.8 9.1 1.5 1.5 3.1 3 4.7 4.4l2.4 2.2.6.6 1.1.9c.7.6 1.6 1.1 2.5 1.7 1.8 1 3.9 2 6.1 2.7 2.2.8 4.6 1.3 7.1 1.7 5 .8 10.3.8 15.3 0 .6-.1 1.3-.2 1.9-.3l1.8-.4c1.2-.3 2.3-.6 3.5-1 .6-.2 1.1-.4 1.6-.6l.8-.3.4-.2.2-.1 1.8-.8c2.4-1 4.7-2.1 7.1-3.2 9.3-4.3 18.4-8.8 27-13.7 4.3-2.4 8.5-5 12.6-7.6 4.1-2.3 8.1-5 11.7-8"/></g><path fill="#F9AB7D" d="M197.6 301.2c0 3.8-2.5 8.2-5.6 10L73 379.9c-3.5-5.1-6.7-10.4-9.7-15.8-4.2-7.4-7.9-15-11.2-22.9-.7-1.7-1.4-3.4-2-5.1-2.3-5.8-4.3-11.7-6-17.7-3.4-11.6-5.9-23.5-7.4-35.8-.8-6.7-1.3-13.5-1.5-20.3-.1-2.1-.1-4.3-.1-6.5 0-17.2 2-33.8 5.6-49.9l150.8-87.1c3.1-1.8 5.6-.2 5.7 3.5v.1c0 3-1.7 6.8-4.2 8.9-7.5 6.6-13.1 18-13.1 27.8s5.7 14.7 13.2 12.6c2.5-.7 4.2 1 4.2 4.1v9.1c0 3-1.7 6.7-4.2 8.8-7.6 6.6-13.2 18-13.1 27.8 0 9.8 5.7 14.7 13.2 12.6 2.5-.7 4.2 1 4.2 4.1v9.1c0 3-1.7 6.8-4.2 8.9-1.8 1.6-3.5 3.4-5 5.5-4.9 6.5-8.1 14.9-8.1 22.3 0 4.5 1.2 8 3.3 10.3 2.4 2.6 5.9 3.5 9.9 2.3 2.6-.2 4.3 1.5 4.3 4.6z"/><defs><path id="c" d="M114.1 281.8l-.2-43 37.5-21.6.1 43z"/></defs><clipPath id="d"><use xlink:href="#c" overflow="visible"/></clipPath><g clip-path="url(#d)"><path fill="#FFF" d="M132.7 228c-10.3 6-18.7 20.4-18.6 32.3 0 11.9 8.4 16.7 18.8 10.7 10.3-6 18.7-20.4 18.6-32.3-.1-11.9-8.5-16.7-18.8-10.7"/></g><path fill="#FFF" d="M91.7 250.9l-55.1 31.8c-.8-6.7-1.3-13.5-1.5-20.3l56.6-32.7v21.2zM95.5 310L50 336.2c-2.3-5.8-4.3-11.7-6-17.7l51.5-29.7V310z"/><path fill="none" d="M426.8 344.5l.6-.4M433.7 339.8l-.3.2"/><g><path fill="#595EAA" d="M468 313.6l-.3-.1-6-3.5.1-8.1 5.9 11.3z"/><path fill="#434B9F" d="M452.3 241l-161.4-93.2c-.5-.3-1-.5-1.5-.7v.9l-.1 25.1c0-2.4 43.9 21.7 87.8 47.1 37 21.4 73.9 43.5 84.7 51.5v-14c0-6.2-4.3-13.6-9.5-16.7zM465.5 326.6c-.2.7-.5 1.5-.8 2.2v-2.6l.8.4z"/><path fill="#7587C3" d="M452.3 241l-161.4-93.2c-.5-.3-1-.6-1.5-.7-1.8-.7-3.5-.7-4.8-.1-2 .9-3.2 3.1-3.2 6.4l-.1 25.1c0-.1.1-.2.4-.2h.3c.2 0 .4.1.7.2.5.1 1.1.4 1.8.7.1 0 .2.1.3.1.1 0 .3.1.4.2.1 0 .2.1.3.1.2.1.4.2.6.2.1 0 .3.1.4.2.6.3 1.2.6 1.9.9.7.3 1.4.7 2.1 1 .5.2 1 .5 1.6.8 3.7 1.8 8.2 4.2 13.3 6.9.9.5 1.9 1 2.9 1.5 4.4 2.4 9.1 5 14.2 7.8 1.6.9 3.3 1.8 5 2.8 6.5 3.6 13.3 7.5 20.4 11.5 1.9 1.1 3.8 2.2 5.8 3.3 3.9 2.2 7.8 4.5 11.7 6.7 1.3.8 2.6 1.5 3.9 2.3 7.5 4.4 15.1 8.8 22.4 13 1.3.8 2.6 1.6 4 2.3 1.3.8 2.6 1.5 3.9 2.3 1.3.8 2.6 1.5 3.9 2.3 7.3 4.3 14.1 8.4 20.4 12.2.7.4 1.4.8 2 1.2.7.5 1.5.9 2.2 1.4 1.1.6 2.1 1.3 3.1 1.9.7.4 1.4.9 2.1 1.3 1.3.8 2.5 1.6 3.7 2.3 10.5 6.6 17.7 11.4 19.6 13.3l.4.4c.1.1.1.2.1.3l-.1 27.4 4.9 2.8.1-38.4v-14c-.2-6-4.5-13.4-9.7-16.5zm4.4 90.5v17.3c.6-1.3 1.2-2.5 1.7-3.8 1.1-2.6 2.2-5.1 3.2-7.7v-2.9l-4.9-2.9z"/><path fill="#98A7D5" d="M425.9 294.4v14c0 .6.1 1.3.3 1.9.6 2.4 2.3 4.9 4.4 6.1l26.2 15.1v17.3c-3.5 7.5-7.4 14.9-11.7 21.9l-154.4-89.1-.3-.2c-5.2-3-9.3-9.3-9.3-14.2V265l.1-34.9v-3.6l.1-48.1c0-.1.1-.2.4-.2h.3c.2 0 .4.1.7.2.5.1 1.1.4 1.8.7.1 0 .2.1.3.1.1 0 .3.1.4.2.1 0 .2.1.3.1.2.1.4.2.6.2.1 0 .3.1.4.2.6.3 1.2.6 1.9.9.7.3 1.4.7 2.1 1 .5.2 1 .5 1.6.8 3.7 1.8 8.2 4.2 13.3 6.9.9.5 1.9 1 2.9 1.5 4.4 2.4 9.1 5 14.2 7.8 1.6.9 3.3 1.8 5 2.8 6.5 3.6 13.3 7.5 20.4 11.5 1.9 1.1 3.8 2.2 5.8 3.3 3.9 2.2 7.8 4.5 11.7 6.7 1.3.8 2.6 1.5 3.9 2.3 7.5 4.4 15.1 8.8 22.4 13 1.3.8 2.6 1.6 4 2.3 1.3.8 2.6 1.5 3.9 2.3 1.3.8 2.6 1.5 3.9 2.3 7.3 4.3 14.1 8.4 20.4 12.2.7.4 1.4.8 2 1.2.7.5 1.5.9 2.2 1.4 1.1.6 2.1 1.3 3.1 1.9.7.4 1.4.9 2.1 1.3 1.3.8 2.5 1.6 3.7 2.3 10.5 6.6 17.7 11.4 19.6 13.3l.4.4c.1.1.1.2.1.3L457 307l-26.5-15.3c-.4-.2-.7-.4-1-.4-.6-.2-1.2-.2-1.7 0-.1 0-.1 0-.2.1s-.3.1-.4.2l-.2.2c-.8.6-1.1 1.5-1.1 2.6z"/><path fill="#7587C3" d="M467.7 313.5l-5.9-3.4h-.1l-4.9-2.8-26.5-15.3c-.4-.2-.7-.4-1-.5-.6-.2-1.2-.2-1.7 0-.1 0-.1 0-.2.1s-.3.1-.4.2l-.2.2c-.5.5-.8 1.4-.8 2.5v14c0 .6.1 1.3.3 1.9.6 2.4 2.3 4.9 4.4 6.1l26.2 15.1 4.9 2.8.9.5c.4-1 .7-2 1.1-2.9.4-1 .8-2.1 1.1-3.1.3-.7.5-1.5.8-2.2.9-2.6 1.7-5.2 2.5-7.8v-5.2l-.5-.2zm-34.6-9.1c0-.1 0-.1.1-.2 0-.1.1-.1.1-.2s.1-.1.1-.2l.2-.2c.1-.1.2-.1.3-.2.1 0 .1-.1.2-.1s.2-.1.4-.1h.4c.5 0 1.2.2 1.8.6 2.2 1.3 4 4.3 4 6.9 0 2-1.1 3-2.6 2.8-.1 0-.3 0-.4-.1-.2-.1-.5-.2-.8-.3-.1 0-.1-.1-.2-.1-.3-.2-.5-.3-.8-.6-.6-.5-1.1-1-1.5-1.7-.1-.1-.2-.3-.3-.4-.1-.1-.2-.3-.2-.4l-.3-.6c-.2-.4-.3-.7-.5-1.1-.1-.2-.1-.5-.2-.7-.1-.5-.2-.9-.2-1.4.1-.7.2-1.3.4-1.7z"/><path fill="#FFF" d="M436.8 303.7c-2.2-1.3-4-.3-4 2.3 0 2.5 1.8 5.6 4 6.9 2.2 1.3 4 .2 4-2.3s-1.8-5.6-4-6.9z"/><g><defs><path id="e" d="M320.5 270.7l.1-44.8 43.3 25-.1 44.7z"/></defs><clipPath id="f"><use xlink:href="#e" overflow="visible"/></clipPath><g clip-path="url(#f)" fill="#FFF"><path d="M342.3 238.4c-3.7 3.9-7.3 3.8-10.5 1.9-6.4-3.7-11.1-14.4-11.1-14.4.6 6 4.6 13.6 9.6 16.5 0 0 .1 0 .1.1.1 0 .1.1.2.1 3.5 2 7.5 1.6 11.2-3.3.1-.2.3-.3.4-.5 0-.1.1-.1.1-.2-.1-.1-.1-.1 0-.2"/><path d="M363.9 250.9c0 .4-.1.8-.2 1.1-1 4.6-4.8 6.9-9.4 4.3 0 0-.1 0-.1-.1-.1-.1-.2-.1-.3-.2-3.4-2.1-7.3-7-10.8-15.6 0 0 0-.1-.1-.1 0-.1-.1-.2-.1-.4-.1-.2-.1-.4-.2-.6-.1-.2-.1-.3-.2-.5s-.1-.4-.2-.6c0 .1-.1.1-.1.2s-.1.1-.1.2c-.1.2-.3.4-.4.5-3.6 4.8-7.6 5.2-11.2 3.3-.1 0-.1-.1-.2-.1 0 0-.1 0-.1-.1-5-3-9-10.5-9.6-16.5-.1 24.7 9.6 50.3 21.5 57.3 12 7.1 21.8-7.4 21.8-32.1"/><path d="M363.9 250.9s-4.8 5.2-11.2 1.5c-3.2-1.9-6.8-5.9-10.5-14 .1.2.1.4.2.6.1.2.1.3.2.5s.1.4.2.6c0 .1.1.2.1.4 0 0 0 .1.1.1 3.5 8.6 7.4 13.5 10.8 15.6.1.1.2.1.3.2 0 0 .1 0 .1.1 4.6 2.6 8.4.3 9.4-4.3.2-.5.3-.9.3-1.3"/></g></g><path fill="#4A53A4" d="M462.5 334.9l-.9 2.4v-2.9l.9.5z"/><path fill="#657DBE" d="M469.8 252.2l-.1 52.4v7.9c-.6 2.1-1.1 4.2-1.7 6.2v-5.2l-.2-.5-5.9-11.3-.1 8.1h-.1l.1-38.4v-14c0-6.1-4.3-13.5-9.6-16.5l-161.4-93.2c-.5-.3-1-.6-1.5-.7-1.8-.7-3.5-.7-4.8-.1l6.8-4.5c1.8-1.6 4.5-1.7 7.6.1l161.4 93.2c5.3 3 9.6 10.4 9.5 16.5z"/></g><path fill="none" d="M284.7 146.3h-.1M278.8 150.2l-.7.5"/><g><path fill="#DAECF9" d="M462 79.2c9.3-10.9 25.7-12.1 36.6-2.8 10.9 9.3 18.6 79 9.2 89.9-9.3 10.9-32.2-41.2-43-50.5S452.6 90 462 79.2z"/><ellipse transform="rotate(-17.541 379.415 494.416)" fill="#FBF1D4" cx="379.5" cy="494.5" rx="22.4" ry="10.6"/><ellipse transform="rotate(-65.99 15.158 171.46)" fill="#ECF6FD" cx="15.2" cy="171.5" rx="25.5" ry="12.1"/><g><path fill="#FBF1D4" d="M442.7 419.7c-.2.9-1.2 1.4-2.1 1.1-.8-.3-1.4-1.2-1.5-2-.1-.9.1-1.8.5-2.6.8-2.1 2.2-3.8 3.5-5.6 2.8-3.7 5.6-7.4 9.1-10.3.4-.3.8-.6 1.2-.6.3 0 .5.2.7.3 3.2 2.3 4 6.9 2.7 10.7-1.3 3.7-4.3 6.6-7.6 8.7-2.7 1.7-5.8 3-8.9 2.8"/><path fill="#DAECF9" d="M318.5 17.7c-1.5-2.9-1.7-6.3-1.2-9.5.4-2.1 1.2-4.3 2.9-5.6 1.6-1.3 3.8-1.5 5.9-1.4s4.1.6 6.1.6c3.2.1 6.3-.9 9.5-1.5s6.6-.7 9.4 1c.6.3 1.1.8 1.4 1.3.3.6.4 1.3.5 2 .3 2.7.6 5.7-1.2 7.8-1.4 1.7-3.8 2.3-5.8 3.1-3.8 1.5-7.1 4-9.6 7.2-.6.7-1.1 1.5-1.9 2-.8.4-1.8.5-2.7.5-1.5 0-3.3.1-4.8-.3-1.4-.4-1.6-1-2.6-1.9-2.3-1.6-4.4-2.4-5.9-5.3z"/><path fill="#FBF1D4" d="M161.3 492.9c8.4 6.4 17 12.9 27.1 16.1 8.3 2.6 17.1 2.8 25.8 3 2.7.1 5.5.1 8-1s4.5-3.6 4.2-6.3c-.4-3.1-3.6-4.9-6.5-6.2-15.8-7.3-31.7-14.6-47.5-21.9-5.3-2.5-23.3-12.3-27.8-4.8-4.5 7.5 11.9 17.4 16.7 21.1z"/><path fill="#ECF6FD" d="M36 79.7c18.1-16.1 39.6-28.5 62.7-36 4.8-1.5 9.7-2.9 14.7-2.9.7 0 1.4 0 2 .4.9.6 1.2 1.7 1.3 2.8 1.1 10.7-7.9 19.4-16.2 26.3-13.9 11.6-30 25.9-46.9 32.7-6.3 2.5-19.1 5.2-24.4-.1-7.7-7.5.9-18 6.8-23.2z"/></g></g></svg>