<svg xmlns="http://www.w3.org/2000/svg" xmlns:xlink="http://www.w3.org/1999/xlink" viewBox="0 0 512 512"><path fill="#9D82BC" d="M92.1 397.8v.1z"/><path fill="#DAECF9" d="M476.9 256.1c0 40.5-10.9 78.5-30 111.2-1.7 2.9-3.4 5.7-5.2 8.5l-186.9-106-1.3-12.6V35c121.2.9 223.4 99.7 223.4 221.1z"/><path fill="none" d="M258.4 275.6l-184 106.3c-3.4-4.9-6.6-10-9.7-15.2-18.9-32.5-29.6-70.3-29.6-110.6 0-121.3 97.8-219.8 218.8-220.9l-.6 221.9v9.8l5.1 3v5.7z"/><path fill="#ECF6FD" d="M258.4 275.6l-184 106.3c-3.4-4.9-6.6-10-9.7-15.2-18.9-32.5-29.6-70.3-29.6-110.6 0-121.3 97.8-219.8 218.8-220.9l-.6 221.9v9.8l5.1 3v5.7z"/><path fill="none" d="M446.9 367.3c-1.7 2.9-3.4 5.7-5.2 8.5C402.4 436.7 333.9 477 256 477c-75.3 0-141.7-37.6-181.6-95.1-3.4-4.9-6.6-10-9.7-15.2l188.6-109.6 1.4-.8 3.7 2.1 188.5 108.9z"/><path fill="#FBF1D4" d="M446.9 367.3c-1.7 2.9-3.4 5.7-5.2 8.5-.5.8-1 1.6-1.6 2.4C400.6 437.7 332.9 477 256 477c-75.3 0-141.7-37.6-181.6-95.1-3.4-4.9-6.6-10-9.7-15.2l188.6-109.6.2-.1 1.2-.7 3.7 2.1 24.2 14 164.3 94.9z"/><path fill="#9D82BC" d="M175.5 351.2v.1h-.1z"/><defs><path id="a" d="M147.8 377.2l101-58.7L350 376.9l-101 58.8z"/></defs><clipPath id="b"><use xlink:href="#a" overflow="visible"/></clipPath><g fill="#4CBD96" clip-path="url(#b)"><path d="M347.2 375.3l-24.6-14.2c-1.6-.9-4.1-.9-5.7 0-1.6.9-1.6 2.4 0 3.3l21.8 12.6-20.5 11.9c-1.6.9-1.5 2.4 0 3.3s4.1.9 5.7 0l23.3-13.5c.7-.4 1.2-1 1.2-1.6 0-.8-.5-1.4-1.2-1.8M275.8 334.1l-24.2-14c-.8-.4-1.8-.7-2.8-.7-1.1 0-2.1.2-2.8.7l-26.3 15.3c-1.6.9-1.6 2.4 0 3.3 1.6.9 4.1.9 5.7 0l23.5-13.6 21.3 12.3c1.6.9 4.1.9 5.7 0 1.5-.9 1.5-2.4-.1-3.3M179.6 362c-1.6-.9-4.1-.9-5.7 0l-23.3 13.5c-.7.4-1.2 1-1.2 1.6 0 .6.4 1.2 1.2 1.6l24.6 14.2c1.6.9 4.1.9 5.7 0 1.6-.9 1.6-2.4 0-3.3L159.1 377l20.5-11.9c1.6-.7 1.5-2.2 0-3.1M278.1 415.4c-1.6-.9-4.1-.9-5.7 0L248.9 429l-21.3-12.3c-1.6-.9-4.1-.9-5.7 0-1.6.9-1.6 2.4 0 3.3l24.2 14c.8.4 1.8.7 2.8.7 1.1 0 2.1-.2 2.8-.7l26.3-15.3c1.7-.9 1.7-2.4.1-3.3"/></g><path fill="#98A7D5" d="M445.4 144.1c-.8-.2-1.5-.6-2.3-1-.2-.1-.5-.3-.7-.4l-11.8 50.2c2.1 2.2 3.9 5.2 4.9 8.4 2.1 6.6 0 11.7-4.7 11.4-1.2-.1-2.5-.5-3.8-1.3-3.6-2.1-6.9-6.4-8.5-11.2-.6-2-.9-3.8-.8-5.4l-42.2-34.9c-.9 2-2.5 3.2-4.9 3.1-1.2-.1-2.5-.5-3.8-1.3-.8-.5-1.7-1.1-2.5-1.8l-24.6 47.3c1.4 1.9 2.6 4.1 3.3 6.5 2.1 6.6 0 11.7-4.7 11.4-.6 0-1.2-.2-1.7-.3-.7-.2-1.4-.5-2-.9-.8-.5-1.6-1-2.3-1.7-2.6-2.3-4.9-5.8-6.1-9.5-2.1-6.6.1-11.7 4.7-11.4 1.2.1 2.5.5 3.8 1.3.9.5 1.7 1.1 2.5 1.8l24.5-47.3c-1.4-1.9-2.6-4.1-3.3-6.5-2.1-6.6 0-11.7 4.7-11.4 1.2.1 2.5.5 3.8 1.3 3.6 2 6.9 6.4 8.5 11.2.6 2 .9 3.8.8 5.4l42.2 34.9c.9-2 2.6-3.2 4.9-3.1 1.2.1 2.5.5 3.8 1.3.2.1.5.3.7.4l11.8-50.2c-2.1-2.2-3.9-5.2-4.9-8.4-.6-1.8-.8-3.5-.8-5-34.9-46.9-87.7-80-147.5-89.3l-3.8 234.7-.2 11.4v.5l157.8 93.9c.5-.8 1.1-1.6 1.6-2.4 1.8-2.8 3.5-5.6 5.2-8.5 19-32.6 30-70.6 30-111.2-.1-40.8-11.7-79.1-31.6-112z"/><path fill="#FFF" stroke="#FFF" stroke-width="6.278" stroke-miterlimit="10" d="M361.8 156.9l-24.5 47.3c.9.8 1.8 1.8 2.7 2.9l24.6-47.3c-1.1-.8-2-1.8-2.8-2.9zm14.4 0c-.1 1.1-.3 2.1-.6 2.9l42.2 34.9c.1-1.1.3-2.1.6-2.9l-42.2-34.9zm63.3-16.6l-11.8 50.2c1 .7 1.9 1.5 2.9 2.4l11.8-50.2c-1-.6-2-1.5-2.9-2.4z"/><path fill="#FFF" d="M334.7 219c-2-1.1-3.9-3.5-4.7-6.2-1.2-3.7 0-6.5 2.6-6.3.7 0 1.4.3 2.1.7 2 1.1 3.9 3.5 4.7 6.2 1.2 3.7 0 6.5-2.6 6.3-.7 0-1.4-.3-2.1-.7zm0-16.6c-1.3-.7-2.6-1.2-3.8-1.3-4.7-.3-6.8 4.8-4.7 11.4 1.5 4.9 4.9 9.2 8.5 11.2 1.3.7 2.6 1.2 3.8 1.3 4.7.3 6.8-4.8 4.7-11.4-.7-2.3-1.9-4.6-3.3-6.5-.8-1.1-1.7-2.1-2.7-2.9-.8-.7-1.6-1.3-2.5-1.8z"/><path fill="#98A7D5" d="M334.7 207.1c-.7-.4-1.4-.7-2.1-.7-2.6-.2-3.8 2.7-2.6 6.3.9 2.7 2.7 5.1 4.7 6.2.7.4 1.4.7 2.1.7 2.6.2 3.8-2.7 2.6-6.3-.8-2.6-2.7-5-4.7-6.2z"/><path fill="#FFF" d="M366.9 156.9c-2-1.1-3.9-3.5-4.7-6.2-1.2-3.7 0-6.5 2.6-6.3.7 0 1.4.3 2.1.7 2 1.1 3.9 3.5 4.7 6.2 1.2 3.7 0 6.5-2.6 6.3-.7 0-1.4-.3-2.1-.7zm0-16.6c-1.3-.7-2.6-1.2-3.8-1.3-4.7-.3-6.8 4.8-4.7 11.4.7 2.3 1.9 4.6 3.3 6.5.8 1.1 1.7 2.1 2.7 2.9.8.7 1.6 1.3 2.5 1.8 1.3.7 2.6 1.2 3.8 1.3 2.3.1 4-1 4.9-3.1.4-.8.6-1.8.6-2.9.1-1.6-.2-3.4-.8-5.4-1.5-4.8-4.9-9.1-8.5-11.2z"/><path fill="#98A7D5" d="M366.9 145.1c-.7-.4-1.4-.7-2.1-.7-2.6-.2-3.8 2.7-2.6 6.3.9 2.7 2.7 5.1 4.7 6.2.7.4 1.4.7 2.1.7 2.6.2 3.8-2.7 2.6-6.3-.8-2.7-2.7-5.1-4.7-6.2z"/><path fill="#FFF" d="M427 206.7c-2-1.1-3.9-3.5-4.7-6.2-1.2-3.7 0-6.5 2.6-6.3.7 0 1.4.3 2.1.7 2 1.1 3.9 3.5 4.7 6.2 1.2 3.7 0 6.5-2.6 6.3-.7-.1-1.4-.3-2.1-.7zm0-16.6c-1.3-.7-2.6-1.2-3.8-1.3-2.3-.1-4 1-4.9 3.1-.4.8-.6 1.8-.6 2.9-.1 1.6.2 3.4.8 5.4 1.5 4.9 4.9 9.2 8.5 11.2 1.3.7 2.6 1.2 3.8 1.3 4.7.3 6.8-4.8 4.7-11.4-1-3.2-2.8-6.1-4.9-8.4-.9-1-1.9-1.8-2.9-2.4-.2-.2-.4-.3-.7-.4z"/><path fill="#98A7D5" d="M427 194.8c-.7-.4-1.4-.7-2.1-.7-2.6-.2-3.8 2.7-2.6 6.3.9 2.7 2.7 5.1 4.7 6.2.7.4 1.4.7 2.1.7 2.6.2 3.8-2.7 2.6-6.3-.8-2.7-2.7-5-4.7-6.2z"/><path fill="#FFF" d="M445.2 139.1c-.7 0-1.4-.3-2.1-.7-2-1.1-3.9-3.5-4.7-6.2-1.2-3.7 0-6.5 2.6-6.3.7 0 1.4.3 2.1.7 2 1.1 3.9 3.5 4.7 6.2 1.2 3.6 0 6.4-2.6 6.3zm-11.4-12.2c0 1.5.2 3.2.8 5 1 3.2 2.8 6.2 4.9 8.4.9.9 1.9 1.8 2.9 2.4.2.2.5.3.7.4.8.4 1.5.8 2.3 1-3.6-5.9-7.5-11.6-11.6-17.2zM432.8 262l-.1 14.4-60-35.7.1-10.1v-4.3zM372.8 256.4l-.1 14.4 60 35.7.1-14.4-60-35.7zM372.8 286.6l-.1 14.3 60 35.7.1-14.3-60-35.7z"/><g><defs><path id="c" d="M127.7 356.2l-.5-159.5 90-51.9.5 159.5z"/></defs><clipPath id="d"><use xlink:href="#c" overflow="visible"/></clipPath><g clip-path="url(#d)"><path fill="#F9AB7D" d="M217.2 144.8l-90 51.9.1.1v13.1l.4 146.3 11-19.6 11.5 6.5 11.6-19.8 9.8 7.5L183 311l11.5 6.6 11.6-19.9 11.5 6.6V291l-.4-146.2"/></g></g><g><defs><path id="e" d="M142.6 235.5l-.1-14.2 65.1-37.5V198z"/></defs><clipPath id="f"><use xlink:href="#e" overflow="visible"/></clipPath><g clip-path="url(#f)"><path fill="#FFF" d="M207.6 183.8l-65.1 37.5.1 14.2 65-37.5v-14.2"/></g></g><g><defs><path id="g" d="M142.6 270.7l-.1-14.2 65.1-37.6v14.2z"/></defs><clipPath id="h"><use xlink:href="#g" overflow="visible"/></clipPath><g clip-path="url(#h)"><path fill="#FFF" d="M207.6 218.9l-65.1 37.6.1 14.2 65-37.6v-14.2"/></g></g><g><path fill="#DAECF9" d="M462 79.2c9.3-10.9 25.7-12.1 36.6-2.8 10.9 9.3 18.6 79 9.2 89.9-9.3 10.9-32.2-41.2-43-50.5S452.6 90 462 79.2z"/><ellipse transform="rotate(-17.541 379.415 494.416)" fill="#FBF1D4" cx="379.5" cy="494.5" rx="22.4" ry="10.6"/><ellipse transform="rotate(-65.99 15.158 171.46)" fill="#ECF6FD" cx="15.2" cy="171.5" rx="25.5" ry="12.1"/><g><path fill="#FBF1D4" d="M442.7 419.7c-.2.9-1.2 1.4-2.1 1.1-.8-.3-1.4-1.2-1.5-2-.1-.9.1-1.8.5-2.6.8-2.1 2.2-3.8 3.5-5.6 2.8-3.7 5.6-7.4 9.1-10.3.4-.3.8-.6 1.2-.6.3 0 .5.2.7.3 3.2 2.3 4 6.9 2.7 10.7-1.3 3.7-4.3 6.6-7.6 8.7-2.7 1.7-5.8 3-8.9 2.8"/><path fill="#DAECF9" d="M318.5 17.7c-1.5-2.9-1.7-6.3-1.2-9.5.4-2.1 1.2-4.3 2.9-5.6 1.6-1.3 3.8-1.5 5.9-1.4s4.1.6 6.1.6c3.2.1 6.3-.9 9.5-1.5s6.6-.7 9.4 1c.6.3 1.1.8 1.4 1.3.3.6.4 1.3.5 2 .3 2.7.6 5.7-1.2 7.8-1.4 1.7-3.8 2.3-5.8 3.1-3.8 1.5-7.1 4-9.6 7.2-.6.7-1.1 1.5-1.9 2-.8.4-1.8.5-2.7.5-1.5 0-3.3.1-4.8-.3-1.4-.4-1.6-1-2.6-1.9-2.3-1.6-4.4-2.4-5.9-5.3z"/><path fill="#FBF1D4" d="M161.3 492.9c8.4 6.4 17 12.9 27.1 16.1 8.3 2.6 17.1 2.8 25.8 3 2.7.1 5.5.1 8-1s4.5-3.6 4.2-6.3c-.4-3.1-3.6-4.9-6.5-6.2-15.8-7.3-31.7-14.6-47.5-21.9-5.3-2.5-23.3-12.3-27.8-4.8-4.5 7.5 11.9 17.4 16.7 21.1z"/><path fill="#ECF6FD" d="M36 79.7c18.1-16.1 39.6-28.5 62.7-36 4.8-1.5 9.7-2.9 14.7-2.9.7 0 1.4 0 2 .4.9.6 1.2 1.7 1.3 2.8 1.1 10.7-7.9 19.4-16.2 26.3-13.9 11.6-30 25.9-46.9 32.7-6.3 2.5-19.1 5.2-24.4-.1-7.7-7.5.9-18 6.8-23.2z"/></g></g></svg>