<svg xmlns="http://www.w3.org/2000/svg" viewBox="0 0 512 512"><path fill="#e42528" d="M396.4 463.7c-33.1 0-65.3-11.8-93-34.1-2.7-2.2-6.5-1.9-9 .5L270 454.4a31.63 31.63 0 0 1-44.8 0l-23.5-23.5c-2.6-2.6-6.9-2.6-9.5 0l-23.8 23.7c-12.1 12.1-31.7 12.1-43.8 0-.4-.4-.8-.8-1.1-1.2C33.4 353 15.7 207 79.2 88c13.1-24.6 38.7-40 66.6-40h233.6c23.6 0 45.9 15.7 62.8 44.2 15.2 25.8 25.5 61.2 28.8 99.6 1.8 20.8-13.5 39.1-34.3 41-1.1.1-2.2.1-3.3.1H312.1c.3 7.1.8 14.1 1.6 20.9v.5c1.4 20.9 5.4 41.5 11.7 61.4 6.1 18.8 14.2 36.1 24.2 51.4 9.8 15.1 21.1 27.8 33.6 38s26 17.4 40.1 21.6a17.84 17.84 0 0 1 12.1 22.2c-1.9 6.5-7.3 11.3-14 12.5-8.2 1.6-16.6 2.3-25 2.3zM145.8 73.2c-18.6 0-35.7 10.2-44.4 26.6-58.6 109.7-42.2 244.3 40.9 336.8 2.1 2.4 5.8 2.6 8.1.4.1-.1.2-.1.2-.2l23.7-23.7c12.5-12.4 32.6-12.4 45.1 0l23.5 23.5c2.5 2.5 6.6 2.5 9.2 0l24.3-24.3c11.5-11.5 29.9-12.5 42.5-2.3 20.5 16.5 43.7 26.1 67.7 28.2-6.8-4-13.3-8.4-19.4-13.4-14.6-11.8-27.7-26.5-38.9-43.8-22.8-35-36.6-78.1-39.9-124.5-1.3-12-2-24-2-36.1 0-44.6 8.8-86.7 24.8-118.6 5.6-11.2 11.9-20.7 18.8-28.5l-184.2-.1zm166.3 134.5h121.3c7 0 12.6-5.7 12.6-12.6 0-.4 0-.7-.1-1.1-3-34.8-12-66.4-25.4-89-12.1-20.5-26.7-31.8-41.1-31.8-7.8 0-15.6 3.2-23.1 9.6-8.1 6.8-15.9 17.3-22.4 30.3-12.7 25.4-20.4 58.7-21.8 94.6z"/><path fill="#e42528" d="M229.6 170h-87.9c-7 0-12.6-5.6-12.6-12.6s5.6-12.6 12.6-12.6h87.9c7 0 12.6 5.6 12.6 12.6-.1 7-5.7 12.6-12.6 12.6zm-5.9 62.9h-93.4c-7 0-12.6-5.6-12.6-12.6s5.6-12.6 12.6-12.6h93.4c7 0 12.6 5.6 12.6 12.6s-5.7 12.6-12.6 12.6zm-45.6 63H133c-7 0-12.6-5.6-12.6-12.6s5.6-12.6 12.6-12.6h45.1c7 0 12.6 5.6 12.6 12.6s-5.7 12.6-12.6 12.6z"/></svg>