<svg id="Layer_1" xmlns="http://www.w3.org/2000/svg" viewBox="0 0 512 512"><style>.st0{fill:#fff4ee}.st1{fill:#ff5454}</style><path class="st0" d="M175.4 29.7H54.3c-18.7 0-33.9 15.2-33.9 33.9v382.6L63 403.6l.9-.9 43.5 43.5 43.5-43.5.9.9 42.7 42.7 42.7-42.7.9-.9 43.5 43.5 42.7-42.7.9-.9 43.5 43.5V63.6c0-18.8-15.2-34-34-34H175.4z"/><path class="st1" d="M14.2 461V63.6c0-22.1 18-40.1 40.1-40.1h280.4c22.1 0 40.1 18 40.1 40.1V461l-49.7-49.7-43.5 43.5-43.6-43.4-43.6 43.5-43.5-43.5-43.5 43.5-43.5-43.5L14.2 461zm136.7-66.9l5.2 5.1 38.4 38.4 43.5-43.5 43.5 43.5 43.6-43.5 37.4 37.4V63.6c0-15.3-12.5-27.8-27.8-27.8H54.3c-15.3 0-27.8 12.5-27.8 27.8v367.9L64 394.2l43.5 43.5 43.4-43.6z"/><path class="st0" d="M80.2 148.5v-32.8c0-9.3 7.5-16.8 16.8-16.8h32.8"/><path class="st1" d="M86.3 148.5H74.1v-32.8c0-12.7 10.3-23 23-23h32.8v12.2H97.1c-5.9 0-10.7 4.8-10.7 10.7v32.9z"/><path class="st0" d="M259.1 98.8h32.8c9.3 0 16.8 7.5 16.8 16.8v32.8"/><path class="st1" d="M314.9 148.5h-12.2v-32.8c0-5.9-4.8-10.7-10.7-10.7h-32.8V92.7H292c12.7 0 23 10.3 23 23v32.8z"/><path class="st0" d="M129.9 327.3H97.1c-9.3 0-16.8-7.5-16.8-16.8v-32.8"/><path class="st1" d="M129.9 333.4H97.1c-12.7 0-23-10.3-23-23v-32.8h12.2v32.8c0 5.9 4.8 10.7 10.7 10.7h32.8v12.3z"/><path id="gear-5-icon_10_" d="M497.6 389.6l.2-30.6-26.5-9.8c-1.8-6.5-4.1-12.7-7.3-18.5l12.7-26-21.5-21.8-26.1 12.3c-5.8-3.3-12-5.3-18.4-7.2l-9.5-26.6-30.6-.2-9.8 26.5c-6.5 1.8-12.7 4.1-18.6 7.3l-26-12.7-21.7 21.5 12.2 26.1c-3.2 5.8-6.4 11.9-8.3 18.4l-27.8 9.5-.2 30.6 27.6 9.8c1.8 6.5 4.7 12.7 7.8 18.6l-12.4 26 21.6 21.8 26.2-12.3c5.8 3.3 12 6.4 18.5 8.4l9.5 27.8 30.6.2 9.8-27.6c6.5-1.9 12.7-4.7 18.6-7.8l25.9 12.4 21.7-21.6-12.2-26.1c3.2-5.8 5.3-12 7.2-18.5l26.8-9.9zM385 415.3c-23-.1-41.5-18.9-41.4-41.9.1-23 18.9-41.5 41.9-41.4 23 .1 41.5 18.9 41.4 41.9-.1 23-18.9 41.6-41.9 41.4z" fill="#fff" stroke="#ff5454" stroke-width="12" stroke-miterlimit="10"/><path class="st0" d="M426.9 373.9c-.1 23-18.9 41.5-41.9 41.4-23-.1-41.5-18.9-41.4-41.9.1-23 18.9-41.5 41.9-41.4 23 .2 41.5 18.9 41.4 41.9z"/><path class="st1" d="M385.2 421.4h-.3c-12.8-.1-24.7-5.1-33.7-14.2-9-9.1-13.9-21.1-13.8-33.9.1-12.8 5.1-24.7 14.2-33.7 9.1-9 21.1-13.8 33.9-13.8 12.8.1 24.7 5.1 33.7 14.2 9 9.1 13.9 21.1 13.8 33.9-.1 12.8-5.1 24.7-14.2 33.7-9 9-20.9 13.8-33.6 13.8zm0-83.3c-9.4 0-18.3 3.6-25 10.3-6.8 6.7-10.5 15.6-10.6 25.1-.1 9.5 3.6 18.4 10.3 25.2 6.7 6.8 15.6 10.5 25 10.6h.2c9.4 0 18.3-3.6 25-10.3 6.8-6.7 10.5-15.6 10.6-25.1.1-9.5-3.6-18.4-10.3-25.2-6.7-6.8-15.6-10.5-25.1-10.6h-.1z"/></svg>