<svg id="Layer_1" xmlns="http://www.w3.org/2000/svg" viewBox="0 0 512 512"><style>.st0{fill:#fff4ee}.st1{fill:#ff5454}.st2{fill:#fff}</style><path class="st0" d="M12.5 446V65.5c0-18.6 15.1-33.8 33.8-33.8h278.8c18.6 0 33.8 15.1 33.8 33.8V446l-42.4-42.4-.9-.9-.9.9-42.4 42.4-42.4-42.4-.9-.9-.9.9-42.4 42.4-42.4-42.4-.9-.9L99.1 446l-42.4-42.4-.9-.9-.9.9L12.5 446z"/><path class="st1" d="M364.2 459l-48.7-48.7-43.3 43.3-43.2-43.3-43.3 43.3-43.3-43.3-43.3 43.3-43.3-43.3L7.2 459V65.5c0-21.6 17.6-39.1 39.1-39.1h278.8c21.6 0 39.1 17.6 39.1 39.1V459zm-221.8-63.9l43.3 43.3 43.3-43.3 43.3 43.3 43.3-43.3 37.9 37.9V65.5c0-15.6-12.7-28.4-28.4-28.4H46.3c-15.6 0-28.4 12.7-28.4 28.4V433l37.9-37.9 43.3 43.3 43.3-43.3z"/><path class="st2" d="M491.4 480.2H317.8c-4.4 0-8.1-3.6-8.1-8.1V285.7c0-4.4 3.6-8.1 8.1-8.1h173.6c4.4 0 8.1 3.6 8.1 8.1v186.5c0 4.4-3.6 8-8.1 8z"/><path class="st1" d="M477.8 485.6H331.4c-14.9 0-27-12.1-27-27V299.3c0-14.9 12.1-27 27-27h146.4c14.9 0 27 12.1 27 27v159.3c0 14.9-12.1 27-27 27zM331.4 283c-9 0-16.3 7.3-16.3 16.3v159.3c0 9 7.3 16.3 16.3 16.3h146.4c9 0 16.3-7.3 16.3-16.3V299.3c0-9-7.3-16.3-16.3-16.3H331.4z"/><path class="st0" d="M463 339.2H343.8c-1.4 0-2.6-1.2-2.6-2.6v-29c0-1.4 1.2-2.6 2.6-2.6H463c1.4 0 2.6 1.2 2.6 2.6v29c0 1.5-1.2 2.6-2.6 2.6z"/><path class="st1" d="M458.6 344.6H348.2c-6.8 0-12.4-5.6-12.4-12.4V312c0-6.8 5.6-12.4 12.4-12.4h110.4c6.8 0 12.4 5.6 12.4 12.4v20.2c0 6.8-5.6 12.4-12.4 12.4zm-110.4-34.2c-.9 0-1.6.7-1.6 1.6v20.2c0 .9.7 1.6 1.6 1.6h110.4c.9 0 1.6-.7 1.6-1.6V312c0-.9-.7-1.6-1.6-1.6H348.2z"/><path class="st0" d="M386.7 397.8h-35.3c-1.4 0-2.6-1.2-2.6-2.6v-29c0-1.4 1.2-2.6 2.6-2.6h35.3c1.4 0 2.6 1.2 2.6 2.6v29c0 1.5-1.1 2.6-2.6 2.6z"/><path class="st1" d="M382.3 403.2h-26.4c-6.8 0-12.4-5.6-12.4-12.4v-20.2c0-6.8 5.6-12.4 12.4-12.4h26.4c6.8 0 12.4 5.6 12.4 12.4v20.2c0 6.8-5.6 12.4-12.4 12.4zM355.9 369c-.9 0-1.6.7-1.6 1.6v20.2c0 .9.7 1.6 1.6 1.6h26.4c.9 0 1.6-.7 1.6-1.6v-20.2c0-.9-.7-1.6-1.6-1.6h-26.4z"/><path class="st0" d="M456 397.8h-35.3c-1.4 0-2.6-1.2-2.6-2.6v-29c0-1.4 1.2-2.6 2.6-2.6H456c1.4 0 2.6 1.2 2.6 2.6v29c0 1.5-1.2 2.6-2.6 2.6z"/><path class="st1" d="M451.6 403.2h-26.4c-6.8 0-12.4-5.6-12.4-12.4v-20.2c0-6.8 5.6-12.4 12.4-12.4h26.4c6.8 0 12.4 5.6 12.4 12.4v20.2c0 6.8-5.6 12.4-12.4 12.4zM425.1 369c-.9 0-1.6.7-1.6 1.6v20.2c0 .9.7 1.6 1.6 1.6h26.4c.9 0 1.6-.7 1.6-1.6v-20.2c0-.9-.7-1.6-1.6-1.6h-26.4z"/><path class="st0" d="M386.7 454.3h-35.3c-1.4 0-2.6-1.2-2.6-2.6v-29c0-1.4 1.2-2.6 2.6-2.6h35.3c1.4 0 2.6 1.2 2.6 2.6v29c0 1.4-1.1 2.6-2.6 2.6z"/><path class="st1" d="M382.3 459.7h-26.4c-6.8 0-12.4-5.6-12.4-12.4v-20.2c0-6.8 5.6-12.4 12.4-12.4h26.4c6.8 0 12.4 5.6 12.4 12.4v20.2c0 6.8-5.6 12.4-12.4 12.4zm-26.4-34.3c-.9 0-1.6.7-1.6 1.6v20.2c0 .9.7 1.6 1.6 1.6h26.4c.9 0 1.6-.7 1.6-1.6V427c0-.9-.7-1.6-1.6-1.6h-26.4z"/><path class="st0" d="M456 454.3h-35.3c-1.4 0-2.6-1.2-2.6-2.6v-29c0-1.4 1.2-2.6 2.6-2.6H456c1.4 0 2.6 1.2 2.6 2.6v29c0 1.4-1.2 2.6-2.6 2.6z"/><path class="st1" d="M451.6 459.7h-26.4c-6.8 0-12.4-5.6-12.4-12.4v-20.2c0-6.8 5.6-12.4 12.4-12.4h26.4c6.8 0 12.4 5.6 12.4 12.4v20.2c0 6.8-5.6 12.4-12.4 12.4zm-26.5-34.3c-.9 0-1.6.7-1.6 1.6v20.2c0 .9.7 1.6 1.6 1.6h26.4c.9 0 1.6-.7 1.6-1.6V427c0-.9-.7-1.6-1.6-1.6h-26.4z"/><path class="st2" d="M302.1 231.9H70c-2.3 0-4.2-1.9-4.2-4.2v-14.3c0-2.3 1.9-4.2 4.2-4.2h232.1c2.3 0 4.2 1.9 4.2 4.2v14.3c.1 2.3-1.8 4.2-4.2 4.2z"/><path class="st1" d="M295 237.3H77.2c-9.2 0-16.7-7.5-16.7-16.8s7.5-16.7 16.7-16.7H295c9.2 0 16.7 7.5 16.7 16.7s-7.5 16.8-16.7 16.8zM77.2 214.5c-3.3 0-6 2.7-6 6s2.7 6 6 6H295c3.3 0 6-2.7 6-6s-2.7-6-6-6H77.2z"/><path class="st2" d="M289.2 129.8H87.6c-2.3 0-4.2-1.9-4.2-4.2v-14.3c0-2.3 1.9-4.2 4.2-4.2h201.6c2.3 0 4.2 1.9 4.2 4.2v14.3c0 2.3-1.9 4.2-4.2 4.2z"/><path class="st1" d="M282 135.2H94.7c-9.2 0-16.7-7.5-16.7-16.7s7.5-16.7 16.7-16.7H282c9.2 0 16.7 7.5 16.7 16.7s-7.4 16.7-16.7 16.7zM94.7 112.4c-3.3 0-6 2.7-6 6s2.7 6 6 6H282c3.3 0 6-2.7 6-6s-2.7-6-6-6H94.7z"/><g><path class="st2" d="M289.2 329.9H87.6c-2.3 0-4.2-1.9-4.2-4.2v-14.3c0-2.3 1.9-4.2 4.2-4.2h201.6c2.3 0 4.2 1.9 4.2 4.2v14.3c0 2.3-1.9 4.2-4.2 4.2z"/><path class="st1" d="M282 335.2H94.7c-9.2 0-16.7-7.5-16.7-16.7s7.5-16.7 16.7-16.7H282c9.2 0 16.7 7.5 16.7 16.7.1 9.2-7.4 16.7-16.7 16.7zM94.7 312.5c-3.3 0-6 2.7-6 6s2.7 6 6 6H282c3.3 0 6-2.7 6-6s-2.7-6-6-6H94.7z"/></g></svg>