<svg id="Layer_1" xmlns="http://www.w3.org/2000/svg" viewBox="0 0 512 512"><style>.st0{fill:#fff4ee}.st1{fill:#ff5454}.st2{fill:#fff}</style><path class="st0" d="M225 65.9L40.3 67.2c-18.6.1-33.6 15.3-33.5 34l1.3 187.5c.1 18.6 15.3 33.6 34 33.5l302.9-2.1c18.6-.1 33.6-15.3 33.5-34l-1.3-187.5c-.1-18.6-15.3-33.6-34-33.5l-118.2.8z"/><path class="st1" d="M41.5 327.9c-10.3-.1-20-4.1-27.3-11.4-7.5-7.4-11.7-17.3-11.8-27.8L1.1 101.2C.9 79.5 18.5 61.7 40.3 61.5l302.9-2.1c21.7-.2 39.6 17.4 39.8 39.2l1.3 187.5c.1 10.5-4 20.5-11.4 28s-17.3 11.7-27.8 11.8L42.2 328c-.3-.1-.5-.1-.7-.1zM225 71.7L40.4 73c-15.4.1-27.9 12.8-27.8 28.2l1.3 187.5c.1 7.5 3 14.5 8.3 19.7 5.3 5.2 12.3 8.1 19.9 8.1l302.9-2.1c7.5-.1 14.5-3 19.7-8.3s8.1-12.4 8.1-19.9l-1.3-187.5c-.1-7.5-3-14.5-8.3-19.7-5.3-5.2-12.3-8.1-19.9-8.1l-118.3.8z"/><path transform="rotate(-89.856 192.714 154.64)" class="st2" d="M163.6-30.2h58.3v369.7h-58.3z"/><path class="st1" d="M383.5 188.5L2.3 190.6l-.4-69.8 381.2-2.1.4 69.8zm-369.8-9.4l358.2-2-.3-46.8-358.2 2 .3 46.8zm75.1 69.3l-25.1-.2.1-11.5 23.4.2 2.3-.7.1-9.4 11.5.1-.2 17.9zm34.6 30.1l-11.5-.1.2-18 12.6-3.6 20.8.2-.1 11.5-19.2-.2-2.7.8zm-22.8-.3l-11.5-.1.1-10.2-25.7-.3.1-11.5 27.5.3c5.4.1 9.7 4.5 9.6 9.8l-.1 12zm45-29.2l-24.9-.2c-4.9 0-8.9-4.1-8.8-9l.1-12.8 11.5.1-.1 10.2 22.3.2-.1 11.5z"/><path class="st2" d="M364.2 353.5l-39.3 16.7c-.9 10.6-9.7 18.9-20.5 18.9-11.4 0-20.6-9.2-20.6-20.6 0-11.4 9.2-20.6 20.6-20.6 4.9 0 9.5 1.7 13 4.7l39.3-16.7 7.5 17.6z"/><path class="st1" d="M304.4 394.7c-14.5 0-26.4-11.8-26.4-26.4 0-14.5 11.8-26.3 26.4-26.3 4.9 0 9.6 1.4 13.7 3.9l41.6-17.6 12 28.3-41.6 17.6c-2.6 11.7-13.3 20.5-25.7 20.5zm0-41.2c-8.2 0-14.9 6.7-14.9 14.8 0 8.2 6.7 14.9 14.9 14.9 7.7 0 14.2-6 14.8-13.6l.3-3.5 37.2-15.8-3-7.1-37.2 15.8-2.7-2.2c-2.7-2.1-5.9-3.3-9.4-3.3z"/><path class="st2" d="M297.1 260.3c0-11.4 9.2-20.6 20.6-20.6 11.4 0 20.6 9.2 20.6 20.6 0 1.8-.2 3.5-.7 5.2l36 32.8-12.9 14.2-36-32.8c-2.2.8-4.6 1.2-7 1.2-11.4 0-20.6-9.2-20.6-20.6z"/><path class="st1" d="M361.1 320.5L323.2 286c-1.8.4-3.7.6-5.5.6-14.5 0-26.4-11.8-26.4-26.4 0-14.5 11.8-26.3 26.4-26.3 14.5 0 26.4 11.8 26.4 26.3 0 1-.1 2.1-.2 3.1l37.9 34.5-20.7 22.7zM326 273.1l34.3 31.2 5.2-5.7-34.3-31.2.9-3.4c.3-1.2.5-2.4.5-3.7 0-8.2-6.7-14.8-14.9-14.8s-14.9 6.7-14.9 14.8c0 8.2 6.7 14.9 14.9 14.9 1.7 0 3.4-.3 5.1-.9l3.2-1.2z"/><path class="st2" d="M397.5 426.3c0 11.4-9.2 20.6-20.6 20.6-11.4 0-20.6-9.2-20.6-20.6 0-9.2 6.1-17.1 14.4-19.7l7.6-41.8 18.9 3.4-7.6 41.8c4.8 3.9 7.9 9.7 7.9 16.3z"/><path class="st1" d="M376.9 452.6c-14.5 0-26.4-11.8-26.4-26.4 0-10.4 5.9-19.6 15.1-23.8l8.1-44.3 30.2 5.5-8.1 44.3c4.7 4.9 7.4 11.4 7.4 18.3 0 14.6-11.8 26.4-26.3 26.4zm6.1-81.1l-7.2 39.6-3.3 1c-6.2 1.9-10.4 7.6-10.4 14.2 0 8.2 6.7 14.9 14.9 14.9s14.8-6.7 14.8-14.9c0-4.6-2.1-8.9-5.7-11.7l-2.7-2.1 7.2-39.5-7.6-1.5z"/><path class="st2" d="M450.2 270.4L424 306.1l-15.5-11.4 26.2-35.7c-1.3-2.7-2.1-5.8-2.1-9 0-11.4 9.2-20.6 20.6-20.6 11.4 0 20.6 9.2 20.6 20.6 0 11.4-9.2 20.6-20.6 20.6-.9 0-2-.1-3-.2z"/><path class="st1" d="M425.3 314.1l-24.8-18.2 27.7-37.7c-.9-2.6-1.3-5.4-1.3-8.2 0-14.5 11.8-26.4 26.3-26.4s26.4 11.8 26.4 26.4c0 14.6-12 26.6-26.6 26.3l-27.7 37.8zm-8.7-20.7l6.2 4.6 24.8-33.8 3.4.5c.6.1 1.4.1 2.2.1 8.2 0 14.9-6.7 14.9-14.8 0-8.2-6.7-14.9-14.9-14.9s-14.8 6.7-14.8 14.9c0 2.2.5 4.5 1.5 6.5l1.5 3.1-24.8 33.8z"/><path class="st2" d="M505.2 347.8c0 11.4-9.2 20.6-20.6 20.6-9.3 0-17.2-6.2-19.8-14.7l-35.9-7 3.6-18.8 35.9 7c3.8-4.7 9.6-7.7 16-7.7 11.6 0 20.8 9.2 20.8 20.6z"/><path class="st1" d="M484.6 374.1c-10.5 0-19.8-6.1-24-15.4l-38.4-7.5 5.8-30.1 38.5 7.5c4.9-4.6 11.3-7.2 18.1-7.2 14.5 0 26.3 11.8 26.3 26.4 0 14.5-11.8 26.3-26.3 26.3zm-48.9-32l33.7 6.6 1 3.3c1.9 6.3 7.6 10.6 14.3 10.6 8.2 0 14.8-6.7 14.8-14.8 0-8.2-6.7-14.9-14.8-14.9-4.5 0-8.7 2-11.6 5.5l-2.2 2.7-33.7-6.6-1.5 7.6z"/><circle class="st0" cx="392" cy="330" r="39.8"/><path class="st1" d="M392 375.6c-25.1 0-45.5-20.4-45.5-45.5s20.4-45.5 45.5-45.5 45.5 20.4 45.5 45.5c.1 25-20.4 45.5-45.5 45.5zm0-79.6c-18.8 0-34.1 15.3-34.1 34.1s15.3 34.1 34.1 34.1 34.1-15.3 34.1-34.1c0-18.9-15.3-34.1-34.1-34.1z"/></svg>