<svg id="Layer_1" xmlns="http://www.w3.org/2000/svg" viewBox="0 0 512 512"><style>.st1{fill:#fff4ee}.st2{fill:#ff5454}.st3{fill:#fff}</style><path class="st1" d="M255.3 438.9H55.8c-14.6 0-26.5-11.9-26.5-26.5v-356c0-14.6 11.8-26.5 26.5-26.5h308.1c14.6 0 26.5 11.8 26.5 26.5v356c0 14.6-11.8 26.5-26.5 26.5H255.3"/><path class="st2" d="M363.9 445H55.8c-18 0-32.6-14.6-32.6-32.6v-356c0-18 14.6-32.6 32.6-32.6h308.1c18 0 32.6 14.6 32.6 32.6v356c0 18-14.6 32.6-32.6 32.6zM55.8 36.1c-11.2 0-20.3 9.1-20.3 20.4v356c0 11.2 9.1 20.4 20.3 20.4h308.1c11.2 0 20.3-9.1 20.3-20.4v-356c0-11.2-9.1-20.4-20.3-20.4H55.8z"/><path transform="rotate(-180 214.202 233.444)" class="st2" d="M208.8 124.8h10.9v217.4h-10.9z"/><path class="st3" d="M323.2 151.9H96.6c-2.4 0-4.3-1.9-4.3-4.3v-36.7c0-2.4 1.9-4.3 4.3-4.3h226.5c2.4 0 4.3 1.9 4.3 4.3v36.7c0 2.4-1.9 4.3-4.2 4.3z"/><path class="st2" d="M314.3 158.1H105.5c-10.6 0-19.3-8.6-19.3-19.3v-19c0-10.6 8.6-19.3 19.3-19.3h208.8c10.6 0 19.3 8.6 19.3 19.3v19c0 10.6-8.7 19.3-19.3 19.3zm-208.8-45.4c-3.9 0-7 3.2-7 7v19c0 3.9 3.2 7 7 7h208.8c3.9 0 7-3.2 7-7v-19c0-3.9-3.2-7-7-7H105.5z"/><path class="st3" d="M323.2 256H96.6c-2.4 0-4.3-1.9-4.3-4.3V215c0-2.4 1.9-4.3 4.3-4.3h226.5c2.4 0 4.3 1.9 4.3 4.3v36.7c0 2.4-1.9 4.3-4.2 4.3z"/><path class="st2" d="M314.3 262.2H105.5c-10.6 0-19.3-8.6-19.3-19.3v-19c0-10.6 8.6-19.3 19.3-19.3h208.8c10.6 0 19.3 8.6 19.3 19.3v19c0 10.6-8.7 19.3-19.3 19.3zm-208.8-45.4c-3.9 0-7 3.2-7 7v19c0 3.9 3.2 7 7 7h208.8c3.9 0 7-3.2 7-7v-19c0-3.9-3.2-7-7-7H105.5z"/><path class="st3" d="M323.2 363.9H96.6c-2.4 0-4.3-1.9-4.3-4.3v-36.7c0-2.4 1.9-4.3 4.3-4.3h226.5c2.4 0 4.3 1.9 4.3 4.3v36.7c0 2.3-1.9 4.3-4.2 4.3z"/><path class="st2" d="M314.3 370H105.5c-10.6 0-19.3-8.6-19.3-19.3v-19c0-10.6 8.6-19.3 19.3-19.3h208.8c10.6 0 19.3 8.6 19.3 19.3v19c0 10.6-8.7 19.3-19.3 19.3zm-208.8-45.3c-3.9 0-7 3.2-7 7v19c0 3.9 3.2 7 7 7h208.8c3.9 0 7-3.2 7-7v-19c0-3.9-3.2-7-7-7H105.5z"/><path class="st3" d="M376.5 420.6c-.6-12.6 9.2-43.1-18.5-70.8-8.4-8.4-13.5-19.9-13.5-32.7 0-25.5 20.7-46.2 46.2-46.2 25.5 0 46.2 20.7 46.2 46.2 0 12.7-5.1 24.2-13.5 32.6l.1.1c-27.8 27.8-18 58.4-18.5 70.9"/><path class="st2" d="M411.6 420.9l-13.4-.6c.1-1.9-.2-4.8-.5-8-1.3-14.9-3.5-39.1 16.4-62.4l-.2-.2 4.7-4.8c7.4-7.4 11.5-17.3 11.5-27.8 0-21.8-17.7-39.5-39.5-39.5s-39.5 17.7-39.5 39.5c0 10.5 4.1 20.4 11.6 27.9 24.6 24.6 22.3 51.3 20.9 67.2-.3 3.3-.5 6.1-.4 8.1l-13.4.6c-.1-2.8.2-6.1.5-9.9 1.3-14.4 3.2-36.3-17.1-56.5-10-10-15.5-23.3-15.5-37.4 0-29.2 23.7-52.9 52.9-52.9s52.9 23.7 52.9 52.9c0 11.8-3.9 23.1-11 32.3l.3.3-4.7 4.8c-20.3 20.3-18.3 42.2-17.1 56.6.4 3.8.7 7 .6 9.8z"/><path fill="#f2e2d7" d="M298.9 476.4H482v11.8H298.9z"/><path class="st1" d="M477.3 469.4H303.7c-2.6 0-4.7-2.1-4.7-4.7v-26.2h183v26.2c0 2.6-2.1 4.7-4.7 4.7z"/><path class="st2" d="M466 476.2H314.9c-12.5 0-22.7-10.2-22.7-22.7v-21.7h196.5v21.7c.1 12.5-10.1 22.7-22.7 22.7zm-160.3-31v8.2c0 5.1 4.1 9.2 9.2 9.2H466c5.1 0 9.2-4.1 9.2-9.2v-8.2H305.7z"/><path class="st1" d="M365 410.9h51v27.9h-51z"/><path class="st2" d="M422.7 445.6h-64.4v-41.4h64.4v41.4zm-51-13.5h37.5v-14.4h-37.5v14.4z"/></svg>