<svg id="Layer_1" xmlns="http://www.w3.org/2000/svg" viewBox="0 0 512 512"><style>.st0{fill:#fff4ee}.st1{fill:#ff5454}.st2{fill:#fff}</style><path class="st0" d="M419.8 67.1c0 163.9-53.3 267.7-119.8 335.8-9.2 9.4-18.6 18.2-28.1 26.3-18.8 16-38.2 29.5-57.3 41.2C98.2 409.3 9.4 336.3 9.4 67.1c0 0 136.1 30.1 205.2-51.9 66.1 78.5 205.2 51.9 205.2 51.9z"/><path class="st1" d="M214.9 477.8l-3.3-1.7C97.5 416.2 3 344 3 67.1V59l7.9 1.7c.3.1 33.9 7.3 75.2 4.7C123.7 63 175.6 51.6 209.7 11l5-5.9 5 5.9c62.9 74.7 197.6 49.9 199 49.7l7.7-1.5V67c0 143.1-40.9 257.6-121.6 340.3-9.1 9.4-18.8 18.4-28.6 26.7-17.6 14.9-37.1 29-58.1 41.8l-3.2 2zM15.9 74.9c1.7 260.6 90.6 330.9 198.4 388 19.4-12.1 36.9-24.7 53.3-38.7 9.5-8 18.8-16.7 27.7-25.9 76.8-78.8 116.5-187.6 117.9-323.6-30 4.3-138.1 14.7-198.6-49.7C185.1 56.5 141 74.9 86.5 78.4c-31.3 2-57.9-1.4-70.6-3.5z"/><path class="st0" d="M156.9 237.7l34.2 37.5 91.2-77.5"/><path class="st1" d="M190.5 284.2l-38.4-42.1 9.6-8.7 29.9 32.8 86.5-73.4 8.4 9.9z"/><path class="st0" d="M422 374.1l-56.5 50.2-30.5-35 54.4-48.3z"/><path class="st1" d="M364.9 433.5l-39-44.8 63.7-56.7 41.7 42.4-66.4 59.1zm-20.8-43.7l22 25.2 46.5-41.3-23.5-23.9-45 40z"/><path class="st2" d="M348.1 486c-18.1 15.7-43.2 18.4-63.6 8.6l36.5-31.8c4.9-4.2 7.5-10 7.9-15.9.4-5.9-1.4-12-5.6-16.8-5.3-6.1-13.2-8.8-20.7-7.8-4.3.6-8.5 2.4-12.1 5.5L254 459.5c-6.8-21.5-.8-46 17.4-61.7 17.1-14.9 40.5-18 60.2-10 1.1.4 2.2.9 3.3 1.4l30.5 35c6.9 21.6.9 46.1-17.3 61.8z"/><path class="st1" d="M309.8 506.8c-9.5 0-19.1-2.1-28-6.3l-8.9-4.3 44-38.2c3.4-2.9 5.4-7 5.7-11.4.3-4.5-1.1-8.8-4-12.1-3.7-4.3-9.3-6.4-14.9-5.6-3.2.4-6.2 1.8-8.7 4L250.9 471l-3-9.4c-7.8-24.7-.3-51.6 19.3-68.6 18.5-16.1 44.2-20.4 66.9-11.1 1.1.4 2.4 1 3.7 1.6l1.2.6 32.2 37 .4 1.3c7.9 24.7.3 51.6-19.3 68.6-12 10.4-27.2 15.8-42.5 15.8zm-12.7-14.5c16.3 4.1 33.8.1 46.8-11.2 15.3-13.3 21.5-34.3 15.8-53.6l-28.6-32.9c-.5-.2-1-.4-1.6-.6-18.4-7.5-38.9-4.1-53.7 8.8-13 11.3-19.4 28.1-17.6 44.7l28.2-24.5c4.4-3.8 9.7-6.2 15.4-7 10-1.4 19.9 2.4 26.5 9.9 5.2 5.9 7.8 13.5 7.2 21.5-.5 7.9-4.1 15.2-10.2 20.4l-28.2 24.5z"/><path class="st2" d="M482.5 369.2c-18.1 15.8-43.3 18.4-63.6 8.6l-30.5-35.1c-6.8-21.5-.8-46 17.3-61.7 18.1-15.7 43.2-18.4 63.6-8.6l-36.5 31.8c-4.8 4.2-7.5 10-7.9 15.9-.4 5.9 1.5 12 5.6 16.8 8.4 9.7 23.1 10.7 32.7 2.3l36.5-31.7c6.9 21.5.9 46-17.2 61.7z"/><path class="st1" d="M444.1 390c-9.5 0-19.1-2.1-28-6.4l-1.2-.6-32.2-37-.4-1.3c-7.8-24.6-.3-51.5 19.3-68.6 19.6-17 47.3-20.7 70.7-9.6l8.9 4.3-44 38.2c-3.4 2.9-5.4 7-5.7 11.5-.3 4.4 1.1 8.7 4.1 12.1 2.9 3.4 7 5.4 11.5 5.7 4.5.3 8.8-1.1 12.1-4.1l44-38.2 3 9.4c7.8 24.7.2 51.6-19.3 68.6-12.2 10.6-27.4 16-42.8 16zm-21.2-17.5c18.4 8.3 40 5.1 55.3-8.2 13-11.3 19.4-28.1 17.6-44.8L467.5 344c-5.9 5.2-13.6 7.8-21.5 7.2-7.9-.5-15.2-4.1-20.4-10.1-5.2-6-7.8-13.6-7.2-21.5.5-7.9 4.1-15.1 10.1-20.3l28.3-24.5c-16.3-4.1-33.8-.1-46.8 11.2-15.3 13.3-21.4 34.3-15.8 53.6l28.7 32.9z"/></svg>