<svg id="Layer_1" xmlns="http://www.w3.org/2000/svg" viewBox="0 0 512 512"><style>.st3{fill:#ff5454}.st4{fill:#fff}</style><path d="M384.8 235.8l.1-.1-3.7 54.2h-.1l3.7-54.1z" fill="#ff6c6c"/><path d="M381.2 289.9L370.1 451m15.4-224.8l-.6 9.4" fill="none"/><path d="M8.7 449.2V96.4c0-26.5 21.5-48 48-48h248.1c26.5 0 48 21.5 48 48v352.8L310.7 407l-.9-.9-.9.9-42.1 42.1-42.1-42.1-.9-.9-.9.9-42.1 42.1-42.1-42.1-.9-.9-43 43L52.7 407l-.9-.9-.9.9-42.2 42.2z" fill="#fff4ee"/><path class="st3" d="M359.4 465.2l-49.7-49.7-43 43-43-43-43 43-43-43-43 43-43-43L2 465.2V96.4c0-30.1 24.5-54.7 54.7-54.7h248.1c30.1 0 54.7 24.5 54.7 54.7v368.9h-.1zm-221.7-68.6l43 43 43-43 43 43 43-43L346 433V96.4c0-22.8-18.5-41.3-41.3-41.3h-248c-22.8 0-41.3 18.5-41.3 41.3v336.7l36.3-36.3 43 43 43-43.2z"/><path class="st4" d="M297.4 244.3H66.9c-2.3 0-4.2-1.9-4.2-4.2v-14.2c0-2.3 1.9-4.2 4.2-4.2h230.5c2.3 0 4.2 1.9 4.2 4.2V240c.1 2.4-1.8 4.4-4.2 4.3z"/><path class="st3" d="M290.4 221.8c6.2 0 11.3 5.1 11.3 11.3s-5.1 11.3-11.3 11.3H74c-6.2 0-11.3-5.1-11.3-11.3s5.1-11.3 11.3-11.3h216.4m0-13.4H74c-13.6 0-24.7 11.1-24.7 24.7s11.1 24.7 24.7 24.7h216.4c13.6 0 24.7-11.1 24.7-24.7-.1-13.6-11.1-24.7-24.7-24.7z"/><path class="st4" d="M221.7 142.8h-79c-2.3 0-4.2-1.9-4.2-4.2v-14.1c0-2.3 1.9-4.2 4.2-4.2h79c2.3 0 4.2 1.9 4.2 4.2v14.1c0 2.3-1.9 4.2-4.2 4.2z"/><path class="st3" d="M214.6 120.3c6.2 0 11.3 5.1 11.3 11.3s-5.1 11.3-11.3 11.3h-64.9c-6.2 0-11.3-5.1-11.3-11.3 0-6.2 5.1-11.3 11.3-11.3h64.9m0-13.3h-64.9c-13.6 0-24.7 11.1-24.7 24.7s11.1 24.7 24.7 24.7h64.9c13.6 0 24.7-11.1 24.7-24.7 0-13.7-11.1-24.7-24.7-24.7z"/><path class="st4" d="M221.7 341.7h-79c-2.3 0-4.2-1.9-4.2-4.2v-14.1c0-2.3 1.9-4.2 4.2-4.2h79c2.3 0 4.2 1.9 4.2 4.2v14.1c0 2.3-1.9 4.2-4.2 4.2z"/><path class="st3" d="M214.6 319.1c6.2 0 11.3 5.1 11.3 11.3s-5.1 11.3-11.3 11.3h-64.9c-6.2 0-11.3-5.1-11.3-11.3s5.1-11.3 11.3-11.3h64.9m0-13.4h-64.9c-13.6 0-24.7 11.1-24.7 24.7s11.1 24.7 24.7 24.7h64.9c13.6 0 24.7-11.1 24.7-24.7s-11.1-24.7-24.7-24.7z"/><path class="st4" d="M508.2 270c-36.1 10-75.2 92-150.4 65.8l5.8-84.1c12.7 23.7 98.5 22.9 144.6 18.3z"/><path class="st3" d="M386.9 347.7c-9.8 0-20.2-1.7-31.4-5.6l-4.8-1.7 7.7-112.2 11 20.3c8.9 16.5 78.6 20.9 138.1 14.8l2.5 13.1c-10.3 2.9-22.4 13.8-35.1 25.4-23 20.8-50.5 45.8-88 45.9zM364.8 331c44.1 12.8 74.3-14.8 101.1-39.1 5.2-4.7 10.2-9.2 15-13.2-18.2.9-38.9 1-58-.5-24.8-1.9-42.5-5.9-53.6-12.3l-4.5 65.1z"/><path class="st4" d="M368.8 241.1l-3.8 54.1h.1l-11 161.2-23.5-1 17-225.4 21.9 1.6-.7 9.5z"/><path class="st3" d="M347.6 230.1l21.9 1.6-.7 9.4-3.8 54.1h.1l-11 161.2-23.5-1 17-225.3m-12.3-14.3l-1 13.3-17 225.4-1 13.8 13.8.6 23.5 1 13 .5.9-13 11-161.2.6-9-.1-.1 3.2-45.1.7-9.4.9-13.3-13.3-1-21.9-1.6-13.3-.9z"/></svg>