<svg xmlns="http://www.w3.org/2000/svg" viewBox="0 0 330.03 313.03"><defs><style>.cls-1{fill:#e5edf9}.cls-2{fill:#7d86f9}.cls-3{fill:#fff}.cls-5{fill:none;stroke:#7971ea;stroke-linecap:round;stroke-linejoin:round}.cls-7{fill:#26bc62}</style></defs><g id="Layer_2" data-name="Layer 2"><g id="Layer_1-2" data-name="Layer 1"><circle class="cls-1" cx="251.3" cy="204.6" r="78.73"/><circle class="cls-1" cx="127.94" cy="127.94" r="127.94"/><rect class="cls-2" x="20.54" y="53.06" width="257.97" height="164.52" rx="7.42" ry="7.42"/><path class="cls-3" d="M30.19 62.09h239.22v146.1H30.19z"/><rect x="154.97" y="110.49" width="72.36" height="49.3" rx="2.67" ry="2.67" stroke="#7d86f9" stroke-miterlimit="10" stroke-dasharray="7" fill="none"/><path class="cls-5" d="M191.15 125.36v19.55M200.93 135.14h-19.56"/><path d="M185.85 142.52c-4.36 30.32-17.94 58.72-23.57 88.75v.1q-.84 4.51-1.43 9.09c-.57 4.52-1 9.17-2.81 13.32a3.31 3.31 0 0 0-.15.33 26.43 26.43 0 0 1-4.1 6c-.05.07-.11.13-.17.2-1.08 1.22-2.23 2.37-3.38 3.51-4.1 4-8.32 8.12-12.85 11.77a66.83 66.83 0 0 1-13.39 8.68 73.07 73.07 0 0 0-7.35 4 54.84 54.84 0 0 0-17.35 16.85c-2.32 3.62-5.09 8-9.4 7.9-2.09-.06-4-1.26-5.71-2.43l-26-17.33a15.86 15.86 0 0 1-4.77-4.26c-2.75-4.23-.85-10 2.29-14s7.41-7 10.16-11.22c7.83-12 1-28.26 4.52-42.15 1.84-7.26 6.43-13.45 10.94-19.44 1.85-2.5 4-5.16 7.06-5.76 2.6-.51 5.49.61 7.87-.57s3.59-4.28 6.2-4.61c2.93-.36 5.41 3.25 8.3 2.58 2.41-.57 3.34-3.74 5.66-4.64 3.32-1.29 6.42 2.87 10 2.93 4.59.09 8.74-6.45 12.52-3.84 1.08.76 1.62 2.09 2.64 2.93 1.67 1.39 4.29 1.08 6.1-.14a15.44 15.44 0 0 0 4.15-5c9.11-15 18-32.74 27.11-47.67a2.86 2.86 0 0 1 3-1.32 4.74 4.74 0 0 1 3.91 5.44z" fill="#ffb64d"/><rect class="cls-2" x="79.4" y="94.89" width="48.21" height="78.95" rx="3.69" ry="3.69" transform="rotate(-89.9 103.498 134.367)"/><path class="cls-3" transform="rotate(-89.9 103.513 123.383)" d="M99.9 83.91h7.25v78.95H99.9z"/><rect class="cls-3" x="81.62" y="129.34" width="3.65" height="25.86" rx=".89" ry=".89" transform="rotate(-89.9 83.432 142.267)"/><rect class="cls-3" x="75.95" y="141.84" width="3.65" height="14.54" rx=".89" ry=".89" transform="rotate(-89.9 77.763 149.107)"/><circle class="cls-7" cx="122.89" cy="147.29" r="5.65"/><circle class="cls-7" cx="129.83" cy="147.3" r="5.65"/></g></g></svg>