<svg xmlns="http://www.w3.org/2000/svg" viewBox="0 0 342.38 289.95"><defs><style>.cls-1{fill:#e5edf9}.cls-3{fill:#fff}.cls-4{fill:#26bc62}</style></defs><g id="Layer_2" data-name="Layer 2"><g id="Layer_1-2" data-name="Layer 1"><circle class="cls-1" cx="222.64" cy="119.74" r="119.74"/><circle class="cls-1" cx="127.13" cy="227.62" r="62.33"/><rect x="21.9" y="50.94" width="268.42" height="163.93" rx="15.93" ry="15.93" transform="rotate(-7.89 156.058 132.856)" fill="#8b78ff"/><path class="cls-3" transform="rotate(-7.89 150.887 95.857)" d="M16.77 83.58h268.42v24.66H16.77z"/><rect class="cls-3" x="48.33" y="162.78" width="87.93" height="12.42" rx="5.54" ry="5.54" transform="rotate(-7.89 92.235 168.885)"/><rect class="cls-3" x="51.7" y="188.5" width="49.45" height="12.42" rx="5.54" ry="5.54" transform="rotate(-7.89 76.402 194.601)"/><circle class="cls-4" cx="227.49" cy="167.24" r="19.22"/><circle class="cls-4" cx="250.86" cy="164.01" r="19.22"/><path d="M70.93 196.83c-12 0-22.2 9.83-22.28 21.42a22.06 22.06 0 0 0 21.92 22.17c11.75.08 21.51-9.69 21.66-21.7.14-11.55-9.97-21.94-21.3-21.89z" fill="#ededed"/><path d="M126 211.83c-.37-4.72-3.1-8-7.74-9.54-1.53-.51-3-1.17-4.54-1.76a5.49 5.49 0 0 1-3.12-7.53c.67-1.59 1.32-3.2 2-4.84a12 12 0 0 0-.72-10.65 26.35 26.35 0 0 0-3.93-4.71c-6.62-6.68-10.42-8.47-19.19-3.74l-.46.23c-4.37 2-7.19.81-8.87-3.62-.52-1.35-1-2.71-1.55-4.06a10.67 10.67 0 0 0-9.38-7.27 57.43 57.43 0 0 0-6.14-.45c-8.5-.07-11.64 2.11-14.66 10-.27.72-.52 1.45-.8 2.16-1.53 3.95-4.5 5.13-8.4 3.35-1.78-.81-3.54-1.71-5.38-2.38a10.15 10.15 0 0 0-9.53 1.27 34.29 34.29 0 0 0-3.77 3.06c-8.17 7.24-8.94 10.92-4.44 20.83 2 4.34.89 7-3.49 8.67-1.52.57-3.05 1.11-4.54 1.74A10.8 10.8 0 0 0 .5 211.5a52 52 0 0 0-.5 7.11c0 7.79 2.4 11.11 9.71 13.81.72.27 1.45.52 2.17.8 4.34 1.68 5.45 4.43 3.52 8.7-.7 1.56-1.48 3.09-2.06 4.69-1.33 3.58-1.24 7.18 1.16 10.22a59.56 59.56 0 0 0 7.17 7.64c3.92 3.49 8.43 4.28 13.31 1.92 1.15-.55 2.34-1 3.51-1.55 4.19-1.85 6.87-.74 8.5 3.52.65 1.68 1.25 3.37 1.95 5a10.49 10.49 0 0 0 8.17 6.32 38.27 38.27 0 0 0 5.86.58c9.5.33 12.59-1.75 16-10.63a16.08 16.08 0 0 0 .82-2.15 3.5 3.5 0 0 1 3-3 11 11 0 0 1 4.32.08c3.17.91 6.18 2.65 9.39 3.11 4.83.67 8-2.83 11.21-5.8 7.79-7.35 7.2-11.82 3.85-18.66-.22-.45-.43-.92-.64-1.4-1.85-4.1-.7-6.92 3.46-8.5 1.59-.6 3.2-1.17 4.79-1.8 3.51-1.41 6-4 6.41-7.69a59.39 59.39 0 0 0 .42-11.99z" fill="#ffb64d"/><path class="cls-3" d="M63.7 195.2c-12 .06-22.2 9.84-22.28 21.43a22.06 22.06 0 0 0 21.92 22.16c11.75.09 21.51-9.69 21.66-21.69.14-11.55-10-21.95-21.3-21.9z"/></g></g></svg>