<svg xmlns="http://www.w3.org/2000/svg" viewBox="0 0 338.83 320.61"><g data-name="Layer 2"><g data-name="Layer 1"><path d="M268.35 53.18c-16-16.13-25.19-20.47-46.38-9-.37.2-.74.37-1.11.55-10.55 4.74-17.37 2-21.44-8.74-1.24-3.27-2.48-6.55-3.75-9.82-4-10.45-11.58-16.33-22.65-17.57a137.1 137.1 0 0 0-14.84-1.1c-20.54-.17-28.13 5.09-35.43 24.17-.64 1.74-1.26 3.5-1.93 5.21-3.7 9.55-10.87 12.41-20.3 8.09-4.32-2-8.56-4.12-13-5.76-8.14-3-15.93-1.63-23 3.08a84.75 84.75 0 0 0-9.13 7.39C35.64 67.18 33.78 76.08 44.64 100c4.77 10.52 2.16 17-8.43 21-3.67 1.39-7.37 2.68-11 4.22-9.5 4.06-15.16 11.31-16.55 21.53A126.56 126.56 0 0 0 7.5 164c0 18.83 5.81 26.84 23.47 33.37 1.74.64 3.5 1.26 5.24 1.93 10.49 4.07 13.17 10.7 8.51 21-1.69 3.77-3.57 7.47-5 11.34-3.2 8.66-3 17.34 2.81 24.71a145.5 145.5 0 0 0 17.34 18.46c9.45 8.44 20.37 10.35 32.15 4.64 2.78-1.34 5.66-2.48 8.49-3.75 10.12-4.46 16.6-1.78 20.54 8.51 1.57 4.05 3 8.14 4.72 12.11 3.74 8.71 10.69 13.52 19.72 15.26a94.49 94.49 0 0 0 14.18 1.42c23 .79 30.42-4.25 38.68-25.71a34.61 34.61 0 0 0 2-5.19c.87-4.14 3.42-6.72 7.37-7.27 3.42-.47 7.19-.74 10.44.18 7.67 2.21 14.94 6.42 22.7 7.52 11.67 1.63 19.46-6.83 27.1-14 18.81-17.74 17.39-28.56 9.3-45.08-.54-1.1-1-2.24-1.56-3.38-4.47-9.92-1.69-16.72 8.36-20.54 3.85-1.47 7.74-2.83 11.59-4.37 8.48-3.4 14.37-9.58 15.48-18.58a143.19 143.19 0 0 0 1-29c-.89-11.41-7.49-19.35-18.71-23.07-3.7-1.22-7.32-2.81-11-4.25-7.61-3-10.71-10.74-7.54-18.18a695.7 695.7 0 0 0 4.79-11.7 29 29 0 0 0-1.73-25.74l-.08-.13a65.22 65.22 0 0 0-9.5-11.39" stroke="#7d86f9" stroke-linecap="round" stroke-linejoin="round" stroke-width="15" fill="#fff"/><path d="M161.44 107.46c-29.08.12-53.65 23.75-53.84 51.76a53.32 53.32 0 0 0 53 53.57c28.4.21 52-23.42 52.35-52.43.3-27.91-24.14-53.03-51.51-52.9z" fill="none" stroke="#7d86f9" stroke-linecap="round" stroke-linejoin="round" stroke-width="15"/><path d="M169.88 192.51h-.6a14.54 14.54 0 0 1-10.28-4.95l-26-29.76a14.5 14.5 0 0 1 21.83-19.09l16 18.28L307.25 24.91a14.5 14.5 0 0 1 20.16 20.84L180 188.43a14.51 14.51 0 0 1-10.12 4.08z" fill="#ffad35" stroke="#fff" stroke-miterlimit="10" stroke-width="14"/></g></g></svg>