<svg xmlns="http://www.w3.org/2000/svg" viewBox="0 0 211.61 312.81"><defs><style>.cls-1{fill:#fff;stroke:#7d86f9;stroke-linecap:round;stroke-linejoin:round;stroke-width:15px}</style></defs><g id="Layer_2" data-name="Layer 2"><g id="Layer_1-2" data-name="Layer 1"><path class="cls-1" d="M89 124.18l-50.33 47.9c-8.56 8.15-17.15 16.34-24.37 25.69-4.1 5.32-6.28 9.75-6.71 16.45-.55 8.5 4.6 16.69 11.66 21.45s15.75 6.51 24.24 6.83c9.49.36 20.61-.29 26.64 7.05 6.33 7.7 2.83 19.35-2.19 28a103 103 0 0 1-23.76 27.8"/><path class="cls-1" d="M83 7.5a91.27 91.27 0 1 0 121.11 136.59zM170.64 104.36l28.69-25.43M118.45 45.5l28.69-25.44"/><circle cx="112.02" cy="105.86" r="23.14" fill="#ffad35" stroke="#fff" stroke-miterlimit="10" stroke-width="14"/></g></g></svg>