<svg xmlns="http://www.w3.org/2000/svg" viewBox="0 0 359.8 268.21"><defs><style>.cls-1{fill:#dce8f7}.cls-3{fill:#fff}.cls-4{fill:#ffb64d}</style></defs><g id="Layer_2" data-name="Layer 2"><g id="Layer_1-2" data-name="Layer 1"><circle class="cls-1" cx="119.74" cy="119.74" r="119.74"/><circle class="cls-1" cx="262.43" cy="198.46" r="69.75"/><rect x="74.39" y="75" width="221.44" height="143.68" rx="8.17" ry="8.17" transform="rotate(.13 180.862 140.83)" fill="#8b78ff"/><path class="cls-3" transform="rotate(-89.87 185.31 114.1)" d="M174.49 3.26h21.62v221.68h-21.62z"/><rect class="cls-3" x="93.69" y="164.93" width="77.06" height="10.89" rx="3.6" ry="3.6" transform="rotate(.13 128.004 167.335)"/><rect class="cls-3" x="93.65" y="185.31" width="43.34" height="10.89" rx="3.6" ry="3.6" transform="rotate(.13 110.394 184.984)"/><circle class="cls-3" cx="249.77" cy="185.37" r="16.84"/><circle class="cls-3" cx="270.45" cy="185.41" r="16.84"/><rect class="cls-4" x="118.95" y="39.35" width="221.44" height="143.68" rx="8.17" ry="8.17" transform="rotate(.13 224.9 109.93)"/><path class="cls-3" transform="rotate(-89.87 229.875 78.454)" d="M219.05-32.38h21.62V189.3h-21.62z"/><rect class="cls-3" x="138.25" y="129.28" width="77.06" height="10.89" rx="3.6" ry="3.6" transform="rotate(.13 172.037 132.026)"/><rect class="cls-3" x="138.21" y="149.66" width="43.34" height="10.89" rx="3.6" ry="3.6" transform="rotate(.13 154.428 149.675)"/><circle class="cls-3" cx="294.33" cy="149.72" r="16.84"/><circle class="cls-3" cx="315.01" cy="149.77" r="16.84"/><circle class="cls-4" cx="85.22" cy="208.5" r="43.54"/><circle cx="316.26" cy="68.6" r="43.54" fill="#7d86f9"/><circle class="cls-3" cx="85.22" cy="197.31" r="9.88"/><path class="cls-3" d="M67.53 229.57a2.38 2.38 0 0 1-2.36-2.67 20.23 20.23 0 0 1 40.1 0 2.37 2.37 0 0 1-2.35 2.67z"/><circle class="cls-3" cx="316.26" cy="56.74" r="10.47"/><path class="cls-3" d="M297.51 90.92a2.52 2.52 0 0 1-2.5-2.83 21.44 21.44 0 0 1 42.5 0 2.52 2.52 0 0 1-2.5 2.83z"/></g></g></svg>