<svg xmlns="http://www.w3.org/2000/svg" viewBox="0 0 362.13 377.72"><defs><style>.cls-1,.cls-2{fill:#fff;stroke-linecap:round;stroke-linejoin:round}.cls-1{stroke:#7d86f9;stroke-width:12px}.cls-2{stroke:#ffad35;stroke-width:8px}</style></defs><g id="Layer_2" data-name="Layer 2"><g id="Layer_1-2" data-name="Layer 1"><path class="cls-1" d="M64.78 283a94.35 94.35 0 1 1 125.6-115.72"/><path class="cls-2" d="M66.1 154.34l35.96 42.28 35.96-42.28M102.06 196.62v35.45M78.62 198.51h54.54M78.62 217.59h40.8"/><path class="cls-1" d="M153.92 87.56a102.14 102.14 0 1 1 139.8 114.7"/><circle class="cls-1" cx="190.74" cy="278.19" r="93.53"/><path class="cls-2" d="M283.14 139.43A39.17 39.17 0 1 1 285 77.52M210.49 100.42h54.48M210.49 119.03l54.48-.56M170.27 314.16a25.61 25.61 0 0 0 36.59 14.37 24.9 24.9 0 0 0 12.75-21.26c.17-5.32-1.26-8.64-3-10.78-9.24-11.78-34.84-.55-43.81-12.44a15.3 15.3 0 0 1-2.81-9.18 24.92 24.92 0 0 1 10.79-21.12 23.94 23.94 0 0 1 14-4.14 24.36 24.36 0 0 1 22.74 17.84M194.83 230.12v121.05"/></g></g></svg>