<svg xmlns="http://www.w3.org/2000/svg" viewBox="0 0 339.75 268.21"><defs><style>.cls-1{fill:#e5edf9}.cls-3{fill:#fff}.cls-4{fill:#26bc62;opacity:.31}</style></defs><g id="Layer_2" data-name="Layer 2"><g id="Layer_1-2" data-name="Layer 1"><circle class="cls-1" cx="119.74" cy="119.74" r="119.74"/><circle class="cls-1" cx="262.43" cy="198.46" r="69.75"/><rect x="81.78" y="54.7" width="257.97" height="164.52" rx="7.42" ry="7.42" fill="#7d86f9"/><path class="cls-3" d="M91.43 63.73h239.22v146.1H91.43z"/><rect class="cls-4" x="104.78" y="89.48" width="131.12" height="10.2" rx="5.1" ry="5.1"/><rect class="cls-4" x="104.78" y="109.63" width="81.44" height="10.2" rx="5.1" ry="5.1"/><rect class="cls-4" x="104.78" y="132.15" width="131.12" height="10.2" rx="5.1" ry="5.1"/><rect class="cls-4" x="104.78" y="152.31" width="81.44" height="10.2" rx="5.1" ry="5.1"/><rect class="cls-4" x="255.98" y="90.67" width="62.07" height="10.2" rx="5.1" ry="5.1"/><rect class="cls-4" x="255.98" y="110.82" width="38.55" height="10.2" rx="5.1" ry="5.1"/><rect class="cls-4" x="255.98" y="133.34" width="62.07" height="10.2" rx="5.1" ry="5.1"/><rect class="cls-4" x="255.98" y="153.5" width="38.55" height="10.2" rx="5.1" ry="5.1"/><rect x="41.7" y="157.64" width="146.36" height="94.96" rx="8.17" ry="8.17" transform="rotate(-7.89 114.801 205.044)" fill="#ffb64d"/><path class="cls-3" transform="rotate(-7.89 112.278 183.526)" d="M38.72 176.48h147.26v14.29H38.72z"/><rect class="cls-3" x="56.96" y="221.8" width="50.93" height="7.2" rx="3.6" ry="3.6" transform="rotate(-7.89 82.37 225.318)"/><rect class="cls-3" x="58.92" y="236.69" width="28.65" height="7.2" rx="3.6" ry="3.6" transform="rotate(-8.1 71.168 235.655)"/><circle class="cls-3" cx="160.75" cy="224.38" r="11.13"/><circle class="cls-3" cx="174.28" cy="222.51" r="11.13"/><path fill="none" stroke="#dff4e8" stroke-linecap="round" stroke-linejoin="round" stroke-width="2" d="M247.21 69.99v129.77"/></g></g></svg>